<svg width="491" height="412" viewBox="0 0 491 412" fill="none" xmlns="http://www.w3.org/2000/svg">
<g opacity="0.4">
<path d="M478.372 317.066C468.933 338.415 455.842 355.331 440.19 368.601C422.113 383.928 400.614 394.39 377.366 401.194C301.725 423.339 207.569 406.763 152.509 393.012C141.343 390.222 131.787 387.549 124.318 385.339C111.71 381.607 99.7623 375.91 88.9927 368.364C88.9364 368.324 88.8801 368.284 88.8237 368.246C15.0328 316.46 -16.3065 242.447 8.22785 172.345C8.60812 171.251 80.9484 -51.3772 252.48 22.147C327.783 54.4258 300.084 81.8524 383.553 116.16C422.575 132.201 474.215 160.809 488.381 228.297C493.435 252.382 491.733 286.85 478.374 317.066H478.372Z" fill="#E2FFF0"/>
</g>
<g opacity="0.3">
<path d="M282.343 174.79C286.129 177.35 290.246 179.226 294.528 180.405L296.098 191.293L303.612 191.585L311.126 191.876L313.537 181.143C317.896 180.3 322.147 178.747 326.121 176.49L334.928 183.078L340.447 177.97L345.965 172.862L340.083 163.566C342.641 159.778 344.517 155.658 345.695 151.375L356.577 149.803L356.869 142.286L357.16 134.768L346.432 132.356C345.59 127.995 344.04 123.741 341.782 119.768L348.369 110.956L343.263 105.434L338.158 99.9128L328.867 105.798C325.081 103.238 320.964 101.362 316.682 100.183L315.112 89.295L307.598 89.0037L300.084 88.7125L297.673 99.4455C293.314 100.289 289.063 101.839 285.092 104.098L276.284 97.5103L270.766 102.618L265.247 107.727L271.13 117.022C268.571 120.81 266.695 124.93 265.517 129.214L254.635 130.785L254.344 138.303L254.053 145.82L264.78 148.232C265.623 152.594 267.174 156.847 269.43 160.823L262.846 169.635L267.951 175.156L273.057 180.678L282.348 174.792L282.343 174.79ZM286.446 119.58C297.88 108.995 315.727 109.688 326.306 121.127C336.886 132.567 336.193 150.424 324.759 161.009C313.325 171.594 295.479 170.901 284.899 159.461C274.32 148.021 275.012 130.165 286.446 119.58Z" fill="#32454C"/>
</g>
<g opacity="0.5">
<path d="M222.679 265.759C218.917 263.66 214.898 262.23 210.783 261.469L208.431 251.367L201.351 251.699L194.272 252.03L192.873 262.307C188.847 263.451 184.979 265.25 181.43 267.692L172.627 262.213L167.855 267.457L163.083 272.702L169.357 280.959C167.259 284.724 165.829 288.745 165.069 292.862L154.973 295.215L155.304 302.298L155.635 309.382L165.907 310.782C167.05 314.809 168.848 318.68 171.289 322.231L165.813 331.038L171.054 335.813L176.296 340.587L184.549 334.309C188.312 336.409 192.331 337.839 196.445 338.6L198.797 348.701L205.877 348.37L212.957 348.039L214.356 337.762C218.381 336.618 222.25 334.819 225.799 332.377L234.601 337.856L239.374 332.611L244.146 327.367L237.871 319.11C239.97 315.345 241.399 311.324 242.16 307.207L252.256 304.854L251.925 297.77L251.594 290.687L241.322 289.287C240.179 285.26 238.381 281.389 235.939 277.838L241.413 269.031L236.172 264.256L230.93 259.482L222.677 265.759H222.679ZM223.276 317.947C213.389 328.811 196.572 329.601 185.713 319.708C174.855 309.816 174.066 292.991 183.953 282.127C193.84 271.262 210.656 270.473 221.515 280.365C232.374 290.257 233.163 307.083 223.276 317.947Z" fill="#32454C"/>
</g>
<g opacity="0.5">
<path d="M311.907 332.87C310.292 330.714 308.36 328.875 306.203 327.393L307.426 321.026L303.299 319.415L299.173 317.804L295.762 323.316C293.173 322.945 290.506 322.987 287.859 323.48L284.225 318.111L280.166 319.892L276.108 321.672L277.591 327.985C275.437 329.601 273.599 331.533 272.117 333.692L265.754 332.468L264.143 336.597L262.533 340.726L268.042 344.138C267.672 346.729 267.714 349.397 268.204 352.046L262.838 355.681L264.618 359.742L266.397 363.803L272.707 362.318C274.322 364.474 276.253 366.313 278.411 367.795L277.188 374.162L281.314 375.773L285.441 377.385L288.852 371.872C291.441 372.244 294.107 372.201 296.755 371.708L300.389 377.077L304.447 375.297L308.506 373.516L307.022 367.203C309.177 365.588 311.015 363.655 312.496 361.496L318.86 362.72L320.47 358.591L322.08 354.463L316.571 351.05C316.942 348.46 316.9 345.792 316.407 343.142L321.773 339.507L319.994 335.446L318.214 331.385L311.905 332.87H311.907ZM298.983 362.823C290.574 366.513 280.77 362.682 277.084 354.27C273.399 345.857 277.225 336.047 285.633 332.36C294.042 328.671 303.846 332.501 307.532 340.914C311.219 349.326 307.391 359.136 298.983 362.823Z" fill="#32454C"/>
</g>
<path d="M312.608 158.914C312.608 158.914 298.296 158.078 295.278 163.958C292.259 169.839 304.627 182.254 312.244 181.995C319.861 181.737 312.608 158.914 312.608 158.914Z" fill="#FE9F73"/>
<path d="M386.161 341.663C386.161 341.663 348.2 331.132 337.421 308.384C326.642 285.638 367.105 275.043 366.535 275.151C365.964 275.259 410.256 278.695 414.392 284.994C418.531 291.293 436.434 317.414 431.307 318.384C426.183 319.351 386.161 341.663 386.161 341.663Z" fill="#EC925F"/>
<path d="M315.909 132.52C315.909 132.466 315.911 132.415 315.914 132.361C315.991 130.569 317.397 129.115 319.186 128.981C319.238 128.976 319.291 128.974 319.345 128.969C319.364 128.969 319.381 128.967 319.397 128.967L398.444 127.68C398.463 127.68 398.479 127.68 398.495 127.68C398.549 127.68 398.601 127.682 398.655 127.685C400.446 127.762 401.899 129.169 402.035 130.956C402.04 131.008 402.042 131.062 402.047 131.116C402.047 131.135 402.049 131.151 402.052 131.168L404.725 295.612C404.753 297.322 403.39 298.731 401.681 298.759L321.723 300.06C320.014 300.088 318.606 298.726 318.578 297.014L315.904 132.57C315.904 132.551 315.904 132.535 315.904 132.518L315.909 132.52Z" fill="#E2FFF0"/>
<path d="M403.399 130.132L396.861 125.808L319.845 127.262L313.186 133.317C313.186 133.317 313.951 140.184 314.376 140.282C314.801 140.381 404.22 139.965 404.194 138.589C404.168 137.213 403.401 130.134 403.401 130.134L403.399 130.132Z" fill="#203035"/>
<g opacity="0.5">
<path d="M395.197 133.92C395.205 134.404 395.5 134.815 395.916 134.993C396.064 135.059 396.23 135.094 396.406 135.09C396.578 135.087 396.742 135.047 396.89 134.977C397.301 134.787 397.582 134.364 397.575 133.88C397.564 133.223 397.021 132.699 396.366 132.711C395.709 132.722 395.186 133.263 395.197 133.92Z" fill="white"/>
<path d="M391.518 133.979C391.525 134.463 391.821 134.874 392.236 135.052C392.384 135.118 392.551 135.153 392.727 135.148C392.9 135.146 393.067 135.106 393.213 135.036C393.623 134.843 393.905 134.423 393.896 133.939C393.884 133.281 393.344 132.758 392.687 132.769C392.029 132.781 391.506 133.321 391.518 133.979Z" fill="white"/>
<path d="M387.84 134.04C387.847 134.524 388.143 134.935 388.558 135.113C388.706 135.179 388.873 135.214 389.049 135.209C389.225 135.205 389.389 135.167 389.535 135.097C389.946 134.904 390.227 134.484 390.218 134C390.206 133.342 389.666 132.819 389.009 132.83C388.352 132.842 387.828 133.382 387.84 134.04Z" fill="white"/>
</g>
<path d="M315.934 134.378C315.887 131.421 318.244 128.986 321.197 128.937L396.64 127.708C399.596 127.661 402.03 130.017 402.079 132.974L404.696 293.909C404.739 296.561 402.626 298.743 399.978 298.785L323.427 300.032C320.779 300.074 318.596 297.963 318.554 295.311L315.936 134.376L315.934 134.378ZM312.298 134.348L314.944 296.941C315.023 301.819 319.04 305.709 323.915 305.629L399.673 304.396C404.549 304.316 408.436 300.297 408.356 295.42L405.71 132.826C405.631 127.948 401.614 124.059 396.739 124.138L320.981 125.371C316.105 125.451 312.218 129.47 312.298 134.348Z" fill="#20111D"/>
<path d="M440.189 368.603C422.113 383.93 400.613 394.393 377.365 401.197L377.403 369.977L377.415 359.24L378.288 339.007L378.276 338.943L378.238 338.732L378.457 338.621L378.933 338.38L399.167 328.201H399.172L412.439 321.526L412.977 321.256C412.977 321.256 403.839 320.101 397.888 310.645C397.881 310.636 397.879 310.627 397.872 310.617C397.867 310.61 397.865 310.605 397.862 310.598C396.764 308.853 395.778 306.824 394.975 304.471C394.402 302.785 393.921 300.929 393.569 298.893C393.259 297.127 393.045 295.227 392.94 293.177C392.78 290.027 392.792 287.042 392.933 284.226C393.036 282.221 393.205 280.304 393.428 278.472C393.693 276.267 394.038 274.193 394.433 272.251C395.524 266.884 397.008 262.533 398.36 259.299C400.2 254.888 401.789 252.558 401.789 252.558C401.789 252.558 399.867 245.677 397.916 237.074C397.754 236.372 397.597 235.66 397.44 234.939C395.315 225.275 393.337 214.06 393.977 208.01C394.653 201.557 398.759 195.305 403.064 193.088C404.277 192.458 405.512 192.155 406.686 192.259C408.273 192.4 409.759 193.28 410.958 195.124C411.136 195.396 411.308 195.692 411.472 196.007C411.686 196.42 411.89 196.869 412.08 197.355C412.08 197.355 412.08 197.36 412.085 197.364C412.27 197.839 412.444 198.344 412.601 198.889C412.601 198.889 412.897 201.324 413.498 204.788C413.526 204.953 413.557 205.122 413.585 205.293C413.613 205.453 413.641 205.613 413.669 205.768C414.155 208.431 414.801 211.576 415.62 214.655V214.664C415.62 214.664 415.62 214.664 415.62 214.669C415.683 214.913 415.751 215.162 415.819 215.404C416.725 218.692 417.833 221.848 419.143 224.202C423.603 232.212 434.058 253.249 436.457 262.831C438.854 272.408 437.375 314.579 437.375 314.579L440.192 368.599L440.189 368.603Z" fill="#FE9F73"/>
<path d="M313.689 238.363L313.807 244.38C313.807 244.38 323.567 251.182 322.818 262.232C322.069 273.284 315.206 275.861 315.206 275.861C315.206 275.861 301.391 263.03 300.619 257.835C299.847 252.643 298.227 243.58 313.692 238.363H313.689Z" fill="#FE9F73"/>
<path d="M313.431 274.165C313.431 274.165 308.159 270.473 302.223 261.389C302.831 260.837 304.04 260.236 304.812 259.843C307.183 258.639 308.87 258.862 310.551 260.372L317.025 266.908C317.025 266.908 318.356 268.636 316.607 271.236C315.936 272.237 313.431 274.167 313.431 274.167V274.165Z" fill="#F78A5E"/>
<path d="M315.131 276.288L306.814 268.174C302.289 263.664 300.66 259.261 300.087 256.36C299.465 253.197 299.918 251.123 299.937 251.036L300.634 251.194C300.615 251.273 298.937 259.317 307.314 267.664L315.276 275.433C318.302 273.963 319.875 271.06 319.891 271.03C319.943 270.943 324.311 263.228 321.861 255.938C319.398 248.61 311.68 243.446 311.603 243.394L311.997 242.797C312.323 243.011 319.997 248.145 322.539 255.71C325.093 263.31 320.706 271.051 320.516 271.377C320.452 271.499 318.75 274.651 315.352 276.187L315.129 276.288H315.131Z" fill="black"/>
<path d="M314.56 279.337L314.652 284.038C314.652 284.038 322.278 289.353 321.694 297.989C321.109 306.625 315.745 308.637 315.745 308.637C315.745 308.637 304.95 298.611 304.347 294.553C303.744 290.495 302.478 283.414 314.562 279.337H314.56Z" fill="#FE9F73"/>
<path d="M314.358 307.313C314.358 307.313 310.238 304.426 305.6 297.329C306.076 296.897 307.02 296.427 307.623 296.119C309.475 295.178 310.794 295.351 312.109 296.533L317.167 301.639C317.167 301.639 318.207 302.989 316.841 305.021C316.315 305.803 314.36 307.31 314.36 307.31L314.358 307.313Z" fill="#F78A5E"/>
<path d="M315.686 308.971L309.189 302.63C302.41 295.875 303.755 289.506 303.816 289.238L304.36 289.36C304.346 289.424 303.034 295.708 309.581 302.23L315.804 308.301C318.174 307.151 319.397 304.884 319.409 304.861C319.449 304.793 322.862 298.764 320.949 293.066C319.024 287.34 312.994 283.306 312.933 283.266L313.24 282.801C313.494 282.967 319.491 286.979 321.477 292.89C323.472 298.83 320.043 304.877 319.897 305.133C319.848 305.229 318.517 307.691 315.862 308.893L315.689 308.971H315.686Z" fill="black"/>
<path d="M397.408 309.814C397.408 309.814 405.6 323.166 399.171 328.203C392.742 333.239 417.351 330.773 417.22 330.07C417.088 329.368 430.022 305.471 425.614 305.213C421.203 304.955 407.117 302.526 404.732 306.249C402.345 309.971 397.408 309.814 397.408 309.814Z" fill="#FE9F73"/>
<path d="M312.955 202.752L313.072 208.769C313.072 208.769 322.832 215.571 322.084 226.621C321.335 237.673 314.471 240.249 314.471 240.249C314.471 240.249 300.657 227.417 299.885 222.224C299.113 217.031 297.493 207.968 312.957 202.752H312.955Z" fill="#FE9F73"/>
<path d="M312.697 238.551C312.697 238.551 307.425 234.859 301.488 225.775C302.096 225.223 303.305 224.622 304.077 224.23C306.448 223.025 308.136 223.248 309.817 224.758L316.291 231.294C316.291 231.294 317.622 233.023 315.873 235.623C315.201 236.623 312.697 238.554 312.697 238.554V238.551Z" fill="#F78A5E"/>
<path d="M377.866 338.716L377.037 369.96L377.75 369.979L378.579 338.735L377.866 338.716Z" fill="black"/>
<path d="M380.274 339.46C367.244 336.355 354.167 328.175 347.531 321.89C341.653 316.324 338.759 311.928 338.73 311.883L339.329 311.493C339.357 311.535 342.212 315.869 348.021 321.371C354.591 327.593 367.539 335.69 380.44 338.765L380.274 339.46Z" fill="black"/>
<path d="M404.385 198.424C404.721 196.315 409.73 195.119 411.265 195.112C412.256 195.107 414.676 213.95 415.613 214.659C415.613 214.659 415.796 214.866 413.357 215.404C410.669 215.996 408.58 215.199 408.58 215.199C408.58 215.199 404.047 200.535 404.383 198.424H404.385Z" fill="#F78A5E"/>
<path d="M314.394 240.672L306.08 232.56C301.554 228.051 299.925 223.647 299.352 220.747C298.73 217.583 299.183 215.51 299.202 215.423L299.899 215.58C299.881 215.66 298.202 223.704 306.58 232.05L314.544 239.82C317.277 238.502 319.148 235.43 319.166 235.4C319.209 235.327 323.577 227.614 321.126 220.324C318.664 212.997 310.946 207.832 310.868 207.78L311.263 207.184C311.589 207.398 319.263 212.532 321.805 220.096C324.359 227.696 319.971 235.437 319.781 235.764C319.694 235.909 317.676 239.228 314.615 240.576L314.394 240.672Z" fill="black"/>
<path d="M312.962 208.776L312.152 142.798L312.619 142.784L313.429 208.762L312.962 208.776Z" fill="black"/>
<path d="M298.81 174.769C298.542 174.508 292.265 168.313 295.347 163.153C298.397 158.054 311.561 158.514 312.119 158.538L312.091 159.252C311.96 159.247 298.791 158.784 295.96 163.522C293.167 168.195 299.244 174.198 299.305 174.257L298.807 174.769H298.81Z" fill="black"/>
<path d="M422.287 311.672C422.404 311.726 422.545 311.721 422.66 311.643C426.5 309.039 429.284 302.186 429.399 301.894C429.477 301.702 429.383 301.484 429.19 301.404C428.998 301.326 428.777 301.42 428.7 301.613C428.671 301.681 425.885 308.543 422.235 311.019C422.064 311.136 422.019 311.369 422.134 311.542C422.174 311.601 422.226 311.643 422.284 311.672H422.287Z" fill="#000100"/>
<path d="M417.088 311.827C417.18 311.869 417.288 311.876 417.389 311.836C421.701 310.122 425.895 304.029 426.071 303.771C426.189 303.6 426.144 303.365 425.973 303.247C425.801 303.13 425.567 303.174 425.449 303.346C425.407 303.407 421.208 309.504 417.109 311.134C416.917 311.211 416.82 311.43 416.898 311.622C416.935 311.714 417.004 311.784 417.088 311.824V311.827Z" fill="#000100"/>
<path d="M412.932 321.611C412.737 321.587 408.096 320.963 403.228 317.141C400.374 314.899 398.043 312.017 396.303 308.576C394.135 304.288 392.883 299.114 392.581 293.198C391.9 279.858 394.353 269.475 396.531 263.113C398.641 256.948 400.916 253.251 401.4 252.504C400.639 249.766 392.388 219.648 393.616 207.978C393.998 204.337 395.447 200.624 397.698 197.519C399.895 194.487 402.583 192.475 405.075 191.998C407.024 191.625 409.77 191.991 411.784 195.845C412.228 196.697 412.617 197.689 412.939 198.792L412.951 198.849C412.96 198.936 414.014 207.541 416.162 215.315C417.181 219.009 418.289 221.942 419.455 224.035C423.549 231.39 434.356 252.976 436.802 262.746C439.185 272.263 437.793 312.874 437.732 314.598L437.018 314.572C437.032 314.152 438.469 272.338 436.11 262.92C433.68 253.216 422.913 231.715 418.831 224.382C417.638 222.24 416.509 219.253 415.474 215.505C413.376 207.909 412.315 199.532 412.247 198.964C411.939 197.916 411.571 196.979 411.153 196.176C409.718 193.433 407.665 192.233 405.212 192.7C400.261 193.644 395.073 200.962 394.329 208.053C393.083 219.89 402.043 252.145 402.134 252.469L402.179 252.629L402.085 252.767C402.059 252.805 399.533 256.551 397.2 263.376C395.048 269.672 392.623 279.952 393.297 293.163C393.968 306.312 399.308 313.156 403.672 316.582C408.385 320.284 412.979 320.899 413.024 320.906L412.934 321.615L412.932 321.611Z" fill="black"/>
<path d="M381.495 234.86C393.481 222.868 393.481 203.425 381.495 191.433C369.509 179.441 350.077 179.441 338.091 191.433C326.105 203.425 326.105 222.868 338.091 234.86C350.077 246.852 369.509 246.852 381.495 234.86Z" fill="#203035"/>
<path d="M354.09 228.79L342.515 212.684C341.968 211.92 342.139 210.859 342.902 210.311C343.665 209.764 344.726 209.938 345.273 210.699L354.214 223.139L376.566 194.769C377.148 194.031 378.216 193.904 378.953 194.487C379.69 195.069 379.817 196.138 379.234 196.875L354.09 228.792V228.79Z" fill="#02CB63"/>
<path d="M370.26 238.363L382.917 250.877L377.372 231.003L370.26 238.363Z" fill="#203035"/>
<path d="M387.143 267.459H334.654V270.069H387.143V267.459Z" fill="#203035"/>
<path d="M387.143 278.26H334.654V280.869H387.143V278.26Z" fill="#203035"/>
<path d="M184.883 148.434C184.883 148.434 198.81 145.024 202.84 150.264C206.871 155.503 196.946 169.949 189.406 171.07C181.867 172.192 184.883 148.434 184.883 148.434Z" fill="#FE9F73"/>
<path d="M145.523 341.468C145.523 341.468 180.96 324.25 187.456 299.931C193.953 275.612 152.241 272.502 152.821 272.507C153.4 272.509 110.458 283.89 107.526 290.835C104.594 297.777 91.7005 326.705 96.9163 326.73C102.132 326.756 145.523 341.47 145.523 341.47V341.468Z" fill="#EC925F"/>
<path d="M176.874 123.07C176.865 123.018 176.853 122.966 176.839 122.915C176.44 121.165 174.795 119.991 173.011 120.181C172.959 120.186 172.905 120.193 172.851 120.2C172.835 120.202 172.816 120.202 172.799 120.207L94.8207 133.222C94.8043 133.225 94.7855 133.229 94.7691 133.234C94.7174 133.244 94.6634 133.255 94.6141 133.269C92.8654 133.669 91.6894 135.315 91.8795 137.098C91.8842 137.149 91.8912 137.203 91.8983 137.255C91.9006 137.271 91.9006 137.29 91.9053 137.307L118.954 299.529C119.235 301.216 120.829 302.355 122.515 302.073L201.392 288.907C203.078 288.625 204.216 287.03 203.934 285.344L176.886 123.121C176.884 123.105 176.879 123.086 176.874 123.07Z" fill="#E2FFF0"/>
<path d="M90.3906 136.529L96.0407 131.095L172.055 118.607L179.697 123.361C179.697 123.361 180.186 130.254 179.784 130.428C179.383 130.601 91.3601 146.349 91.1371 144.989C90.9141 143.631 90.393 136.529 90.393 136.529H90.3906Z" fill="#203035"/>
<g opacity="0.5">
<path d="M99.1391 138.772C99.2189 139.249 99.0029 139.707 98.625 139.958C98.4912 140.05 98.3339 140.113 98.1602 140.141C97.9912 140.17 97.8222 140.16 97.6626 140.118C97.2236 140.005 96.8692 139.641 96.7917 139.164C96.6837 138.516 97.1227 137.903 97.7682 137.795C98.4161 137.687 99.0287 138.124 99.1367 138.772H99.1391Z" fill="white"/>
<path d="M102.768 138.166C102.848 138.643 102.632 139.101 102.254 139.352C102.12 139.444 101.963 139.507 101.789 139.535C101.618 139.564 101.446 139.554 101.292 139.512C100.853 139.397 100.501 139.035 100.421 138.558C100.313 137.91 100.749 137.297 101.397 137.189C102.045 137.081 102.658 137.518 102.766 138.166H102.768Z" fill="white"/>
<path d="M106.397 137.56C106.477 138.037 106.261 138.495 105.883 138.746C105.749 138.838 105.592 138.901 105.418 138.93C105.247 138.958 105.075 138.948 104.92 138.906C104.482 138.791 104.129 138.429 104.05 137.953C103.942 137.304 104.378 136.691 105.026 136.583C105.674 136.475 106.287 136.912 106.395 137.56H106.397Z" fill="white"/>
</g>
<path d="M203.655 283.667C204.092 286.281 202.324 288.754 199.714 289.191L124.195 301.796C121.583 302.232 119.109 300.466 118.674 297.852L92.2012 139.089C91.7153 136.172 93.6847 133.413 96.6001 132.927L171.025 120.503C173.94 120.016 176.698 121.985 177.184 124.904L203.658 283.667H203.655ZM170.593 116.956L95.856 129.432C91.0463 130.235 87.7976 134.787 88.6004 139.599L115.346 299.997C116.149 304.809 120.698 308.059 125.508 307.256L200.245 294.78C205.054 293.977 208.303 289.426 207.5 284.614L180.755 124.216C179.952 119.403 175.403 116.153 170.593 116.956Z" fill="#20111D"/>
<path d="M152.786 337.156V337.438L152.681 358.03L152.505 393.014C141.338 390.224 131.782 387.551 124.313 385.341C111.706 381.609 99.7575 375.912 88.9879 368.366C88.9316 368.326 88.8753 368.286 88.8189 368.248L90.2625 324.088C90.2625 324.088 81.1971 282.873 81.8262 273.019C82.4576 263.164 88.9433 240.585 91.8822 231.902C92.746 229.349 93.2648 226.043 93.5629 222.647C93.5864 222.393 93.6075 222.139 93.6263 221.883C93.6263 221.876 93.6263 221.874 93.6263 221.874C93.8845 218.614 93.9479 215.319 93.9385 212.569C93.9385 212.482 93.9385 212.397 93.9385 212.308C93.9385 212.066 93.9385 211.834 93.9338 211.601C93.9338 211.54 93.9338 211.479 93.9338 211.418C93.8939 208.097 93.753 205.819 93.753 205.819C93.8094 205.255 93.8892 204.727 93.9854 204.231C94.084 203.712 94.2061 203.231 94.3446 202.782C94.4502 202.442 94.5676 202.12 94.692 201.822C95.5394 199.795 96.8398 198.656 98.375 198.233C99.5111 197.918 100.779 197.996 102.088 198.393C106.722 199.797 111.889 205.206 113.72 211.43C117.14 223.046 114.074 256.659 114.074 256.659C114.074 256.659 121.999 264.667 126.975 280.635C128.294 284.867 129.407 289.658 130.109 295.008C130.374 297.042 130.508 298.952 130.522 300.744C130.543 302.813 130.404 304.724 130.144 306.486C129.775 308.992 129.156 311.197 128.374 313.135C124.212 323.471 115.466 326.247 115.466 326.247L116.043 326.416L130.311 330.587L152.04 336.94L152.786 337.158H152.791L152.786 337.156Z" fill="#FE9F73"/>
<path d="M198.158 226.773L199.13 232.712C199.13 232.712 190.757 241.165 193.489 251.9C196.222 262.636 203.437 263.93 203.437 263.93C203.437 263.93 214.709 248.814 214.531 243.565C214.353 238.316 214.31 229.112 198.158 226.775V226.773Z" fill="#FE9F73"/>
<path d="M204.874 261.938C204.874 261.938 209.393 257.354 213.592 247.346C212.895 246.914 211.597 246.538 210.768 246.292C208.219 245.536 206.597 246.059 205.219 247.849L200.031 255.447C200.031 255.447 199.034 257.387 201.224 259.629C202.067 260.491 204.876 261.938 204.876 261.938H204.874Z" fill="#F78A5E"/>
<path d="M203.587 264.334L203.35 264.275C199.731 263.378 197.489 260.585 197.395 260.466C197.16 260.188 191.447 253.368 192.585 245.432C193.722 237.532 200.341 231.099 200.623 230.829L201.118 231.346C201.05 231.409 194.393 237.884 193.292 245.536C192.198 253.15 197.888 259.947 197.947 260.015C197.975 260.05 200.045 262.622 203.287 263.521L209.719 254.439C216.448 244.718 213.345 237.111 213.315 237.034L213.972 236.754C214.007 236.837 214.826 238.793 214.787 242.018C214.749 244.974 213.939 249.599 210.305 254.85L203.587 264.336V264.334Z" fill="black"/>
<path d="M204.697 267.229L205.455 271.87C205.455 271.87 198.913 278.474 201.047 286.863C203.181 295.252 208.819 296.262 208.819 296.262C208.819 296.262 217.626 284.449 217.488 280.351C217.349 276.25 217.316 269.057 204.695 267.229H204.697Z" fill="#FE9F73"/>
<path d="M209.943 294.708C209.943 294.708 213.476 291.126 216.755 283.305C216.211 282.967 215.197 282.676 214.549 282.483C212.556 281.891 211.291 282.3 210.213 283.7L206.159 289.637C206.159 289.637 205.38 291.152 207.091 292.904C207.749 293.578 209.946 294.708 209.946 294.708H209.943Z" fill="#F78A5E"/>
<path d="M208.94 296.58L208.754 296.535C205.926 295.835 204.175 293.651 204.102 293.559C203.919 293.343 199.454 288.014 200.344 281.812C201.231 275.64 206.405 270.611 206.625 270.4L207.012 270.804C206.961 270.853 201.757 275.912 200.898 281.892C200.043 287.841 204.489 293.153 204.534 293.207C204.557 293.235 206.174 295.243 208.707 295.948L213.733 288.85C218.991 281.255 216.568 275.309 216.543 275.25L217.057 275.031C217.165 275.283 219.636 281.304 214.191 289.172L208.942 296.584L208.94 296.58Z" fill="black"/>
<path d="M128.714 312.174C128.714 312.174 123.066 326.787 130.299 330.58C137.531 334.373 112.879 336.392 112.884 335.676C112.888 334.962 95.8513 313.794 100.142 312.745C104.433 311.695 117.851 306.758 120.869 309.99C123.888 313.221 128.714 312.174 128.714 312.174Z" fill="#FE9F73"/>
<path d="M192.453 191.613L193.425 197.552C193.425 197.552 185.052 206.005 187.784 216.74C190.517 227.475 197.732 228.769 197.732 228.769C197.732 228.769 209.004 213.654 208.826 208.405C208.65 203.158 208.605 193.952 192.453 191.615V191.613Z" fill="#FE9F73"/>
<path d="M199.167 226.778C199.167 226.778 203.686 222.193 207.885 212.186C207.188 211.754 205.89 211.378 205.061 211.131C202.512 210.375 200.89 210.899 199.512 212.689L194.324 220.286C194.324 220.286 193.327 222.226 195.517 224.469C196.36 225.331 199.169 226.778 199.169 226.778H199.167Z" fill="#F78A5E"/>
<path d="M152.442 337.175L152.336 358.049L153.05 358.052L153.155 337.179L152.442 337.175Z" fill="black"/>
<path d="M150.916 338.238L150.627 337.586C162.76 332.231 174.035 321.928 179.372 314.621C184.095 308.16 186.121 303.383 186.14 303.334L186.799 303.611C186.778 303.66 184.727 308.508 179.95 315.042C174.556 322.423 163.169 332.83 150.916 338.238Z" fill="black"/>
<path d="M101.745 203.874C101.034 201.859 95.8909 201.592 94.3792 201.862C93.4027 202.035 94.4238 221.007 93.6304 221.871C93.6304 221.871 93.4872 222.109 95.9825 222.196C98.7335 222.292 100.642 221.132 100.642 221.132C100.642 221.132 102.454 205.889 101.743 203.874H101.745Z" fill="#F78A5E"/>
<path d="M197.883 229.171L197.648 229.114C194.392 228.344 191.81 225.444 191.702 225.319C191.454 225.028 185.74 218.208 186.881 210.27C188.017 202.369 194.637 195.936 194.918 195.666L195.413 196.183C195.345 196.246 188.688 202.721 187.587 210.373C186.494 217.985 192.184 224.784 192.242 224.852C192.263 224.875 194.655 227.557 197.582 228.361L204.014 219.276C210.744 209.556 207.641 201.949 207.61 201.871L208.268 201.592C208.303 201.674 209.122 203.63 209.082 206.855C209.044 209.812 208.235 214.436 204.601 219.687L197.885 229.171H197.883Z" fill="black"/>
<path d="M193.074 197.611L181.785 132.56L182.492 132.445L193.778 197.493L193.074 197.611Z" fill="black"/>
<path d="M201.316 161.534L200.733 161.121C200.783 161.051 205.679 154.05 202.088 149.956C198.447 145.808 185.581 148.643 185.452 148.671L185.295 147.974C185.84 147.852 198.705 145.019 202.623 149.484C206.588 154 201.531 161.229 201.316 161.534Z" fill="black"/>
<path d="M104.58 318.496C104.474 318.571 104.336 318.59 104.209 318.536C99.9604 316.667 95.9887 310.431 95.8197 310.166C95.7093 309.99 95.761 309.76 95.937 309.647C96.1131 309.536 96.3455 309.588 96.4558 309.764C96.4957 309.828 100.474 316.073 104.512 317.848C104.702 317.933 104.789 318.153 104.704 318.344C104.676 318.407 104.632 318.461 104.58 318.499V318.496Z" fill="#000100"/>
<path d="M109.72 317.71C109.637 317.768 109.532 317.794 109.426 317.773C104.875 316.864 99.6494 311.631 99.4311 311.411C99.2856 311.263 99.2856 311.023 99.4335 310.878C99.5814 310.73 99.8208 310.732 99.9663 310.878C100.018 310.929 105.25 316.169 109.574 317.031C109.778 317.071 109.91 317.27 109.87 317.475C109.851 317.573 109.795 317.653 109.72 317.707V317.71Z" fill="#000100"/>
<path d="M115.574 326.582L115.358 325.901C115.403 325.887 119.837 324.436 123.801 319.931C127.461 315.774 131.465 308.083 129.754 295.053C128.034 281.936 123.794 272.265 120.539 266.459C117.013 260.17 113.851 256.94 113.82 256.907L113.703 256.79L113.717 256.623C113.748 256.287 116.738 222.945 113.377 211.528C111.365 204.689 104.94 198.43 99.9007 198.395H99.889C97.3984 198.383 95.598 199.936 94.6849 202.888C94.4173 203.752 94.2248 204.741 94.1122 205.828C94.145 206.397 94.6168 214.831 93.922 222.679C93.5817 226.555 93.0089 229.695 92.2226 232.017C89.5325 239.965 82.8215 263.058 82.183 273.044C81.5633 282.735 90.5207 323.6 90.6123 324.013L89.9151 324.166C89.5442 322.482 80.845 282.791 81.4717 273C82.1149 262.948 88.8471 239.765 91.5465 231.79C92.3141 229.521 92.8751 226.435 93.2108 222.618C93.922 214.584 93.4033 205.929 93.3986 205.843V205.784C93.5183 204.64 93.7202 203.595 94.0042 202.677C95.2882 198.531 97.9125 197.67 99.8937 197.681H99.9078C102.445 197.7 105.455 199.191 108.161 201.777C110.933 204.424 113.029 207.815 114.062 211.326C117.377 222.583 114.696 253.695 114.445 256.527C115.053 257.175 117.959 260.4 121.146 266.083C124.437 271.945 128.724 281.715 130.461 294.959C131.231 300.833 130.933 306.148 129.576 310.758C128.484 314.459 126.714 317.714 124.311 320.434C120.212 325.072 115.762 326.524 115.574 326.582Z" fill="black"/>
<path d="M173.679 218.131C182.733 203.796 178.454 184.829 164.124 175.768C149.793 166.707 130.837 170.983 121.783 185.319C112.73 199.654 117.008 218.62 131.339 227.681C145.669 236.742 164.626 232.466 173.679 218.131Z" fill="#203035"/>
<g clip-path="url(#clip0_9057_14732)">
<path fill-rule="evenodd" clip-rule="evenodd" d="M141.828 179.707C129.587 182.986 122.323 195.568 125.603 207.809C128.883 220.05 141.465 227.314 153.705 224.034C165.946 220.754 173.21 208.172 169.93 195.931C166.65 183.691 154.068 176.427 141.828 179.707ZM128.695 206.98C125.873 196.448 132.124 185.621 142.656 182.799C153.189 179.977 164.015 186.227 166.838 196.76C169.66 207.293 163.409 218.119 152.877 220.941C142.344 223.764 131.518 217.513 128.695 206.98Z" fill="#02CB63"/>
<path d="M139.951 197.53L144.578 214.798C144.769 215.51 144.347 216.241 143.635 216.432C142.923 216.623 142.192 216.2 142.001 215.489L136.809 196.111C136.511 194.999 137.171 193.855 138.283 193.557C138.976 193.372 139.715 193.555 140.241 194.043L156.061 208.719L151.425 191.417C151.235 190.705 151.657 189.974 152.369 189.783C153.08 189.593 153.812 190.015 154.003 190.727L159.195 210.103C159.493 211.216 158.832 212.36 157.72 212.658C157.027 212.843 156.288 212.661 155.762 212.174L139.951 197.53Z" fill="#02CB63"/>
<path d="M135.297 204.077C135.129 203.451 135.501 202.807 136.127 202.639L158.812 196.561C159.439 196.393 160.083 196.765 160.251 197.391C160.418 198.018 160.047 198.662 159.42 198.829L136.735 204.908C136.109 205.076 135.465 204.704 135.297 204.077Z" fill="#02CB63"/>
<path d="M136.817 209.749C136.649 209.122 137.021 208.478 137.647 208.311L160.332 202.232C160.958 202.064 161.602 202.436 161.77 203.062C161.938 203.689 161.566 204.333 160.94 204.501L138.255 210.579C137.629 210.747 136.985 210.375 136.817 209.749Z" fill="#02CB63"/>
</g>
<path d="M186.363 248.689L135.16 260.239L135.734 262.784L186.937 251.235L186.363 248.689Z" fill="#203035"/>
<path d="M188.738 259.225L137.535 270.774L138.109 273.319L189.312 261.77L188.738 259.225Z" fill="#203035"/>
<path d="M223.995 124.822C221.349 124.603 218.781 123.885 216.366 122.682L217.002 121.402C219.255 122.523 221.647 123.194 224.112 123.396L223.995 124.822ZM231.872 124.209L231.529 122.821C233.966 122.217 236.241 121.203 238.297 119.801L239.102 120.982C236.907 122.48 234.475 123.565 231.872 124.209ZM209.974 118.044C208.199 116.289 206.561 114.213 205.105 111.874L206.319 111.118C207.716 113.363 209.281 115.35 210.979 117.027L209.974 118.044ZM244.771 115.465L243.616 114.622C245.06 112.647 246.21 110.416 247.041 107.99L248.393 108.452C247.517 111.015 246.297 113.375 244.771 115.467V115.465ZM133.462 112.595L132.035 112.501C132.207 109.927 132.53 107.325 133.002 104.77L134.408 105.028C133.946 107.529 133.629 110.075 133.462 112.595ZM201.608 104.868C200.671 102.499 199.897 99.988 199.305 97.4046L200.7 97.0852C201.275 99.5982 202.028 102.041 202.939 104.342L201.61 104.868H201.608ZM249.921 100.725L248.496 100.629C248.541 99.9505 248.564 99.2553 248.564 98.5625C248.564 96.7682 248.409 94.9339 248.104 93.1114L249.515 92.8766C249.832 94.7766 249.994 96.6907 249.994 98.5625C249.994 99.2858 249.97 100.014 249.921 100.723V100.725ZM136.22 97.6183L134.854 97.2003C135.608 94.7319 136.514 92.2706 137.544 89.8892L138.857 90.4575C137.847 92.7897 136.96 95.1993 136.223 97.6183H136.22ZM198.089 89.7084C197.812 87.0967 197.617 84.4945 197.507 81.9745L198.934 81.9111C199.045 84.4006 199.237 86.9723 199.512 89.5557L198.089 89.706V89.7084ZM246.088 85.8379C245.193 83.541 244.055 81.2629 242.703 79.0693L243.919 78.3178C245.318 80.5865 246.494 82.9421 247.419 85.3189L246.088 85.8379ZM142.27 83.6326L141.028 82.9233C142.312 80.6734 143.737 78.4751 145.26 76.3849L146.415 77.2281C144.922 79.276 143.528 81.432 142.27 83.6349V83.6326ZM375.473 83.5997L374.112 83.1676C374.893 80.7016 375.504 78.2168 375.924 75.779L377.332 76.0209C376.9 78.5221 376.276 81.0703 375.475 83.5997H375.473ZM198.859 74.2548L197.43 74.2172C197.495 71.5915 197.662 68.9869 197.925 66.4763L199.347 66.6243C199.089 69.0973 198.925 71.6643 198.859 74.2548ZM238.215 72.9513C236.609 71.0818 234.809 69.2641 232.867 67.5449L233.816 66.474C235.806 68.2354 237.651 70.1025 239.299 72.0189L238.215 72.9513ZM151.248 71.3214L150.194 70.3538C151.955 68.435 153.833 66.6055 155.778 64.9216L156.713 66.0019C154.807 67.6506 152.969 69.4402 151.246 71.3191L151.248 71.3214ZM378.076 68.2448L376.647 68.2189C376.651 67.9348 376.654 67.6506 376.654 67.3664C376.654 65.1212 376.492 62.8642 376.17 60.6589L377.583 60.4522C377.914 62.7256 378.083 65.0507 378.081 67.3664C378.081 67.6576 378.079 67.9512 378.074 68.2448H378.076ZM226.872 62.8431C225.1 61.6101 223.206 60.4146 221.243 59.2897C220.959 59.1276 220.678 58.9679 220.394 58.8106L221.084 57.5588C221.373 57.7185 221.664 57.8805 221.952 58.0473C223.952 59.191 225.882 60.41 227.687 61.6688L226.87 62.8431H226.872ZM162.767 61.3682L161.968 60.1821C164.137 58.7213 166.4 57.3944 168.694 56.2389L169.337 57.5165C167.097 58.6438 164.889 59.9402 162.769 61.3682H162.767ZM200.469 59.0689L199.066 58.7965C199.566 56.2201 200.19 53.6813 200.915 51.2505L202.284 51.6592C201.57 54.0453 200.96 56.5395 200.467 59.0689H200.469ZM213.521 55.5437C211.143 54.5925 208.709 53.8034 206.286 53.1998L206.631 51.8118C209.117 52.4319 211.612 53.2421 214.049 54.2168L213.518 55.5437H213.521ZM176.339 54.5573L175.872 53.2045C178.339 52.352 180.872 51.6709 183.397 51.1801L183.67 52.5845C181.21 53.0636 178.743 53.7259 176.336 54.5573H176.339ZM374.471 53.2774C373.717 50.9053 372.757 48.5403 371.616 46.2504L372.896 45.6116C374.069 47.9672 375.058 50.4004 375.835 52.8429L374.473 53.275L374.471 53.2774ZM198.801 51.8893C196.284 51.6357 193.728 51.5652 191.209 51.6803L191.144 50.2524C193.733 50.1326 196.359 50.2054 198.946 50.4661L198.803 51.8893H198.801ZM204.85 44.4843L203.533 43.93C204.544 41.5251 205.695 39.1742 206.953 36.9431L208.197 37.6453C206.965 39.8294 205.838 42.131 204.85 44.4867V44.4843ZM367.75 39.7073C366.349 37.6688 364.769 35.6537 363.051 33.7161L364.121 32.7673C365.877 34.7471 367.494 36.8092 368.929 38.8971L367.75 39.7073ZM212.326 31.2478L211.173 30.4023C212.701 28.3191 214.377 26.3064 216.152 24.4158L217.194 25.3951C215.46 27.2411 213.821 29.2116 212.326 31.2478ZM357.685 28.298C355.847 26.6281 353.863 24.9935 351.788 23.4411L352.645 22.2974C354.755 23.878 356.774 25.5408 358.645 27.2411L357.685 28.3003V28.298ZM222.729 20.1625L221.809 19.0681C223.767 17.4218 225.863 15.8553 228.039 14.4085L228.83 15.5993C226.699 17.0155 224.647 18.5514 222.729 20.1649V20.1625ZM345.479 19.1221C343.359 17.7952 341.124 16.5152 338.838 15.3174L339.502 14.0516C341.819 15.2681 344.087 16.5669 346.237 17.9103L345.479 19.1221ZM331.935 11.9989C329.629 10.9867 327.235 10.0285 324.822 9.14775L325.31 7.80437C327.754 8.69448 330.176 9.66443 332.51 10.6884L331.935 11.9989ZM235.396 11.7147L234.731 10.4489C236.985 9.26753 239.356 8.1684 241.783 7.17965L242.323 8.50424C239.938 9.47655 237.609 10.5569 235.396 11.7147ZM317.538 6.75221C315.107 6.03355 312.611 5.37595 310.121 4.7982L310.442 3.4055C312.961 3.99029 315.484 4.65494 317.942 5.38299L317.536 6.75456L317.538 6.75221ZM249.519 5.9396L249.099 4.57274C251.526 3.82354 254.052 3.15655 256.606 2.59054L256.916 3.98559C254.4 4.54455 251.911 5.20215 249.522 5.9396H249.519ZM302.6 3.28572C300.086 2.85593 297.53 2.4966 295.006 2.21477L295.163 0.79389C297.715 1.07807 300.297 1.44209 302.839 1.87658L302.598 3.28572H302.6ZM264.442 2.60698L264.235 1.1908C266.754 0.824421 269.347 0.537896 271.944 0.340616L272.052 1.7662C269.488 1.96113 266.927 2.24296 264.439 2.60464L264.442 2.60698ZM287.366 1.59475C284.807 1.46323 282.239 1.41156 279.706 1.43975L279.692 0.00946812C282.248 -0.0187147 284.852 0.0353024 287.438 0.166822L287.366 1.59475Z" fill="#203035"/>
<path d="M370.893 94.53L369.625 93.8701C370.217 92.731 370.78 91.5755 371.301 90.4318L372.601 91.0236C372.071 92.1885 371.496 93.3675 370.893 94.5277V94.53Z" fill="#6095AB"/>
<path d="M358.503 101.85L350.564 115.54C350.564 115.54 362.052 106.336 362.329 106.115C362.604 105.897 372.82 91.0235 372.82 91.0235L377.362 89.7224L370.153 87.7896L358.503 101.85Z" fill="#038F47"/>
<path d="M370.153 87.7895L365.031 82.9069L350.564 115.54L370.153 87.7895Z" fill="#02CB63"/>
<path d="M379.601 97.4657L372.82 91.0236L350.564 115.54L379.601 97.4657Z" fill="#02CB63"/>
<defs>
<clipPath id="clip0_9057_14732">
<rect width="51.2274" height="51.2274" fill="white" transform="translate(116.629 183.89) rotate(-15)"/>
</clipPath>
</defs>
</svg>
