<svg width="588" height="440" viewBox="0 0 588 440" fill="none" xmlns="http://www.w3.org/2000/svg">
<g clip-path="url(#clip0_9057_14184)">
<path d="M568.258 214.831L415.666 126.43C407.375 121.634 392.888 122.202 383.301 127.726L63.0436 312.114C53.4566 317.638 52.4092 326.004 60.7001 330.799L213.292 419.201C221.583 423.996 236.07 423.428 245.657 417.904L565.915 233.517C575.502 227.993 576.549 219.627 568.258 214.831Z" fill="#EFEFEF"/>
<path d="M208.854 397.886L50.0479 305.879C44.8283 302.86 42.3961 298.774 42.5736 294.547H42.5381L42.6091 271.51L51.4327 281.865C52.0008 281.492 52.5866 281.101 53.208 280.746L378.064 93.6945C390.953 86.27 410.464 85.4885 421.613 91.9538L578.183 182.664C581.343 179.201 588 171.865 588 171.865L587.929 194.423C588.16 199.503 584.556 204.92 577.259 209.112L252.386 396.163C239.497 403.588 219.986 404.37 208.836 397.904L208.854 397.886Z" fill="#E2FFF0"/>
<path d="M378.064 93.6945C390.953 86.27 410.464 85.4885 421.614 91.9538L578.183 182.664C581.343 179.201 588.001 171.865 588.001 171.865L587.93 194.423C588.16 199.503 584.556 204.92 577.26 209.112L252.386 396.163C245.658 400.036 237.136 402.078 228.934 402.256L229.235 179.396L378.046 93.7123L378.064 93.6945Z" fill="#203035"/>
<path d="M580.49 160.764L421.684 68.7567C410.535 62.2913 391.042 63.0728 378.135 70.4973L53.2611 257.549C40.372 264.973 38.9517 276.234 50.101 282.7L208.907 374.707C220.056 381.172 239.55 380.391 252.457 372.966L577.33 185.915C590.219 178.49 591.64 167.229 580.49 160.764Z" fill="#02CB63"/>
<path d="M208.801 377.176L49.9944 285.169C44.2422 281.829 41.8633 277.229 42.6444 272.522C42.9285 276.341 45.3785 279.964 50.1187 282.7L208.925 374.707C220.074 381.172 239.568 380.391 252.474 372.966L577.348 185.915C583.597 182.327 587.112 177.815 587.858 173.41C588.231 178.579 584.645 184.103 577.224 188.384L252.35 375.435C239.461 382.86 219.95 383.641 208.801 377.176Z" fill="white"/>
<path d="M568.258 164.387L415.666 75.9858C407.375 71.1901 392.888 71.7585 383.301 77.2824L63.0436 261.67C53.4566 267.194 52.4092 275.56 60.7001 280.355L213.292 368.757C221.583 373.552 236.07 372.984 245.657 367.46L565.915 183.073C575.502 177.549 576.549 169.183 568.258 164.387Z" fill="white"/>
<path d="M401.179 99.3073L84.3652 282.771L199.142 349.059C218.458 360.213 242.248 360.195 261.529 349.005L547.167 183.623L401.179 99.3073Z" fill="#EFEFEF"/>
<path d="M55.5688 259.023H55.6043C40.6025 250.693 31.2463 232.433 31.1753 206.305C31.0155 154.583 67.2329 91.3499 111.937 65.3464L144.195 46.5897L145.757 47.46L293.698 130.693L256.22 155.062L242.142 165.364L222.772 185.613L219.666 188.455L199.054 219.698L191.491 239.272L185.88 254.831L181.264 287.46L180.945 290.284L182.614 304.05L187.372 321.083L194.083 332.629L203.847 344.227L55.5688 259.023Z" fill="#E2FFF0"/>
<path d="M399.191 81.1545V86.6252L216.311 192.575C217.979 188.757 221.122 185.595 224.335 182.416L399.208 81.1367L399.191 81.1545Z" fill="#02CB63"/>
<path d="M547.131 166.163L399.19 81.1545L224.903 183.854L213.682 196.909L196.852 226.519L186.271 256.092L182.827 279.218L182.383 302.309L196.834 335.346L215.635 346.323L234.951 347.336L258.12 337.709L526.022 180.995L547.131 166.163Z" fill="#02CB63"/>
<path d="M55.6039 259.023C43.0521 252.06 34.4771 238.117 31.9561 218.455L182.844 304.991L187.336 321.083L194.047 332.629L203.811 344.227L55.5684 259.023H55.6039Z" fill="#E2FFF0"/>
<path d="M32.5428 222.22C31.6729 217.3 31.1935 212.007 31.1758 206.305C31.1758 202.504 31.3711 198.615 31.7439 194.707L182.17 280.959L181.247 287.442L180.928 290.266L182.596 304.032L184.017 309.094L32.5428 222.22Z" fill="#203035"/>
<path d="M547.149 171.634V166.163L260.446 332.504C218.37 356.98 183.999 337.282 183.857 288.579C183.697 239.876 217.82 180.337 259.896 155.844L293.699 136.181V130.71L259.878 150.373C215.192 176.377 178.957 239.609 179.117 291.332C179.277 343.055 215.778 363.979 260.464 337.975L547.149 171.634Z" fill="#203035"/>
<path d="M401.357 207.567L328.407 166.359C325.496 164.725 320.436 164.973 317.116 166.945L275.43 191.616C272.11 193.588 271.773 196.501 274.685 198.153L347.634 239.361C350.546 240.995 355.606 240.746 358.926 238.774L400.611 214.103C403.931 212.131 404.268 209.218 401.357 207.567Z" fill="#E2FFF0"/>
<path d="M345.842 230.409L270.85 188.135C269.359 187.3 268.667 186.163 268.631 184.973L268.596 185.009L268.507 176.661C268.507 176.661 271.134 178.828 272.697 180.089L319.424 152.433C323.223 150.178 329.011 149.876 332.349 151.758L404.038 192.167L409.524 188.917L409.613 197.353L409.577 197.318C409.559 198.757 408.53 200.284 406.488 201.492L358.766 229.716C354.967 231.972 349.179 232.274 345.842 230.391V230.409Z" fill="#203035"/>
<path d="M407.215 185.542L332.224 143.268C328.886 141.385 323.117 141.687 319.3 143.943L271.578 172.167C267.779 174.423 267.388 177.762 270.726 179.645L345.717 221.918C349.055 223.801 354.825 223.499 358.642 221.243L406.363 193.02C410.163 190.764 410.553 187.425 407.215 185.542Z" fill="#A4B6AD"/>
<path d="M345.735 221.918L270.744 179.645C268.844 178.579 268.187 177.034 268.649 175.488C269.004 176.217 269.607 176.892 270.584 177.425L345.575 219.698C348.913 221.581 354.683 221.279 358.5 219.023L406.221 190.799C407.855 189.822 408.831 188.65 409.169 187.478C410.038 189.272 409.098 191.421 406.399 193.02L358.677 221.243C354.878 223.499 349.09 223.801 345.753 221.918H345.735Z" fill="white"/>
<path d="M328.549 174.565C331.319 172.931 331.283 170.337 328.496 168.757C325.708 167.176 321.199 167.229 318.429 168.863C315.66 170.497 315.695 173.091 318.483 174.671C321.27 176.252 325.779 176.199 328.549 174.565Z" fill="white"/>
<path d="M343.87 183.215C346.64 181.581 346.604 178.988 343.817 177.407C341.03 175.826 336.52 175.879 333.751 177.513C330.981 179.147 331.017 181.741 333.804 183.321C336.591 184.902 341.101 184.849 343.87 183.215Z" fill="white"/>
<path d="M359.209 191.865C361.979 190.231 361.943 187.638 359.156 186.057C356.369 184.476 351.859 184.529 349.09 186.163C346.32 187.798 346.356 190.391 349.143 191.972C351.93 193.552 356.44 193.499 359.209 191.865Z" fill="white"/>
<path d="M338.402 67.9929L265.452 26.7851C262.541 25.151 257.481 25.3997 254.161 27.3713L212.475 52.0427C209.155 54.0143 208.818 56.9272 211.73 58.5791L284.679 99.7869C287.591 101.421 292.651 101.172 295.971 99.2008L337.656 74.5294C340.976 72.5578 341.313 69.6448 338.402 67.9929Z" fill="#EFEFEF"/>
<path d="M282.123 88.7922L206.795 46.3233C205.304 45.4885 204.593 44.3517 204.558 43.1439L204.522 43.1794L204.434 34.778C204.434 34.778 207.079 36.945 208.641 38.2238L255.582 10.4441C259.399 8.18831 265.204 7.88636 268.56 9.76913L340.568 50.3553L346.072 47.1048L346.179 55.5773L346.143 55.5418C346.125 56.9983 345.096 58.5258 343.036 59.7336L295.101 88.0995C291.284 90.3553 285.479 90.6572 282.123 88.7745V88.7922Z" fill="#E2FFF0"/>
<path d="M343.799 43.7123L268.453 1.24337C265.097 -0.639399 259.292 -0.337445 255.475 1.91833L207.54 30.2842C203.723 32.54 203.333 35.897 206.688 37.7975L282.017 80.2665C285.372 82.1492 291.178 81.8473 294.995 79.5915L342.929 51.2256C346.746 48.9698 347.137 45.6128 343.782 43.7123H343.799Z" fill="#02CB63"/>
<path d="M282.034 80.2487L206.706 37.7798C204.806 36.7141 204.149 35.151 204.593 33.6057C204.948 34.334 205.57 35.0089 206.528 35.5595L281.857 78.0285C285.212 79.9112 291.018 79.6093 294.835 77.3535L342.769 48.9876C344.421 48.0107 345.379 46.8384 345.734 45.6483C346.604 47.4423 345.663 49.6093 342.947 51.2078L295.012 79.5737C291.195 81.8295 285.39 82.1315 282.034 80.2487Z" fill="white"/>
<path d="M264.76 32.6998C267.53 31.0657 267.512 28.437 264.707 26.8561C261.902 25.2753 257.375 25.3286 254.605 26.9627C251.835 28.5968 251.853 31.2256 254.658 32.8064C257.463 34.3872 261.99 34.3339 264.76 32.6998Z" fill="white"/>
<path d="M280.153 41.3854C282.922 39.7513 282.904 37.1226 280.099 35.5418C277.294 33.9609 272.767 34.0142 269.998 35.6483C267.228 37.2824 267.246 39.9112 270.051 41.492C272.856 43.0728 277.383 43.0196 280.153 41.3854Z" fill="white"/>
<path d="M295.563 50.0533C298.332 48.4192 298.315 45.7904 295.51 44.2096C292.704 42.6288 288.177 42.6821 285.408 44.3162C282.638 45.9503 282.656 48.5791 285.461 50.1599C288.266 51.7407 292.793 51.6874 295.563 50.0533Z" fill="white"/>
<path d="M49.1421 440C70.8309 440 88.4131 429.845 88.4131 417.318C88.4131 404.791 70.8309 394.636 49.1421 394.636C27.4533 394.636 9.87109 404.791 9.87109 417.318C9.87109 429.845 27.4533 440 49.1421 440Z" fill="#EFEFEF"/>
<path d="M98.2842 397.975V388.934H95.6745C93.331 384.902 89.4429 381.119 83.8861 377.904C64.6944 366.821 33.59 366.821 14.3984 377.904C8.8415 381.119 4.95346 384.902 2.60998 388.934H0.000195812V397.904C-0.0353114 405.187 4.75817 412.487 14.3806 418.046C33.5723 429.13 64.6766 429.13 83.8683 418.046C93.4553 412.504 98.2665 405.24 98.2665 397.975H98.2842Z" fill="#203035"/>
<path d="M49.142 417.318C76.2824 417.318 98.2841 404.61 98.2841 388.934C98.2841 373.258 76.2824 360.551 49.142 360.551C22.0016 360.551 0 373.258 0 388.934C0 404.61 22.0016 417.318 49.142 417.318Z" fill="#32454C"/>
<path d="M83.8858 409.005C64.6942 420.089 33.5898 420.089 14.3982 409.005C5.20178 403.694 0.461562 396.803 0.0887364 389.84C-0.319597 397.407 4.42062 405.044 14.3982 410.817C33.5898 421.901 64.6942 421.901 83.8858 410.817C93.8811 405.044 98.6213 397.407 98.1953 389.84C97.8224 396.803 93.0822 403.694 83.8858 409.005Z" fill="white"/>
<path d="M25.4591 398.33C24.6247 397.851 24.1631 397.211 24.1631 396.519L24.2163 378.028C24.2163 376.625 26.2048 375.471 28.637 375.471C31.087 375.471 33.0577 376.625 33.0577 378.028L33.0221 393.357L77.5127 387.904C79.9095 387.602 82.2529 388.49 82.75 389.876C83.2649 391.261 81.7381 392.611 79.3413 392.913L29.5069 399.023C28.1932 399.183 26.8439 398.988 25.7964 398.508C25.6721 398.455 25.5656 398.401 25.4591 398.33Z" fill="white"/>
<path d="M451.28 177.655L384.686 138.792L380.496 141.172L447.108 180.036L451.28 177.655Z" fill="#E2FFF0"/>
<path d="M449.416 155.471L402.937 128.348L398.747 130.746L445.244 157.869L449.416 155.471Z" fill="#E2FFF0"/>
<path d="M434.023 157.034L393.811 133.57L389.621 135.968L429.851 159.432L434.023 157.034Z" fill="#E2FFF0"/>
<path d="M460.405 172.433L440.29 160.693L436.118 163.091L456.233 174.813L460.405 172.433Z" fill="#E2FFF0"/>
<path d="M285.584 267.744L218.973 228.899L214.801 231.279L281.412 270.142L285.584 267.744Z" fill="#E2FFF0"/>
<path d="M283.721 245.577L237.242 218.455L233.052 220.835L279.549 247.957L283.721 245.577Z" fill="#E2FFF0"/>
<path d="M268.328 247.14L228.116 223.677L223.926 226.057L264.155 249.52L268.328 247.14Z" fill="#E2FFF0"/>
<path d="M294.71 262.522L274.595 250.799L270.423 253.179L290.538 264.92L294.71 262.522Z" fill="#E2FFF0"/>
<path d="M441.976 413.748C466.494 427.904 506.244 427.904 530.762 413.748C555.28 399.591 555.28 376.625 530.762 362.469C506.244 348.313 466.494 348.313 441.976 362.469C417.458 376.625 417.458 399.591 441.976 413.748ZM465.961 376.323C477.235 369.805 495.503 369.805 506.777 376.323C518.051 382.842 518.051 393.393 506.777 399.893C495.503 406.412 477.235 406.412 465.961 399.893C454.688 393.375 454.688 382.824 465.961 376.323Z" fill="#EFEFEF"/>
<path d="M540.012 354.067L517.625 354.423C515.974 352.274 513.613 350.249 510.559 348.472C498.238 341.368 478.887 340.817 465.465 346.821L452.15 334.298L431.662 334.618C432.674 333.961 433.722 333.304 434.805 332.664C463.281 316.217 509.441 316.217 537.918 332.664C543.155 335.684 547.416 339.059 550.736 342.647L540.012 354.067Z" fill="#32454C"/>
<path d="M431.662 302.078V334.6L452.15 334.281V301.758L431.662 302.078Z" fill="#203035"/>
<path d="M465.465 314.281V346.803L452.149 334.281V301.758L465.465 314.281Z" fill="#32454C"/>
<path d="M517.625 321.883V354.423L488.172 330.409L465.465 346.821V314.281L486.379 304.139C486.379 304.139 515.157 312.948 516.666 313.321C518.175 313.694 517.643 321.883 517.643 321.883H517.625Z" fill="#32454C"/>
<path d="M540.012 321.528V354.067L517.625 354.423V321.883L540.012 321.528Z" fill="#32454C"/>
<path d="M550.736 310.107V342.647L540.013 354.067V321.528L550.736 310.107Z" fill="#203035"/>
<path d="M540.012 321.528L517.625 321.883C515.974 319.734 513.613 317.709 510.559 315.932C498.238 308.828 478.887 308.277 465.465 314.281L452.15 301.758L431.662 302.078C432.674 301.421 433.722 300.764 434.805 300.124C463.281 283.677 509.441 283.677 537.918 300.124C543.155 303.144 547.416 306.519 550.736 310.107L540.012 321.528Z" fill="#A4B6AD"/>
<path d="M458.718 318.277V348.188L439.331 343.535C439.331 343.535 440.467 326.039 440.876 325.559C441.284 325.098 458.718 318.259 458.718 318.259V318.277Z" fill="#E2FFF0"/>
<path d="M473.382 348.188V380.728L471.287 382.966L457.617 375.08C457.617 375.08 459.73 350.249 459.978 349.751C460.227 349.254 473.365 348.206 473.365 348.206L473.382 348.188Z" fill="#203035"/>
<path d="M446.983 339.787L458.7 350.817C448.936 358.544 450.09 369.432 462.162 376.412C465.465 378.33 469.282 379.751 473.365 380.728L461.257 393.641L471.998 403.748C458.363 402.167 445.368 398.348 434.804 392.238C410.322 378.099 406.913 356.412 424.525 340.16L447.001 339.805L446.983 339.787Z" fill="#32454C"/>
<path d="M471.998 371.19V403.73L445.42 393.464L413.464 362.948L413.588 328.401L447.391 355.222L471.998 371.19Z" fill="#32454C"/>
<path d="M446.983 307.247L458.7 318.277C448.936 326.004 450.09 336.892 462.162 343.872C465.465 345.79 469.282 347.211 473.365 348.188L461.257 361.101L471.998 371.208C458.363 369.627 445.368 365.808 434.804 359.698C410.322 345.559 406.913 323.872 424.525 307.62L447.001 307.265L446.983 307.247Z" fill="#02CB63"/>
<path d="M472.087 393.464L482.757 382.078C492.663 382.682 502.943 380.799 510.541 376.412C518.388 371.883 521.62 365.702 520.253 359.805L545.676 359.414L555.458 348.988C564.015 363.677 558.174 380.533 537.917 392.238C523.04 400.835 503.333 404.92 483.84 404.547L472.087 393.481V393.464Z" fill="#32454C"/>
<path d="M483.84 371.989V404.529L559.257 362.7V330.16L548.25 334.6L483.84 371.989Z" fill="#32454C"/>
<path d="M472.087 360.924V393.464L483.84 404.529V371.989L472.087 360.924Z" fill="#203035"/>
<path d="M472.087 360.924L482.757 349.538C492.663 350.142 502.943 348.259 510.541 343.872C518.388 339.343 521.62 333.162 520.253 327.265L545.676 326.874L555.458 316.448C564.015 331.137 558.174 347.993 537.917 359.698C523.04 368.295 503.333 372.38 483.84 372.007L472.087 360.941V360.924Z" fill="#E2FFF0"/>
</g>
<defs>
<clipPath id="clip0_9057_14184">
<rect width="588" height="440" fill="white"/>
</clipPath>
</defs>
</svg>
