<svg width="560" height="442" viewBox="0 0 560 442" fill="none" xmlns="http://www.w3.org/2000/svg">
<g clip-path="url(#clip0_11340_4634)">
<rect x="-2.5" y="-2.5" width="565" height="447" rx="26.5" fill="white" stroke="#E3E3E3" stroke-width="5"/>
<g clip-path="url(#clip1_11340_4634)">
<path d="M34.752 473.351H100.401V226.332H34.752V473.351Z" fill="#F3F2F1"/>
<path d="M456.109 471.987H390.459V308.477H456.109V471.987Z" fill="#F3F2F1"/>
<path d="M556.366 471.987H490.717V179.957H556.366V471.987Z" fill="#F3F2F1"/>
<path d="M279.24 471.987H344.89V190.558H279.24V471.987Z" fill="#F3F2F1"/>
<path d="M147.537 471.987H213.186V110.879H147.537V471.987Z" fill="#F3F2F1"/>
<path d="M490.717 -50.4766C490.717 -50.4766 490.399 -50.1398 489.759 -49.5032C489.107 -48.8604 488.15 -47.9192 486.897 -46.6832C484.362 -44.2025 480.631 -40.5515 475.809 -35.8341C466.129 -26.3981 452.077 -12.7005 434.554 4.38185C399.451 38.5243 350.448 86.1872 294.803 140.309L294.557 140.549L294.337 140.285C283.349 127.131 271.867 113.383 260.16 99.3671C228.723 61.7062 198.906 25.9859 172.442 -5.71672L172.911 -5.74272C141.793 41.0025 115.489 80.5162 96.9573 108.355C87.6806 122.252 80.3509 133.232 75.3328 140.75C72.8228 144.492 70.8922 147.369 69.5818 149.322C68.9302 150.285 68.434 151.018 68.0937 151.52C67.7572 152.011 67.5762 152.255 67.5762 152.255C67.5762 152.255 67.7301 151.994 68.0535 151.494C68.3846 150.984 68.8677 150.244 69.5024 149.27C70.7954 147.305 72.7003 144.411 75.1774 140.647C80.163 133.108 87.4463 122.097 96.6639 108.16C115.149 80.2896 141.385 40.7312 172.423 -6.06721L172.641 -6.39417L172.892 -6.09198C199.369 25.5995 229.203 61.3061 260.656 98.9534C272.361 112.972 283.841 126.721 294.825 139.878L294.359 139.853C350.065 85.7934 399.12 38.1849 434.261 4.08089C451.842 -12.942 465.94 -26.5926 475.651 -35.9976C480.506 -40.6803 484.262 -44.3053 486.815 -46.7674C488.087 -47.9848 489.056 -48.9124 489.717 -49.5453C490.372 -50.1682 490.717 -50.4766 490.717 -50.4766Z" fill="#E7E8E5"/>
<path d="M184.849 -5.90502C184.849 0.818687 179.395 6.26801 172.667 6.26801C165.94 6.26801 160.486 0.818687 160.486 -5.90502C160.486 -12.6287 165.94 -18.0793 172.667 -18.0793C179.395 -18.0793 184.849 -12.6287 184.849 -5.90502Z" fill="#E7E8E5"/>
<path d="M79.758 152.255C79.758 158.979 74.3037 164.428 67.5763 164.428C60.8484 164.428 55.3945 158.979 55.3945 152.255C55.3945 145.531 60.8484 140.081 67.5763 140.081C74.3037 140.081 79.758 145.531 79.758 152.255Z" fill="#E7E8E5"/>
<path d="M306.763 140.081C306.763 146.805 301.309 152.255 294.581 152.255C287.854 152.255 282.4 146.805 282.4 140.081C282.4 133.358 287.854 127.908 294.581 127.908C301.309 127.908 306.763 133.358 306.763 140.081Z" fill="#E7E8E5"/>
<path d="M59.4316 -9.94868C52.9447 -3.23363 53.1325 7.46562 59.8517 13.9478C66.5709 20.4313 77.2767 20.243 83.7631 13.528C90.2494 6.81292 90.0621 -3.88506 83.3429 -10.3685C76.6236 -16.8507 65.9183 -16.6625 59.4316 -9.94868ZM51.0296 -30.931C54.0097 -32.7305 57.1819 -34.0953 60.4545 -35.0242L62.3957 -44.3475L78.1567 -44.6237L80.4252 -35.3759C83.7282 -34.5622 86.9469 -33.3101 89.989 -31.6159L97.9542 -36.8336L109.295 -25.8904L104.358 -17.7536C106.159 -14.775 107.525 -11.6033 108.453 -8.33245L117.781 -6.39297L118.058 9.35801L108.804 11.6257C107.991 14.9262 106.737 18.1413 105.042 21.1818L110.262 29.1427L99.3141 40.4761L91.1702 35.542C88.1896 37.3415 85.0169 38.7063 81.7443 39.6339L79.8027 48.9572L64.0421 49.2334L61.7731 39.9856C58.4706 39.172 55.2524 37.9186 52.2103 36.2256L44.2446 41.4433L32.9042 30.5013L37.8415 22.3633C36.0402 19.3848 34.674 16.2142 33.745 12.9434L24.4171 11.0027L24.1406 -4.7483L33.3951 -7.01593C34.2088 -10.3152 35.4626 -13.5328 37.1569 -16.5721L31.9359 -24.533L42.8847 -35.8664L51.0296 -30.931Z" fill="#E7E8E5"/>
<path d="M321.603 -33.3076C313.541 -24.9627 313.774 -11.6652 322.125 -3.60886C330.477 4.4487 343.781 4.21587 351.844 -4.13149C359.906 -12.4764 359.673 -25.774 351.321 -33.8303C342.971 -41.8878 329.665 -41.6537 321.603 -33.3076ZM311.16 -59.3876C314.864 -61.6243 318.808 -63.321 322.874 -64.4752L325.286 -76.0625L344.877 -76.4055L347.695 -64.9112C351.801 -63.9006 355.801 -62.3451 359.582 -60.2384L369.483 -66.7243L383.577 -53.1233L377.442 -43.0099C379.68 -39.3068 381.377 -35.3647 382.531 -31.3001L394.125 -28.89L394.469 -9.31207L382.967 -6.49452C381.956 -2.39267 380.398 1.60389 378.292 5.38249L384.781 15.278L371.172 29.3632L361.051 23.2302C357.347 25.4682 353.402 27.1636 349.335 28.3179L346.922 39.9051L327.333 40.2482L324.513 28.7526C320.409 27.742 316.408 26.1852 312.627 24.0798L302.727 30.5658L288.632 16.9648L294.769 6.85135C292.53 3.14829 290.832 -0.791325 289.677 -4.85725L278.084 -7.26857L277.74 -26.8452L289.242 -29.664C290.253 -33.7646 291.812 -37.7624 293.918 -41.541L287.429 -51.4353L301.036 -65.5217L311.16 -59.3876Z" fill="#F3F2F1"/>
<path d="M516.618 31.5751C512.027 36.3272 512.159 43.9005 516.916 48.4903C521.672 53.0788 529.25 52.9451 533.842 48.1918C538.433 43.4398 538.301 35.8652 533.544 31.2766C528.788 26.6881 521.21 26.8218 516.618 31.5751ZM510.671 16.722C512.78 15.4476 515.026 14.4816 517.342 13.824L518.716 7.22536L529.873 7.02966L531.478 13.575C533.817 14.1509 536.095 15.0377 538.248 16.2378L543.887 12.5434L551.914 20.2888L548.419 26.0503C549.694 28.1581 550.661 30.4035 551.319 32.7182L557.921 34.0917L558.118 45.2405L551.567 46.8456C550.991 49.1813 550.103 51.4589 548.904 53.6102L552.599 59.2453L544.849 67.2681L539.085 63.7756C536.975 65.0488 534.729 66.0148 532.413 66.6724L531.038 73.271L519.881 73.4667L518.276 66.9201C515.938 66.3442 513.66 65.4575 511.507 64.2586L505.869 67.953L497.841 60.2063L501.335 54.4461C500.06 52.3382 499.093 50.0941 498.437 47.7782L491.833 46.4047L491.637 35.2559L498.188 33.6508C498.764 31.3138 499.652 29.0375 500.851 26.8862L497.155 21.2511L504.906 13.2283L510.671 16.722Z" fill="#F3F2F1"/>
<path d="M378.353 473.678H480.073C482.016 473.678 483.553 472.031 483.415 470.094L478.338 398.152C478.214 396.401 476.758 395.042 475 395.04L381.618 394.907C379.825 394.905 378.346 396.314 378.266 398.103L375.005 470.178C374.92 472.084 376.443 473.678 378.353 473.678Z" fill="#17282F"/>
<path d="M392.385 473.678C392.543 473.678 392.669 456.073 392.669 434.362C392.669 412.644 392.543 395.043 392.385 395.043C392.229 395.043 392.102 412.644 392.102 434.362C392.102 456.073 392.229 473.678 392.385 473.678Z" fill="#33535F"/>
<path d="M393.591 396.908C393.582 396.913 393.634 397.011 393.743 397.195C393.872 397.406 394.036 397.674 394.24 398.008C394.71 398.747 395.368 399.782 396.203 401.097C397.933 403.762 400.444 407.62 403.833 412.191C407.258 416.72 411.554 422.037 417.338 426.903C420.218 429.337 423.483 431.611 427.101 433.571C430.728 435.482 434.815 437.007 439.205 437.359C443.602 437.726 447.891 436.737 451.696 435.197C455.508 433.634 458.928 431.534 461.863 429.151C467.742 424.354 471.626 418.553 474.001 413.39C476.393 408.195 477.245 403.586 477.595 400.437C477.665 399.643 477.745 398.941 477.779 398.329C477.786 397.727 477.794 397.21 477.799 396.779C477.799 396.387 477.799 396.072 477.799 395.827C477.795 395.613 477.789 395.503 477.779 395.503C477.769 395.503 477.756 395.613 477.74 395.827C477.725 396.072 477.707 396.385 477.685 396.776C477.664 397.206 477.639 397.719 477.61 398.318C477.559 398.926 477.462 399.624 477.376 400.411C476.96 403.535 476.054 408.094 473.637 413.222C471.237 418.317 467.358 424.031 461.533 428.745C458.627 431.087 455.247 433.148 451.486 434.682C447.736 436.192 443.535 437.153 439.251 436.793C434.967 436.45 430.945 434.962 427.36 433.079C423.782 431.15 420.539 428.906 417.674 426.503C411.92 421.699 407.608 416.435 404.153 411.951C400.733 407.421 398.174 403.601 396.388 400.976C395.514 399.685 394.828 398.67 394.336 397.945C394.111 397.623 393.933 397.367 393.793 397.163C393.668 396.99 393.599 396.903 393.591 396.908Z" fill="#33535F"/>
<path d="M435.686 437.424C435.686 440 437.776 442.088 440.354 442.088C442.932 442.088 445.022 440 445.022 437.424C445.022 434.847 442.932 432.759 440.354 432.759C437.776 432.759 435.686 434.847 435.686 437.424Z" fill="#33535F"/>
<path d="M408.371 380.393C410.324 378.585 413.07 377.916 415.719 377.654C422.107 377.021 429.139 378.348 434.722 381.516C440.305 384.684 444.413 389.962 447.142 395.769L443.475 399.605C441.975 393.567 438.629 388.311 433.435 384.88C428.243 381.45 422.724 379.878 416.577 380.865C415.166 381.092 413.168 381.619 411.996 382.439C409.598 384.116 409.23 386.066 409.654 388.554C410.279 392.233 411.205 393.833 412.78 395.806C410.08 395.869 409.45 395.884 406.75 395.947C406.068 393.289 405.382 390.591 405.43 387.846C405.48 385.102 406.356 382.258 408.371 380.393Z" fill="#17282F"/>
<path d="M306.232 451.114H267.668V435.93H306.232V451.114Z" fill="#FAFAF9"/>
<path d="M387.174 436.503H266.062V433.323H387.174V436.503Z" fill="#33535F"/>
<path d="M306.232 434.08L306.415 453.01H387.173V434.08H306.232Z" fill="#33535F"/>
<path d="M325.86 443.526C325.86 446.128 323.905 448.237 321.494 448.237C319.083 448.237 317.129 446.128 317.129 443.526C317.129 440.924 319.083 438.815 321.494 438.815C323.905 438.815 325.86 440.924 325.86 443.526Z" fill="#17282F"/>
<path d="M321.494 439.492C319.46 439.492 317.807 441.302 317.807 443.526C317.807 445.75 319.46 447.561 321.494 447.561C323.526 447.561 325.182 445.75 325.182 443.526C325.182 441.302 323.526 439.492 321.494 439.492ZM321.494 448.914C318.714 448.914 316.451 446.497 316.451 443.526C316.451 440.555 318.714 438.139 321.494 438.139C324.275 438.139 326.536 440.555 326.536 443.526C326.536 446.497 324.275 448.914 321.494 448.914Z" fill="#DADBD8"/>
<path d="M303.334 442.102C303.334 442.296 295.41 442.455 285.638 442.455C275.863 442.455 267.941 442.296 267.941 442.102C267.941 441.907 275.863 441.749 285.638 441.749C295.41 441.749 303.334 441.907 303.334 442.102Z" fill="#17282F"/>
<path d="M303.334 439.456C303.334 439.65 295.41 439.809 285.638 439.809C275.863 439.809 267.941 439.65 267.941 439.456C267.941 439.262 275.863 439.104 285.638 439.104C295.41 439.104 303.334 439.262 303.334 439.456Z" fill="#17282F"/>
<path d="M378.217 448.237H341.824V438.106H378.217V448.237Z" fill="white"/>
<path d="M347.493 447.208C347.298 447.208 347.141 445.401 347.141 443.171C347.141 440.942 347.298 439.135 347.493 439.135C347.687 439.135 347.846 440.942 347.846 443.171C347.846 445.401 347.687 447.208 347.493 447.208Z" fill="#DADBD8"/>
<path d="M352.304 447.208C352.11 447.208 351.951 445.401 351.951 443.171C351.951 440.942 352.11 439.135 352.304 439.135C352.499 439.135 352.658 440.942 352.658 443.171C352.658 445.401 352.499 447.208 352.304 447.208Z" fill="#DADBD8"/>
<path d="M357.117 447.208C356.922 447.208 356.764 445.401 356.764 443.171C356.764 440.942 356.922 439.135 357.117 439.135C357.311 439.135 357.47 440.942 357.47 443.171C357.47 445.401 357.311 447.208 357.117 447.208Z" fill="#DADBD8"/>
<path d="M361.929 447.208C361.735 447.208 361.576 445.401 361.576 443.171C361.576 440.942 361.735 439.135 361.929 439.135C362.124 439.135 362.283 440.942 362.283 443.171C362.283 445.401 362.124 447.208 361.929 447.208Z" fill="#DADBD8"/>
<path d="M366.742 447.208C366.547 447.208 366.389 445.401 366.389 443.171C366.389 440.942 366.547 439.135 366.742 439.135C366.936 439.135 367.095 440.942 367.095 443.171C367.095 445.401 366.936 447.208 366.742 447.208Z" fill="#DADBD8"/>
<path d="M371.552 447.208C371.358 447.208 371.199 445.401 371.199 443.171C371.199 440.942 371.358 439.135 371.552 439.135C371.747 439.135 371.906 440.942 371.906 443.171C371.906 445.401 371.747 447.208 371.552 447.208Z" fill="#DADBD8"/>
<path d="M232.587 91.6142L222.606 89.6165C215.895 93.3791 207.976 95.2021 199.632 94.3438C179.955 92.3164 164.77 75.3368 164.915 55.5682C165.082 32.7269 184.838 14.9238 207.743 17.2979C227.189 19.3129 242.268 35.9135 242.43 55.4493C242.511 65.1454 239.054 73.9547 233.321 80.754L233.338 80.7403L232.587 91.6142Z" fill="white"/>
<path d="M232.588 91.6142C232.588 91.6142 232.589 91.3553 232.613 90.8785C232.64 90.3757 232.677 89.676 232.726 88.7744C232.835 86.9129 232.993 84.2155 233.198 80.7317L233.42 80.858L233.402 80.8704L233.204 80.8357L233.213 80.6611C236.259 76.9815 239.752 71.4431 241.33 63.9812C242.129 60.272 242.391 56.1305 241.955 51.7661C241.482 47.4103 240.197 42.8515 237.967 38.4772C235.719 34.1177 232.501 29.9713 228.402 26.5135C224.31 23.0717 219.343 20.248 213.768 18.799C208.221 17.3054 202.15 17.0465 196.192 18.1946C190.218 19.3042 184.436 22.0537 179.53 26.0329C176.989 27.986 174.881 30.3849 172.925 32.8285C172.042 34.1202 171.136 35.3983 170.363 36.7396L169.283 38.793L168.752 39.8185L168.324 40.8873C165.932 46.5397 165.025 52.607 165.366 58.3919C165.679 64.1992 167.515 69.6683 170.121 74.3882C172.748 79.1155 176.241 83.0947 180.123 86.1513C184.023 89.1979 188.288 91.3368 192.499 92.6347C193.566 92.9084 194.615 93.1784 195.648 93.4434C196.685 93.6837 197.732 93.7877 198.745 93.9623C200.777 94.2794 202.769 94.3388 204.667 94.3104C212.314 94.1531 218.398 91.7702 222.539 89.4964L222.634 89.4815C225.807 90.1515 228.275 90.6729 229.983 91.0346C230.81 91.2142 231.45 91.3529 231.914 91.4532C232.353 91.551 232.588 91.6142 232.588 91.6142C232.588 91.6142 232.382 91.5894 231.955 91.5139C231.496 91.4296 230.862 91.3132 230.045 91.1634C228.309 90.8364 225.802 90.3621 222.58 89.7527L222.674 89.7367C218.535 92.0811 212.411 94.5469 204.678 94.7587C202.757 94.8008 200.744 94.7525 198.684 94.4441C197.657 94.2732 196.596 94.1729 195.542 93.9351C194.495 93.6725 193.429 93.4038 192.346 93.1326C188.071 91.8371 183.734 89.6871 179.765 86.6095C175.812 83.522 172.253 79.4932 169.568 74.6953C166.906 69.9073 165.028 64.3466 164.698 58.4365C164.34 52.55 165.256 46.3762 167.686 40.6185L168.121 39.5286L168.661 38.4846C169.027 37.7898 169.392 37.0926 169.759 36.3928C170.546 35.0268 171.466 33.7251 172.367 32.4099C174.354 29.9193 176.503 27.4782 179.087 25.488C184.084 21.4382 189.974 18.6417 196.057 17.5146C202.125 16.3505 208.301 16.623 213.946 18.1525C219.617 19.6387 224.662 22.5206 228.811 26.0304C232.969 29.5552 236.223 33.7771 238.488 38.2109C240.736 42.6595 242.019 47.2927 242.476 51.7116C242.896 56.1379 242.606 60.3289 241.774 64.0766C240.125 71.6165 236.545 77.1785 233.431 80.8456L233.241 80.6363L233.259 80.6239L233.457 80.6586L233.482 80.7515C233.203 84.2675 232.986 86.9922 232.837 88.8697C232.762 89.7565 232.703 90.4413 232.661 90.9355C232.62 91.395 232.588 91.6142 232.588 91.6142Z" fill="#17282F"/>
<path d="M186.488 58.3263L191.344 53.1321L201.33 61.4139L219.736 42.4676L224.574 47.3323L200.942 71.126L186.488 58.3263Z" fill="#02CB63"/>
<path d="M501.802 26.511H470.253L378.189 81.8834C378.533 82.4011 389.399 90.2544 403.594 100.396L270.275 345.712L158.7 296.466L59.9062 473.914H113.89L181.963 349.649L284.352 397.049L327.754 402.226L445.248 130.005C460.011 140.465 471.352 148.473 471.352 148.473H502.901C502.901 148.473 493.701 71.3019 493.701 70.6888C493.701 70.0758 501.802 26.511 501.802 26.511Z" fill="#02CB63"/>
<path d="M91.8458 473.914H59.9062L111.651 380.973L130.999 394.862L178.853 316.927L91.8458 473.914Z" fill="#0AAD59"/>
<path d="M327.754 402.226L284.352 397.049L213.187 364.105L207.441 361.444L213.902 349.649L327.756 402.226H327.754ZM302.215 345.712L276.625 334.027L276.804 333.699C282.383 335.19 287.824 336.062 292.178 336.062C294.938 336.061 297.264 335.711 298.914 334.948C308.603 330.464 323.398 303.716 323.398 303.716L326.111 301.741L302.215 345.712Z" fill="#0AAD59"/>
<path d="M355.273 248.083C369.522 217.397 382.61 184.776 379.565 173.754C378.043 168.245 374.589 164.426 370.648 161.019L403.595 100.396C389.4 90.2543 378.534 82.4011 378.189 81.8834L470.253 26.511H501.803C501.803 26.511 499.863 36.939 497.882 47.663C495.814 58.8589 493.701 70.3767 493.701 70.6888C493.701 71.3018 502.902 148.473 502.902 148.473H471.352C471.352 148.473 469.522 147.18 466.375 144.956L488.285 104.295L445.595 81.8834L355.271 248.084" fill="#0AAD59"/>
<path d="M91.8457 473.914L191.035 294.945L302.215 345.712L445.594 81.8834L488.284 104.295L327.755 402.226L213.901 349.649L145.829 473.914H91.8457Z" fill="#02CB63"/>
<path d="M409.738 81.8834C410.754 83.4068 502.902 148.473 502.902 148.473L501.803 26.511L409.738 81.8834Z" fill="#02CB63"/>
<path d="M409.738 81.8834C409.738 82.0617 402.675 82.2054 393.964 82.2054C385.251 82.2054 378.189 82.0617 378.189 81.8834C378.189 81.7051 385.251 81.5602 393.964 81.5602C402.675 81.5602 409.738 81.7051 409.738 81.8834Z" fill="#17282F"/>
<path d="M434.384 100.91C434.384 101.089 427.322 101.233 418.611 101.233C409.897 101.233 402.836 101.089 402.836 100.91C402.836 100.732 409.897 100.588 418.611 100.588C427.322 100.588 434.384 100.732 434.384 100.91Z" fill="#17282F"/>
<path d="M197.44 211.373C197.44 211.373 195.527 212.205 195.227 209.65C194.927 207.095 200.255 201.777 201.959 200.089C203.663 198.4 206.098 198.763 208.258 199.243C210.419 199.725 219.265 200.615 222.199 202.498C225.133 204.38 229.626 213.824 230.563 214.272C231.499 214.72 259.093 216.158 259.093 216.158L257.906 238.759C257.906 238.759 230.823 233.602 225.459 230.25C220.096 226.897 220.801 225.562 219.275 222.434C217.751 219.306 216.114 215.986 216.114 215.986L213.58 215.566L209.515 217.808C209.515 217.808 209.035 223.545 205.012 223.4L203.041 222.362C203.041 222.362 201.725 223.881 200.226 221.532C198.728 219.183 199.012 218.744 199.012 218.744C199.012 218.744 197.435 220.694 195.731 218.276C194.027 215.859 197.44 211.373 197.44 211.373Z" fill="#B96357"/>
<path d="M227.168 220.967C227.172 220.985 227.07 221.017 226.87 221.061C226.67 221.11 226.365 221.148 225.97 221.149C225.183 221.158 223.992 220.964 222.723 220.227C221.46 219.51 220.134 218.219 219.284 216.416C218.408 214.625 217.979 212.421 217.856 210.084L218.295 210.35C216.481 211.189 214.343 211.728 212.106 211.806C210.535 211.866 208.995 211.691 207.558 211.328C206.871 211.125 206.077 211.02 205.478 210.362C205.16 210.05 205.084 209.4 205.408 209.032C205.703 208.665 206.074 208.535 206.383 208.405C208.867 207.4 211.149 206.616 213.086 206.026C215.022 205.434 216.612 205.034 217.715 204.784C218.819 204.536 219.438 204.436 219.448 204.477C219.457 204.523 218.86 204.705 217.778 205.027C216.698 205.351 215.134 205.816 213.225 206.46C211.317 207.102 209.064 207.925 206.61 208.954C206.31 209.077 206.025 209.215 205.892 209.396C205.766 209.573 205.773 209.768 205.947 209.962C206.307 210.384 207.025 210.534 207.712 210.715C209.093 211.056 210.573 211.219 212.082 211.161C214.234 211.087 216.289 210.579 218.037 209.786L218.455 209.598L218.475 210.053C218.575 212.342 218.963 214.469 219.764 216.189C220.541 217.923 221.746 219.159 222.925 219.894C224.103 220.639 225.221 220.884 225.977 220.941C226.741 220.996 227.161 220.918 227.168 220.967Z" fill="#6F3430"/>
<path d="M213.199 205.469C213.251 205.536 212.267 206.067 210.594 205.975C209.772 205.966 208.804 205.827 207.78 205.895C206.737 205.942 205.76 206.384 204.956 207.314C203.279 209.186 201.273 210.423 199.764 211.052C198.242 211.694 197.222 211.825 197.206 211.754C197.177 211.653 198.143 211.367 199.57 210.64C200.998 209.914 202.849 208.696 204.491 206.866C204.924 206.419 205.407 205.959 206.001 205.701C206.578 205.426 207.188 205.327 207.746 205.302C208.87 205.265 209.824 205.457 210.621 205.52C212.22 205.722 213.16 205.376 213.199 205.469Z" fill="#6F3430"/>
<path d="M207.512 211.492C207.663 211.541 206.548 214.084 203.995 216.252C201.462 218.446 198.779 219.162 198.752 219.006C198.675 218.821 201.152 217.866 203.575 215.763C206.021 213.69 207.342 211.388 207.512 211.492Z" fill="#6F3430"/>
<path d="M208.506 214.957C208.667 214.974 208.304 217.2 206.689 219.384C205.093 221.584 203.08 222.603 203.015 222.455C202.904 222.292 204.662 221.087 206.167 219.003C207.699 216.94 208.319 214.901 208.506 214.957Z" fill="#6F3430"/>
<path d="M291.846 167.324L267.153 211.852L228.827 211.192L225.947 234.193L265.496 243.884L281.779 226.015L291.846 167.324Z" fill="#DADBD8"/>
<path d="M270.233 219.407C270.042 219.424 269.804 217.594 268.948 215.525C268.113 213.448 267.003 211.972 267.152 211.852C267.267 211.733 268.662 213.093 269.545 215.281C270.445 217.464 270.399 219.411 270.233 219.407Z" fill="#17282F"/>
<path d="M301.235 88.5118C298.11 88.9254 294.856 86.6863 294.13 83.6223C293.402 80.557 295.306 77.0967 298.284 76.0663C296.3 74.107 295.752 70.8461 296.988 68.3469C298.222 65.8489 301.148 64.302 303.909 64.6859C303.973 61.9352 305.568 59.27 307.964 57.9114C310.358 56.5541 313.468 56.5528 315.863 57.909C318.855 55.2487 323.756 55.0604 326.943 57.4841C329.608 56.9417 332.549 58.3115 333.848 60.698C335.146 63.0858 334.698 66.2972 332.793 68.2366" fill="#17282F"/>
<path d="M328.445 63.8016L327.031 63.8301C312.811 64.1038 301.187 75.2439 300.319 89.4307C299.511 102.626 298.789 117.214 299.012 124.279C299.476 138.909 314.167 140.902 314.167 140.902L313.27 158.507L315.007 171.927L348.787 156.719L350.696 92.8935C351.712 77.6738 343.696 64.3961 328.445 63.8016Z" fill="#B96357"/>
<path d="M314.044 140.883C314.044 140.883 323.407 141.265 333.123 134.899C333.123 134.899 328.584 146.231 313.947 145.196L314.044 140.883Z" fill="#6F3430"/>
<path d="M305.073 104.347C305.054 105.452 305.976 106.377 307.13 106.417C308.281 106.456 309.23 105.595 309.248 104.491C309.266 103.386 308.345 102.46 307.193 102.42C306.039 102.38 305.09 103.244 305.073 104.347Z" fill="#17282F"/>
<path d="M303.606 96.5297C303.869 96.7972 305.431 95.5947 307.682 95.5575C309.928 95.4869 311.603 96.6127 311.842 96.3328C311.96 96.2077 311.686 95.721 310.957 95.212C310.238 94.7042 309.021 94.2212 307.62 94.2546C306.218 94.2893 305.049 94.8268 304.381 95.368C303.7 95.9129 303.475 96.4096 303.606 96.5297Z" fill="#17282F"/>
<path d="M324.129 103.88C324.111 104.984 325.033 105.909 326.186 105.948C327.338 105.988 328.287 105.127 328.304 104.023C328.323 102.919 327.401 101.991 326.25 101.952C325.096 101.912 324.147 102.775 324.129 103.88Z" fill="#17282F"/>
<path d="M325.732 96.5211C325.996 96.7886 327.56 95.586 329.81 95.5488C332.056 95.4795 333.731 96.604 333.969 96.3229C334.086 96.199 333.815 95.7123 333.084 95.2033C332.365 94.6955 331.149 94.2125 329.746 94.246C328.346 94.2806 327.176 94.8194 326.508 95.3593C325.829 95.903 325.602 96.4009 325.732 96.5211Z" fill="#17282F"/>
<path d="M317.889 113.357C317.896 113.228 316.493 113.014 314.221 112.769C313.646 112.72 313.099 112.616 312.995 112.226C312.851 111.814 313.079 111.191 313.346 110.517C313.859 109.118 314.395 107.649 314.959 106.111C317.199 99.8401 318.807 94.6881 318.554 94.6001C318.3 94.5122 316.28 99.5231 314.041 105.795C313.503 107.342 312.988 108.815 312.499 110.225C312.294 110.882 311.934 111.629 312.244 112.485C312.408 112.911 312.835 113.214 313.206 113.306C313.576 113.411 313.9 113.411 314.183 113.423C316.467 113.502 317.883 113.484 317.889 113.357Z" fill="#17282F"/>
<path d="M323.614 87.9061C323.921 88.4697 325.837 87.8145 328.21 87.6919C330.58 87.516 332.59 87.9247 332.796 87.3278C332.884 87.0429 332.452 86.5401 331.587 86.0992C330.73 85.6595 329.432 85.3313 328.011 85.4205C326.589 85.5109 325.363 85.9976 324.593 86.5401C323.815 87.0838 323.476 87.6362 323.614 87.9061Z" fill="#17282F"/>
<path d="M303.316 87.2584C303.799 87.76 305.646 87.194 307.879 87.1259C310.11 86.9922 312.011 87.3885 312.436 86.846C312.622 86.5835 312.313 86.0769 311.478 85.61C310.655 85.1444 309.284 84.7765 307.75 84.8446C306.217 84.9152 304.896 85.4044 304.129 85.9419C303.35 86.4819 303.101 87.0132 303.316 87.2584Z" fill="#17282F"/>
<path d="M301.596 82.6921C301.596 82.6921 305.28 73.4531 309.661 71.2288C314.964 68.5363 317.383 74.3634 322.456 72.84C327.53 71.3155 332.592 68.732 337.882 72.5725C343.673 76.7759 341.058 79.8535 341.536 86.3407C343.476 112.637 348.43 119.989 349.558 107.563C349.682 106.201 353.433 105.048 353.882 99.2977C354.462 91.8408 354.574 82.7986 352.809 77.5487C351.322 73.1249 348.722 70.098 344.102 66.795C336.808 61.581 326.93 61.6578 320.237 62.4616C313.543 63.2653 300.762 71.2288 301.596 82.6921Z" fill="#17282F"/>
<path d="M348.618 107.183C348.667 104.923 350.579 103.101 352.836 103.272C355.572 103.479 358.64 104.969 358.57 110.612C358.443 120.623 348.413 118.432 348.399 118.145C348.389 117.949 348.528 111.372 348.618 107.183Z" fill="#B96357"/>
<path d="M350.625 114.406C350.669 114.374 350.798 114.53 351.091 114.668C351.377 114.803 351.87 114.901 352.394 114.712C353.458 114.338 354.37 112.67 354.442 110.865C354.479 109.955 354.298 109.085 353.984 108.363C353.687 107.626 353.22 107.109 352.689 107.007C352.16 106.878 351.779 107.193 351.653 107.473C351.515 107.75 351.577 107.951 351.523 107.968C351.495 107.993 351.31 107.797 351.396 107.385C351.44 107.187 351.56 106.953 351.798 106.763C352.041 106.57 352.396 106.475 352.766 106.521C353.538 106.584 354.224 107.302 354.569 108.095C354.957 108.892 355.18 109.871 355.139 110.892C355.05 112.91 353.993 114.784 352.539 115.184C351.832 115.36 351.247 115.139 350.947 114.899C350.64 114.649 350.59 114.423 350.625 114.406Z" fill="#6F3430"/>
<path d="M348.046 87.8021C346.763 88.7149 345.406 89.6561 343.843 89.8407C342.279 90.0264 340.47 89.162 340.176 87.6164C340.044 86.9216 340.199 86.1104 339.73 85.5815C339.171 84.9499 338.166 85.1704 337.329 85.2756C334.424 85.6398 330.961 82.494 330.165 79.6777C329.444 80.8035 327.824 81.1701 326.687 80.4679C325.55 79.7669 325.133 79.3619 324.233 78.3724C323.335 77.3828 322.083 76.5072 320.764 76.7202C320.026 76.8403 319.342 77.2936 318.596 77.2428C317.278 77.1512 316.607 75.6254 316.382 74.325C316.158 73.0246 315.975 71.5062 314.847 70.8189C313.803 70.1823 312.472 70.5873 311.266 70.7891C310.059 70.991 308.49 70.7371 308.158 69.5605C307.984 68.9438 308.238 68.2849 308.571 67.7375C310.082 65.2544 313.461 64.0988 316.178 65.1355C317.092 61.8114 320.136 59.1784 323.56 58.7499C326.985 58.3226 330.584 60.1246 332.291 63.1217C334.369 61.1612 337.429 60.2967 340.226 60.8788C343.024 61.4597 345.485 63.4697 346.611 66.0953C349.034 65.4079 351.828 66.2947 353.409 68.254C354.989 70.2132 355.267 73.1298 354.081 75.3517C355.902 76.3437 357.477 78.1011 357.554 80.1706C357.632 82.2414 355.653 84.3431 353.642 83.8378C354.481 85.4342 353.867 87.635 352.321 88.5663C350.775 89.4976 348.54 89.0134 347.519 87.526" fill="#17282F"/>
<path d="M315.491 68.0942C315.483 68.0954 315.485 68.1574 315.497 68.2775C315.513 68.3976 315.523 68.5797 315.571 68.81C315.672 69.2708 315.871 69.9519 316.335 70.7247C316.802 71.4852 317.52 72.3608 318.602 73.0469C319.661 73.7404 321.106 74.2556 322.725 74.1355L322.551 73.9175C322.256 74.7795 322.361 75.805 322.805 76.6756C323.227 77.5636 323.878 78.3438 324.566 79.103C324.918 79.4684 325.225 79.8982 325.709 80.2301C326.178 80.5484 326.737 80.7267 327.307 80.7874C328.439 80.91 329.707 80.536 330.507 79.5712L330.131 79.4709C330.424 81.4549 331.594 83.4229 333.416 84.6019C334.381 85.2707 335.567 85.6682 336.725 85.615C337.883 85.5815 338.953 85.2199 339.951 84.8409L339.68 84.7295C340.243 85.9618 341.089 87.007 342.109 87.7712C343.111 88.5341 344.433 88.9675 345.617 88.653C347.969 88.1068 349.498 86.1129 349.778 84.2576L349.554 84.3678C350.739 84.9833 351.998 85.0205 353.004 84.8062C354.024 84.5994 354.818 84.1387 355.382 83.6904C355.948 83.2321 356.279 82.7677 356.478 82.4457C356.659 82.1125 356.732 81.9293 356.721 81.9243C356.67 81.8834 356.405 82.6909 355.278 83.5578C354.717 83.9715 353.938 84.3926 352.957 84.5685C351.989 84.753 350.796 84.6886 349.7 84.0978L349.51 83.9963L349.476 84.2081C349.192 85.9394 347.717 87.8009 345.535 88.2827C344.463 88.5551 343.3 88.1675 342.352 87.4455C341.399 86.7259 340.591 85.7178 340.068 84.5586L339.987 84.3753L339.798 84.4459C338.817 84.8162 337.783 85.1543 336.712 85.1827C335.642 85.2261 334.578 84.8731 333.658 84.239C331.936 83.1244 330.838 81.2828 330.551 79.4052L330.479 78.9321L330.174 79.3049C329.499 80.131 328.366 80.4864 327.348 80.3787C326.838 80.3267 326.342 80.1706 325.932 79.8957C325.533 79.6331 325.212 79.2083 324.855 78.8405C324.168 78.0937 323.535 77.3432 323.134 76.5183C322.712 75.7034 322.618 74.8018 322.868 74.0228L322.945 73.7825L322.694 73.8036C321.169 73.9361 319.779 73.4717 318.744 72.8215C317.688 72.1812 316.972 71.3502 316.495 70.6256C315.553 69.1296 315.563 68.0694 315.491 68.0942Z" fill="#33535F"/>
<path d="M318.528 121.042C318.578 120.668 321.05 121.135 323.209 119.355C325.371 117.58 325.597 114.894 325.946 114.94C326.108 114.936 326.315 115.618 326.132 116.736C325.961 117.833 325.307 119.359 323.987 120.447C322.665 121.532 321.123 121.813 320.093 121.704C319.041 121.6 318.481 121.209 318.528 121.042Z" fill="#17282F"/>
<path d="M247.164 262.709L266.232 241.692L282.177 193.534C285.433 185.179 288.226 174.57 292.171 166.649C294.112 162.753 297.381 159.68 301.361 157.913L308.13 154.908L312.179 148.451C309.847 163.057 330.33 164.855 352.099 146.722C352.099 146.722 359.29 151.584 369.426 159.985C373.863 163.663 377.887 167.682 379.565 173.754C382.61 184.776 369.522 217.397 355.273 248.083C351.009 257.263 330.706 298.395 330.706 298.395L323.398 303.716C323.398 303.716 258.788 284.153 252.976 273.432C247.164 262.709 247.164 262.709 247.164 262.709Z" fill="#DADBD8"/>
<path d="M257.741 250.178C257.726 250.163 257.912 249.946 258.281 249.548C258.701 249.107 259.246 248.535 259.923 247.822C261.424 246.288 263.509 244.155 266.071 241.533L266.018 241.621C267.212 237.952 268.638 233.565 270.227 228.681C271.869 223.791 273.533 218.363 275.216 212.624C278.473 201.371 281.555 191.193 284.402 184.042C285.782 180.453 287.077 177.62 287.988 175.675C288.447 174.761 288.815 174.025 289.099 173.462C289.359 172.959 289.504 172.7 289.525 172.71C289.545 172.72 289.437 172.998 289.215 173.517C288.961 174.094 288.629 174.845 288.216 175.779C287.378 177.753 286.15 180.604 284.828 184.204C282.098 191.376 279.094 201.545 275.835 212.806C274.154 218.542 272.462 223.993 270.789 228.866C269.15 233.734 267.676 238.104 266.445 241.763L266.426 241.815L266.39 241.851C263.766 244.413 261.632 246.497 260.098 247.997C259.386 248.675 258.813 249.218 258.372 249.638C257.973 250.007 257.756 250.194 257.741 250.178Z" fill="#17282F"/>
<path d="M317.062 169.974L294.716 261.524L271.506 273.06V250.665L311.671 167.985L317.062 169.974Z" fill="#02CB63"/>
<path d="M323.88 276.937C318.92 276.937 313.935 275.634 309.358 273.646C303.149 270.95 297.556 267.047 291.96 263.24C291.862 263.173 291.764 263.107 291.666 263.04L294.716 261.524L295.911 256.632L344.159 264.118C341.976 270.521 335.783 275.046 329.154 276.413C327.412 276.772 325.648 276.937 323.88 276.937Z" fill="#8F9192"/>
<path d="M291.665 263.04C286.164 259.302 280.547 255.622 274.322 253.282L295.909 256.632L294.715 261.524L291.665 263.04Z" fill="#0AAD59"/>
<path d="M308.131 154.624L313.843 145.884L316.086 157.859L321.778 151.423L350.019 138.219L354.921 148.712L323.717 167.153L315.062 166.508L308.752 159.023L308.131 154.624Z" fill="#DADBD8"/>
<path d="M308.131 154.624C308.204 154.617 308.329 155.291 308.559 156.43C308.842 157.796 309.162 159.338 309.517 161.045L308.953 160.96C309.437 160.074 309.953 159.13 310.489 158.148C311.342 156.639 312.141 155.225 312.869 153.939L313.174 153.4L313.376 153.974C313.876 155.401 314.143 156.605 314.368 157.441C314.58 158.278 314.712 158.755 314.655 158.778C314.601 158.801 314.362 158.356 314.055 157.54C313.737 156.73 313.387 155.531 312.853 154.176L313.36 154.211C312.654 155.509 311.88 156.938 311.054 158.46C310.507 159.437 309.98 160.375 309.486 161.255L309.08 161.977L308.92 161.171C308.171 157.394 307.977 154.637 308.131 154.624Z" fill="#17282F"/>
<path d="M317.636 159.04L314.041 158.601C313.067 159.695 310.685 161.949 309.711 163.042L309.718 163.143C310.143 165.539 310.57 167.936 310.995 170.331C313.004 170.233 315.026 170.395 316.994 170.813C318.194 168.708 319.098 167.122 320.299 165.018L317.636 159.04Z" fill="#02CB63"/>
<path d="M323.772 294.079C323.698 294.144 322.642 293.017 320.872 291.271C319.104 289.523 316.589 287.183 313.632 284.812C310.67 282.444 307.835 280.504 305.743 279.16C303.65 277.816 302.321 277.032 302.368 276.945C302.389 276.906 302.746 277.057 303.376 277.363C304.007 277.665 304.898 278.144 305.981 278.771C308.147 280.022 311.048 281.92 314.036 284.308C317.018 286.7 319.505 289.115 321.199 290.954C322.048 291.873 322.711 292.637 323.144 293.187C323.581 293.734 323.805 294.049 323.772 294.079Z" fill="#17282F"/>
<path d="M317.916 159.778L321.908 157.812L323.26 164.796L319.936 165.091L317.916 159.778Z" fill="#02CB63"/>
<path d="M321.363 170.813V166.977L323.372 167.127L323.404 167.324L323.702 167.152L323.718 167.153L324.88 166.465L350.781 151.394L321.363 170.813Z" fill="#8F9192"/>
<path d="M323.718 167.153L323.702 167.152L324.88 166.465L323.718 167.153ZM323.372 167.127L321.363 166.977V164.964L322.99 164.82L323.372 167.127ZM321.363 158.081V155.001L321.835 157.848L321.363 158.081Z" fill="#8F9192"/>
<path d="M321.363 164.964V158.081L321.835 157.848L322.99 164.82L321.363 164.964Z" fill="#0AAD59"/>
<path d="M354.92 148.712C354.945 148.748 354.335 149.206 353.21 150.002C352.074 150.783 350.409 151.885 348.296 153.154C344.095 155.737 338.062 158.897 331.561 162.63C328.814 164.223 326.222 165.824 323.889 167.404L323.502 167.666L323.418 167.21C322.526 162.381 321.751 158.192 321.169 155.038L321.5 155.142C320.227 156.327 319.191 157.293 318.395 158.034C317.666 158.696 317.264 159.04 317.238 159.012C317.212 158.986 317.566 158.592 318.248 157.883C319.01 157.108 320.004 156.098 321.224 154.86L321.482 154.598L321.557 154.964C322.194 158.107 323.04 162.282 324.015 167.095L323.544 166.901C325.88 165.291 328.48 163.67 331.238 162.071C337.763 158.326 343.816 155.235 348.065 152.762C350.201 151.545 351.897 150.505 353.073 149.792C354.238 149.062 354.894 148.675 354.92 148.712Z" fill="#17282F"/>
<path d="M314.083 159.937L312.434 155.9L309.711 160.9L310.877 162.712L314.083 159.937Z" fill="#02CB63"/>
<path d="M318.594 159.353C318.732 159.482 316.763 161.757 314.647 164.786C312.517 167.808 311.05 170.434 310.882 170.347C310.73 170.276 311.959 167.482 314.119 164.416C316.266 161.342 318.476 159.235 318.594 159.353Z" fill="#17282F"/>
<path d="M316.598 170.933C316.552 171.107 315.201 170.905 313.552 170.629C311.904 170.351 310.561 170.099 310.576 169.918C310.589 169.744 311.979 169.709 313.66 169.994C315.34 170.275 316.643 170.763 316.598 170.933Z" fill="#17282F"/>
<path d="M168.302 227.875L149.685 175.291C149.33 174.158 150.024 172.964 151.185 172.71L194.188 161.484C195.261 161.248 196.339 161.861 196.684 162.904L216.251 222.14L276.934 261.973L274.018 264.948L258.494 261.167L168.302 227.875Z" fill="#33535F"/>
<path d="M274.017 264.948C274.011 264.957 273.905 264.899 273.704 264.776C273.473 264.631 273.182 264.447 272.818 264.217C272.01 263.687 270.882 262.952 269.451 262.015C266.502 260.054 262.304 257.26 257.133 253.819C246.733 246.823 232.431 237.203 216.633 226.575C215.531 225.832 214.438 225.093 213.419 224.404L213.327 224.342L213.294 224.239C207.578 207.006 202.458 191.568 198.75 180.386C196.94 174.839 195.478 170.351 194.451 167.2C193.969 165.678 193.588 164.48 193.316 163.618C193.202 163.236 193.109 162.927 193.035 162.683C192.976 162.471 192.951 162.361 192.961 162.357C192.971 162.355 193.017 162.458 193.096 162.662C193.185 162.902 193.296 163.203 193.435 163.579C193.734 164.432 194.151 165.616 194.681 167.123C195.753 170.259 197.282 174.726 199.17 180.245C202.927 191.411 208.114 206.826 213.905 224.035L213.78 223.87C214.798 224.559 215.893 225.297 216.993 226.041C232.751 236.729 247.016 246.406 257.389 253.441C262.512 256.953 266.67 259.805 269.592 261.807C270.995 262.786 272.099 263.556 272.891 264.11C273.24 264.361 273.519 264.562 273.74 264.722C273.929 264.863 274.024 264.94 274.017 264.948Z" fill="#17282F"/>
<path d="M175.723 226.753C175.715 226.575 184.172 226.031 194.611 225.538C205.051 225.046 213.521 224.79 213.529 224.969C213.538 225.146 205.082 225.69 194.64 226.184C184.202 226.677 175.731 226.932 175.723 226.753Z" fill="#17282F"/>
<path d="M182.58 196.738C183.328 199.123 182.907 201.379 181.639 201.777C180.37 202.176 178.734 200.565 177.985 198.18C177.235 195.795 177.656 193.539 178.925 193.141C180.194 192.742 181.83 194.354 182.58 196.738Z" fill="#DADBD8"/>
<path d="M235.568 215.491C235.568 215.491 233.961 216.288 233.711 213.728C233.489 211.457 238.943 208.095 240.984 206.834C243.026 205.572 247.331 206.439 249.527 206.725C252.494 207.11 259.405 210.202 261.602 212.837C263.834 215.513 265.365 222.358 266.176 223.006C266.988 223.654 294.466 234.457 294.466 234.457L288.211 256.209C288.211 256.209 262.988 245.083 258.519 240.608C254.049 236.134 255.037 234.992 254.257 231.601C253.476 228.211 252.631 224.607 252.631 224.607L250.257 223.626L245.79 224.894C245.79 224.894 245.245 226.59 244.094 227.915C242.718 229.495 240.23 229.426 238.847 227.852C238.847 227.852 236.58 228.64 235.475 226.082C235.021 225.036 235.347 223.441 235.347 223.441C235.347 223.441 233.316 223.839 233.301 221.31C233.284 218.596 235.568 215.491 235.568 215.491Z" fill="#B96357"/>
<path d="M249.877 218.368C249.873 218.475 248.955 218.441 247.541 218.75C246.138 219.05 244.227 219.783 242.583 221.23C240.94 222.678 239.971 224.481 239.499 225.834C239.013 227.196 238.931 228.112 238.825 228.101C238.755 228.102 238.671 227.158 239.063 225.697C239.442 224.25 240.402 222.291 242.156 220.746C243.911 219.201 245.977 218.495 247.46 218.302C248.959 218.098 249.885 218.298 249.877 218.368Z" fill="#6F3430"/>
<path d="M247.82 213.702C247.809 213.818 246.82 213.652 245.307 214.003C243.801 214.334 241.821 215.304 240.131 216.962C238.438 218.629 237.289 220.499 236.452 221.834C235.625 223.182 235.104 224.019 235.021 223.974C234.947 223.935 235.323 223.026 236.056 221.609C236.797 220.206 237.908 218.249 239.679 216.501C241.458 214.754 243.605 213.785 245.22 213.556C246.847 213.305 247.843 213.645 247.82 213.702Z" fill="#6F3430"/>
<path d="M247.42 208.601C247.408 208.709 246.555 208.592 245.234 208.836C243.916 209.064 242.155 209.745 240.499 210.959C238.841 212.177 237.565 213.576 236.63 214.574C235.701 215.58 235.108 216.198 235.038 216.14C234.971 216.085 235.435 215.369 236.283 214.278C237.136 213.197 238.385 211.712 240.119 210.438C241.855 209.163 243.763 208.504 245.17 208.384C246.586 208.248 247.439 208.535 247.42 208.601Z" fill="#6F3430"/>
<path d="M364.688 159.199C372.411 160.709 377.44 167.492 379.013 175.973C381.242 188.004 353.643 244.865 348.502 257.278C343.083 270.357 331.097 273.215 324.118 273.054C317.138 272.892 268.229 249.966 268.229 249.966L275.399 225.162L318.857 238.057L336.079 189.632" fill="#DADBD8"/>
<path d="M336.08 189.632C336.08 189.632 335.999 189.93 335.808 190.497C335.607 191.085 335.322 191.921 334.949 193.014C334.172 195.24 333.04 198.489 331.582 202.665C328.624 211.058 324.355 223.172 319.079 238.135L319.005 238.346L318.79 238.282C306.301 234.594 291.54 230.236 275.315 225.446L275.682 225.245C273.396 233.176 271.004 241.473 268.529 250.053L268.362 249.684C279.777 254.981 291.996 260.539 304.731 265.896C309.903 268.039 315.029 270.176 320.208 271.824L322.155 272.382C322.803 272.55 323.448 272.606 324.091 272.728C325.425 272.749 326.763 272.685 328.08 272.505C330.718 272.181 333.279 271.429 335.657 270.359C340.42 268.215 344.36 264.551 346.755 260.127C347.972 257.941 348.861 255.57 349.894 253.303C350.914 251.035 351.924 248.792 352.92 246.577C360.949 228.894 368.068 212.907 373.174 199.14C375.684 192.259 377.862 185.941 378.747 180.195C378.933 178.761 379.048 177.357 378.852 176.043C378.596 174.721 378.301 173.455 377.9 172.279C377.127 169.917 376.096 167.87 374.93 166.194C372.589 162.811 369.761 161.082 367.808 160.233C366.819 159.812 366.033 159.556 365.495 159.43C364.96 159.288 364.688 159.199 364.688 159.199C364.688 159.199 364.968 159.245 365.511 159.365C366.056 159.472 366.853 159.708 367.858 160.115C369.842 160.931 372.732 162.646 375.135 166.049C376.331 167.735 377.392 169.799 378.191 172.182C378.607 173.37 378.913 174.647 379.182 175.983C379.396 177.362 379.283 178.788 379.104 180.244C378.242 186.058 376.09 192.391 373.601 199.299C368.542 213.107 361.462 229.123 353.462 246.822C352.469 249.037 351.464 251.28 350.448 253.548C349.423 255.806 348.544 258.166 347.293 260.428C344.849 264.957 340.799 268.735 335.918 270.935C333.481 272.034 330.862 272.803 328.163 273.138C326.815 273.323 325.448 273.388 324.073 273.367C323.386 273.246 322.669 273.178 322.003 273.004L320.018 272.437C314.785 270.773 309.666 268.639 304.482 266.49C291.731 261.127 279.514 255.563 268.096 250.25L267.854 250.137L267.928 249.88C270.414 241.302 272.818 233.009 275.116 225.08L275.199 224.795L275.482 224.88C291.695 229.713 306.445 234.111 318.924 237.832L318.637 237.978C323.995 223.043 328.332 210.955 331.338 202.578C332.845 198.419 334.017 195.186 334.822 192.968C335.222 191.887 335.529 191.057 335.744 190.475C335.956 189.914 336.08 189.632 336.08 189.632Z" fill="#17282F"/>
<path d="M325.794 256.25C325.593 256.286 324.928 251.931 322.991 246.901C321.087 241.857 318.684 238.164 318.856 238.057C318.925 238.012 319.611 238.879 320.542 240.403C321.474 241.924 322.619 244.122 323.594 246.671C324.563 249.222 325.173 251.623 325.49 253.378C325.809 255.136 325.873 256.239 325.794 256.25Z" fill="#17282F"/>
<path d="M361.68 159.306C361.718 159.418 360.081 159.945 357.623 161.186C356.391 161.798 354.981 162.634 353.48 163.655C351.998 164.703 350.438 165.95 348.931 167.405C347.44 168.878 346.155 170.409 345.073 171.866C344.016 173.34 343.147 174.731 342.506 175.948C341.209 178.375 340.644 179.997 340.532 179.957C340.49 179.943 340.602 179.529 340.842 178.787C341.07 178.043 341.495 176.995 342.1 175.74C342.697 174.48 343.54 173.041 344.59 171.52C345.663 170.017 346.96 168.445 348.48 166.945C350.015 165.461 351.619 164.203 353.146 163.165C354.691 162.151 356.15 161.343 357.425 160.776C358.695 160.2 359.752 159.799 360.503 159.589C361.249 159.366 361.667 159.264 361.68 159.306Z" fill="#17282F"/>
<path d="M90.518 337.697L67.0312 308.363C67.0312 308.363 157.886 233.561 166.475 228.219C172.98 224.174 186.203 218.8 198.72 223.003C211.237 227.207 232.426 241.837 240.237 246.582C248.047 251.327 316.048 293.418 323.398 303.716C323.398 303.716 308.602 330.464 298.913 334.948C291.325 338.461 269.45 333.217 256.669 325.452C243.887 317.686 185.247 267.498 185.247 267.498L90.518 337.697Z" fill="#17282F"/>
<path d="M99.2695 372.084L130.999 394.862L192.062 295.415L253.718 323.49L212.26 254.268C212.26 254.268 178.824 254.66 173.568 254.069C166.827 253.313 154.518 263.946 147.799 276.929C141.959 288.213 99.2695 372.084 99.2695 372.084Z" fill="#17282F"/>
<path d="M233.761 315.294C233.632 315.418 219.708 301.222 202.666 283.59C185.616 265.954 171.903 251.56 172.032 251.436C172.16 251.313 186.081 265.505 203.129 283.143C220.173 300.774 233.888 315.17 233.761 315.294Z" fill="#33535F"/>
<path d="M117.096 318.002C117.126 317.945 144.423 266.969 157.285 263.573C157.285 263.573 157.227 263.652 157.118 263.801C154.389 266.709 151.782 270.106 149.571 273.766C147.541 276.861 145.537 280.18 143.588 283.669C142.32 285.981 141.117 288.268 139.97 290.505C137.571 294.836 135.355 299.254 133.664 303.404C133.084 304.63 132.523 305.821 131.982 306.97L117.096 318.002Z" fill="#0F191D"/>
<path d="M149.57 273.766C151.781 270.106 154.389 266.709 157.118 263.801C157.065 263.872 157.002 263.959 156.929 264.06C155.696 265.338 154.504 266.756 153.369 268.285C152.097 270.017 150.829 271.849 149.57 273.766Z" fill="#0F191D"/>
<path d="M177.848 257.479C177.824 257.566 176.608 256.99 174.261 256.793C171.935 256.566 168.438 256.97 164.667 258.833C160.871 260.656 157.134 264.158 153.846 268.64C150.576 273.151 147.292 278.362 144.152 283.981C137.954 295.292 133.174 305.978 129.361 313.535C127.487 317.331 125.886 320.36 124.764 322.446C124.21 323.435 123.766 324.226 123.431 324.824C123.12 325.364 122.947 325.642 122.928 325.631C122.908 325.62 123.042 325.322 123.317 324.762C123.625 324.151 124.032 323.341 124.542 322.329C125.593 320.21 127.131 317.154 128.951 313.336C132.656 305.734 137.368 295.02 143.588 283.669C146.744 278.019 150.046 272.814 153.369 268.285C156.713 263.78 160.562 260.232 164.467 258.424C168.341 256.574 171.926 256.235 174.285 256.544C176.667 256.821 177.848 257.479 177.848 257.479Z" fill="#33535F"/>
<path d="M114.84 353.61L97.4592 385.619C97.4592 385.619 58.7109 381.045 55.2676 386.867L118.233 419.039L144.365 368.595L114.84 353.61Z" fill="#17282F"/>
<path d="M118.325 392.841C120.889 395.155 117.47 399.24 114.796 396.99C111.94 394.415 116.018 390.26 118.519 393.041" fill="#DADBD8"/>
<path d="M118.233 419.039L120.667 413.85L59.3872 384.946C59.3872 384.946 55.9598 384.733 55.2676 386.867L118.233 419.039Z" fill="#33535F"/>
<path d="M96.604 384.779C96.4568 385.091 97.9226 386.016 98.93 387.776C99.9834 389.511 100.082 391.241 100.428 391.263C102.186 390.197 98.381 383.754 96.604 384.779Z" fill="white"/>
<path d="M88.6025 384.133C88.3803 384.396 89.4443 385.599 89.8239 387.431C90.2572 389.253 89.8016 390.792 90.1153 390.936C92.1329 390.523 90.599 383.649 88.6025 384.133Z" fill="white"/>
<path d="M80.8105 390.117C82.5082 390.336 82.7609 383.524 81.0561 383.62C81.1369 383.828 80.9025 389.919 80.8105 390.117Z" fill="white"/>
<path d="M100.951 377.646C101.173 377.635 107.196 381.174 107.289 381.359C108.258 379.916 101.731 376.097 100.951 377.646Z" fill="white"/>
<path d="M91.2005 296.553L61.4177 317.539C61.4177 317.539 28.7185 296.263 23.0488 299.956L65.2047 356.698L109.878 321.55L91.2005 296.553Z" fill="#17282F"/>
<path d="M76.9141 333.259C78.1848 336.469 73.3075 338.615 71.9095 335.413C70.493 331.84 75.9918 329.923 76.9992 333.523" fill="#DADBD8"/>
<path d="M65.2047 356.698L69.6894 353.127L27.5935 300.06C27.5935 300.06 24.6169 298.35 23.0488 299.956L65.2047 356.698Z" fill="#33535F"/>
<path d="M61.023 316.405C60.7523 316.62 61.6561 318.099 61.7777 320.123C61.9519 322.145 61.2728 323.739 61.5725 323.912C63.6216 323.735 63.0703 316.275 61.023 316.405Z" fill="white"/>
<path d="M54.1387 312.28C53.8232 312.417 54.2433 313.967 53.7699 315.778C53.3491 317.602 52.2576 318.781 52.4758 319.048C54.4675 319.573 56.1428 312.731 54.1387 312.28Z" fill="white"/>
<path d="M44.5 314.189C45.9242 315.139 49.1734 309.146 47.6025 308.477C47.5822 308.699 44.6694 314.054 44.5 314.189Z" fill="white"/>
<path d="M228.116 309.721C222.421 305.352 193.544 283.035 186.091 273.869C180.593 267.107 176.821 260.476 174.945 256.865C175.617 256.948 176.175 257.059 176.616 257.164L204.441 285.428C214.211 295.525 222.801 304.334 228.116 309.721ZM176.399 256.945C175.968 256.826 175.44 256.709 174.815 256.614C173.99 255.013 173.568 254.069 173.568 254.069L176.399 256.945Z" fill="#0F191D"/>
<path d="M229.096 310.469C229.096 310.469 228.75 310.205 228.117 309.721C222.801 304.334 214.211 295.525 204.441 285.428L229.096 310.469Z" fill="#20353D"/>
<path d="M176.615 257.164C176.174 257.059 175.616 256.948 174.945 256.865C174.9 256.779 174.857 256.696 174.814 256.614C175.439 256.709 175.967 256.826 176.398 256.945L176.615 257.164Z" fill="#20353D"/>
</g>
</g>
<rect x="2.5" y="2.5" width="555" height="437" rx="21.5" stroke="#E3E3E3" stroke-width="5"/>
<defs>
<clipPath id="clip0_11340_4634">
<rect width="560" height="442" rx="24" fill="white"/>
</clipPath>
<clipPath id="clip1_11340_4634">
<rect width="578" height="551" fill="white" transform="translate(0 -77)"/>
</clipPath>
</defs>
</svg>
