<svg width="609" height="351" viewBox="0 0 609 351" fill="none" xmlns="http://www.w3.org/2000/svg">
<g clip-path="url(#clip0_9066_15372)">
<path d="M232.384 246.139L221.541 237.561L191.053 226.601L183.601 229.461L182.922 224.218L167.342 232.796L154.044 224.872L154.468 218.5L146.337 218.026V209.178C146.143 210.828 144.302 214.784 130.753 213.261C113.817 211.352 130.077 192.288 133.463 189.905C136.85 187.523 147.016 188.475 149.047 187.045C151.082 185.614 157.855 190.858 157.855 190.858L161.245 198.483L164.631 198.958V187.519L178.184 183.228C178.184 183.228 178.184 179.415 178.859 175.602C179.539 171.789 193.084 164.164 193.084 164.164L213.41 160.829L209.344 154.155L202.568 152.725L204.599 147.956L224.924 148.912L224.248 155.586L233.732 157.968L230.345 147.007L218.827 125.082L214.086 130.325L206.633 129.851L207.989 121.269C207.989 121.269 196.471 117.456 191.729 117.456C186.988 117.456 191.05 121.744 189.019 124.13C186.988 126.512 191.05 133.186 191.05 133.186L182.242 136.999L182.922 145.099L174.794 147.482L174.114 136.999L157.855 127.943V117.934L193.764 99.8221L191.053 95.0569L182.246 99.8221L177.504 82.1878C177.504 82.1878 170.728 93.1486 170.048 95.0569C169.373 96.9615 144.306 92.6742 144.306 92.6742L131.432 85.5228L115.173 76.9446L93.4955 79.3273L88.0781 72.6538L59.621 60.7371L43.3614 66.9326L36.5851 68.3629L35.9092 79.8016L24.3912 77.897L21.6807 85.0448L33.1987 84.0925L32.5193 87.4275L10.8421 96.0056L19.6496 105.54L0 119.357L56.2311 105.058C56.2311 105.058 82.6534 149.864 81.9776 151.291C81.3017 152.721 76.5565 151.291 76.5565 151.291C76.5565 151.291 70.4596 175.124 73.1701 177.029C75.8807 178.937 92.8197 203.719 92.8197 203.719L90.1092 189.898L114.5 216.111C114.5 216.111 142.954 218.493 144.309 222.784C145.528 226.64 162.071 233.96 165.4 235.398C160.375 242.92 149.777 265.129 186.991 279.978V341.944L201.22 351L210.027 318.588C210.027 318.588 217.479 308.106 221.545 308.58C225.611 309.054 247.971 289.515 248.647 285.225C249.323 280.934 258.13 284.272 258.13 284.272L260.165 268.543L269.648 256.629L232.387 246.143L232.384 246.139Z" fill="#32454C"/>
<path d="M146.34 208.488V209.175C146.387 208.765 146.34 208.488 146.34 208.488Z" fill="#32454C"/>
<path d="M199.523 107.682C199.523 107.682 215.445 119.361 215.445 118.646C215.445 117.931 226.284 108.16 226.284 108.16L233.06 108.637L222.559 96.7208L225.27 91.9555C225.27 91.9555 214.428 84.0889 215.107 82.6586C215.783 81.2283 205.282 83.6145 207.314 78.1342C209.348 72.6502 199.186 74.7956 199.186 74.7956L185.295 85.9972L196.137 88.6206C196.137 88.6206 209.01 86.7159 210.362 94.3417C211.717 101.968 210.7 106.018 199.523 107.685V107.682Z" fill="#32454C"/>
<path d="M138.547 86.9459L132.788 76.6967C132.788 76.6967 136.85 73.5989 136.85 72.8838C136.85 72.1687 133.126 71.2163 133.126 71.2163L126.688 73.121L134.481 61.9194C134.481 61.9194 142.275 63.1125 145.661 65.0172C149.048 66.9219 139.902 68.5929 143.292 70.4976C146.679 72.4022 151.758 70.0232 153.113 71.9279C154.472 73.8325 158.197 75.9816 159.21 74.3105C160.228 72.643 161.245 69.3081 162.938 70.7348C164.631 72.1651 162.938 84.7933 162.938 84.7933L138.547 86.9388V86.9459Z" fill="#32454C"/>
<path d="M180.215 111.017L185.636 106.729L190.378 111.494L185.294 112.684L180.215 111.017Z" fill="#32454C"/>
<path d="M170.39 80.2761L169.373 75.0329L173.101 74.7921L174.794 70.264L179.874 71.6979L176.825 77.1783L181.229 77.6527L170.39 80.2761Z" fill="#32454C"/>
<path d="M182.584 76.4631L184.619 71.9351L192.071 72.8874L182.584 76.4631Z" fill="#32454C"/>
<path d="M155.485 65.4987L150.402 58.8252L161.244 55.2495L170.39 56.6798L173.1 62.1638L155.485 65.4987Z" fill="#32454C"/>
<path d="M192.408 59.066L199.185 60.7335L204.264 68.1222L213.413 68.5965L211.716 71.6979L200.536 70.264L193.763 63.8313L192.408 59.066Z" fill="#32454C"/>
<path d="M204.602 62.6417L216.799 66.2175L234.414 55.0159L231.703 52.1553H242.204L261.854 42.6249C261.854 42.6249 253.176 26.5107 222.22 36.1885C219.172 37.1409 228.655 46.675 228.655 46.675L204.602 62.6417Z" fill="#32454C"/>
<path d="M204.264 54.2972L218.154 50.725C218.154 50.725 218.834 37.6152 216.123 38.0932C213.413 38.5712 205.623 44.5295 205.623 44.5295L204.267 54.2972H204.264Z" fill="#32454C"/>
<path d="M237.125 69.7896L236.449 57.8765L247.629 57.3985L268.631 44.2923L282.855 45.4854C282.855 45.4854 296.746 37.3816 302.843 37.8596C308.94 38.3375 323.168 48.5832 323.168 50.4914C323.168 52.3997 334.011 51.9217 334.011 51.9217L322.155 59.7847L319.106 74.5584C319.106 74.5584 311.65 85.5228 313.347 88.6205C315.04 91.7183 305.557 83.6145 305.557 83.6145L305.216 88.3798L311.654 94.5753L307.588 95.7684L301.153 91.4775L298.781 97.1951L308.606 98.3882L276.424 110.068L261.858 127.702C261.858 127.702 242.208 115.311 248.985 108.4C250.07 107.29 254.744 102.205 254.744 102.205L251.354 74.084L237.129 69.7932L237.125 69.7896Z" fill="#32454C"/>
<path d="M329.096 177.148C329.096 176.433 332.651 167.139 332.651 167.139H347.135L346.88 159.812L341.035 156.775L347.642 155.704L360.346 149.447L362.126 145.516H368.223L367.967 138.368L370.761 136.402L373.557 143.55H381.179C381.179 143.55 391.086 143.015 391.593 141.764C392.1 140.514 401.249 131.22 401.249 131.22C401.249 131.22 398.707 118.887 390.831 119.781C382.954 120.673 384.734 124.964 384.734 124.964C384.734 124.964 389.055 132.111 384.989 136.758C380.923 141.405 378.637 139.795 378.637 139.795C378.637 139.795 372.795 135.684 372.795 131.932C372.795 128.18 370.002 128.892 370.002 128.892C370.002 128.892 366.192 134.074 365.429 134.074C364.667 134.074 359.584 134.253 360.853 127.461C362.126 120.669 375.844 116.917 378.637 107.265C381.434 97.612 392.103 95.4701 398.2 96.3614C404.297 97.2526 430.464 103.509 429.451 106.373C428.437 109.23 424.623 110.485 424.623 110.485C424.623 110.485 414.712 107.448 413.443 108.339C412.17 109.23 420.557 115.846 420.557 115.846L450.79 102.262L465.78 102.083L468.829 97.0801H478.736L470.605 89.7525L477.719 83.4959L483.054 87.7868L492.203 82.4214L510.238 91.0031L492.71 77.7783L499.058 76.7038L500.586 68.4814L515.07 62.5842L518.625 52.0403L528.788 56.3276L534.123 54.5415L542.506 59.0085L539.206 70.803C539.206 70.803 555.465 64.9057 570.456 66.5121C585.447 68.1221 587.222 70.6233 587.222 70.6233L603.482 61.6858L669.031 62.0415L666.745 57.7543H711.713L713.999 66.5121C713.999 66.5121 703.581 66.8715 702.823 68.4779C702.061 70.0878 705.871 70.9791 704.602 73.4839C703.33 75.9851 698.505 76.8799 698.505 76.8799C698.505 76.8799 709.937 81.8859 712.989 83.4923C716.038 85.0987 707.144 87.9593 705.113 90.9996C703.082 94.0362 702.571 95.4701 703.589 97.4359C704.606 99.4016 703.333 95.1143 699.268 96.9004C695.202 98.6865 696.73 104.587 696.981 112.45C697.233 120.317 693.678 130.861 693.678 130.861L682.497 116.382L686.563 94.3956C686.563 94.3956 670.304 92.0705 670.811 97.612C671.317 103.153 671.317 106.909 671.317 106.909C671.317 106.909 654.803 103.513 652.009 107.62C649.216 111.732 636.005 123.709 640.322 126.387C644.64 129.068 656.075 127.102 657.851 131.213C659.63 135.324 657.851 158.737 654.803 159.097C651.754 159.452 643.371 167.139 643.371 167.139C640.829 166.244 650.737 174.646 649.212 178.222C647.688 181.794 645.147 183.404 643.878 179.652C642.605 175.897 637.781 167.675 635.239 168.21C632.701 168.746 622.535 170.891 622.535 170.891L629.142 175.182L628.632 179.652L632.191 185.37L628.887 199.49C628.887 199.49 615.165 208.603 603.985 207.177C592.809 205.746 603.478 214.145 603.478 214.145C603.478 214.145 612.117 216.29 611.355 221.293C610.593 226.299 605.003 227.905 600.685 226.834C596.364 225.76 590.523 219.862 590.523 222.543C590.523 225.224 590.523 230.942 594.585 233.626C598.651 236.307 605.254 243.099 601.192 242.74C597.126 242.384 586.712 234.341 586.967 232.731C587.223 231.125 584.17 225.76 585.188 224.333C586.202 222.903 568.421 209.674 565.621 207.708C562.828 205.743 543.013 218.073 543.013 218.073C543.013 218.073 544.537 224.329 541.488 226.475C538.44 228.617 531.326 229.332 531.581 227.01C531.836 224.685 518.877 207.885 518.877 207.885L504.903 200.737L490.423 200.198L468.57 192.87C468.57 192.87 459.935 191.799 465.27 196.802C470.605 201.808 473.146 203.773 473.146 203.773L481.274 201.808L490.675 206.098C490.675 206.098 476.191 221.289 459.932 222.364L434.016 197.696C434.016 197.696 430.968 194.66 428.933 198.052C426.898 201.448 458.659 228.617 458.659 228.617L473.65 225.936C473.65 225.936 466.787 242.38 444.686 253.995L446.717 271.155L434.519 279.557L432.995 285.455L425.374 289.382L423.85 295.639C423.85 295.639 412.418 303.506 410.894 304.041C409.37 304.577 394.634 306.007 394.634 306.007C394.634 306.007 385.485 289.027 385.74 284.38C385.996 279.733 377.102 272.046 377.102 272.046C377.102 272.046 380.15 267.935 381.675 267.579C383.199 267.22 372.022 237.91 372.022 237.91L359.825 234.334L335.434 236.656L312.57 219.675C312.57 219.675 313.077 206.627 315.619 204.837C318.16 203.051 327.05 194.113 329.592 193.578C332.134 193.043 338.231 184.641 338.231 184.641C338.231 184.641 346.362 181.065 349.662 181.244C352.966 181.421 372.529 181.065 372.529 181.065L375.578 185.711L395.903 192.144L399.714 187.677L429.947 190.002L432.488 181.6L416.991 180.529C416.991 180.529 410.128 177.133 410.639 175.168C411.145 173.202 417.498 171.412 419.022 171.236C420.546 171.056 443.409 171.236 443.409 171.236L438.837 164.624L434.516 158.547L425.37 159.618L429.436 163.373L424.101 163.908L422.577 160.333H418.256C418.256 160.333 411.904 166.589 411.904 167.66C411.904 168.731 414.19 170.521 414.19 170.521L411.397 171.951L407.331 171.771L406.569 168.911C406.569 168.911 398.186 174.628 401.741 176.774C405.297 178.916 400.979 179.099 400.979 179.099C400.979 179.099 398.186 180.17 396.151 171.948C394.12 163.725 383.702 162.654 383.702 162.654C383.702 162.654 377.095 162.119 377.86 165.335C378.619 168.552 391.323 173.022 391.323 173.022L387.768 176.418L383.957 173.558C383.957 173.558 371.764 167.301 370.998 165.515C370.239 163.729 363.632 167.836 362.108 167.481C360.587 167.125 353.98 171.236 354.231 172.127C354.487 173.022 349.914 178.919 349.914 178.919L340.258 181.6L338.223 178.919L332.126 179.99L329.078 177.13L329.096 177.148Z" fill="#32454C"/>
<path d="M340.273 152.843C340.374 152.473 342.135 147.004 342.135 147.004L342.642 142.235L338.918 139.734L335.869 136.636L342.135 133.657L346.032 134.49L344.677 137.47L345.525 139.734C345.525 139.734 351.28 144.499 351.791 145.095C352.298 145.692 353.991 149.624 353.991 149.624C353.991 149.624 339.593 155.341 340.273 152.84V152.843Z" fill="#32454C"/>
<path d="M330.62 147.719C330.62 147.719 329.944 142.713 331.468 142.594C332.993 142.476 335.024 141.286 335.024 141.286L337.565 141.523L338.921 147.478C338.921 147.478 331.975 149.505 330.62 147.719Z" fill="#32454C"/>
<path d="M456.633 287.37L455.277 273.549C455.277 273.549 466.795 269.017 467.809 267.59C468.826 266.16 470.52 276.168 467.809 279.029C465.099 281.89 456.629 287.37 456.629 287.37H456.633Z" fill="#32454C"/>
<path d="M579.264 236.372C579.264 236.372 600.265 256.152 602.638 256.389C605.01 256.63 600.606 246.858 600.606 246.858L579.264 236.372Z" fill="#32454C"/>
<path d="M174.006 143.565C174.006 145.243 171.932 146.605 169.372 146.605C166.813 146.605 164.738 145.243 164.738 143.565C164.738 141.886 166.813 140.524 169.372 140.524C171.932 140.524 174.006 141.886 174.006 143.565Z" fill="white"/>
<path d="M169.375 149.311C164.677 149.311 160.855 146.731 160.855 143.565C160.855 140.399 164.677 137.818 169.375 137.818C174.074 137.818 177.895 140.395 177.895 143.565C177.895 146.734 174.074 149.311 169.375 149.311ZM169.375 138.717C165.173 138.717 161.751 140.891 161.751 143.568C161.751 146.246 165.173 148.416 169.375 148.416C173.578 148.416 176.996 146.242 176.996 143.568C176.996 140.895 173.578 138.717 169.375 138.717Z" fill="white"/>
<path d="M98.7188 184.774C98.7188 186.455 96.6445 187.814 94.085 187.814C91.5254 187.814 89.4512 186.452 89.4512 184.774C89.4512 183.095 91.5254 181.733 94.085 181.733C96.6445 181.733 98.7188 183.095 98.7188 184.774Z" fill="white"/>
<path d="M94.0882 190.52C89.3897 190.52 85.5684 187.943 85.5684 184.774C85.5684 181.604 89.3897 179.027 94.0882 179.027C98.7867 179.027 102.608 181.604 102.608 184.774C102.608 187.943 98.7867 190.52 94.0882 190.52ZM94.0882 179.926C89.8822 179.926 86.4635 182.1 86.4635 184.777C86.4635 187.454 89.8822 189.625 94.0882 189.625C98.2942 189.625 101.709 187.451 101.709 184.777C101.709 182.103 98.2906 179.926 94.0882 179.926Z" fill="white"/>
<path d="M127.418 211.611C127.418 213.29 125.344 214.652 122.784 214.652C120.225 214.652 118.15 213.29 118.15 211.611C118.15 209.933 120.225 208.571 122.784 208.571C125.344 208.571 127.418 209.933 127.418 211.611Z" fill="white"/>
<path d="M122.784 217.358C118.085 217.358 114.264 214.777 114.264 211.611C114.264 208.445 118.085 205.865 122.784 205.865C127.482 205.865 131.303 208.442 131.303 211.611C131.303 214.781 127.482 217.358 122.784 217.358ZM122.784 206.763C118.578 206.763 115.159 208.938 115.159 211.615C115.159 214.292 118.578 216.466 122.784 216.466C126.99 216.466 130.405 214.289 130.405 211.615C130.405 208.941 126.982 206.763 122.784 206.763Z" fill="white"/>
<path d="M179.936 238.183C179.936 239.861 177.861 241.223 175.302 241.223C172.742 241.223 170.668 239.861 170.668 238.183C170.668 236.505 172.742 235.143 175.302 235.143C177.861 235.143 179.936 236.505 179.936 238.183Z" fill="white"/>
<path d="M175.301 243.929C170.603 243.929 166.781 241.349 166.781 238.183C166.781 235.017 170.603 232.437 175.301 232.437C180 232.437 183.821 235.013 183.821 238.183C183.821 241.353 180 243.929 175.301 243.929ZM175.301 233.335C171.095 233.335 167.676 235.509 167.676 238.187C167.676 240.864 171.095 243.038 175.301 243.038C179.507 243.038 182.922 240.86 182.922 238.187C182.922 235.513 179.5 233.335 175.301 233.335Z" fill="white"/>
<path d="M249.6 273.197C249.6 274.875 247.525 276.237 244.966 276.237C242.406 276.237 240.332 274.875 240.332 273.197C240.332 271.518 242.406 270.156 244.966 270.156C247.525 270.156 249.6 271.518 249.6 273.197Z" fill="white"/>
<path d="M244.965 278.943C240.267 278.943 236.445 276.363 236.445 273.197C236.445 270.03 240.267 267.45 244.965 267.45C249.664 267.45 253.485 270.027 253.485 273.197C253.485 276.366 249.664 278.943 244.965 278.943ZM244.965 268.345C240.763 268.345 237.344 270.523 237.344 273.197C237.344 275.87 240.763 278.048 244.965 278.048C249.168 278.048 252.586 275.874 252.586 273.197C252.586 270.519 249.168 268.345 244.965 268.345Z" fill="white"/>
<path d="M411.981 293.116C411.981 294.795 409.907 296.157 407.351 296.157C404.795 296.157 402.717 294.795 402.717 293.116C402.717 291.438 404.791 290.076 407.351 290.076C409.91 290.076 411.981 291.438 411.981 293.116Z" fill="white"/>
<path d="M407.35 298.863C402.651 298.863 398.83 296.282 398.83 293.116C398.83 289.95 402.651 287.37 407.35 287.37C412.048 287.37 415.87 289.947 415.87 293.116C415.87 296.286 412.045 298.863 407.35 298.863ZM407.35 288.265C403.144 288.265 399.725 290.443 399.725 293.116C399.725 295.79 403.144 297.968 407.35 297.968C411.556 297.968 414.971 295.794 414.971 293.116C414.971 290.439 411.549 288.265 407.35 288.265Z" fill="white"/>
<path d="M425.135 203.428C425.135 205.11 423.061 206.469 420.501 206.469C417.941 206.469 415.867 205.107 415.867 203.428C415.867 201.75 417.941 200.388 420.501 200.388C423.061 200.388 425.135 201.75 425.135 203.428Z" fill="white"/>
<path d="M420.5 209.175C415.802 209.175 411.98 206.595 411.98 203.429C411.98 200.262 415.802 197.686 420.5 197.686C425.199 197.686 429.02 200.262 429.02 203.429C429.02 206.595 425.199 209.175 420.5 209.175ZM420.5 198.581C416.298 198.581 412.876 200.755 412.876 203.429C412.876 206.102 416.298 208.28 420.5 208.28C424.703 208.28 428.121 206.106 428.121 203.429C428.121 200.751 424.699 198.581 420.5 198.581Z" fill="white"/>
<path d="M361.635 159.219C361.635 160.901 359.561 162.259 357.001 162.259C354.441 162.259 352.367 160.897 352.367 159.219C352.367 157.54 354.441 156.178 357.001 156.178C359.561 156.178 361.635 157.54 361.635 159.219Z" fill="white"/>
<path d="M357 164.965C352.302 164.965 348.48 162.385 348.48 159.219C348.48 156.053 352.302 153.472 357 153.472C361.699 153.472 365.52 156.049 365.52 159.219C365.52 162.388 361.699 164.965 357 164.965ZM357 154.371C352.794 154.371 349.376 156.545 349.376 159.219C349.376 161.892 352.794 164.07 357 164.07C361.206 164.07 364.621 161.896 364.621 159.219C364.621 156.541 361.203 154.371 357 154.371Z" fill="white"/>
<path d="M537.079 209.509C539.638 209.509 541.713 208.148 541.713 206.469C541.713 204.79 539.638 203.428 537.079 203.428C534.52 203.428 532.445 204.79 532.445 206.469C532.445 208.148 534.52 209.509 537.079 209.509Z" fill="white"/>
<path d="M537.078 212.215C532.38 212.215 528.559 209.638 528.559 206.469C528.559 203.299 532.38 200.722 537.078 200.722C541.777 200.722 545.598 203.299 545.598 206.469C545.598 209.638 541.777 212.215 537.078 212.215ZM537.078 201.621C532.872 201.621 529.454 203.795 529.454 206.469C529.454 209.142 532.876 211.317 537.078 211.317C541.281 211.317 544.7 209.142 544.7 206.469C544.7 203.795 541.277 201.621 537.078 201.621Z" fill="white"/>
<path d="M509.402 106.726C509.402 108.407 507.328 109.766 504.769 109.766C502.209 109.766 500.135 108.404 500.135 106.726C500.135 105.047 502.209 103.685 504.769 103.685C507.328 103.685 509.402 105.047 509.402 106.726Z" fill="white"/>
<path d="M504.772 112.472C500.073 112.472 496.252 109.892 496.252 106.726C496.252 103.56 500.073 100.983 504.772 100.983C509.47 100.983 513.292 103.56 513.292 106.726C513.292 109.892 509.47 112.472 504.772 112.472ZM504.772 101.878C500.569 101.878 497.151 104.052 497.151 106.726C497.151 109.399 500.573 111.577 504.772 111.577C508.971 111.577 512.393 109.403 512.393 106.726C512.393 104.048 508.974 101.878 504.772 101.878Z" fill="white"/>
<path d="M218.045 308.756C218.045 310.438 215.971 311.796 213.411 311.796C210.852 311.796 208.777 310.434 208.777 308.756C208.777 307.078 210.852 305.716 213.411 305.716C215.971 305.716 218.045 307.078 218.045 308.756Z" fill="white"/>
<path d="M213.414 314.502C208.716 314.502 204.895 311.926 204.895 308.756C204.895 305.586 208.716 303.01 213.414 303.01C218.113 303.01 221.934 305.586 221.934 308.756C221.934 311.926 218.113 314.502 213.414 314.502ZM213.414 303.908C209.208 303.908 205.79 306.082 205.79 308.756C205.79 311.43 209.208 313.608 213.414 313.608C217.62 313.608 221.036 311.433 221.036 308.756C221.036 306.079 217.613 303.908 213.414 303.908Z" fill="white"/>
<path d="M175.301 238.183C175.301 238.183 175.516 237.259 176.009 235.596" stroke="white" stroke-width="2" stroke-miterlimit="10" stroke-dasharray="4 4"/>
<path d="M177.652 230.557C186.902 204.334 226.539 121.291 349.761 155.05" stroke="white" stroke-width="2" stroke-miterlimit="10" stroke-dasharray="4 4"/>
<path d="M352.342 155.769C353.197 156.013 354.06 156.261 354.927 156.516" stroke="white" stroke-width="2" stroke-miterlimit="10" stroke-dasharray="4 4"/>
<path d="M122.783 211.611C122.783 211.611 297.347 123.936 407.346 293.113" stroke="white" stroke-width="2" stroke-miterlimit="10" stroke-dasharray="4 4"/>
<path d="M213.414 308.756C208.78 65.3802 537.079 116.864 537.079 206.469" stroke="white" stroke-width="2" stroke-miterlimit="10" stroke-dasharray="4 4"/>
<path d="M169.377 143.565C169.377 -68.1041 632.447 -25.9716 632.447 150.432" stroke="white" stroke-width="2" stroke-miterlimit="10" stroke-dasharray="4 4"/>
<path d="M696.352 298.863C696.352 -31.3478 506.287 -55.8496 506.287 103.689" stroke="white" stroke-width="2" stroke-miterlimit="10" stroke-dasharray="4 4"/>
<path d="M420.5 200.388C420.5 2.53715 667.285 8.20082 667.285 173.098" stroke="white" stroke-width="2" stroke-miterlimit="10" stroke-dasharray="4 4"/>
<path d="M94.6504 184.666C94.6504 38.0825 244.967 33.0944 244.967 273.197" stroke="white" stroke-width="2" stroke-miterlimit="10" stroke-dasharray="4 4"/>
</g>
<defs>
<clipPath id="clip0_9066_15372">
<rect width="714" height="351" fill="white"/>
</clipPath>
</defs>
</svg>
