<svg width="310" height="132" viewBox="0 0 310 132" fill="none" xmlns="http://www.w3.org/2000/svg">
<path d="M58.1883 52.1015C56.7924 49.5301 54.7719 47.5831 52.127 46.2607C49.5556 44.8647 46.5066 44.1668 42.98 44.1668C36.882 44.1668 31.9962 46.1872 28.3227 50.2281C24.6492 54.1954 22.8125 59.522 22.8125 66.2078C22.8125 73.3344 24.7227 78.9181 28.5431 82.959C32.437 86.9264 37.7636 88.9101 44.5229 88.9101C49.1515 88.9101 53.0454 87.7345 56.2046 85.3835C59.4373 83.0324 61.7883 79.6528 63.2577 75.2446H39.3432V61.3588H80.3395V78.8814C78.9436 83.5835 76.5558 87.9549 73.1762 91.9958C69.8701 96.0366 65.6455 99.3061 60.5026 101.804C55.3597 104.302 49.5556 105.551 43.0902 105.551C35.4493 105.551 28.6166 103.898 22.5921 100.592C16.641 97.2122 11.9756 92.5468 8.596 86.5957C5.28985 80.6447 3.63677 73.8487 3.63677 66.2078C3.63677 58.5669 5.28985 51.7709 8.596 45.8198C11.9756 39.7953 16.641 35.1299 22.5921 31.8238C28.5431 28.4442 35.3391 26.7544 42.98 26.7544C52.2372 26.7544 60.0251 28.9952 66.3435 33.4769C72.7354 37.9585 76.9599 44.1668 79.0171 52.1015H58.1883ZM138.938 91.3346H110.064L105.435 105H85.7086L113.701 27.636H135.521L163.513 105H143.566L138.938 91.3346ZM134.089 76.7875L124.501 48.4648L115.023 76.7875H134.089ZM220.192 91.3346H191.319L186.69 105H166.963L194.955 27.636H216.776L244.768 105H224.821L220.192 91.3346ZM215.343 76.7875L205.756 48.4648L196.278 76.7875H215.343ZM281.28 105.771C275.622 105.771 270.553 104.853 266.071 103.016C261.59 101.18 257.99 98.4612 255.271 94.8611C252.626 91.2611 251.23 86.9264 251.083 81.8569H271.141C271.435 84.7223 272.426 86.9264 274.116 88.4692C275.806 89.9386 278.01 90.6733 280.729 90.6733C283.52 90.6733 285.725 90.0488 287.341 88.7998C288.957 87.4774 289.765 85.6774 289.765 83.3998C289.765 81.4896 289.104 79.91 287.782 78.661C286.533 77.412 284.953 76.3834 283.043 75.5752C281.206 74.7671 278.561 73.8487 275.108 72.8201C270.112 71.2772 266.035 69.7344 262.875 68.1915C259.716 66.6486 256.998 64.371 254.72 61.3588C252.443 58.3465 251.304 54.4158 251.304 49.5668C251.304 42.3668 253.912 36.7463 259.128 32.7054C264.345 28.5911 271.141 26.534 279.516 26.534C288.039 26.534 294.908 28.5911 300.125 32.7054C305.341 36.7463 308.133 42.4035 308.5 49.677H288.112C287.965 47.179 287.047 45.2321 285.357 43.8362C283.667 42.3668 281.5 41.632 278.855 41.632C276.578 41.632 274.741 42.2565 273.345 43.5055C271.949 44.6811 271.251 46.4076 271.251 48.6852C271.251 51.1832 272.426 53.1301 274.778 54.526C277.129 55.922 280.802 57.4281 285.798 59.0445C290.794 60.7343 294.835 62.3506 297.921 63.8935C301.08 65.4364 303.798 67.6772 306.076 70.616C308.353 73.5548 309.492 77.3385 309.492 81.9671C309.492 86.3753 308.353 90.3795 306.076 93.9795C303.872 97.5795 300.639 100.445 296.378 102.575C292.116 104.706 287.084 105.771 281.28 105.771Z" fill="#1D1D1D"/>
<path d="M98.792 65.552C98.792 63.888 99.152 62.408 99.872 61.112C100.592 59.8 101.592 58.784 102.872 58.064C104.168 57.328 105.632 56.96 107.264 56.96C109.264 56.96 110.976 57.488 112.4 58.544C113.824 59.6 114.776 61.04 115.256 62.864H110.744C110.408 62.16 109.928 61.624 109.304 61.256C108.696 60.888 108 60.704 107.216 60.704C105.952 60.704 104.928 61.144 104.144 62.024C103.36 62.904 102.968 64.08 102.968 65.552C102.968 67.024 103.36 68.2 104.144 69.08C104.928 69.96 105.952 70.4 107.216 70.4C108 70.4 108.696 70.216 109.304 69.848C109.928 69.48 110.408 68.944 110.744 68.24H115.256C114.776 70.064 113.824 71.504 112.4 72.56C110.976 73.6 109.264 74.12 107.264 74.12C105.632 74.12 104.168 73.76 102.872 73.04C101.592 72.304 100.592 71.288 99.872 69.992C99.152 68.696 98.792 67.216 98.792 65.552ZM123.865 74.192C122.553 74.192 121.369 73.912 120.313 73.352C119.273 72.792 118.449 71.992 117.841 70.952C117.249 69.912 116.953 68.696 116.953 67.304C116.953 65.928 117.257 64.72 117.865 63.68C118.473 62.624 119.305 61.816 120.361 61.256C121.417 60.696 122.601 60.416 123.913 60.416C125.225 60.416 126.409 60.696 127.465 61.256C128.521 61.816 129.353 62.624 129.961 63.68C130.569 64.72 130.873 65.928 130.873 67.304C130.873 68.68 130.561 69.896 129.937 70.952C129.329 71.992 128.489 72.792 127.417 73.352C126.361 73.912 125.177 74.192 123.865 74.192ZM123.865 70.64C124.649 70.64 125.313 70.352 125.857 69.776C126.417 69.2 126.697 68.376 126.697 67.304C126.697 66.232 126.425 65.408 125.881 64.832C125.353 64.256 124.697 63.968 123.913 63.968C123.113 63.968 122.449 64.256 121.921 64.832C121.393 65.392 121.129 66.216 121.129 67.304C121.129 68.376 121.385 69.2 121.897 69.776C122.425 70.352 123.081 70.64 123.865 70.64ZM141.211 60.464C142.779 60.464 144.027 60.976 144.955 62C145.899 63.008 146.371 64.4 146.371 66.176V74H142.291V66.728C142.291 65.832 142.059 65.136 141.595 64.64C141.131 64.144 140.507 63.896 139.723 63.896C138.939 63.896 138.315 64.144 137.851 64.64C137.387 65.136 137.155 65.832 137.155 66.728V74H133.051V60.608H137.155V62.384C137.571 61.792 138.131 61.328 138.835 60.992C139.539 60.64 140.331 60.464 141.211 60.464ZM156.686 70.52V74H154.598C153.11 74 151.95 73.64 151.118 72.92C150.286 72.184 149.87 70.992 149.87 69.344V64.016H148.238V60.608H149.87V57.344H153.974V60.608H156.662V64.016H153.974V69.392C153.974 69.792 154.07 70.08 154.262 70.256C154.454 70.432 154.774 70.52 155.222 70.52H156.686ZM158.156 67.28C158.156 65.904 158.412 64.696 158.924 63.656C159.452 62.616 160.164 61.816 161.06 61.256C161.956 60.696 162.956 60.416 164.06 60.416C165.004 60.416 165.828 60.608 166.532 60.992C167.252 61.376 167.804 61.88 168.188 62.504V60.608H172.292V74H168.188V72.104C167.788 72.728 167.228 73.232 166.508 73.616C165.804 74 164.98 74.192 164.036 74.192C162.948 74.192 161.956 73.912 161.06 73.352C160.164 72.776 159.452 71.968 158.924 70.928C158.412 69.872 158.156 68.656 158.156 67.28ZM168.188 67.304C168.188 66.28 167.9 65.472 167.324 64.88C166.764 64.288 166.076 63.992 165.26 63.992C164.444 63.992 163.748 64.288 163.172 64.88C162.612 65.456 162.332 66.256 162.332 67.28C162.332 68.304 162.612 69.12 163.172 69.728C163.748 70.32 164.444 70.616 165.26 70.616C166.076 70.616 166.764 70.32 167.324 69.728C167.9 69.136 168.188 68.328 168.188 67.304ZM174.445 67.304C174.445 65.912 174.725 64.696 175.285 63.656C175.861 62.616 176.653 61.816 177.661 61.256C178.685 60.696 179.853 60.416 181.165 60.416C182.845 60.416 184.245 60.856 185.365 61.736C186.501 62.616 187.245 63.856 187.597 65.456H183.229C182.861 64.432 182.149 63.92 181.093 63.92C180.341 63.92 179.741 64.216 179.293 64.808C178.845 65.384 178.621 66.216 178.621 67.304C178.621 68.392 178.845 69.232 179.293 69.824C179.741 70.4 180.341 70.688 181.093 70.688C182.149 70.688 182.861 70.176 183.229 69.152H187.597C187.245 70.72 186.501 71.952 185.365 72.848C184.229 73.744 182.829 74.192 181.165 74.192C179.853 74.192 178.685 73.912 177.661 73.352C176.653 72.792 175.861 71.992 175.285 70.952C174.725 69.912 174.445 68.696 174.445 67.304ZM197.257 70.52V74H195.169C193.681 74 192.521 73.64 191.689 72.92C190.857 72.184 190.441 70.992 190.441 69.344V64.016H188.809V60.608H190.441V57.344H194.545V60.608H197.233V64.016H194.545V69.392C194.545 69.792 194.641 70.08 194.833 70.256C195.025 70.432 195.345 70.52 195.793 70.52H197.257Z" fill="#02CB63"/>
<rect x="93" y="83" width="115" height="0.5" fill="#D9D9D9"/>
<rect x="125" y="82" width="50" height="2.5" fill="#02CB63"/>
</svg>
