<svg width="301" height="132" viewBox="0 0 301 132" fill="none" xmlns="http://www.w3.org/2000/svg">
<path d="M58.1883 52.1015C56.7924 49.5301 54.7719 47.5831 52.127 46.2607C49.5556 44.8647 46.5066 44.1668 42.98 44.1668C36.882 44.1668 31.9962 46.1872 28.3227 50.2281C24.6492 54.1954 22.8125 59.522 22.8125 66.2078C22.8125 73.3344 24.7227 78.9181 28.5431 82.959C32.437 86.9264 37.7636 88.9101 44.5229 88.9101C49.1515 88.9101 53.0454 87.7345 56.2046 85.3835C59.4373 83.0324 61.7883 79.6528 63.2577 75.2446H39.3432V61.3588H80.3395V78.8814C78.9436 83.5835 76.5558 87.9549 73.1762 91.9958C69.8701 96.0366 65.6455 99.3061 60.5026 101.804C55.3597 104.302 49.5556 105.551 43.0902 105.551C35.4493 105.551 28.6166 103.898 22.5921 100.592C16.641 97.2122 11.9756 92.5468 8.596 86.5957C5.28985 80.6447 3.63677 73.8487 3.63677 66.2078C3.63677 58.5669 5.28985 51.7709 8.596 45.8198C11.9756 39.7953 16.641 35.1299 22.5921 31.8238C28.5431 28.4442 35.3391 26.7544 42.98 26.7544C52.2372 26.7544 60.0251 28.9952 66.3435 33.4769C72.7354 37.9585 76.9599 44.1668 79.0171 52.1015H58.1883ZM87.0311 74.1426C87.0311 67.8241 88.2066 62.2771 90.5576 57.5016C92.9821 52.726 96.2516 49.0525 100.366 46.4811C104.48 43.9096 109.072 42.6239 114.142 42.6239C118.476 42.6239 122.26 43.5055 125.493 45.2688C128.799 47.0321 131.334 49.3464 133.097 52.2117V43.5055H151.942V105H133.097V96.2938C131.26 99.1591 128.689 101.473 125.382 103.237C122.15 105 118.366 105.882 114.031 105.882C109.035 105.882 104.48 104.596 100.366 102.024C96.2516 99.3795 92.9821 95.6693 90.5576 90.8937C88.2066 86.0447 87.0311 80.461 87.0311 74.1426ZM133.097 74.2528C133.097 69.5507 131.774 65.8404 129.129 63.1221C126.558 60.4037 123.399 59.0445 119.652 59.0445C115.905 59.0445 112.709 60.4037 110.064 63.1221C107.492 65.767 106.207 69.4405 106.207 74.1426C106.207 78.8447 107.492 82.5916 110.064 85.3835C112.709 88.1019 115.905 89.4611 119.652 89.4611C123.399 89.4611 126.558 88.1019 129.129 85.3835C131.774 82.6651 133.097 78.9549 133.097 74.2528ZM161.828 74.1426C161.828 67.8241 163.004 62.2771 165.355 57.5016C167.78 52.726 171.049 49.0525 175.163 46.4811C179.278 43.9096 183.87 42.6239 188.939 42.6239C193.274 42.6239 197.057 43.5055 200.29 45.2688C203.596 47.0321 206.131 49.3464 207.894 52.2117V43.5055H226.739V105H207.894V96.2938C206.057 99.1591 203.486 101.473 200.18 103.237C196.947 105 193.163 105.882 188.829 105.882C183.833 105.882 179.278 104.596 175.163 102.024C171.049 99.3795 167.78 95.6693 165.355 90.8937C163.004 86.0447 161.828 80.461 161.828 74.1426ZM207.894 74.2528C207.894 69.5507 206.572 65.8404 203.927 63.1221C201.355 60.4037 198.196 59.0445 194.449 59.0445C190.702 59.0445 187.506 60.4037 184.861 63.1221C182.29 65.767 181.004 69.4405 181.004 74.1426C181.004 78.8447 182.29 82.5916 184.861 85.3835C187.506 88.1019 190.702 89.4611 194.449 89.4611C198.196 89.4611 201.355 88.1019 203.927 85.3835C206.572 82.6651 207.894 78.9549 207.894 74.2528ZM268.365 105.771C262.708 105.771 257.638 104.853 253.157 103.016C248.675 101.18 245.075 98.4612 242.357 94.8611C239.712 91.2611 238.316 86.9264 238.169 81.8569H258.226C258.52 84.7223 259.512 86.9264 261.202 88.4692C262.891 89.9386 265.096 90.6733 267.814 90.6733C270.606 90.6733 272.81 90.0488 274.426 88.7998C276.043 87.4774 276.851 85.6774 276.851 83.3998C276.851 81.4896 276.19 79.91 274.867 78.661C273.618 77.412 272.038 76.3834 270.128 75.5752C268.292 74.7671 265.647 73.8487 262.193 72.8201C257.198 71.2772 253.12 69.7344 249.961 68.1915C246.802 66.6486 244.083 64.371 241.806 61.3588C239.528 58.3465 238.389 54.4158 238.389 49.5668C238.389 42.3668 240.997 36.7463 246.214 32.7054C251.43 28.5911 258.226 26.534 266.602 26.534C275.124 26.534 281.994 28.5911 287.21 32.7054C292.426 36.7463 295.218 42.4035 295.586 49.677H275.198C275.051 47.179 274.132 45.2321 272.443 43.8362C270.753 42.3668 268.585 41.632 265.94 41.632C263.663 41.632 261.826 42.2565 260.43 43.5055C259.034 44.6811 258.336 46.4076 258.336 48.6852C258.336 51.1832 259.512 53.1301 261.863 54.526C264.214 55.922 267.887 57.4281 272.883 59.0445C277.879 60.7343 281.92 62.3506 285.006 63.8935C288.165 65.4364 290.884 67.6772 293.161 70.616C295.439 73.5548 296.577 77.3385 296.577 81.9671C296.577 86.3753 295.439 90.3795 293.161 93.9795C290.957 97.5795 287.724 100.445 283.463 102.575C279.202 104.706 274.169 105.771 268.365 105.771Z" fill="#1D1D1D"/>
<path d="M107.976 71.024H101.688L100.68 74H96.384L102.48 57.152H107.232L113.328 74H108.984L107.976 71.024ZM106.92 67.856L104.832 61.688L102.768 67.856H106.92ZM119.287 62.504C119.671 61.88 120.223 61.376 120.943 60.992C121.663 60.608 122.487 60.416 123.415 60.416C124.519 60.416 125.519 60.696 126.415 61.256C127.311 61.816 128.015 62.616 128.527 63.656C129.055 64.696 129.319 65.904 129.319 67.28C129.319 68.656 129.055 69.872 128.527 70.928C128.015 71.968 127.311 72.776 126.415 73.352C125.519 73.912 124.519 74.192 123.415 74.192C122.471 74.192 121.647 74.008 120.943 73.64C120.239 73.256 119.687 72.752 119.287 72.128V74H115.183V56.24H119.287V62.504ZM125.143 67.28C125.143 66.256 124.855 65.456 124.279 64.88C123.719 64.288 123.023 63.992 122.191 63.992C121.375 63.992 120.679 64.288 120.103 64.88C119.543 65.472 119.263 66.28 119.263 67.304C119.263 68.328 119.543 69.136 120.103 69.728C120.679 70.32 121.375 70.616 122.191 70.616C123.007 70.616 123.703 70.32 124.279 69.728C124.855 69.12 125.143 68.304 125.143 67.28ZM137.568 74.192C136.256 74.192 135.072 73.912 134.016 73.352C132.976 72.792 132.152 71.992 131.544 70.952C130.952 69.912 130.656 68.696 130.656 67.304C130.656 65.928 130.96 64.72 131.568 63.68C132.176 62.624 133.008 61.816 134.064 61.256C135.12 60.696 136.304 60.416 137.616 60.416C138.928 60.416 140.112 60.696 141.168 61.256C142.224 61.816 143.056 62.624 143.664 63.68C144.272 64.72 144.576 65.928 144.576 67.304C144.576 68.68 144.264 69.896 143.64 70.952C143.032 71.992 142.192 72.792 141.12 73.352C140.064 73.912 138.88 74.192 137.568 74.192ZM137.568 70.64C138.352 70.64 139.016 70.352 139.56 69.776C140.12 69.2 140.4 68.376 140.4 67.304C140.4 66.232 140.128 65.408 139.584 64.832C139.056 64.256 138.4 63.968 137.616 63.968C136.816 63.968 136.152 64.256 135.624 64.832C135.096 65.392 134.832 66.216 134.832 67.304C134.832 68.376 135.088 69.2 135.6 69.776C136.128 70.352 136.784 70.64 137.568 70.64ZM159.978 60.608V74H155.874V72.176C155.458 72.768 154.89 73.248 154.17 73.616C153.466 73.968 152.682 74.144 151.818 74.144C150.794 74.144 149.89 73.92 149.106 73.472C148.322 73.008 147.714 72.344 147.282 71.48C146.85 70.616 146.634 69.6 146.634 68.432V60.608H150.714V67.88C150.714 68.776 150.946 69.472 151.41 69.968C151.874 70.464 152.498 70.712 153.282 70.712C154.082 70.712 154.714 70.464 155.178 69.968C155.642 69.472 155.874 68.776 155.874 67.88V60.608H159.978ZM170.39 70.52V74H168.302C166.814 74 165.654 73.64 164.822 72.92C163.99 72.184 163.574 70.992 163.574 69.344V64.016H161.942V60.608H163.574V57.344H167.678V60.608H170.366V64.016H167.678V69.392C167.678 69.792 167.774 70.08 167.966 70.256C168.158 70.432 168.478 70.52 168.926 70.52H170.39ZM181.793 57.152V67.232C181.793 68.24 182.041 69.016 182.537 69.56C183.033 70.104 183.761 70.376 184.721 70.376C185.681 70.376 186.417 70.104 186.929 69.56C187.441 69.016 187.697 68.24 187.697 67.232V57.152H191.801V67.208C191.801 68.712 191.481 69.984 190.841 71.024C190.201 72.064 189.337 72.848 188.249 73.376C187.177 73.904 185.977 74.168 184.649 74.168C183.321 74.168 182.129 73.912 181.073 73.4C180.033 72.872 179.209 72.088 178.601 71.048C177.993 69.992 177.689 68.712 177.689 67.208V57.152H181.793ZM200.131 74.192C198.963 74.192 197.923 73.992 197.011 73.592C196.099 73.192 195.379 72.648 194.851 71.96C194.323 71.256 194.027 70.472 193.963 69.608H198.019C198.067 70.072 198.283 70.448 198.667 70.736C199.051 71.024 199.523 71.168 200.083 71.168C200.595 71.168 200.987 71.072 201.259 70.88C201.547 70.672 201.691 70.408 201.691 70.088C201.691 69.704 201.491 69.424 201.091 69.248C200.691 69.056 200.043 68.848 199.147 68.624C198.187 68.4 197.387 68.168 196.747 67.928C196.107 67.672 195.555 67.28 195.091 66.752C194.627 66.208 194.395 65.48 194.395 64.568C194.395 63.8 194.603 63.104 195.019 62.48C195.451 61.84 196.075 61.336 196.891 60.968C197.723 60.6 198.707 60.416 199.843 60.416C201.523 60.416 202.843 60.832 203.803 61.664C204.779 62.496 205.339 63.6 205.483 64.976H201.691C201.627 64.512 201.419 64.144 201.067 63.872C200.731 63.6 200.283 63.464 199.723 63.464C199.243 63.464 198.875 63.56 198.619 63.752C198.363 63.928 198.235 64.176 198.235 64.496C198.235 64.88 198.435 65.168 198.835 65.36C199.251 65.552 199.891 65.744 200.755 65.936C201.747 66.192 202.555 66.448 203.179 66.704C203.803 66.944 204.347 67.344 204.811 67.904C205.291 68.448 205.539 69.184 205.555 70.112C205.555 70.896 205.331 71.6 204.883 72.224C204.451 72.832 203.819 73.312 202.987 73.664C202.171 74.016 201.219 74.192 200.131 74.192Z" fill="#02CB63"/>
<rect x="93" y="83" width="115" height="0.5" fill="#D9D9D9"/>
<rect x="125" y="82" width="50" height="2.5" fill="#02CB63"/>
</svg>
