<svg width="301" height="132" viewBox="0 0 301 132" fill="none" xmlns="http://www.w3.org/2000/svg">
<path d="M58.1883 52.1015C56.7924 49.5301 54.7719 47.5831 52.127 46.2607C49.5556 44.8647 46.5066 44.1668 42.98 44.1668C36.882 44.1668 31.9962 46.1872 28.3227 50.2281C24.6492 54.1954 22.8125 59.522 22.8125 66.2078C22.8125 73.3344 24.7227 78.9181 28.5431 82.959C32.437 86.9264 37.7636 88.9101 44.5229 88.9101C49.1515 88.9101 53.0454 87.7345 56.2046 85.3835C59.4373 83.0324 61.7883 79.6528 63.2577 75.2446H39.3432V61.3588H80.3395V78.8814C78.9436 83.5835 76.5558 87.9549 73.1762 91.9958C69.8701 96.0366 65.6455 99.3061 60.5026 101.804C55.3597 104.302 49.5556 105.551 43.0902 105.551C35.4493 105.551 28.6166 103.898 22.5921 100.592C16.641 97.2122 11.9756 92.5468 8.596 86.5957C5.28985 80.6447 3.63677 73.8487 3.63677 66.2078C3.63677 58.5669 5.28985 51.7709 8.596 45.8198C11.9756 39.7953 16.641 35.1299 22.5921 31.8238C28.5431 28.4442 35.3391 26.7544 42.98 26.7544C52.2372 26.7544 60.0251 28.9952 66.3435 33.4769C72.7354 37.9585 76.9599 44.1668 79.0171 52.1015H58.1883ZM87.0311 74.1426C87.0311 67.8241 88.2066 62.2771 90.5576 57.5016C92.9821 52.726 96.2516 49.0525 100.366 46.4811C104.48 43.9096 109.072 42.6239 114.142 42.6239C118.476 42.6239 122.26 43.5055 125.493 45.2688C128.799 47.0321 131.334 49.3464 133.097 52.2117V43.5055H151.942V105H133.097V96.2938C131.26 99.1591 128.689 101.473 125.382 103.237C122.15 105 118.366 105.882 114.031 105.882C109.035 105.882 104.48 104.596 100.366 102.024C96.2516 99.3795 92.9821 95.6693 90.5576 90.8937C88.2066 86.0447 87.0311 80.461 87.0311 74.1426ZM133.097 74.2528C133.097 69.5507 131.774 65.8404 129.129 63.1221C126.558 60.4037 123.399 59.0445 119.652 59.0445C115.905 59.0445 112.709 60.4037 110.064 63.1221C107.492 65.767 106.207 69.4405 106.207 74.1426C106.207 78.8447 107.492 82.5916 110.064 85.3835C112.709 88.1019 115.905 89.4611 119.652 89.4611C123.399 89.4611 126.558 88.1019 129.129 85.3835C131.774 82.6651 133.097 78.9549 133.097 74.2528ZM161.828 74.1426C161.828 67.8241 163.004 62.2771 165.355 57.5016C167.78 52.726 171.049 49.0525 175.163 46.4811C179.278 43.9096 183.87 42.6239 188.939 42.6239C193.274 42.6239 197.057 43.5055 200.29 45.2688C203.596 47.0321 206.131 49.3464 207.894 52.2117V43.5055H226.739V105H207.894V96.2938C206.057 99.1591 203.486 101.473 200.18 103.237C196.947 105 193.163 105.882 188.829 105.882C183.833 105.882 179.278 104.596 175.163 102.024C171.049 99.3795 167.78 95.6693 165.355 90.8937C163.004 86.0447 161.828 80.461 161.828 74.1426ZM207.894 74.2528C207.894 69.5507 206.572 65.8404 203.927 63.1221C201.355 60.4037 198.196 59.0445 194.449 59.0445C190.702 59.0445 187.506 60.4037 184.861 63.1221C182.29 65.767 181.004 69.4405 181.004 74.1426C181.004 78.8447 182.29 82.5916 184.861 85.3835C187.506 88.1019 190.702 89.4611 194.449 89.4611C198.196 89.4611 201.355 88.1019 203.927 85.3835C206.572 82.6651 207.894 78.9549 207.894 74.2528ZM268.365 105.771C262.708 105.771 257.638 104.853 253.157 103.016C248.675 101.18 245.075 98.4612 242.357 94.8611C239.712 91.2611 238.316 86.9264 238.169 81.8569H258.226C258.52 84.7223 259.512 86.9264 261.202 88.4692C262.891 89.9386 265.096 90.6733 267.814 90.6733C270.606 90.6733 272.81 90.0488 274.426 88.7998C276.043 87.4774 276.851 85.6774 276.851 83.3998C276.851 81.4896 276.19 79.91 274.867 78.661C273.618 77.412 272.038 76.3834 270.128 75.5752C268.292 74.7671 265.647 73.8487 262.193 72.8201C257.198 71.2772 253.12 69.7344 249.961 68.1915C246.802 66.6486 244.083 64.371 241.806 61.3588C239.528 58.3465 238.389 54.4158 238.389 49.5668C238.389 42.3668 240.997 36.7463 246.214 32.7054C251.43 28.5911 258.226 26.534 266.602 26.534C275.124 26.534 281.994 28.5911 287.21 32.7054C292.426 36.7463 295.218 42.4035 295.586 49.677H275.198C275.051 47.179 274.132 45.2321 272.443 43.8362C270.753 42.3668 268.585 41.632 265.94 41.632C263.663 41.632 261.826 42.2565 260.43 43.5055C259.034 44.6811 258.336 46.4076 258.336 48.6852C258.336 51.1832 259.512 53.1301 261.863 54.526C264.214 55.922 267.887 57.4281 272.883 59.0445C277.879 60.7343 281.92 62.3506 285.006 63.8935C288.165 65.4364 290.884 67.6772 293.161 70.616C295.439 73.5548 296.577 77.3385 296.577 81.9671C296.577 86.3753 295.439 90.3795 293.161 93.9795C290.957 97.5795 287.724 100.445 283.463 102.575C279.202 104.706 274.169 105.771 268.365 105.771Z" fill="#1D1D1D"/>
<path d="M105.584 74.168C104.352 74.168 103.248 73.968 102.272 73.568C101.296 73.168 100.512 72.576 99.92 71.792C99.344 71.008 99.04 70.064 99.008 68.96H103.376C103.44 69.584 103.656 70.064 104.024 70.4C104.392 70.72 104.872 70.88 105.464 70.88C106.072 70.88 106.552 70.744 106.904 70.472C107.256 70.184 107.432 69.792 107.432 69.296C107.432 68.88 107.288 68.536 107 68.264C106.728 67.992 106.384 67.768 105.968 67.592C105.568 67.416 104.992 67.216 104.24 66.992C103.152 66.656 102.264 66.32 101.576 65.984C100.888 65.648 100.296 65.152 99.8 64.496C99.304 63.84 99.056 62.984 99.056 61.928C99.056 60.36 99.624 59.136 100.76 58.256C101.896 57.36 103.376 56.912 105.2 56.912C107.056 56.912 108.552 57.36 109.688 58.256C110.824 59.136 111.432 60.368 111.512 61.952H107.072C107.04 61.408 106.84 60.984 106.472 60.68C106.104 60.36 105.632 60.2 105.056 60.2C104.56 60.2 104.16 60.336 103.856 60.608C103.552 60.864 103.4 61.24 103.4 61.736C103.4 62.28 103.656 62.704 104.168 63.008C104.68 63.312 105.48 63.64 106.568 63.992C107.656 64.36 108.536 64.712 109.208 65.048C109.896 65.384 110.488 65.872 110.984 66.512C111.48 67.152 111.728 67.976 111.728 68.984C111.728 69.944 111.48 70.816 110.984 71.6C110.504 72.384 109.8 73.008 108.872 73.472C107.944 73.936 106.848 74.168 105.584 74.168ZM126.878 67.088C126.878 67.472 126.854 67.872 126.806 68.288H117.518C117.582 69.12 117.846 69.76 118.31 70.208C118.79 70.64 119.374 70.856 120.062 70.856C121.086 70.856 121.798 70.424 122.198 69.56H126.566C126.342 70.44 125.934 71.232 125.342 71.936C124.766 72.64 124.038 73.192 123.158 73.592C122.278 73.992 121.294 74.192 120.206 74.192C118.894 74.192 117.726 73.912 116.702 73.352C115.678 72.792 114.878 71.992 114.302 70.952C113.726 69.912 113.438 68.696 113.438 67.304C113.438 65.912 113.718 64.696 114.278 63.656C114.854 62.616 115.654 61.816 116.678 61.256C117.702 60.696 118.878 60.416 120.206 60.416C121.502 60.416 122.654 60.688 123.662 61.232C124.67 61.776 125.454 62.552 126.014 63.56C126.59 64.568 126.878 65.744 126.878 67.088ZM122.678 66.008C122.678 65.304 122.438 64.744 121.958 64.328C121.478 63.912 120.878 63.704 120.158 63.704C119.47 63.704 118.886 63.904 118.406 64.304C117.942 64.704 117.654 65.272 117.542 66.008H122.678ZM133.147 62.84C133.627 62.104 134.227 61.528 134.947 61.112C135.667 60.68 136.467 60.464 137.347 60.464V64.808H136.219C135.195 64.808 134.427 65.032 133.915 65.48C133.403 65.912 133.147 66.68 133.147 67.784V74H129.043V60.608H133.147V62.84ZM145.332 70.16L148.236 60.608H152.604L147.852 74H142.788L138.036 60.608H142.428L145.332 70.16ZM156.396 59.216C155.676 59.216 155.084 59.008 154.62 58.592C154.172 58.16 153.948 57.632 153.948 57.008C153.948 56.368 154.172 55.84 154.62 55.424C155.084 54.992 155.676 54.776 156.396 54.776C157.1 54.776 157.676 54.992 158.124 55.424C158.588 55.84 158.82 56.368 158.82 57.008C158.82 57.632 158.588 58.16 158.124 58.592C157.676 59.008 157.1 59.216 156.396 59.216ZM158.436 60.608V74H154.332V60.608H158.436ZM160.594 67.304C160.594 65.912 160.874 64.696 161.434 63.656C162.01 62.616 162.802 61.816 163.81 61.256C164.834 60.696 166.002 60.416 167.314 60.416C168.994 60.416 170.394 60.856 171.514 61.736C172.65 62.616 173.394 63.856 173.746 65.456H169.378C169.01 64.432 168.298 63.92 167.242 63.92C166.49 63.92 165.89 64.216 165.442 64.808C164.994 65.384 164.77 66.216 164.77 67.304C164.77 68.392 164.994 69.232 165.442 69.824C165.89 70.4 166.49 70.688 167.242 70.688C168.298 70.688 169.01 70.176 169.378 69.152H173.746C173.394 70.72 172.65 71.952 171.514 72.848C170.378 73.744 168.978 74.192 167.314 74.192C166.002 74.192 164.834 73.912 163.81 73.352C162.802 72.792 162.01 71.992 161.434 70.952C160.874 69.912 160.594 68.696 160.594 67.304ZM188.565 67.088C188.565 67.472 188.541 67.872 188.493 68.288H179.205C179.269 69.12 179.533 69.76 179.997 70.208C180.477 70.64 181.061 70.856 181.749 70.856C182.773 70.856 183.485 70.424 183.885 69.56H188.253C188.029 70.44 187.621 71.232 187.029 71.936C186.453 72.64 185.725 73.192 184.845 73.592C183.965 73.992 182.981 74.192 181.893 74.192C180.581 74.192 179.413 73.912 178.389 73.352C177.365 72.792 176.565 71.992 175.989 70.952C175.413 69.912 175.125 68.696 175.125 67.304C175.125 65.912 175.405 64.696 175.965 63.656C176.541 62.616 177.341 61.816 178.365 61.256C179.389 60.696 180.565 60.416 181.893 60.416C183.189 60.416 184.341 60.688 185.349 61.232C186.357 61.776 187.141 62.552 187.701 63.56C188.277 64.568 188.565 65.744 188.565 67.088ZM184.365 66.008C184.365 65.304 184.125 64.744 183.645 64.328C183.165 63.912 182.565 63.704 181.845 63.704C181.157 63.704 180.573 63.904 180.093 64.304C179.629 64.704 179.341 65.272 179.229 66.008H184.365ZM196.178 74.192C195.01 74.192 193.97 73.992 193.058 73.592C192.146 73.192 191.426 72.648 190.898 71.96C190.37 71.256 190.074 70.472 190.01 69.608H194.066C194.114 70.072 194.33 70.448 194.714 70.736C195.098 71.024 195.57 71.168 196.13 71.168C196.642 71.168 197.034 71.072 197.306 70.88C197.594 70.672 197.738 70.408 197.738 70.088C197.738 69.704 197.538 69.424 197.138 69.248C196.738 69.056 196.09 68.848 195.194 68.624C194.234 68.4 193.434 68.168 192.794 67.928C192.154 67.672 191.602 67.28 191.138 66.752C190.674 66.208 190.442 65.48 190.442 64.568C190.442 63.8 190.65 63.104 191.066 62.48C191.498 61.84 192.122 61.336 192.938 60.968C193.77 60.6 194.754 60.416 195.89 60.416C197.57 60.416 198.89 60.832 199.85 61.664C200.826 62.496 201.386 63.6 201.53 64.976H197.738C197.674 64.512 197.466 64.144 197.114 63.872C196.778 63.6 196.33 63.464 195.77 63.464C195.29 63.464 194.922 63.56 194.666 63.752C194.41 63.928 194.282 64.176 194.282 64.496C194.282 64.88 194.482 65.168 194.882 65.36C195.298 65.552 195.938 65.744 196.802 65.936C197.794 66.192 198.602 66.448 199.226 66.704C199.85 66.944 200.394 67.344 200.858 67.904C201.338 68.448 201.586 69.184 201.602 70.112C201.602 70.896 201.378 71.6 200.93 72.224C200.498 72.832 199.866 73.312 199.034 73.664C198.218 74.016 197.266 74.192 196.178 74.192Z" fill="#02CB63"/>
<rect x="93" y="83" width="115" height="0.5" fill="#D9D9D9"/>
<rect x="125" y="82" width="50" height="2.5" fill="#02CB63"/>
</svg>
