<svg width="493" height="402" viewBox="0 0 493 402" fill="none" xmlns="http://www.w3.org/2000/svg">
<g filter="url(#filter0_d_8992_14210)">
<rect x="21" y="25" width="451" height="360" rx="15" fill="white"/>
</g>
<rect x="443.5" y="220.5" width="55" height="394" transform="rotate(90 443.5 220.5)" stroke="#5B5B5B"/>
<path d="M111.188 246.609C111.779 246.609 112.316 246.744 112.797 247.015C113.288 247.276 113.674 247.672 113.955 248.203C114.246 248.724 114.391 249.361 114.391 250.113V255H113.038V250.338C113.038 249.506 112.837 248.875 112.436 248.444C112.035 248.012 111.479 247.797 110.767 247.797C110.065 247.797 109.509 248.012 109.098 248.444C108.697 248.875 108.496 249.506 108.496 250.338V255H107.128V243.872H108.496V248.083C108.767 247.601 109.138 247.236 109.609 246.985C110.08 246.734 110.607 246.609 111.188 246.609ZM120.405 253.887V255H119.022C118.32 255 117.783 254.83 117.413 254.489C117.052 254.148 116.871 253.612 116.871 252.88V247.857H115.803V246.744H116.871V244.699H118.255V246.744H120.39V247.857H118.255V252.88C118.255 253.251 118.33 253.511 118.48 253.662C118.631 253.812 118.896 253.887 119.277 253.887H120.405ZM125.75 253.887V255H124.367C123.665 255 123.129 254.83 122.758 254.489C122.397 254.148 122.217 253.612 122.217 252.88V247.857H121.149V246.744H122.217V244.699H123.6V246.744H125.735V247.857H123.6V252.88C123.6 253.251 123.675 253.511 123.826 253.662C123.976 253.812 124.242 253.887 124.623 253.887H125.75ZM131.682 246.609C132.424 246.609 133.091 246.784 133.682 247.135C134.284 247.486 134.755 247.982 135.096 248.624C135.447 249.256 135.622 249.987 135.622 250.82C135.622 251.652 135.447 252.398 135.096 253.06C134.755 253.712 134.284 254.223 133.682 254.594C133.091 254.955 132.424 255.135 131.682 255.135C130.981 255.135 130.364 254.97 129.833 254.639C129.311 254.298 128.91 253.857 128.63 253.316V258.91H127.261V246.744H128.63V248.398C128.91 247.867 129.311 247.436 129.833 247.105C130.364 246.774 130.981 246.609 131.682 246.609ZM131.412 247.797C130.92 247.797 130.459 247.922 130.028 248.173C129.607 248.424 129.266 248.784 129.006 249.256C128.755 249.717 128.63 250.258 128.63 250.88C128.63 251.501 128.755 252.048 129.006 252.519C129.266 252.98 129.607 253.336 130.028 253.586C130.459 253.837 130.92 253.962 131.412 253.962C131.903 253.962 132.364 253.837 132.795 253.586C133.226 253.326 133.567 252.955 133.818 252.474C134.078 251.992 134.209 251.441 134.209 250.82C134.209 250.198 134.078 249.662 133.818 249.21C133.567 248.749 133.226 248.398 132.795 248.158C132.374 247.917 131.913 247.797 131.412 247.797ZM140.177 246.609C141.07 246.609 141.776 246.845 142.298 247.316C142.819 247.777 143.105 248.414 143.155 249.226H141.741C141.721 248.764 141.566 248.393 141.275 248.113C140.984 247.832 140.583 247.692 140.072 247.692C139.551 247.692 139.14 247.817 138.839 248.068C138.548 248.308 138.403 248.614 138.403 248.985C138.403 249.296 138.493 249.546 138.674 249.737C138.864 249.917 139.095 250.053 139.365 250.143C139.646 250.233 140.022 250.328 140.493 250.429C141.095 250.569 141.576 250.709 141.937 250.85C142.308 250.98 142.624 251.205 142.884 251.526C143.145 251.837 143.275 252.263 143.275 252.805C143.275 253.256 143.145 253.662 142.884 254.023C142.624 254.373 142.258 254.649 141.786 254.85C141.315 255.04 140.774 255.135 140.162 255.135C139.24 255.135 138.498 254.905 137.937 254.444C137.385 253.982 137.085 253.346 137.035 252.534H138.448C138.468 252.995 138.629 253.366 138.929 253.647C139.24 253.917 139.651 254.053 140.162 254.053C140.724 254.053 141.155 253.937 141.456 253.707C141.766 253.476 141.922 253.17 141.922 252.789C141.922 252.479 141.827 252.233 141.636 252.053C141.456 251.862 141.225 251.722 140.944 251.632C140.664 251.531 140.278 251.426 139.786 251.316C139.195 251.185 138.714 251.055 138.343 250.925C137.982 250.784 137.671 250.569 137.411 250.278C137.16 249.987 137.035 249.586 137.035 249.075C137.035 248.624 137.16 248.213 137.411 247.842C137.671 247.461 138.037 247.16 138.508 246.94C138.989 246.719 139.546 246.609 140.177 246.609ZM145.401 247.707C145.401 247.466 145.486 247.261 145.657 247.09C145.827 246.92 146.033 246.835 146.273 246.835C146.524 246.835 146.734 246.92 146.905 247.09C147.075 247.261 147.16 247.466 147.16 247.707C147.16 247.947 147.075 248.153 146.905 248.323C146.734 248.494 146.524 248.579 146.273 248.579C146.033 248.579 145.827 248.494 145.657 248.323C145.486 248.153 145.401 247.947 145.401 247.707ZM145.401 254.128C145.401 253.877 145.486 253.667 145.657 253.496C145.827 253.326 146.033 253.241 146.273 253.241C146.524 253.241 146.734 253.326 146.905 253.496C147.075 253.667 147.16 253.877 147.16 254.128C147.16 254.368 147.075 254.574 146.905 254.744C146.734 254.915 146.524 255 146.273 255C146.033 255 145.827 254.915 145.657 254.744C145.486 254.574 145.401 254.368 145.401 254.128ZM155.352 240.835L151.247 257.556H149.894L153.999 240.835H155.352ZM163.459 240.835L159.353 257.556H158L162.105 240.835H163.459ZM176.843 246.744L174.241 255H172.828L170.963 248.444L169.099 255H167.67L165.053 246.744H166.467L168.377 253.632L170.317 246.744H171.73L173.565 253.647L175.46 246.744H176.843ZM188.988 246.744L186.386 255H184.973L183.108 248.444L181.243 255H179.815L177.198 246.744H178.612L180.521 253.632L182.461 246.744H183.875L185.709 253.647L187.604 246.744H188.988ZM201.132 246.744L198.531 255H197.117L195.253 248.444L193.388 255H191.959L189.343 246.744H190.756L192.666 253.632L194.606 246.744H196.02L197.854 253.647L199.749 246.744H201.132ZM202.134 254.128C202.134 253.877 202.219 253.667 202.39 253.496C202.56 253.326 202.766 253.241 203.006 253.241C203.247 253.241 203.452 253.326 203.623 253.496C203.793 253.667 203.879 253.877 203.879 254.128C203.879 254.368 203.793 254.574 203.623 254.744C203.452 254.915 203.247 255 203.006 255C202.766 255 202.56 254.915 202.39 254.744C202.219 254.574 202.134 254.368 202.134 254.128ZM215.752 246.609C216.354 246.609 216.9 246.744 217.391 247.015C217.882 247.276 218.268 247.672 218.549 248.203C218.84 248.724 218.985 249.361 218.985 250.113V255H217.632V250.338C217.632 249.506 217.426 248.875 217.015 248.444C216.614 248.012 216.063 247.797 215.361 247.797C214.659 247.797 214.103 248.012 213.692 248.444C213.291 248.875 213.09 249.506 213.09 250.338V255H211.737V250.338C211.737 249.506 211.536 248.875 211.135 248.444C210.734 248.012 210.178 247.797 209.466 247.797C208.765 247.797 208.208 248.012 207.797 248.444C207.396 248.875 207.196 249.506 207.196 250.338V255H205.827V246.744H207.196V248.083C207.466 247.601 207.837 247.236 208.308 246.985C208.78 246.734 209.306 246.609 209.887 246.609C210.519 246.609 211.09 246.764 211.602 247.075C212.113 247.376 212.499 247.817 212.76 248.398C213.06 247.837 213.466 247.401 213.978 247.09C214.499 246.769 215.09 246.609 215.752 246.609ZM228.647 250.534C228.647 250.825 228.627 251.095 228.587 251.346H222.016C222.056 252.168 222.311 252.82 222.783 253.301C223.264 253.772 223.875 254.008 224.617 254.008C225.179 254.008 225.65 253.882 226.031 253.632C226.422 253.381 226.707 253.05 226.888 252.639H228.362C228.101 253.361 227.65 253.957 227.008 254.429C226.377 254.9 225.58 255.135 224.617 255.135C223.845 255.135 223.154 254.96 222.542 254.609C221.94 254.258 221.469 253.762 221.128 253.12C220.788 252.469 220.617 251.722 220.617 250.88C220.617 250.028 220.788 249.281 221.128 248.639C221.469 247.987 221.951 247.486 222.572 247.135C223.194 246.784 223.91 246.609 224.722 246.609C225.494 246.609 226.176 246.779 226.768 247.12C227.359 247.461 227.82 247.927 228.151 248.519C228.482 249.11 228.647 249.782 228.647 250.534ZM227.219 250.353C227.219 249.822 227.103 249.361 226.873 248.97C226.642 248.569 226.326 248.263 225.925 248.053C225.534 247.842 225.098 247.737 224.617 247.737C223.905 247.737 223.309 247.972 222.828 248.444C222.347 248.905 222.081 249.541 222.031 250.353H227.219ZM231.404 253.887H235.389V255H229.855V253.887L233.84 247.857H229.855V246.744H235.389V247.857L231.404 253.887ZM240.789 246.609C241.571 246.609 242.278 246.784 242.91 247.135C243.541 247.486 244.038 247.987 244.399 248.639C244.769 249.291 244.955 250.038 244.955 250.88C244.955 251.712 244.764 252.454 244.384 253.105C244.003 253.747 243.486 254.248 242.835 254.609C242.183 254.96 241.461 255.135 240.669 255.135C239.897 255.135 239.201 254.96 238.579 254.609C237.967 254.258 237.486 253.762 237.135 253.12C236.794 252.469 236.624 251.722 236.624 250.88C236.624 250.028 236.805 249.281 237.165 248.639C237.536 247.987 238.038 247.486 238.669 247.135C239.301 246.784 240.008 246.609 240.789 246.609ZM240.744 247.737C240.243 247.737 239.787 247.857 239.376 248.098C238.965 248.338 238.634 248.694 238.383 249.165C238.143 249.637 238.023 250.208 238.023 250.88C238.023 251.541 238.138 252.108 238.368 252.579C238.609 253.05 238.93 253.406 239.331 253.647C239.732 253.887 240.178 254.008 240.669 254.008C241.17 254.008 241.637 253.887 242.068 253.647C242.509 253.396 242.865 253.035 243.135 252.564C243.406 252.093 243.541 251.531 243.541 250.88C243.541 250.218 243.411 249.652 243.15 249.18C242.9 248.699 242.559 248.338 242.128 248.098C241.707 247.857 241.246 247.737 240.744 247.737ZM249.704 253.722L252.246 246.744H253.719L250.486 255H248.937L245.719 246.744H247.178L249.704 253.722ZM262.511 250.534C262.511 250.825 262.491 251.095 262.451 251.346H255.88C255.92 252.168 256.176 252.82 256.647 253.301C257.128 253.772 257.739 254.008 258.481 254.008C259.043 254.008 259.514 253.882 259.895 253.632C260.286 253.381 260.572 253.05 260.752 252.639H262.226C261.965 253.361 261.514 253.957 260.872 254.429C260.241 254.9 259.444 255.135 258.481 255.135C257.709 255.135 257.018 254.96 256.406 254.609C255.805 254.258 255.333 253.762 254.993 253.12C254.652 252.469 254.481 251.722 254.481 250.88C254.481 250.028 254.652 249.281 254.993 248.639C255.333 247.987 255.815 247.486 256.436 247.135C257.058 246.784 257.775 246.609 258.587 246.609C259.359 246.609 260.04 246.779 260.632 247.12C261.223 247.461 261.684 247.927 262.015 248.519C262.346 249.11 262.511 249.782 262.511 250.534ZM261.083 250.353C261.083 249.822 260.968 249.361 260.737 248.97C260.506 248.569 260.191 248.263 259.79 248.053C259.399 247.842 258.963 247.737 258.481 247.737C257.77 247.737 257.173 247.972 256.692 248.444C256.211 248.905 255.945 249.541 255.895 250.353H261.083ZM267.058 246.609C267.95 246.609 268.657 246.845 269.178 247.316C269.699 247.777 269.985 248.414 270.035 249.226H268.622C268.602 248.764 268.446 248.393 268.155 248.113C267.865 247.832 267.464 247.692 266.952 247.692C266.431 247.692 266.02 247.817 265.719 248.068C265.429 248.308 265.283 248.614 265.283 248.985C265.283 249.296 265.373 249.546 265.554 249.737C265.744 249.917 265.975 250.053 266.246 250.143C266.526 250.233 266.902 250.328 267.374 250.429C267.975 250.569 268.456 250.709 268.817 250.85C269.188 250.98 269.504 251.205 269.764 251.526C270.025 251.837 270.155 252.263 270.155 252.805C270.155 253.256 270.025 253.662 269.764 254.023C269.504 254.373 269.138 254.649 268.667 254.85C268.196 255.04 267.654 255.135 267.043 255.135C266.12 255.135 265.379 254.905 264.817 254.444C264.266 253.982 263.965 253.346 263.915 252.534H265.328C265.348 252.995 265.509 253.366 265.81 253.647C266.12 253.917 266.531 254.053 267.043 254.053C267.604 254.053 268.035 253.937 268.336 253.707C268.647 253.476 268.802 253.17 268.802 252.789C268.802 252.479 268.707 252.233 268.516 252.053C268.336 251.862 268.105 251.722 267.825 251.632C267.544 251.531 267.158 251.426 266.667 251.316C266.075 251.185 265.594 251.055 265.223 250.925C264.862 250.784 264.551 250.569 264.291 250.278C264.04 249.987 263.915 249.586 263.915 249.075C263.915 248.624 264.04 248.213 264.291 247.842C264.551 247.461 264.917 247.16 265.389 246.94C265.87 246.719 266.426 246.609 267.058 246.609ZM275.966 253.887V255H274.582C273.88 255 273.344 254.83 272.973 254.489C272.612 254.148 272.432 253.612 272.432 252.88V247.857H271.364V246.744H272.432V244.699H273.815V246.744H275.95V247.857H273.815V252.88C273.815 253.251 273.89 253.511 274.041 253.662C274.191 253.812 274.457 253.887 274.838 253.887H275.966ZM277.176 254.128C277.176 253.877 277.261 253.667 277.431 253.496C277.602 253.326 277.807 253.241 278.048 253.241C278.288 253.241 278.494 253.326 278.664 253.496C278.835 253.667 278.92 253.877 278.92 254.128C278.92 254.368 278.835 254.574 278.664 254.744C278.494 254.915 278.288 255 278.048 255C277.807 255 277.602 254.915 277.431 254.744C277.261 254.574 277.176 254.368 277.176 254.128ZM284.327 246.609C285.32 246.609 286.127 246.84 286.748 247.301C287.38 247.762 287.821 248.419 288.072 249.271H286.598C286.438 248.789 286.162 248.414 285.771 248.143C285.38 247.872 284.899 247.737 284.327 247.737C283.545 247.737 282.914 248.012 282.433 248.564C281.961 249.105 281.726 249.877 281.726 250.88C281.726 251.872 281.961 252.644 282.433 253.195C282.914 253.737 283.545 254.008 284.327 254.008C284.909 254.008 285.39 253.877 285.771 253.617C286.152 253.356 286.428 252.975 286.598 252.474H288.072C287.821 253.286 287.375 253.932 286.733 254.414C286.102 254.895 285.3 255.135 284.327 255.135C283.555 255.135 282.864 254.96 282.252 254.609C281.651 254.258 281.179 253.762 280.839 253.12C280.498 252.469 280.327 251.722 280.327 250.88C280.327 250.028 280.498 249.281 280.839 248.639C281.179 247.987 281.651 247.486 282.252 247.135C282.854 246.784 283.545 246.609 284.327 246.609ZM293.509 246.609C294.291 246.609 294.998 246.784 295.63 247.135C296.261 247.486 296.758 247.987 297.118 248.639C297.489 249.291 297.675 250.038 297.675 250.88C297.675 251.712 297.484 252.454 297.103 253.105C296.722 253.747 296.206 254.248 295.555 254.609C294.903 254.96 294.181 255.135 293.389 255.135C292.617 255.135 291.92 254.96 291.299 254.609C290.687 254.258 290.206 253.762 289.855 253.12C289.514 252.469 289.344 251.722 289.344 250.88C289.344 250.028 289.524 249.281 289.885 248.639C290.256 247.987 290.758 247.486 291.389 247.135C292.021 246.784 292.727 246.609 293.509 246.609ZM293.464 247.737C292.963 247.737 292.507 247.857 292.096 248.098C291.685 248.338 291.354 248.694 291.103 249.165C290.863 249.637 290.742 250.208 290.742 250.88C290.742 251.541 290.858 252.108 291.088 252.579C291.329 253.05 291.65 253.406 292.051 253.647C292.452 253.887 292.898 254.008 293.389 254.008C293.89 254.008 294.357 253.887 294.788 253.647C295.229 253.396 295.585 253.035 295.855 252.564C296.126 252.093 296.261 251.531 296.261 250.88C296.261 250.218 296.131 249.652 295.87 249.18C295.62 248.699 295.279 248.338 294.848 248.098C294.427 247.857 293.966 247.737 293.464 247.737ZM309.312 246.609C309.913 246.609 310.459 246.744 310.951 247.015C311.442 247.276 311.828 247.672 312.109 248.203C312.399 248.724 312.545 249.361 312.545 250.113V255H311.191V250.338C311.191 249.506 310.986 248.875 310.575 248.444C310.174 248.012 309.622 247.797 308.921 247.797C308.219 247.797 307.662 248.012 307.251 248.444C306.85 248.875 306.65 249.506 306.65 250.338V255H305.296V250.338C305.296 249.506 305.096 248.875 304.695 248.444C304.294 248.012 303.738 247.797 303.026 247.797C302.324 247.797 301.768 248.012 301.357 248.444C300.956 248.875 300.755 249.506 300.755 250.338V255H299.387V246.744H300.755V248.083C301.026 247.601 301.397 247.236 301.868 246.985C302.339 246.734 302.865 246.609 303.447 246.609C304.078 246.609 304.65 246.764 305.161 247.075C305.672 247.376 306.058 247.817 306.319 248.398C306.62 247.837 307.026 247.401 307.537 247.09C308.058 246.769 308.65 246.609 309.312 246.609ZM320.282 240.835L316.177 257.556H314.823L318.929 240.835H320.282ZM327.245 246.609C327.987 246.609 328.654 246.784 329.245 247.135C329.847 247.486 330.318 247.982 330.659 248.624C331.01 249.256 331.185 249.987 331.185 250.82C331.185 251.652 331.01 252.398 330.659 253.06C330.318 253.712 329.847 254.223 329.245 254.594C328.654 254.955 327.987 255.135 327.245 255.135C326.544 255.135 325.927 254.97 325.396 254.639C324.874 254.298 324.473 253.857 324.193 253.316V258.91H322.824V246.744H324.193V248.398C324.473 247.867 324.874 247.436 325.396 247.105C325.927 246.774 326.544 246.609 327.245 246.609ZM326.975 247.797C326.483 247.797 326.022 247.922 325.591 248.173C325.17 248.424 324.829 248.784 324.569 249.256C324.318 249.717 324.193 250.258 324.193 250.88C324.193 251.501 324.318 252.048 324.569 252.519C324.829 252.98 325.17 253.336 325.591 253.586C326.022 253.837 326.483 253.962 326.975 253.962C327.466 253.962 327.927 253.837 328.358 253.586C328.789 253.326 329.13 252.955 329.381 252.474C329.641 251.992 329.772 251.441 329.772 250.82C329.772 250.198 329.641 249.662 329.381 249.21C329.13 248.749 328.789 248.398 328.358 248.158C327.937 247.917 327.476 247.797 326.975 247.797ZM336.297 246.609C336.999 246.609 337.61 246.774 338.131 247.105C338.663 247.436 339.064 247.867 339.334 248.398V246.744H340.718V255H339.334V253.316C339.064 253.857 338.663 254.298 338.131 254.639C337.61 254.97 336.999 255.135 336.297 255.135C335.555 255.135 334.883 254.955 334.282 254.594C333.69 254.223 333.219 253.712 332.868 253.06C332.527 252.398 332.357 251.652 332.357 250.82C332.357 249.987 332.527 249.256 332.868 248.624C333.219 247.982 333.69 247.486 334.282 247.135C334.883 246.784 335.555 246.609 336.297 246.609ZM336.537 247.797C336.046 247.797 335.585 247.917 335.154 248.158C334.733 248.398 334.392 248.749 334.131 249.21C333.881 249.662 333.755 250.198 333.755 250.82C333.755 251.441 333.881 251.992 334.131 252.474C334.392 252.945 334.733 253.311 335.154 253.571C335.585 253.832 336.046 253.962 336.537 253.962C337.039 253.962 337.5 253.837 337.921 253.586C338.352 253.336 338.693 252.98 338.943 252.519C339.204 252.048 339.334 251.501 339.334 250.88C339.334 250.258 339.204 249.717 338.943 249.256C338.693 248.784 338.352 248.424 337.921 248.173C337.5 247.922 337.039 247.797 336.537 247.797ZM343.529 246.744L346.055 253.421L348.627 246.744H350.04L345.063 258.865H343.649L345.288 254.865L342.025 246.744H343.529ZM361.268 246.609C361.869 246.609 362.416 246.744 362.907 247.015C363.398 247.276 363.784 247.672 364.065 248.203C364.356 248.724 364.501 249.361 364.501 250.113V255H363.148V250.338C363.148 249.506 362.942 248.875 362.531 248.444C362.13 248.012 361.579 247.797 360.877 247.797C360.175 247.797 359.619 248.012 359.208 248.444C358.807 248.875 358.606 249.506 358.606 250.338V255H357.253V250.338C357.253 249.506 357.052 248.875 356.651 248.444C356.25 248.012 355.694 247.797 354.982 247.797C354.28 247.797 353.724 248.012 353.313 248.444C352.912 248.875 352.711 249.506 352.711 250.338V255H351.343V246.744H352.711V248.083C352.982 247.601 353.353 247.236 353.824 246.985C354.295 246.734 354.822 246.609 355.403 246.609C356.035 246.609 356.606 246.764 357.117 247.075C357.629 247.376 358.015 247.817 358.275 248.398C358.576 247.837 358.982 247.401 359.493 247.09C360.015 246.769 360.606 246.609 361.268 246.609ZM374.163 250.534C374.163 250.825 374.143 251.095 374.103 251.346H367.532C367.572 252.168 367.827 252.82 368.298 253.301C368.78 253.772 369.391 254.008 370.133 254.008C370.694 254.008 371.166 253.882 371.547 253.632C371.938 253.381 372.223 253.05 372.404 252.639H373.877C373.617 253.361 373.166 253.957 372.524 254.429C371.892 254.9 371.095 255.135 370.133 255.135C369.361 255.135 368.669 254.96 368.058 254.609C367.456 254.258 366.985 253.762 366.644 253.12C366.303 252.469 366.133 251.722 366.133 250.88C366.133 250.028 366.303 249.281 366.644 248.639C366.985 247.987 367.466 247.486 368.088 247.135C368.709 246.784 369.426 246.609 370.238 246.609C371.01 246.609 371.692 246.779 372.283 247.12C372.875 247.461 373.336 247.927 373.667 248.519C373.998 249.11 374.163 249.782 374.163 250.534ZM372.735 250.353C372.735 249.822 372.619 249.361 372.389 248.97C372.158 248.569 371.842 248.263 371.441 248.053C371.05 247.842 370.614 247.737 370.133 247.737C369.421 247.737 368.825 247.972 368.344 248.444C367.862 248.905 367.597 249.541 367.547 250.353H372.735ZM379.927 246.609C380.519 246.609 381.055 246.744 381.536 247.015C382.028 247.276 382.414 247.672 382.694 248.203C382.985 248.724 383.13 249.361 383.13 250.113V255H381.777V250.338C381.777 249.506 381.577 248.875 381.176 248.444C380.775 248.012 380.218 247.797 379.506 247.797C378.805 247.797 378.248 248.012 377.837 248.444C377.436 248.875 377.236 249.506 377.236 250.338V255H375.867V246.744H377.236V248.083C377.506 247.601 377.877 247.236 378.349 246.985C378.82 246.734 379.346 246.609 379.927 246.609ZM389.144 253.887V255H387.761C387.059 255 386.523 254.83 386.152 254.489C385.791 254.148 385.611 253.612 385.611 252.88V247.857H384.543V246.744H385.611V244.699H386.994V246.744H389.129V247.857H386.994V252.88C386.994 253.251 387.069 253.511 387.22 253.662C387.37 253.812 387.636 253.887 388.017 253.887H389.144ZM396.219 240.835L392.114 257.556H390.761L394.866 240.835H396.219ZM398.461 254.128C398.461 253.877 398.546 253.667 398.716 253.496C398.887 253.326 399.092 253.241 399.333 253.241C399.574 253.241 399.779 253.326 399.95 253.496C400.12 253.667 400.205 253.877 400.205 254.128C400.205 254.368 400.12 254.574 399.95 254.744C399.779 254.915 399.574 255 399.333 255C399.092 255 398.887 254.915 398.716 254.744C398.546 254.574 398.461 254.368 398.461 254.128ZM401.853 254.128C401.853 253.877 401.938 253.667 402.109 253.496C402.279 253.326 402.485 253.241 402.725 253.241C402.966 253.241 403.171 253.326 403.342 253.496C403.512 253.667 403.597 253.877 403.597 254.128C403.597 254.368 403.512 254.574 403.342 254.744C403.171 254.915 402.966 255 402.725 255C402.485 255 402.279 254.915 402.109 254.744C401.938 254.574 401.853 254.368 401.853 254.128ZM405.245 254.128C405.245 253.877 405.331 253.667 405.501 253.496C405.671 253.326 405.877 253.241 406.118 253.241C406.358 253.241 406.564 253.326 406.734 253.496C406.905 253.667 406.99 253.877 406.99 254.128C406.99 254.368 406.905 254.574 406.734 254.744C406.564 254.915 406.358 255 406.118 255C405.877 255 405.671 254.915 405.501 254.744C405.331 254.574 405.245 254.368 405.245 254.128ZM408.638 254.128C408.638 253.877 408.723 253.667 408.893 253.496C409.064 253.326 409.269 253.241 409.51 253.241C409.75 253.241 409.956 253.326 410.126 253.496C410.297 253.667 410.382 253.877 410.382 254.128C410.382 254.368 410.297 254.574 410.126 254.744C409.956 254.915 409.75 255 409.51 255C409.269 255 409.064 254.915 408.893 254.744C408.723 254.574 408.638 254.368 408.638 254.128Z" fill="#5B5B5B"/>
<path d="M79 244.25C75.8244 244.25 73.25 246.824 73.25 250C73.25 253.176 75.8244 255.75 79 255.75C79.4142 255.75 79.75 255.414 79.75 255C79.75 254.586 79.4142 254.25 79 254.25C76.6528 254.25 74.75 252.347 74.75 250C74.75 247.653 76.6528 245.75 79 245.75C79.4142 245.75 79.75 245.414 79.75 245C79.75 244.586 79.4142 244.25 79 244.25Z" fill="#5B5B5B"/>
<path d="M87 244.25C86.5858 244.25 86.25 244.586 86.25 245C86.25 245.414 86.5858 245.75 87 245.75C89.3472 245.75 91.25 247.653 91.25 250C91.25 252.347 89.3472 254.25 87 254.25C86.5858 254.25 86.25 254.586 86.25 255C86.25 255.414 86.5858 255.75 87 255.75C90.1756 255.75 92.75 253.176 92.75 250C92.75 246.824 90.1756 244.25 87 244.25Z" fill="#5B5B5B"/>
<path d="M79 249.25C78.5858 249.25 78.25 249.586 78.25 250C78.25 250.414 78.5858 250.75 79 250.75H87C87.4142 250.75 87.75 250.414 87.75 250C87.75 249.586 87.4142 249.25 87 249.25H79Z" fill="#5B5B5B"/>
<rect width="170" height="44" transform="translate(162 298)" fill="#CCCCCC"/>
<path d="M206.706 311.113C207.11 310.707 207.558 310.371 208.131 310.279C208.253 310.26 208.377 310.25 208.5 310.25C208.623 310.25 208.747 310.26 208.869 310.279C209.442 310.371 209.89 310.707 210.294 311.113C210.688 311.508 211.128 312.063 211.661 312.735L213.088 314.534C213.345 314.859 213.291 315.33 212.966 315.588C212.641 315.845 212.17 315.791 211.912 315.466L210.514 313.703C209.956 312.999 209.573 312.517 209.25 312.19V325C209.25 325.414 208.914 325.75 208.5 325.75C208.086 325.75 207.75 325.414 207.75 325V312.19C207.427 312.517 207.044 312.999 206.486 313.703L205.088 315.466C204.83 315.791 204.359 315.845 204.034 315.588C203.709 315.33 203.655 314.859 203.912 314.534L205.339 312.735C205.872 312.063 206.312 311.508 206.706 311.113Z" fill="#5B5B5B"/>
<path d="M217.1 318.55C216.851 318.218 216.381 318.152 216.05 318.4C215.719 318.649 215.652 319.119 215.901 319.45C216.434 320.161 216.75 321.042 216.75 322V323C216.75 323.958 216.748 324.349 216.698 324.665C216.41 326.483 214.983 327.91 213.165 328.198C212.849 328.248 212.458 328.25 211.5 328.25H205.5C204.542 328.25 204.151 328.248 203.835 328.198C202.017 327.91 200.59 326.483 200.302 324.665C200.252 324.349 200.25 323.958 200.25 323V322C200.25 321.042 200.566 320.161 201.099 319.45C201.348 319.119 201.281 318.649 200.95 318.4C200.619 318.152 200.149 318.218 199.9 318.55C199.178 319.511 198.75 320.706 198.75 322L198.75 323.081C198.75 323.933 198.75 324.452 198.821 324.899C199.21 327.36 201.14 329.29 203.601 329.679C204.048 329.75 204.567 329.75 205.419 329.75H211.581C212.433 329.75 212.952 329.75 213.4 329.679C215.86 329.29 217.79 327.36 218.179 324.899C218.25 324.452 218.25 323.933 218.25 323.081L218.25 322C218.25 320.706 217.822 319.511 217.1 318.55Z" fill="#5B5B5B"/>
<path d="M246.667 322.23C246.667 322.636 246.561 323.018 246.351 323.377C246.14 323.736 245.828 324.028 245.415 324.254C245.001 324.473 244.506 324.582 243.929 324.582C243.414 324.582 242.95 324.5 242.536 324.336C242.123 324.165 241.795 323.923 241.553 323.611C241.319 323.291 241.202 322.912 241.202 322.476H242.337C242.368 322.842 242.513 323.139 242.77 323.365C243.035 323.591 243.421 323.704 243.929 323.704C244.451 323.704 244.865 323.572 245.169 323.306C245.473 323.041 245.625 322.702 245.625 322.288C245.625 321.976 245.539 321.731 245.368 321.551C245.196 321.364 244.982 321.224 244.724 321.13C244.467 321.036 244.124 320.943 243.695 320.849C243.156 320.724 242.719 320.596 242.384 320.463C242.056 320.33 241.775 320.116 241.541 319.819C241.315 319.523 241.202 319.113 241.202 318.591C241.202 318.138 241.311 317.74 241.53 317.397C241.748 317.054 242.06 316.789 242.466 316.601C242.879 316.406 243.359 316.309 243.905 316.309C244.646 316.309 245.247 316.492 245.707 316.859C246.175 317.218 246.444 317.717 246.515 318.357H245.333C245.302 318.037 245.149 317.764 244.876 317.538C244.611 317.311 244.252 317.198 243.8 317.198C243.34 317.198 242.965 317.315 242.676 317.549C242.388 317.776 242.244 318.111 242.244 318.556C242.244 318.875 242.329 319.129 242.501 319.316C242.673 319.503 242.883 319.644 243.133 319.737C243.39 319.831 243.745 319.929 244.198 320.03C244.728 320.155 245.157 320.284 245.485 320.416C245.812 320.541 246.089 320.748 246.316 321.036C246.55 321.325 246.667 321.723 246.667 322.23ZM251.405 317.971C251.865 317.971 252.282 318.076 252.657 318.287C253.039 318.489 253.339 318.797 253.558 319.211C253.784 319.617 253.897 320.112 253.897 320.697V324.5H252.844V320.873C252.844 320.225 252.688 319.734 252.376 319.398C252.064 319.063 251.631 318.895 251.077 318.895C250.531 318.895 250.098 319.063 249.778 319.398C249.466 319.734 249.31 320.225 249.31 320.873V324.5H248.245V315.841H249.31V319.117C249.521 318.743 249.809 318.458 250.176 318.263C250.543 318.068 250.952 317.971 251.405 317.971ZM258.238 317.971C258.784 317.971 259.26 318.099 259.665 318.357C260.079 318.614 260.391 318.95 260.601 319.363V318.076H261.678V324.5H260.601V323.189C260.391 323.611 260.079 323.954 259.665 324.219C259.26 324.477 258.784 324.605 258.238 324.605C257.66 324.605 257.138 324.465 256.67 324.184C256.209 323.895 255.843 323.498 255.57 322.991C255.304 322.476 255.172 321.894 255.172 321.247C255.172 320.6 255.304 320.03 255.57 319.539C255.843 319.039 256.209 318.653 256.67 318.38C257.138 318.107 257.66 317.971 258.238 317.971ZM258.425 318.895C258.043 318.895 257.684 318.989 257.348 319.176C257.021 319.363 256.755 319.636 256.553 319.995C256.358 320.346 256.26 320.763 256.26 321.247C256.26 321.731 256.358 322.16 256.553 322.534C256.755 322.901 257.021 323.186 257.348 323.388C257.684 323.591 258.043 323.693 258.425 323.693C258.815 323.693 259.174 323.595 259.501 323.4C259.837 323.205 260.102 322.928 260.297 322.569C260.5 322.203 260.601 321.777 260.601 321.294C260.601 320.81 260.5 320.389 260.297 320.03C260.102 319.663 259.837 319.383 259.501 319.188C259.174 318.992 258.815 318.895 258.425 318.895ZM264.497 319.164C264.879 318.368 265.531 317.971 266.451 317.971V319.082H266.17C265.624 319.082 265.207 319.227 264.918 319.515C264.637 319.796 264.497 320.287 264.497 320.99V324.5H263.432V318.076H264.497V319.164ZM273.568 321.025C273.568 321.251 273.552 321.462 273.521 321.657H268.407C268.438 322.296 268.637 322.803 269.004 323.178C269.378 323.544 269.854 323.728 270.432 323.728C270.868 323.728 271.235 323.63 271.532 323.435C271.836 323.24 272.058 322.983 272.199 322.663H273.345C273.142 323.225 272.791 323.689 272.292 324.055C271.801 324.422 271.18 324.605 270.432 324.605C269.831 324.605 269.293 324.469 268.817 324.196C268.349 323.923 267.982 323.537 267.717 323.037C267.452 322.53 267.319 321.949 267.319 321.294C267.319 320.631 267.452 320.05 267.717 319.55C267.982 319.043 268.357 318.653 268.84 318.38C269.324 318.107 269.882 317.971 270.514 317.971C271.114 317.971 271.645 318.103 272.105 318.368C272.565 318.634 272.924 318.996 273.181 319.457C273.439 319.917 273.568 320.44 273.568 321.025ZM272.456 320.884C272.456 320.471 272.366 320.112 272.187 319.808C272.007 319.496 271.762 319.258 271.45 319.094C271.145 318.93 270.806 318.848 270.432 318.848C269.878 318.848 269.414 319.032 269.039 319.398C268.665 319.757 268.458 320.252 268.419 320.884H272.456ZM279.467 323.681H282.31V324.5H278.402V316.391H279.467V323.681ZM283.243 316.321C283.243 316.118 283.313 315.946 283.454 315.806C283.594 315.665 283.762 315.595 283.957 315.595C284.16 315.595 284.331 315.665 284.472 315.806C284.612 315.946 284.682 316.118 284.682 316.321C284.682 316.523 284.612 316.695 284.472 316.836C284.331 316.976 284.16 317.046 283.957 317.046C283.754 317.046 283.582 316.976 283.442 316.836C283.309 316.695 283.243 316.523 283.243 316.321ZM284.483 318.076V324.5H283.418V318.076H284.483ZM289.4 317.971C289.861 317.971 290.278 318.076 290.652 318.287C291.035 318.489 291.335 318.797 291.553 319.211C291.78 319.617 291.893 320.112 291.893 320.697V324.5H290.84V320.873C290.84 320.225 290.684 319.734 290.372 319.398C290.06 319.063 289.627 318.895 289.073 318.895C288.527 318.895 288.094 319.063 287.774 319.398C287.462 319.734 287.306 320.225 287.306 320.873V324.5H286.241V318.076H287.306V319.117C287.516 318.743 287.805 318.458 288.172 318.263C288.538 318.068 288.948 317.971 289.4 317.971ZM295.578 321.27L298.609 324.5H297.169L294.653 321.68V324.5H293.589V315.841H294.653V320.919L297.111 318.076H298.609L295.578 321.27Z" fill="#5B5B5B"/>
<rect x="101" y="69" width="343" height="31" fill="#D9D9D9"/>
<circle cx="67.5" cy="84.5" r="15.5" fill="#D9D9D9"/>
<rect x="101" y="115" width="343" height="31" fill="#D9D9D9"/>
<circle cx="67.5" cy="130.5" r="15.5" fill="#D9D9D9"/>
<rect x="101" y="161" width="343" height="31" fill="#D9D9D9"/>
<circle cx="67.5" cy="176.5" r="15.5" fill="#D9D9D9"/>
<defs>
<filter id="filter0_d_8992_14210" x="0" y="0" width="493" height="402" filterUnits="userSpaceOnUse" color-interpolation-filters="sRGB">
<feFlood flood-opacity="0" result="BackgroundImageFix"/>
<feColorMatrix in="SourceAlpha" type="matrix" values="0 0 0 0 0 0 0 0 0 0 0 0 0 0 0 0 0 0 127 0" result="hardAlpha"/>
<feMorphology radius="3" operator="erode" in="SourceAlpha" result="effect1_dropShadow_8992_14210"/>
<feOffset dy="-4"/>
<feGaussianBlur stdDeviation="12"/>
<feComposite in2="hardAlpha" operator="out"/>
<feColorMatrix type="matrix" values="0 0 0 0 0 0 0 0 0 0 0 0 0 0 0 0 0 0 0.42 0"/>
<feBlend mode="normal" in2="BackgroundImageFix" result="effect1_dropShadow_8992_14210"/>
<feBlend mode="normal" in="SourceGraphic" in2="effect1_dropShadow_8992_14210" result="shape"/>
</filter>
</defs>
</svg>
