<svg width="95" height="95" viewBox="0 0 95 95" fill="none" xmlns="http://www.w3.org/2000/svg">
<g clip-path="url(#clip0_16266_20512)">
<path d="M0.211914 47.382V94.382H47.2119H94.2119V47.382V0.382019H47.2119H0.211914V47.382ZM63.7794 19.8479C64.4844 20.2787 65.4244 21.1795 65.9336 21.9237C66.7952 23.2162 67.4219 24.9395 67.1478 25.2137C66.8344 25.527 62.0952 25.7229 62.0952 25.4095C62.0952 24.7045 60.7636 23.882 59.6669 23.882C58.0611 23.882 57.0036 24.8612 57.0036 26.3495C57.0036 28.1512 57.9827 28.9737 60.0977 28.9737C62.8394 28.9737 65.2286 30.3445 66.3252 32.4987C67.6177 35.0445 67.4219 38.8045 65.8552 41.037C63.8577 43.9354 59.7061 45.0712 56.3377 43.6612C53.9486 42.6429 52.7736 41.2329 52.1469 38.6479L51.9119 37.5904H54.3794C56.3377 37.5904 56.9644 37.747 57.5127 38.3737C58.3352 39.3137 60.6069 39.4312 61.4686 38.5304C62.1736 37.8254 62.2911 35.9454 61.7036 34.8095C61.3902 34.2612 60.8419 34.0654 59.6277 34.0654C57.5911 34.0654 55.2019 32.9687 53.8311 31.4804C50.3061 27.6029 51.9119 21.1795 56.8861 19.3387C58.7661 18.6337 62.0952 18.8687 63.7794 19.8479ZM22.5369 20.0437C25.4744 22.0804 25.4744 21.9629 25.5919 33.517L25.7094 43.857H23.1244H20.5786V40.1362V36.3762L18.3461 36.4937L16.0744 36.6112L15.9569 40.2145L15.8394 43.857H13.3327H10.7869V34.1437C10.7869 24.8612 10.8261 24.352 11.6877 22.707C13.0194 20.0045 14.5861 19.182 18.2286 19.182C20.6961 19.182 21.4794 19.3387 22.5369 20.0437ZM38.9477 20.0045C39.6919 20.4354 40.5927 21.1795 40.9844 21.6495C42.7861 23.8428 42.9819 30.6579 41.3369 33.5562L40.4752 35.0445L41.8461 39.4312L43.2169 43.857H40.5927H38.0077L36.9502 40.3712C36.0102 37.3554 35.7361 36.8462 34.8352 36.6504C32.6419 36.0629 32.3286 36.5329 32.3286 40.3712V43.857H29.9786H27.6286V33.752C27.6286 23.8428 27.6677 23.647 28.5686 22.1587C29.8611 20.0045 31.5452 19.2212 34.8744 19.182C36.9894 19.182 37.9294 19.3779 38.9477 20.0045ZM50.3452 31.5195V43.857H47.7994H45.2536V31.5195V19.182H47.7994H50.3452V31.5195ZM82.3836 21.6104L82.2661 24.0779L78.1536 24.2737L74.0411 24.4695L73.9236 26.702L73.8061 28.9737H78.1536H82.4619V31.5195V34.0654H78.1536H73.8061L73.9236 36.2979L74.0411 38.5695L78.1536 38.7654L82.2661 38.9612L82.3836 41.3895L82.5011 43.857H77.8402C73.6494 43.857 73.0619 43.7787 71.8869 42.9562C68.9886 40.9979 68.9494 40.8412 68.9494 31.5979C68.9494 23.4903 68.9886 23.2554 69.8894 22.002C71.6127 19.5737 72.7094 19.182 77.8794 19.182H82.5011L82.3836 21.6104ZM79.8377 50.0845C80.6602 50.2804 81.6786 50.7504 82.1094 51.142C82.8536 51.8079 82.8536 51.847 82.1877 52.552C81.4827 53.2179 81.4044 53.2179 79.7986 52.4345C77.7619 51.4162 75.8036 51.6512 74.3544 53.1004C73.6102 53.8445 73.4536 54.3145 73.6494 55.137C74.0411 56.7429 74.4719 57.0562 77.7227 58.1529C81.7178 59.4845 83.0494 60.777 83.0102 63.4012C82.9711 66.7304 80.7386 68.532 76.5477 68.532C72.5919 68.532 69.8503 66.5737 71.9652 65.242C72.4744 64.9287 72.8269 65.007 73.4144 65.5554C74.5502 66.5737 77.8402 66.8479 79.0936 66.0254C80.4252 65.1637 81.0127 63.9495 80.6994 62.7745C80.4644 61.7954 78.9369 60.9337 74.5111 59.3279C71.5344 58.2704 70.3202 55.5287 71.6519 52.9437C73.0228 50.2412 76.0386 49.2229 79.8377 50.0845ZM16.9361 54.7062C18.7769 57.252 21.2052 60.5029 22.3019 61.9912L24.2994 64.6154L24.4952 57.487L24.6911 50.3195L25.7877 50.202L26.8452 50.0845V59.0929V68.1404H25.3961C24.1036 68.1404 23.7511 67.9054 22.7327 66.4562C22.1061 65.5554 19.7169 62.3045 17.4452 59.2104L13.3327 53.6095L13.2152 60.8945L13.1369 68.1404H11.9619H10.7869V59.4062C10.7869 54.5887 10.9044 50.5154 11.0611 50.3979C11.1786 50.2412 11.8052 50.1237 12.4319 50.1237C13.3719 50.1237 13.9594 50.7112 16.9361 54.7062ZM41.3369 51.1029V52.082H36.6369H31.9369V55.0195V57.9179L36.3627 58.0354C40.4361 58.1529 40.7494 58.192 40.7494 58.9362C40.7494 59.6804 40.4361 59.7195 36.3627 59.837L31.9369 59.9545V63.0487V66.1429L36.9502 66.2604C41.6111 66.3779 41.9244 66.417 41.9244 67.1612C41.9244 67.9054 41.6111 67.9445 35.7752 68.062L29.5869 68.1795V59.4062C29.5869 54.5887 29.7044 50.5154 29.8611 50.3979C29.9786 50.2412 32.6419 50.1237 35.7361 50.1237H41.3369V51.1029ZM46.9769 51.377C47.2511 52.082 48.2694 55.372 49.2094 58.6229C50.1494 61.9129 51.0111 64.4979 51.1677 64.302C51.4027 64.1062 53.4786 57.6437 55.3977 51.2987C55.6327 50.5545 56.0244 50.2804 56.9252 50.202L58.1394 50.0845L60.0977 56.2729C61.1552 59.6804 62.1736 62.9312 62.2911 63.5187C62.5652 64.6154 63.2702 65.0462 63.2702 64.1454C63.2702 63.9104 64.1711 60.6204 65.3069 56.8995C67.1478 50.7112 67.3827 50.1237 68.2052 50.1237C69.5369 50.1237 69.6152 50.5545 68.7536 53.1004C68.3619 54.3929 67.1086 58.2704 66.0119 61.7954L63.9752 68.1795L62.7611 68.062C61.8994 67.9837 61.5077 67.7095 61.2727 66.9654C61.1161 66.417 60.0586 63.0879 58.9619 59.5237L56.9252 53.0612L55.2019 58.5445C54.2619 61.5604 53.2044 64.9679 52.8519 66.0645C52.3036 68.0229 52.1469 68.1404 51.0111 68.1404H49.7577L47.0944 59.4062C45.6452 54.6279 44.4311 50.5937 44.4702 50.3979C44.4702 50.2412 44.9011 50.1237 45.4886 50.1237C46.2327 50.1237 46.5852 50.437 46.9769 51.377Z" fill="#7E7E7E"/>
<path d="M16.1134 24.8612C15.9959 25.2137 15.8784 26.8195 15.8784 28.4253V31.3237H18.2284H20.6176L20.5001 27.877L20.3826 24.4695L18.3851 24.352C16.8184 24.2737 16.3093 24.3912 16.1134 24.8612Z" fill="#7E7E7E"/>
<path d="M32.7595 24.822C32.4462 25.1745 32.3287 26.5062 32.407 28.4645L32.5245 31.5195H34.6004C35.9712 31.4804 36.7937 31.2845 37.0287 30.932C37.577 30.0704 37.4987 25.292 36.9504 24.7437C36.2845 24.0779 33.3079 24.1562 32.7595 24.822Z" fill="#7E7E7E"/>
</g>
<defs>
<clipPath id="clip0_16266_20512">
<rect width="94" height="94" fill="white" transform="translate(0.211914 0.382019)"/>
</clipPath>
</defs>
</svg>
