<svg width="16" height="10" viewBox="0 0 16 10" fill="none" xmlns="http://www.w3.org/2000/svg">
  <path d="M1.33334 4.37435C0.988166 4.37435 0.708344 4.65417 0.708344 4.99935C0.708344 5.34453 0.988166 5.62435 1.33334 5.62435L13.8591 5.62435C13.8046 5.71318 13.7345 5.81177 13.6445 5.92376C13.3678 6.26837 12.9588 6.67507 12.3625 7.26602L10.8934 8.72211C10.6482 8.96509 10.6464 9.36082 10.8894 9.60598C11.1324 9.85115 11.5281 9.85291 11.7733 9.60992L13.2689 8.1276C13.8322 7.56931 14.2926 7.11303 14.6191 6.70647C14.9587 6.28369 15.2044 5.85458 15.2701 5.33948C15.2989 5.11363 15.2989 4.88507 15.2701 4.65921C15.2044 4.14412 14.9587 3.715 14.6191 3.29223C14.2926 2.88567 13.8322 2.42939 13.2689 1.87111L11.7733 0.388773C11.5281 0.145787 11.1324 0.147552 10.8894 0.392716C10.6464 0.63788 10.6482 1.0336 10.8934 1.27659L12.3625 2.73268C12.9588 3.32363 13.3678 3.73033 13.6445 4.07494C13.7345 4.18693 13.8046 4.28552 13.8591 4.37435L1.33334 4.37435Z" fill="white"/>
  </svg>