<svg width="30" height="30" viewBox="0 0 30 30" fill="none" xmlns="http://www.w3.org/2000/svg">
<circle cx="15.4089" cy="14.6648" r="14.162" stroke="#203035" stroke-width="0.544691"/>
<path fill-rule="evenodd" clip-rule="evenodd" d="M13.5635 10.0211C12.9904 9.49458 12.1096 9.49458 11.5365 10.0211C11.513 10.0427 11.488 10.0678 11.4555 10.1003L10.9666 10.5892C10.4747 11.0811 10.2682 11.7902 10.4191 12.4693C11.2753 16.3224 14.2845 19.3316 18.1376 20.1878C18.8167 20.3387 19.5258 20.1322 20.0177 19.6403L20.5066 19.1515C20.5391 19.1189 20.5642 19.0939 20.5858 19.0704C21.1123 18.4973 21.1123 17.6165 20.5858 17.0434C20.5642 17.0199 20.5391 16.9949 20.5066 16.9623L19.7063 16.162C19.1506 15.6064 18.3115 15.4475 17.5912 15.7615C17.1788 15.9412 16.6984 15.8502 16.3803 15.5321L15.0748 14.2266C14.7567 13.9085 14.6657 13.4281 14.8455 13.0157C15.1594 12.2954 15.0005 11.4563 14.4449 10.9007L13.6446 10.1003C13.612 10.0678 13.587 10.0427 13.5635 10.0211ZM12.0893 10.6228C12.3498 10.3834 12.7502 10.3834 13.0107 10.6228C13.0197 10.631 13.0315 10.6427 13.0729 10.6841L13.8672 11.4784C14.1853 11.7965 14.2762 12.2769 14.0965 12.6893C13.7825 13.4096 13.9414 14.2487 14.497 14.8044L15.8026 16.1099C16.3582 16.6655 17.1973 16.8244 17.9176 16.5104C18.33 16.3307 18.8104 16.4217 19.1285 16.7398L19.9228 17.534C19.9642 17.5755 19.9759 17.5872 19.9841 17.5962C20.2235 17.8567 20.2235 18.2571 19.9841 18.5176C19.9759 18.5266 19.9642 18.5384 19.9228 18.5798L19.44 19.0626C19.1456 19.357 18.7212 19.4806 18.3148 19.3902C14.7714 18.6028 12.0041 15.8355 11.2167 12.2921C11.1264 11.8857 11.2499 11.4613 11.5443 11.1669L12.0271 10.6841C12.0686 10.6427 12.0803 10.631 12.0893 10.6228Z" fill="#203035"/>
</svg>
