<svg width="30" height="30" viewBox="0 0 30 30" fill="none" xmlns="http://www.w3.org/2000/svg">
<circle cx="15.0017" cy="14.6648" r="14.162" stroke="#203035" stroke-width="0.544691"/>
<g clip-path="url(#clip0_7676_8870)">
<path fill-rule="evenodd" clip-rule="evenodd" d="M18.2498 9.69361C17.6277 9.62621 16.8436 9.62622 15.8432 9.62622H14.7045C13.7042 9.62622 12.9201 9.62621 12.298 9.69361C11.6631 9.7624 11.1487 9.90528 10.7095 10.2244C10.4436 10.4176 10.2098 10.6514 10.0166 10.9173C9.92854 11.0385 9.85313 11.1665 9.78878 11.3028C9.59171 11.72 9.50382 12.2039 9.46098 12.7809C9.41845 13.3537 9.41846 14.0558 9.41846 14.9215V14.9616C9.41845 15.962 9.41845 16.7461 9.48585 17.3682C9.55463 18.0031 9.69752 18.5175 10.0166 18.9567C10.2098 19.2225 10.4436 19.4564 10.7095 19.6495C11.1487 19.9686 11.6631 20.1115 12.298 20.1803C12.9201 20.2477 13.7042 20.2477 14.7045 20.2477H15.8432C16.8436 20.2477 17.6277 20.2477 18.2498 20.1803C18.8847 20.1115 19.3991 19.9686 19.8383 19.6495C20.1042 19.4564 20.338 19.2225 20.5312 18.9567C20.8503 18.5175 20.9931 18.0031 21.0619 17.3682C21.1293 16.7461 21.1293 15.962 21.1293 14.9617V14.9211C21.1293 14.0495 21.1293 13.3437 21.0859 12.7686C21.0421 12.189 20.9522 11.7036 20.7506 11.2851C20.6881 11.1554 20.6154 11.0332 20.5312 10.9173C20.338 10.6514 20.1042 10.4176 19.8383 10.2244C19.3991 9.90528 18.8847 9.7624 18.2498 9.69361ZM11.1897 10.8854C11.4665 10.6843 11.8206 10.5671 12.386 10.5059C12.9589 10.4438 13.6989 10.4433 14.7292 10.4433H15.8186C16.8489 10.4433 17.5888 10.4438 18.1618 10.5059C18.7272 10.5671 19.0813 10.6843 19.358 10.8854C19.5545 11.0281 19.7272 11.2008 19.87 11.3972L18.8366 12.4306C17.9206 13.3466 17.262 14.0039 16.694 14.4373C16.1355 14.8635 15.7127 15.0344 15.2739 15.0344C14.8351 15.0344 14.4123 14.8635 13.8537 14.4373C13.2857 14.0039 12.6272 13.3466 11.7112 12.4306L10.6778 11.3972C10.8206 11.2008 10.9933 11.0281 11.1897 10.8854ZM20.1964 12.2262C20.2293 12.4007 20.2537 12.5996 20.2712 12.8301C20.312 13.3709 20.3123 14.0463 20.3123 14.937C20.3123 15.9673 20.3117 16.7072 20.2496 17.2802C20.1884 17.8455 20.0712 18.1997 19.8702 18.4764C19.7274 18.6729 19.5546 18.8458 19.358 18.9886C19.0813 19.1896 18.7272 19.3068 18.1618 19.368C17.5888 19.4301 16.8489 19.4307 15.8186 19.4307H14.7292C13.6989 19.4307 12.9589 19.4301 12.386 19.368C11.8206 19.3068 11.4665 19.1896 11.1897 18.9886C10.9932 18.8458 10.8204 18.6729 10.6776 18.4764C10.4766 18.1997 10.3594 17.8455 10.2981 17.2802C10.2361 16.7072 10.2355 15.9673 10.2355 14.937C10.2355 14.0526 10.2358 13.3805 10.2758 12.8414C10.2932 12.6061 10.3179 12.4035 10.3514 12.2262L11.1556 13.0304C12.0447 13.9195 12.7414 14.6163 13.3581 15.0869C13.9894 15.5685 14.5846 15.8515 15.2739 15.8515C15.9632 15.8515 16.5584 15.5685 17.1896 15.0869C17.8064 14.6163 18.5031 13.9196 19.3922 13.0305L20.1964 12.2262Z" fill="#203035"/>
</g>
<defs>
<clipPath id="clip0_7676_8870">
<rect width="13.0726" height="13.0726" fill="white" transform="translate(8.73779 8.40063)"/>
</clipPath>
</defs>
</svg>
