<svg width="35" height="34" viewBox="0 0 35 34" fill="none" xmlns="http://www.w3.org/2000/svg">
<circle cx="17.8063" cy="16.8664" r="16.5481" stroke="#02CB63" stroke-width="0.636467"/>
<path fill-rule="evenodd" clip-rule="evenodd" d="M15.6498 11.4405C14.9802 10.8252 13.9509 10.8252 13.2813 11.4405C13.2539 11.4657 13.2246 11.495 13.1866 11.533L12.6154 12.1042C12.0406 12.679 11.7993 13.5076 11.9756 14.3012C12.9761 18.8034 16.4923 22.3196 20.9946 23.3201C21.7881 23.4965 22.6167 23.2552 23.1915 22.6804L23.7627 22.1092C23.8008 22.0712 23.8301 22.0419 23.8553 22.0144C24.4706 21.3448 24.4706 20.3156 23.8553 19.6459C23.8301 19.6185 23.8008 19.5892 23.7627 19.5512L22.8276 18.616C22.1783 17.9668 21.1978 17.7811 20.3561 18.148C19.8742 18.358 19.3129 18.2517 18.9412 17.88L17.4157 16.3545C17.044 15.9828 16.9377 15.4215 17.1478 14.9396C17.5147 14.0979 17.329 13.1174 16.6797 12.4682L15.7445 11.533C15.7065 11.495 15.6772 11.4657 15.6498 11.4405ZM13.9273 12.1435C14.2316 11.8638 14.6995 11.8638 15.0038 12.1435C15.0144 12.1531 15.0281 12.1667 15.0765 12.2152L16.0046 13.1432C16.3763 13.5149 16.4826 14.0763 16.2726 14.5581C15.9057 15.3998 16.0914 16.3803 16.7406 17.0296L18.2661 18.5551C18.9154 19.2044 19.8959 19.39 20.7376 19.0231C21.2195 18.8131 21.7808 18.9194 22.1525 19.2911L23.0806 20.2192C23.129 20.2676 23.1426 20.2814 23.1523 20.2919C23.432 20.5963 23.432 21.0641 23.1523 21.3685C23.1426 21.379 23.129 21.3928 23.0806 21.4412L22.5165 22.0053C22.1725 22.3493 21.6766 22.4937 21.2017 22.3882C17.0612 21.4681 13.8277 18.2345 12.9076 14.0941C12.802 13.6192 12.9464 13.1233 13.2904 12.7793L13.8546 12.2152C13.903 12.1667 13.9168 12.1531 13.9273 12.1435Z" fill="#02CB63"/>
</svg>
