<svg width="19" height="19" viewBox="0 0 19 19" fill="none" xmlns="http://www.w3.org/2000/svg">
<path d="M7.91811 10.4896C7.59019 10.4896 7.32436 10.7555 7.32436 11.0834C7.32436 11.4113 7.59019 11.6771 7.91811 11.6771H12.6681C12.996 11.6771 13.2619 11.4113 13.2619 11.0834C13.2619 10.7555 12.996 10.4896 12.6681 10.4896H7.91811Z" fill="#02CB63"/>
<path fill-rule="evenodd" clip-rule="evenodd" d="M1.36913 1.43939C1.2896 1.12126 0.967232 0.927838 0.649104 1.00737C0.330976 1.0869 0.137555 1.40927 0.217087 1.7274L1.04972 5.05792L1.82461 8.29109C2.1541 9.66588 2.41344 10.748 2.7212 11.5887C3.03689 12.451 3.42402 13.1205 4.04514 13.6338C4.09874 13.6781 4.15335 13.7212 4.20893 13.763C4.85292 14.2474 5.59416 14.4678 6.50632 14.5738C7.39555 14.6772 8.50831 14.6772 9.92201 14.6771H10.3918C11.615 14.6771 12.5778 14.6772 13.3535 14.5987C14.148 14.5184 14.8018 14.3516 15.3901 13.9833C15.6691 13.8086 15.9284 13.6041 16.1634 13.3735C16.6587 12.8872 16.9732 12.2903 17.2365 11.5364C17.4936 10.8004 17.718 9.86403 18.003 8.67457L18.0196 8.60549C18.1915 7.8883 18.3332 7.29719 18.3879 6.81832C18.4447 6.32132 18.4215 5.84809 18.1735 5.41601C18.0673 5.2312 17.9347 5.06298 17.7797 4.91672C17.4173 4.57475 16.9625 4.44192 16.466 4.38132C15.9875 4.32294 15.3797 4.32296 14.6422 4.32298L2.09003 4.32298L1.36913 1.43939ZM2.97061 7.97764L2.37931 5.51048H14.6037C15.3894 5.51048 15.9242 5.51152 16.3221 5.56008C16.7103 5.60744 16.8695 5.69051 16.9647 5.78036C17.0351 5.84684 17.0954 5.92331 17.1436 6.00731C17.2088 6.12083 17.2525 6.29496 17.2081 6.68346C17.1626 7.08177 17.0389 7.6021 16.8558 8.36619C16.5615 9.59415 16.3504 10.4721 16.1154 11.1449C15.8844 11.8063 15.6475 12.2158 15.3315 12.526C15.1578 12.6965 14.9662 12.8477 14.7599 12.9768C14.3846 13.2118 13.9311 13.3467 13.2341 13.4172C12.525 13.4889 11.6221 13.4896 10.3593 13.4896H9.95978C8.50006 13.4896 7.45618 13.4887 6.64341 13.3942C5.84565 13.3015 5.33561 13.1245 4.92273 12.814C4.88165 12.7831 4.84129 12.7512 4.80166 12.7185C4.40344 12.3894 4.11242 11.9346 3.83632 11.1804C3.55503 10.4121 3.31083 9.39715 2.97061 7.97764Z" fill="#02CB63"/>
<path d="M8.29311 16.5834C8.29311 17.0436 7.92001 17.4167 7.45977 17.4167C6.99953 17.4167 6.62644 17.0436 6.62644 16.5834C6.62644 16.1232 6.99953 15.7501 7.45977 15.7501C7.92001 15.7501 8.29311 16.1232 8.29311 16.5834Z" fill="#02CB63"/>
<path d="M13.2931 16.5834C13.2931 17.0436 12.92 17.4167 12.4598 17.4167C11.9995 17.4167 11.6264 17.0436 11.6264 16.5834C11.6264 16.1232 11.9995 15.7501 12.4598 15.7501C12.92 15.7501 13.2931 16.1232 13.2931 16.5834Z" fill="#02CB63"/>
</svg>
