<svg width="19" height="19" viewBox="0 0 19 19" fill="none" xmlns="http://www.w3.org/2000/svg">
<path fill-rule="evenodd" clip-rule="evenodd" d="M9.5013 4.948C7.86171 4.948 6.53255 6.27715 6.53255 7.91675C6.53255 9.55634 7.86171 10.8855 9.5013 10.8855C11.1409 10.8855 12.4701 9.55634 12.4701 7.91675C12.4701 6.27715 11.1409 4.948 9.5013 4.948ZM7.72005 7.91675C7.72005 6.93299 8.51755 6.1355 9.5013 6.1355C10.4851 6.1355 11.2826 6.93299 11.2826 7.91675C11.2826 8.90051 10.4851 9.698 9.5013 9.698C8.51755 9.698 7.72005 8.90051 7.72005 7.91675Z" fill="#02CB63"/>
<path fill-rule="evenodd" clip-rule="evenodd" d="M9.5013 0.197998C5.63533 0.197998 2.57422 3.55686 2.57422 7.60697C2.57422 8.90587 3.21951 10.4354 4.03139 11.8707C4.85641 13.3293 5.90941 14.7854 6.83262 15.9627L6.86342 16.002C7.31403 16.5767 7.69791 17.0662 8.07016 17.4044C8.47628 17.7733 8.92413 18.0148 9.5013 18.0148C10.0785 18.0148 10.5263 17.7733 10.9324 17.4044C11.3047 17.0662 11.6886 16.5767 12.1392 16.002L12.17 15.9627C13.0932 14.7854 14.1462 13.3293 14.9712 11.8707C15.7831 10.4354 16.4284 8.90587 16.4284 7.60697C16.4284 3.55686 13.3673 0.197998 9.5013 0.197998ZM3.76172 7.60697C3.76172 4.12919 6.37167 1.3855 9.5013 1.3855C12.6309 1.3855 15.2409 4.12919 15.2409 7.60697C15.2409 8.57794 14.7345 9.8772 13.9376 11.2861C13.1538 12.6718 12.1409 14.0754 11.2355 15.2299C10.7455 15.8548 10.4229 16.2629 10.134 16.5254C9.8705 16.7647 9.69461 16.8273 9.5013 16.8273C9.308 16.8273 9.13211 16.7647 8.86862 16.5254C8.5797 16.2629 8.25707 15.8548 7.76706 15.2299C6.86171 14.0754 5.84878 12.6718 5.065 11.2861C4.26808 9.8772 3.76172 8.57794 3.76172 7.60697Z" fill="#02CB63"/>
</svg>
