<svg width="17" height="18" viewBox="0 0 17 18" fill="none" xmlns="http://www.w3.org/2000/svg">
<path d="M12.419 7.95722C12.6255 7.74883 12.624 7.41247 12.4156 7.20593C12.2072 6.99939 11.8709 7.00089 11.6643 7.20928L10.4266 8.45805C9.92434 8.96486 9.57865 9.31251 9.28573 9.54775C9.0012 9.77626 8.81843 9.85465 8.65475 9.87551C8.55198 9.88861 8.44798 9.88861 8.34521 9.87551C8.18153 9.85465 7.99876 9.77626 7.71423 9.54775C7.42131 9.31251 7.07562 8.96486 6.57331 8.45805L5.33564 7.20928C5.1291 7.00089 4.79273 6.99939 4.58434 7.20593C4.37595 7.41247 4.37445 7.74883 4.58099 7.95722L5.84096 9.22849C6.31551 9.7073 6.70335 10.0986 7.04893 10.3762C7.40829 10.6648 7.77303 10.8737 8.21087 10.9295C8.40284 10.954 8.59712 10.954 8.78909 10.9295C9.22692 10.8737 9.59167 10.6648 9.95103 10.3762C10.2966 10.0986 10.6844 9.70731 11.159 9.22849L12.419 7.95722Z" fill="#203035"/>
</svg>
