<svg width="34" height="34" viewBox="0 0 34 34" fill="none" xmlns="http://www.w3.org/2000/svg">
<circle cx="16.8664" cy="16.8664" r="16.5481" stroke="#02CB63" stroke-width="0.636467"/>
<g clip-path="url(#clip0_7360_8055)">
<path fill-rule="evenodd" clip-rule="evenodd" d="M20.6617 11.0578C19.9347 10.979 19.0185 10.979 17.8496 10.979H16.519C15.3501 10.979 14.4339 10.979 13.707 11.0578C12.9651 11.1381 12.3641 11.3051 11.8509 11.6779C11.5402 11.9037 11.267 12.1769 11.0412 12.4876C10.9383 12.6292 10.8502 12.7788 10.775 12.938C10.5447 13.4256 10.442 13.991 10.392 14.6652C10.3423 15.3345 10.3423 16.1549 10.3423 17.1665V17.2134C10.3423 18.3822 10.3423 19.2985 10.421 20.0254C10.5014 20.7673 10.6684 21.3683 11.0412 21.8815C11.2669 22.1922 11.5402 22.4654 11.8509 22.6912C12.3641 23.064 12.9651 23.231 13.707 23.3114C14.4339 23.3901 15.3501 23.3901 16.519 23.3901H17.8496C19.0184 23.3901 19.9347 23.3901 20.6617 23.3114C21.4035 23.231 22.0045 23.064 22.5177 22.6912C22.8284 22.4654 23.1017 22.1922 23.3274 21.8815C23.7002 21.3683 23.8672 20.7673 23.9476 20.0254C24.0263 19.2985 24.0263 18.3823 24.0263 17.2134V17.166C24.0263 16.1476 24.0263 15.3228 23.9756 14.6508C23.9244 13.9736 23.8194 13.4064 23.5837 12.9173C23.5107 12.7658 23.4258 12.623 23.3274 12.4876C23.1017 12.1769 22.8284 11.9037 22.5177 11.6779C22.0045 11.3051 21.4035 11.1381 20.6617 11.0578ZM12.412 12.4503C12.7353 12.2154 13.1492 12.0785 13.8098 12.0069C14.4793 11.9344 15.3439 11.9337 16.5478 11.9337H17.8208C19.0247 11.9337 19.8893 11.9344 20.5588 12.0069C21.2194 12.0785 21.6333 12.2154 21.9566 12.4503C22.1861 12.6171 22.388 12.8189 22.5548 13.0484L21.3473 14.2559C20.2769 15.3262 19.5074 16.0943 18.8437 16.6007C18.191 17.0987 17.697 17.2984 17.1843 17.2984C16.6716 17.2984 16.1776 17.0987 15.5249 16.6007C14.8612 16.0943 14.0917 15.3262 13.0213 14.2559L11.8138 13.0484C11.9806 12.8189 12.1825 12.6171 12.412 12.4503ZM22.9362 14.0171C22.9747 14.2209 23.0032 14.4534 23.0236 14.7227C23.0713 15.3547 23.0716 16.1438 23.0716 17.1846C23.0716 18.3885 23.071 19.2531 22.9984 19.9226C22.9269 20.5832 22.7899 20.997 22.555 21.3204C22.3882 21.55 22.1862 21.752 21.9566 21.9188C21.6333 22.1537 21.2194 22.2906 20.5588 22.3622C19.8893 22.4347 19.0247 22.4354 17.8208 22.4354H16.5478C15.3439 22.4354 14.4793 22.4347 13.8098 22.3622C13.1492 22.2906 12.7353 22.1537 12.412 21.9188C12.1824 21.752 11.9804 21.55 11.8136 21.3204C11.5787 20.997 11.4418 20.5832 11.3702 19.9226C11.2976 19.2531 11.297 18.3885 11.297 17.1846C11.297 16.1512 11.2973 15.3658 11.3441 14.7359C11.3645 14.461 11.3933 14.2243 11.4324 14.0171L12.3721 14.9568C13.411 15.9957 14.2251 16.8099 14.9458 17.3597C15.6834 17.9225 16.3789 18.2531 17.1843 18.2531C17.9897 18.2531 18.6852 17.9225 19.4228 17.3597C20.1435 16.8099 20.9576 15.9957 21.9965 14.9568L22.9362 14.0171Z" fill="#02CB63"/>
</g>
<defs>
<clipPath id="clip0_7360_8055">
<rect width="15.2752" height="15.2752" fill="white" transform="translate(9.54688 9.54688)"/>
</clipPath>
</defs>
</svg>
