<svg width="150" height="23" viewBox="0 0 150 23" fill="none" xmlns="http://www.w3.org/2000/svg">
<path d="M16.15 7.36C15.67 6.48 15.01 5.81 14.17 5.35C13.33 4.89 12.35 4.66 11.23 4.66C9.99 4.66 8.89 4.94 7.93 5.5C6.97 6.06 6.22 6.86 5.68 7.9C5.14 8.94 4.87 10.14 4.87 11.5C4.87 12.9 5.14 14.12 5.68 15.16C6.24 16.2 7.01 17 7.99 17.56C8.97 18.12 10.11 18.4 11.41 18.4C13.01 18.4 14.32 17.98 15.34 17.14C16.36 16.28 17.03 15.09 17.35 13.57H10.15V10.36H21.49V14.02C21.21 15.48 20.61 16.83 19.69 18.07C18.77 19.31 17.58 20.31 16.12 21.07C14.68 21.81 13.06 22.18 11.26 22.18C9.24 22.18 7.41 21.73 5.77 20.83C4.15 19.91 2.87 18.64 1.93 17.02C1.01 15.4 0.55 13.56 0.55 11.5C0.55 9.44 1.01 7.6 1.93 5.98C2.87 4.34 4.15 3.07 5.77 2.17C7.41 1.25 9.23 0.789999 11.23 0.789999C13.59 0.789999 15.64 1.37 17.38 2.53C19.12 3.67 20.32 5.28 20.98 7.36H16.15ZM23.5173 13.63C23.5173 11.95 23.8473 10.46 24.5073 9.16C25.1873 7.86 26.0973 6.86 27.2373 6.16C28.3973 5.46 29.6873 5.11 31.1073 5.11C32.3473 5.11 33.4273 5.36 34.3473 5.86C35.2873 6.36 36.0373 6.99 36.5973 7.75V5.38H40.8273V22H36.5973V19.57C36.0573 20.35 35.3073 21 34.3473 21.52C33.4073 22.02 32.3173 22.27 31.0773 22.27C29.6773 22.27 28.3973 21.91 27.2373 21.19C26.0973 20.47 25.1873 19.46 24.5073 18.16C23.8473 16.84 23.5173 15.33 23.5173 13.63ZM36.5973 13.69C36.5973 12.67 36.3973 11.8 35.9973 11.08C35.5973 10.34 35.0573 9.78 34.3773 9.4C33.6973 9 32.9673 8.8 32.1873 8.8C31.4073 8.8 30.6873 8.99 30.0273 9.37C29.3673 9.75 28.8273 10.31 28.4073 11.05C28.0073 11.77 27.8073 12.63 27.8073 13.63C27.8073 14.63 28.0073 15.51 28.4073 16.27C28.8273 17.01 29.3673 17.58 30.0273 17.98C30.7073 18.38 31.4273 18.58 32.1873 18.58C32.9673 18.58 33.6973 18.39 34.3773 18.01C35.0573 17.61 35.5973 17.05 35.9973 16.33C36.3973 15.59 36.5973 14.71 36.5973 13.69ZM51.2894 22.27C49.9294 22.27 48.7094 22.03 47.6294 21.55C46.5494 21.05 45.6894 20.38 45.0494 19.54C44.4294 18.7 44.0894 17.77 44.0294 16.75H48.2594C48.3394 17.39 48.6494 17.92 49.1894 18.34C49.7494 18.76 50.4394 18.97 51.2594 18.97C52.0594 18.97 52.6794 18.81 53.1194 18.49C53.5794 18.17 53.8094 17.76 53.8094 17.26C53.8094 16.72 53.5294 16.32 52.9694 16.06C52.4294 15.78 51.5594 15.48 50.3594 15.16C49.1194 14.86 48.0994 14.55 47.2994 14.23C46.5194 13.91 45.8394 13.42 45.2594 12.76C44.6994 12.1 44.4194 11.21 44.4194 10.09C44.4194 9.17 44.6794 8.33 45.1994 7.57C45.7394 6.81 46.4994 6.21 47.4794 5.77C48.4794 5.33 49.6494 5.11 50.9894 5.11C52.9694 5.11 54.5494 5.61 55.7294 6.61C56.9094 7.59 57.5594 8.92 57.6794 10.6H53.6594C53.5994 9.94 53.3194 9.42 52.8194 9.04C52.3394 8.64 51.6894 8.44 50.8694 8.44C50.1094 8.44 49.5194 8.58 49.0994 8.86C48.6994 9.14 48.4994 9.53 48.4994 10.03C48.4994 10.59 48.7794 11.02 49.3394 11.32C49.8994 11.6 50.7694 11.89 51.9494 12.19C53.1494 12.49 54.1394 12.8 54.9194 13.12C55.6994 13.44 56.3694 13.94 56.9294 14.62C57.5094 15.28 57.8094 16.16 57.8294 17.26C57.8294 18.22 57.5594 19.08 57.0194 19.84C56.4994 20.6 55.7394 21.2 54.7394 21.64C53.7594 22.06 52.6094 22.27 51.2894 22.27ZM68.507 22.21C67.047 22.21 65.727 21.96 64.547 21.46C63.387 20.96 62.467 20.24 61.787 19.3C61.107 18.36 60.757 17.25 60.737 15.97H65.237C65.297 16.83 65.597 17.51 66.137 18.01C66.697 18.51 67.457 18.76 68.417 18.76C69.397 18.76 70.167 18.53 70.727 18.07C71.287 17.59 71.567 16.97 71.567 16.21C71.567 15.59 71.377 15.08 70.997 14.68C70.617 14.28 70.137 13.97 69.557 13.75C68.997 13.51 68.217 13.25 67.217 12.97C65.857 12.57 64.747 12.18 63.887 11.8C63.047 11.4 62.317 10.81 61.697 10.03C61.097 9.23 60.797 8.17 60.797 6.85C60.797 5.61 61.107 4.53 61.727 3.61C62.347 2.69 63.217 1.99 64.337 1.51C65.457 1.01 66.737 0.76 68.177 0.76C70.337 0.76 72.087 1.29 73.427 2.35C74.787 3.39 75.537 4.85 75.677 6.73H71.057C71.017 6.01 70.707 5.42 70.127 4.96C69.567 4.48 68.817 4.24 67.877 4.24C67.057 4.24 66.397 4.45 65.897 4.87C65.417 5.29 65.177 5.9 65.177 6.7C65.177 7.26 65.357 7.73 65.717 8.11C66.097 8.47 66.557 8.77 67.097 9.01C67.657 9.23 68.437 9.49 69.437 9.79C70.797 10.19 71.907 10.59 72.767 10.99C73.627 11.39 74.367 11.99 74.987 12.79C75.607 13.59 75.917 14.64 75.917 15.94C75.917 17.06 75.627 18.1 75.047 19.06C74.467 20.02 73.617 20.79 72.497 21.37C71.377 21.93 70.047 22.21 68.507 22.21ZM95.0083 13.33C95.0083 13.93 94.9683 14.47 94.8883 14.95H82.7383C82.8383 16.15 83.2583 17.09 83.9983 17.77C84.7383 18.45 85.6483 18.79 86.7283 18.79C88.2883 18.79 89.3983 18.12 90.0583 16.78H94.5883C94.1083 18.38 93.1883 19.7 91.8283 20.74C90.4683 21.76 88.7983 22.27 86.8183 22.27C85.2183 22.27 83.7783 21.92 82.4983 21.22C81.2383 20.5 80.2483 19.49 79.5283 18.19C78.8283 16.89 78.4783 15.39 78.4783 13.69C78.4783 11.97 78.8283 10.46 79.5283 9.16C80.2283 7.86 81.2083 6.86 82.4683 6.16C83.7283 5.46 85.1783 5.11 86.8183 5.11C88.3983 5.11 89.8083 5.45 91.0483 6.13C92.3083 6.81 93.2783 7.78 93.9583 9.04C94.6583 10.28 95.0083 11.71 95.0083 13.33ZM90.6583 12.13C90.6383 11.05 90.2483 10.19 89.4883 9.55C88.7283 8.89 87.7983 8.56 86.6983 8.56C85.6583 8.56 84.7783 8.88 84.0583 9.52C83.3583 10.14 82.9283 11.01 82.7683 12.13H90.6583ZM107.284 5.14C109.264 5.14 110.864 5.77 112.084 7.03C113.304 8.27 113.914 10.01 113.914 12.25V22H109.714V12.82C109.714 11.5 109.384 10.49 108.724 9.79C108.064 9.07 107.164 8.71 106.024 8.71C104.864 8.71 103.944 9.07 103.264 9.79C102.604 10.49 102.274 11.5 102.274 12.82V22H98.0739V5.38H102.274V7.45C102.834 6.73 103.544 6.17 104.404 5.77C105.284 5.35 106.244 5.14 107.284 5.14ZM124.268 22.27C122.908 22.27 121.688 22.03 120.608 21.55C119.528 21.05 118.668 20.38 118.028 19.54C117.408 18.7 117.068 17.77 117.008 16.75H121.238C121.318 17.39 121.628 17.92 122.168 18.34C122.728 18.76 123.418 18.97 124.238 18.97C125.038 18.97 125.658 18.81 126.098 18.49C126.558 18.17 126.788 17.76 126.788 17.26C126.788 16.72 126.508 16.32 125.948 16.06C125.408 15.78 124.538 15.48 123.338 15.16C122.098 14.86 121.078 14.55 120.278 14.23C119.498 13.91 118.818 13.42 118.238 12.76C117.678 12.1 117.398 11.21 117.398 10.09C117.398 9.17 117.658 8.33 118.178 7.57C118.718 6.81 119.478 6.21 120.458 5.77C121.458 5.33 122.628 5.11 123.968 5.11C125.948 5.11 127.528 5.61 128.708 6.61C129.888 7.59 130.538 8.92 130.658 10.6H126.638C126.578 9.94 126.298 9.42 125.798 9.04C125.318 8.64 124.668 8.44 123.848 8.44C123.088 8.44 122.498 8.58 122.078 8.86C121.678 9.14 121.478 9.53 121.478 10.03C121.478 10.59 121.758 11.02 122.318 11.32C122.878 11.6 123.748 11.89 124.928 12.19C126.128 12.49 127.118 12.8 127.898 13.12C128.678 13.44 129.348 13.94 129.908 14.62C130.488 15.28 130.788 16.16 130.808 17.26C130.808 18.22 130.538 19.08 129.998 19.84C129.478 20.6 128.718 21.2 127.718 21.64C126.738 22.06 125.588 22.27 124.268 22.27ZM149.706 13.33C149.706 13.93 149.666 14.47 149.586 14.95H137.436C137.536 16.15 137.956 17.09 138.696 17.77C139.436 18.45 140.346 18.79 141.426 18.79C142.986 18.79 144.096 18.12 144.756 16.78H149.286C148.806 18.38 147.886 19.7 146.526 20.74C145.166 21.76 143.496 22.27 141.516 22.27C139.916 22.27 138.476 21.92 137.196 21.22C135.936 20.5 134.946 19.49 134.226 18.19C133.526 16.89 133.176 15.39 133.176 13.69C133.176 11.97 133.526 10.46 134.226 9.16C134.926 7.86 135.906 6.86 137.166 6.16C138.426 5.46 139.876 5.11 141.516 5.11C143.096 5.11 144.506 5.45 145.746 6.13C147.006 6.81 147.976 7.78 148.656 9.04C149.356 10.28 149.706 11.71 149.706 13.33ZM145.356 12.13C145.336 11.05 144.946 10.19 144.186 9.55C143.426 8.89 142.496 8.56 141.396 8.56C140.356 8.56 139.476 8.88 138.756 9.52C138.056 10.14 137.626 11.01 137.466 12.13H145.356Z" fill="white"/>
</svg>
