<svg width="22" height="16" viewBox="0 0 22 16" fill="none" xmlns="http://www.w3.org/2000/svg">
<path d="M16.6599 1.08414C16.2922 0.719657 15.6986 0.722305 15.3341 1.09005C14.9697 1.4578 14.9723 2.05138 15.3401 2.41586L17.5438 4.6C18.4381 5.48642 19.0516 6.09647 19.4668 6.61338C19.6017 6.78137 19.7069 6.92925 19.7887 7.0625L1 7.0625C0.482233 7.0625 0.0625 7.48223 0.0625 8C0.0625 8.51777 0.482233 8.9375 1 8.9375L19.7887 8.9375C19.7069 9.07075 19.6017 9.21863 19.4668 9.38662C19.0516 9.90353 18.4381 10.5136 17.5438 11.4L15.3401 13.5841C14.9723 13.9486 14.9697 14.5422 15.3341 14.9099C15.6986 15.2777 16.2922 15.2803 16.6599 14.9159L18.9034 12.6924C19.7483 11.8549 20.4389 11.1705 20.9287 10.5607C21.438 9.92652 21.8066 9.28284 21.9051 8.5102C21.9267 8.34081 21.9375 8.17041 21.9375 8C21.9375 7.82959 21.9267 7.65919 21.9051 7.4898C21.8066 6.71716 21.438 6.07348 20.9287 5.43932C20.4389 4.82948 19.7483 4.14505 18.9034 3.30761L16.6599 1.08414Z" fill="#02CB63"/>
</svg>
