<svg width="86" height="86" viewBox="0 0 86 86" fill="none" xmlns="http://www.w3.org/2000/svg">
<circle cx="42.7298" cy="43.2217" r="42.3145" fill="#02CB63"/>
<path fill-rule="evenodd" clip-rule="evenodd" d="M53.133 24.8918C50.9582 24.6562 48.217 24.6562 44.72 24.6563H40.7393C37.2423 24.6562 34.5011 24.6562 32.3263 24.8918C30.1069 25.1323 28.3087 25.6318 26.7733 26.7473C25.8438 27.4226 25.0264 28.24 24.3511 29.1695C24.0432 29.5933 23.7795 30.0408 23.5546 30.5172C22.8657 31.9759 22.5584 33.6674 22.4087 35.6845C22.26 37.6868 22.26 40.1413 22.26 43.1676V43.3079C22.26 46.8049 22.26 49.5462 22.4956 51.721C22.7361 53.9403 23.2356 55.7386 24.3511 57.2739C25.0264 58.2034 25.8438 59.0208 26.7733 59.6962C28.3087 60.8117 30.1069 61.3112 32.3263 61.5516C34.501 61.7872 37.2422 61.7872 40.7391 61.7872H44.72C48.217 61.7872 50.9583 61.7872 53.133 61.5516C55.3524 61.3112 57.1506 60.8117 58.686 59.6962C59.6155 59.0208 60.4329 58.2034 61.1082 57.2739C62.2237 55.7386 62.7232 53.9403 62.9637 51.721C63.1993 49.5462 63.1993 46.805 63.1993 43.3081V43.1663C63.1993 40.1193 63.1993 37.6518 63.0474 35.6414C62.8943 33.6154 62.5801 31.9183 61.8752 30.4553C61.6567 30.0019 61.4026 29.5747 61.1082 29.1695C60.4329 28.24 59.6155 27.4226 58.686 26.7473C57.1506 25.6318 55.3524 25.1323 53.133 24.8918ZM28.4521 29.058C29.4195 28.3552 30.6576 27.9456 32.6339 27.7315C34.637 27.5144 37.2237 27.5125 40.8255 27.5125H44.6338C48.2356 27.5125 50.8223 27.5144 52.8254 27.7315C54.8017 27.9456 56.0398 28.3552 57.0071 29.058C57.6938 29.5569 58.2978 30.1608 58.7968 30.8474L55.1842 34.46C51.9821 37.6621 49.6799 39.96 47.6942 41.475C45.7415 42.9649 44.2637 43.5624 42.7296 43.5624C41.1956 43.5624 39.7178 42.9649 37.765 41.475C35.7794 39.96 33.4772 37.6621 30.2751 34.46L26.6625 30.8474C27.1615 30.1608 27.7655 29.5569 28.4521 29.058ZM59.938 33.7455C60.053 34.3552 60.1384 35.0508 60.1993 35.8566C60.3421 37.7472 60.343 40.1081 60.343 43.2217C60.343 46.8236 60.3411 49.4102 60.1241 51.4133C59.9099 53.3896 59.5003 54.6278 58.7975 55.5951C58.2983 56.2821 57.6942 56.8863 57.0071 57.3854C56.0398 58.0882 54.8017 58.4979 52.8254 58.712C50.8223 58.929 48.2356 58.931 44.6338 58.931H40.8255C37.2237 58.931 34.637 58.929 32.6339 58.712C30.6576 58.4979 29.4195 58.0882 28.4521 57.3854C27.7651 56.8863 27.1609 56.2821 26.6618 55.5951C25.959 54.6278 25.5493 53.3896 25.3352 51.4133C25.1182 49.4102 25.1162 46.8236 25.1162 43.2217C25.1162 40.1302 25.1171 37.7805 25.257 35.896C25.3181 35.0736 25.4044 34.3652 25.5213 33.7455L28.3327 36.5569C31.4408 39.665 33.8765 42.1008 36.0325 43.7458C38.2393 45.4295 40.32 46.4187 42.7296 46.4187C45.1393 46.4187 47.22 45.4295 49.4268 43.7458C51.5828 42.1008 54.0185 39.665 57.1266 36.5569L59.938 33.7455Z" fill="#203035"/>
</svg>
