<svg width="85" height="86" viewBox="0 0 85 86" fill="none" xmlns="http://www.w3.org/2000/svg">
<circle cx="42.3145" cy="42.7784" r="42.3145" fill="#02CB63"/>
<path fill-rule="evenodd" clip-rule="evenodd" d="M34.9108 25.5935C32.9075 23.7527 29.8282 23.7527 27.8249 25.5935C27.7428 25.6689 27.6552 25.7565 27.5415 25.8702L25.8325 27.5792C24.1129 29.2989 23.391 31.7779 23.9185 34.152C26.9118 47.6217 37.4314 58.1413 50.9011 61.1345C53.2751 61.6621 55.7542 60.9402 57.4738 59.2205L59.1826 57.5117C59.2965 57.3979 59.3841 57.3103 59.4596 57.2282C61.3004 55.2249 61.3004 52.1455 59.4596 50.1422C59.3841 50.0601 59.2965 49.9725 59.1826 49.8587L56.385 47.061C54.4425 45.1186 51.5091 44.563 48.991 45.6607C47.5493 46.2891 45.8699 45.9711 44.7579 44.859L40.194 40.2951C39.082 39.1831 38.764 37.5037 39.3924 36.0621C40.49 33.5439 39.9345 30.6105 37.9921 28.6681L35.1942 25.8703C35.0805 25.7565 34.9929 25.6689 34.9108 25.5935ZM29.7574 27.6967C30.668 26.8599 32.0677 26.8599 32.9783 27.6967C33.0097 27.7255 33.0509 27.7663 33.1958 27.9111L35.9724 30.6878C37.0844 31.7998 37.4025 33.4792 36.7741 34.9208C35.6764 37.439 36.2319 40.3724 38.1744 42.3148L42.7383 46.8787C44.6807 48.8211 47.6141 49.3767 50.1323 48.279C51.5739 47.6506 53.2533 47.9686 54.3653 49.0807L57.1419 51.8573C57.2868 52.0021 57.3275 52.0433 57.3564 52.0748C58.1931 52.9854 58.1931 54.385 57.3564 55.2957C57.3275 55.3271 57.2868 55.3683 57.1419 55.5131L55.4542 57.2009C54.425 58.23 52.9414 58.662 51.5207 58.3463C39.1335 55.5936 29.4594 45.9195 26.7068 33.5324C26.391 32.1116 26.8231 30.628 27.8522 29.5989L29.5399 27.9111C29.6848 27.7663 29.726 27.7255 29.7574 27.6967Z" fill="#090A0A"/>
</svg>
