<svg width="86" height="86" viewBox="0 0 86 86" fill="none" xmlns="http://www.w3.org/2000/svg">
<circle cx="43.136" cy="43.2217" r="42.3145" fill="#02CB63"/>
<g clip-path="url(#clip0_10801_4312)">
<path fill-rule="evenodd" clip-rule="evenodd" d="M43.1359 32.2735C39.1923 32.2735 35.9954 35.4705 35.9954 39.4141C35.9954 43.3577 39.1923 46.5547 43.1359 46.5547C47.0796 46.5547 50.2765 43.3577 50.2765 39.4141C50.2765 35.4705 47.0796 32.2735 43.1359 32.2735ZM38.8516 39.4141C38.8516 37.0479 40.7698 35.1298 43.1359 35.1298C45.5021 35.1298 47.4203 37.0479 47.4203 39.4141C47.4203 41.7803 45.5021 43.6985 43.1359 43.6985C40.7698 43.6985 38.8516 41.7803 38.8516 39.4141Z" fill="#203035"/>
<path fill-rule="evenodd" clip-rule="evenodd" d="M43.1359 20.8486C33.8373 20.8486 26.4746 28.9275 26.4746 38.669C26.4746 41.7932 28.0267 45.4721 29.9795 48.9244C31.9638 52.4327 34.4966 55.9349 36.7171 58.7666L36.7912 58.861C37.875 60.2433 38.7983 61.4209 39.6937 62.2342C40.6705 63.1215 41.7477 63.7025 43.1359 63.7025C44.5242 63.7025 45.6014 63.1215 46.5782 62.2342C47.4735 61.4209 48.3969 60.2433 49.4807 58.861L49.5548 58.7666C51.7753 55.9349 54.308 52.4327 56.2924 48.9244C58.2452 45.4721 59.7973 41.7932 59.7973 38.669C59.7973 28.9275 52.4346 20.8486 43.1359 20.8486ZM29.3308 38.669C29.3308 30.3041 35.6084 23.7049 43.1359 23.7049C50.6635 23.7049 56.941 30.3041 56.941 38.669C56.941 41.0044 55.7231 44.1295 53.8063 47.5182C51.9212 50.8511 49.4848 54.2272 47.3072 57.004C46.1286 58.507 45.3526 59.4888 44.6577 60.12C44.0239 60.6957 43.6009 60.8462 43.1359 60.8462C42.671 60.8462 42.2479 60.6957 41.6142 60.12C40.9193 59.4888 40.1433 58.507 38.9647 57.004C36.7871 54.2272 34.3507 50.8511 32.4656 47.5182C30.5488 44.1295 29.3308 41.0044 29.3308 38.669Z" fill="#203035"/>
</g>
<defs>
<clipPath id="clip0_10801_4312">
<rect width="45.6996" height="45.6996" fill="white" transform="translate(20.2861 20.3721)"/>
</clipPath>
</defs>
</svg>
