<svg width="21" height="20" viewBox="0 0 21 20" fill="none" xmlns="http://www.w3.org/2000/svg">
<path d="M14.9419 4.50943H16.2304M6.56693 0.644043H14.2977C17.1441 0.644043 19.4515 2.9515 19.4515 5.79789V13.5287C19.4515 16.375 17.1441 18.6825 14.2977 18.6825H6.56693C3.72054 18.6825 1.41309 16.375 1.41309 13.5287V5.79789C1.41309 2.9515 3.72054 0.644043 6.56693 0.644043ZM10.4323 13.5287C8.29752 13.5287 6.56693 11.7981 6.56693 9.66327C6.56693 7.52848 8.29752 5.79789 10.4323 5.79789C12.5671 5.79789 14.2977 7.52848 14.2977 9.66327C14.2977 11.7981 12.5671 13.5287 10.4323 13.5287Z" stroke="black" stroke-width="1.28846"/>
</svg>
