<svg width="457" height="84" viewBox="0 0 457 84" fill="none" xmlns="http://www.w3.org/2000/svg">
<path d="M77.4848 35.3301C77.4848 44.4001 77.4648 53.4701 77.4848 62.5301C77.4848 65.4901 76.6248 67.9701 74.4248 70.1101C71.4248 73.0301 68.6648 76.1801 65.8048 79.2401C64.7848 80.3301 63.8348 81.3201 62.0448 80.6701C60.1548 79.9801 59.5548 78.6601 59.5548 76.8301C59.5548 64.7401 59.5848 52.6501 59.5148 40.5501C59.5148 39.6401 58.8548 38.7301 58.5048 37.8201C57.7648 38.3301 56.7948 38.6801 56.3048 39.3601C48.4848 50.3201 40.7148 61.3101 32.9548 72.3101C30.8148 75.3401 28.7848 78.4501 26.6348 81.4801C24.5948 84.3701 22.3348 84.2901 20.0848 81.1801C15.3948 74.6801 10.7948 68.1301 6.1448 61.6001C4.9548 59.9201 3.5048 58.3701 2.5848 56.5601C1.5148 54.4801 0.344797 52.2001 0.194797 49.9501C-0.145203 44.5101 0.0547971 39.0401 0.0947971 33.5801C0.114797 30.7101 1.7448 28.8801 4.0348 29.2601C4.9648 29.4201 6.0648 30.0401 6.6148 30.8001C11.7048 37.7301 16.7448 44.7001 21.6948 51.7401C22.9248 53.5001 23.9948 53.2801 25.0048 51.8501C31.1948 43.0901 37.3348 34.2901 43.4448 25.4701C43.8348 24.9101 44.1848 23.8501 43.9148 23.4301C43.6048 22.9401 42.5948 22.6801 41.8848 22.6801C31.3848 22.6401 20.8848 22.6501 10.3848 22.6601C8.3748 22.6601 6.4748 22.3001 5.5948 20.2801C5.2048 19.3801 4.9148 17.7901 5.3948 17.2601C9.5348 12.7001 13.7948 8.25009 18.1948 3.93009C18.9448 3.19009 20.4948 3.03009 21.6848 3.02009C38.7348 2.96009 55.7848 2.97009 72.8448 2.99009C75.9148 2.99009 77.5248 4.70009 77.5248 7.85009C77.5248 17.0001 77.5248 26.1601 77.5248 35.3101H77.4948L77.4848 35.3301Z" fill="#02CB63"/>
<path d="M149.785 55.01V28.28C149.785 22.68 147.275 19.88 142.255 19.88C140.765 19.88 139.335 20.32 137.955 21.19C136.575 22.07 135.605 23.08 135.045 24.22V55.01H125.085V26.73C125.085 24.63 124.435 22.97 123.135 21.73C121.835 20.5 120.005 19.88 117.635 19.88C116.385 19.88 115.025 20.34 113.555 21.27C112.085 22.2 111.015 23.22 110.345 24.34V55.01H100.385V12.35H107.235L109.265 16.09C112.025 13.06 115.595 11.55 119.975 11.55C125.635 11.55 129.895 13.09 132.765 16.17C134.015 14.76 135.755 13.64 137.985 12.8C140.215 11.96 142.445 11.55 144.675 11.55C149.425 11.55 153.125 12.91 155.765 15.63C158.405 18.35 159.725 22.09 159.725 26.84V55H149.765L149.785 55.01Z" fill="#02CB63"/>
<path d="M208.585 36.7301H178.115C178.305 40.1301 179.465 42.7701 181.625 44.6601C183.775 46.5501 186.665 47.4901 190.305 47.4901C194.845 47.4901 198.295 46.3101 200.665 43.9501L204.525 51.5601C201.015 54.4001 195.785 55.8201 188.835 55.8201C182.325 55.8201 177.185 53.9101 173.395 50.1001C169.605 46.2901 167.715 40.9701 167.715 34.1501C167.715 27.3301 169.795 21.9901 173.945 17.8201C178.105 13.6501 183.085 11.5701 188.905 11.5701C195.095 11.5701 200.055 13.4201 203.805 17.1101C207.555 20.8001 209.425 25.5001 209.425 31.2101C209.425 32.4301 209.145 34.2801 208.585 36.7501V36.7301ZM178.475 29.2401H199.425C198.735 23.0001 195.285 19.8801 189.065 19.8801C183.385 19.8801 179.845 23.0001 178.465 29.2401H178.475Z" fill="#02CB63"/>
<path d="M214.595 55.0101V51.6201L237.735 21.0301H214.995V12.3501H252.275V15.8501L229.965 46.3201H252.505V55.0001H214.585L214.595 55.0101Z" fill="#02CB63"/>
<path d="M257.695 33.5801C257.695 27.0701 259.575 21.7801 263.335 17.6901C267.095 13.6001 272.055 11.5601 278.215 11.5601C284.695 11.5601 289.725 13.5301 293.315 17.4601C296.905 21.3901 298.695 26.7701 298.695 33.5901C298.695 40.4101 296.865 45.7901 293.215 49.8001C289.565 53.8101 284.565 55.8101 278.215 55.8101C271.865 55.8101 266.695 53.7901 263.095 49.7401C259.495 45.6901 257.695 40.3101 257.695 33.5901V33.5801ZM268.055 33.5801C268.055 42.9801 271.445 47.6801 278.215 47.6801C281.325 47.6801 283.785 46.4601 285.605 44.0201C287.425 41.5801 288.335 38.1001 288.335 33.5801C288.335 24.3101 284.965 19.6801 278.215 19.6801C275.105 19.6801 272.635 20.9001 270.805 23.3401C268.975 25.7801 268.055 29.2001 268.055 33.5801Z" fill="#02CB63"/>
<path d="M324.335 55.8101H320.755L301.475 12.3501H312.385L322.585 38.4001L333.535 12.3501H344.095L324.335 55.8101Z" fill="#02CB63"/>
<path d="M387.745 36.7301H357.275C357.465 40.1301 358.625 42.7701 360.775 44.6601C362.925 46.5501 365.825 47.4901 369.455 47.4901C373.995 47.4901 377.445 46.3101 379.815 43.9501L383.675 51.5601C380.165 54.4001 374.935 55.8201 367.985 55.8201C361.475 55.8201 356.335 53.9101 352.555 50.1001C348.775 46.2901 346.875 40.9701 346.875 34.1501C346.875 27.3301 348.955 21.9901 353.105 17.8201C357.265 13.6501 362.245 11.5701 368.065 11.5701C374.255 11.5701 379.215 13.4201 382.965 17.1101C386.715 20.8001 388.585 25.5001 388.585 31.2101C388.585 32.4301 388.305 34.2801 387.745 36.7501V36.7301ZM357.635 29.2401H378.585C377.895 23.0001 374.445 19.8801 368.225 19.8801C362.545 19.8801 359.015 23.0001 357.625 29.2401H357.635Z" fill="#02CB63"/>
<path d="M393.925 52.26L397.475 44.3301C400.445 46.6901 403.805 47.87 407.555 47.87C411.305 47.87 413.375 46.49 413.375 43.73C413.375 42.11 412.795 40.78 411.625 39.75C410.455 38.71 408.185 37.49 404.815 36.09C397.455 33.04 393.785 28.76 393.785 23.26C393.785 19.57 395.195 16.69 398.005 14.64C400.815 12.58 404.415 11.55 408.795 11.55C413.175 11.55 417.395 12.55 421.305 14.54L418.435 22.27C416.255 20.41 413.225 19.48 409.355 19.48C405.875 19.48 404.135 20.86 404.135 23.62C404.135 24.71 404.705 25.69 405.845 26.57C406.985 27.45 409.425 28.62 413.175 30.1C416.925 31.58 419.615 33.36 421.265 35.46C422.915 37.56 423.735 40.09 423.735 43.07C423.735 47.03 422.265 50.14 419.335 52.41C416.405 54.68 412.415 55.82 407.365 55.82C404.525 55.82 402.245 55.59 400.535 55.12C398.825 54.66 396.625 53.7101 393.945 52.2701L393.925 52.26Z" fill="#02CB63"/>
<path d="M433.195 20.35H428.255V12.35H433.195V3.67L443.155 0V12.35H454.865V20.36H443.155V39.04C443.155 42.09 443.635 44.25 444.585 45.51C445.545 46.77 447.215 47.4 449.605 47.4C451.995 47.4 454.225 46.75 456.295 45.45V54.61C453.985 55.41 450.695 55.81 446.415 55.81C442.135 55.81 438.905 54.61 436.615 52.21C434.325 49.81 433.185 46.39 433.185 41.95V20.35H433.195Z" fill="#02CB63"/>
<path d="M104.159 74.9641H100.823L100.271 76.5601H98.5068L101.519 68.1721H103.475L106.487 76.5601H104.711L104.159 74.9641ZM103.703 73.6201L102.491 70.1161L101.279 73.6201H103.703ZM121.584 72.3601C121.584 71.5361 121.768 70.8001 122.136 70.1521C122.512 69.4961 123.02 68.9881 123.66 68.6281C124.308 68.2601 125.032 68.0761 125.832 68.0761C126.768 68.0761 127.588 68.3161 128.292 68.7961C128.996 69.2761 129.488 69.9401 129.768 70.7881H127.836C127.644 70.3881 127.372 70.0881 127.02 69.8881C126.676 69.6881 126.276 69.5881 125.82 69.5881C125.332 69.5881 124.896 69.7041 124.512 69.9361C124.136 70.1601 123.84 70.4801 123.624 70.8961C123.416 71.3121 123.312 71.8001 123.312 72.3601C123.312 72.9121 123.416 73.4001 123.624 73.8241C123.84 74.2401 124.136 74.5641 124.512 74.7961C124.896 75.0201 125.332 75.1321 125.82 75.1321C126.276 75.1321 126.676 75.0321 127.02 74.8321C127.372 74.6241 127.644 74.3201 127.836 73.9201H129.768C129.488 74.7761 128.996 75.4441 128.292 75.9241C127.596 76.3961 126.776 76.6321 125.832 76.6321C125.032 76.6321 124.308 76.4521 123.66 76.0921C123.02 75.7241 122.512 75.2161 122.136 74.5681C121.768 73.9201 121.584 73.1841 121.584 72.3601ZM140.851 76.6441C140.067 76.6441 139.347 76.4601 138.691 76.0921C138.035 75.7241 137.515 75.2161 137.131 74.5681C136.747 73.9121 136.555 73.1721 136.555 72.3481C136.555 71.5321 136.747 70.8001 137.131 70.1521C137.515 69.4961 138.035 68.9841 138.691 68.6161C139.347 68.2481 140.067 68.0641 140.851 68.0641C141.643 68.0641 142.363 68.2481 143.011 68.6161C143.667 68.9841 144.183 69.4961 144.559 70.1521C144.943 70.8001 145.135 71.5321 145.135 72.3481C145.135 73.1721 144.943 73.9121 144.559 74.5681C144.183 75.2161 143.667 75.7241 143.011 76.0921C142.355 76.4601 141.635 76.6441 140.851 76.6441ZM140.851 75.1441C141.355 75.1441 141.799 75.0321 142.183 74.8081C142.567 74.5761 142.867 74.2481 143.083 73.8241C143.299 73.4001 143.407 72.9081 143.407 72.3481C143.407 71.7881 143.299 71.3001 143.083 70.8841C142.867 70.4601 142.567 70.1361 142.183 69.9121C141.799 69.6881 141.355 69.5761 140.851 69.5761C140.347 69.5761 139.899 69.6881 139.507 69.9121C139.123 70.1361 138.823 70.4601 138.607 70.8841C138.391 71.3001 138.283 71.7881 138.283 72.3481C138.283 72.9081 138.391 73.4001 138.607 73.8241C138.823 74.2481 139.123 74.5761 139.507 74.8081C139.899 75.0321 140.347 75.1441 140.851 75.1441ZM161.277 68.1841V76.5601H159.597V71.1121L157.353 76.5601H156.081L153.825 71.1121V76.5601H152.145V68.1841H154.053L156.717 74.4121L159.381 68.1841H161.277ZM177.83 68.1841V76.5601H176.15V71.1121L173.906 76.5601H172.634L170.378 71.1121V76.5601H168.698V68.1841H170.606L173.27 74.4121L175.934 68.1841H177.83ZM186.931 69.5401V71.6401H189.751V72.9721H186.931V75.1921H190.111V76.5601H185.251V68.1721H190.111V69.5401H186.931ZM201.718 76.5601L199.87 73.2961H199.078V76.5601H197.398V68.1841H200.542C201.19 68.1841 201.742 68.3001 202.198 68.5321C202.654 68.7561 202.994 69.0641 203.218 69.4561C203.45 69.8401 203.566 70.2721 203.566 70.7521C203.566 71.3041 203.406 71.8041 203.086 72.2521C202.766 72.6921 202.29 72.9961 201.658 73.1641L203.662 76.5601H201.718ZM199.078 72.0361H200.482C200.938 72.0361 201.278 71.9281 201.502 71.7121C201.726 71.4881 201.838 71.1801 201.838 70.7881C201.838 70.4041 201.726 70.1081 201.502 69.9001C201.278 69.6841 200.938 69.5761 200.482 69.5761H199.078V72.0361ZM210.437 72.3601C210.437 71.5361 210.621 70.8001 210.989 70.1521C211.365 69.4961 211.873 68.9881 212.513 68.6281C213.161 68.2601 213.885 68.0761 214.685 68.0761C215.621 68.0761 216.441 68.3161 217.145 68.7961C217.849 69.2761 218.341 69.9401 218.621 70.7881H216.689C216.497 70.3881 216.225 70.0881 215.873 69.8881C215.529 69.6881 215.129 69.5881 214.673 69.5881C214.185 69.5881 213.749 69.7041 213.365 69.9361C212.989 70.1601 212.693 70.4801 212.477 70.8961C212.269 71.3121 212.165 71.8001 212.165 72.3601C212.165 72.9121 212.269 73.4001 212.477 73.8241C212.693 74.2401 212.989 74.5641 213.365 74.7961C213.749 75.0201 214.185 75.1321 214.673 75.1321C215.129 75.1321 215.529 75.0321 215.873 74.8321C216.225 74.6241 216.497 74.3201 216.689 73.9201H218.621C218.341 74.7761 217.849 75.4441 217.145 75.9241C216.449 76.3961 215.629 76.6321 214.685 76.6321C213.885 76.6321 213.161 76.4521 212.513 76.0921C211.873 75.7241 211.365 75.2161 210.989 74.5681C210.621 73.9201 210.437 73.1841 210.437 72.3601ZM227.496 69.5401V71.6401H230.316V72.9721H227.496V75.1921H230.676V76.5601H225.816V68.1721H230.676V69.5401H227.496ZM249.474 76.6441C248.89 76.6441 248.362 76.5441 247.89 76.3441C247.426 76.1441 247.058 75.8561 246.786 75.4801C246.514 75.1041 246.374 74.6601 246.366 74.1481H248.166C248.19 74.4921 248.31 74.7641 248.526 74.9641C248.75 75.1641 249.054 75.2641 249.438 75.2641C249.83 75.2641 250.138 75.1721 250.362 74.9881C250.586 74.7961 250.698 74.5481 250.698 74.2441C250.698 73.9961 250.622 73.7921 250.47 73.6321C250.318 73.4721 250.126 73.3481 249.894 73.2601C249.67 73.1641 249.358 73.0601 248.958 72.9481C248.414 72.7881 247.97 72.6321 247.626 72.4801C247.29 72.3201 246.998 72.0841 246.75 71.7721C246.51 71.4521 246.39 71.0281 246.39 70.5001C246.39 70.0041 246.514 69.5721 246.762 69.2041C247.01 68.8361 247.358 68.5561 247.806 68.3641C248.254 68.1641 248.766 68.0641 249.342 68.0641C250.206 68.0641 250.906 68.2761 251.442 68.7001C251.986 69.1161 252.286 69.7001 252.342 70.4521H250.494C250.478 70.1641 250.354 69.9281 250.122 69.7441C249.898 69.5521 249.598 69.4561 249.222 69.4561C248.894 69.4561 248.63 69.5401 248.43 69.7081C248.238 69.8761 248.142 70.1201 248.142 70.4401C248.142 70.6641 248.214 70.8521 248.358 71.0041C248.51 71.1481 248.694 71.2681 248.91 71.3641C249.134 71.4521 249.446 71.5561 249.846 71.6761C250.39 71.8361 250.834 71.9961 251.178 72.1561C251.522 72.3161 251.818 72.5561 252.066 72.8761C252.314 73.1961 252.438 73.6161 252.438 74.1361C252.438 74.5841 252.322 75.0001 252.09 75.3841C251.858 75.7681 251.518 76.0761 251.07 76.3081C250.622 76.5321 250.09 76.6441 249.474 76.6441ZM263.543 76.6441C262.759 76.6441 262.039 76.4601 261.383 76.0921C260.727 75.7241 260.207 75.2161 259.823 74.5681C259.439 73.9121 259.247 73.1721 259.247 72.3481C259.247 71.5321 259.439 70.8001 259.823 70.1521C260.207 69.4961 260.727 68.9841 261.383 68.6161C262.039 68.2481 262.759 68.0641 263.543 68.0641C264.335 68.0641 265.055 68.2481 265.703 68.6161C266.359 68.9841 266.875 69.4961 267.251 70.1521C267.635 70.8001 267.827 71.5321 267.827 72.3481C267.827 73.1721 267.635 73.9121 267.251 74.5681C266.875 75.2161 266.359 75.7241 265.703 76.0921C265.047 76.4601 264.327 76.6441 263.543 76.6441ZM263.543 75.1441C264.047 75.1441 264.491 75.0321 264.875 74.8081C265.259 74.5761 265.559 74.2481 265.775 73.8241C265.991 73.4001 266.099 72.9081 266.099 72.3481C266.099 71.7881 265.991 71.3001 265.775 70.8841C265.559 70.4601 265.259 70.1361 264.875 69.9121C264.491 69.6881 264.047 69.5761 263.543 69.5761C263.039 69.5761 262.591 69.6881 262.199 69.9121C261.815 70.1361 261.515 70.4601 261.299 70.8841C261.083 71.3001 260.975 71.7881 260.975 72.3481C260.975 72.9081 261.083 73.4001 261.299 73.8241C261.515 74.2481 261.815 74.5761 262.199 74.8081C262.591 75.0321 263.039 75.1441 263.543 75.1441ZM276.516 75.2281H279.276V76.5601H274.836V68.1841H276.516V75.2281ZM287.76 68.1841V73.3681C287.76 73.9361 287.908 74.3721 288.204 74.6761C288.5 74.9721 288.916 75.1201 289.452 75.1201C289.996 75.1201 290.416 74.9721 290.712 74.6761C291.008 74.3721 291.156 73.9361 291.156 73.3681V68.1841H292.848V73.3561C292.848 74.0681 292.692 74.6721 292.38 75.1681C292.076 75.6561 291.664 76.0241 291.144 76.2721C290.632 76.5201 290.06 76.6441 289.428 76.6441C288.804 76.6441 288.236 76.5201 287.724 76.2721C287.22 76.0241 286.82 75.6561 286.524 75.1681C286.228 74.6721 286.08 74.0681 286.08 73.3561V68.1841H287.76ZM305.931 68.1841V69.5401H303.699V76.5601H302.019V69.5401H299.787V68.1841H305.931ZM314.597 68.1841V76.5601H312.917V68.1841H314.597ZM325.905 76.6441C325.121 76.6441 324.401 76.4601 323.745 76.0921C323.089 75.7241 322.569 75.2161 322.185 74.5681C321.801 73.9121 321.609 73.1721 321.609 72.3481C321.609 71.5321 321.801 70.8001 322.185 70.1521C322.569 69.4961 323.089 68.9841 323.745 68.6161C324.401 68.2481 325.121 68.0641 325.905 68.0641C326.697 68.0641 327.417 68.2481 328.065 68.6161C328.721 68.9841 329.237 69.4961 329.613 70.1521C329.997 70.8001 330.189 71.5321 330.189 72.3481C330.189 73.1721 329.997 73.9121 329.613 74.5681C329.237 75.2161 328.721 75.7241 328.065 76.0921C327.409 76.4601 326.689 76.6441 325.905 76.6441ZM325.905 75.1441C326.409 75.1441 326.853 75.0321 327.237 74.8081C327.621 74.5761 327.921 74.2481 328.137 73.8241C328.353 73.4001 328.461 72.9081 328.461 72.3481C328.461 71.7881 328.353 71.3001 328.137 70.8841C327.921 70.4601 327.621 70.1361 327.237 69.9121C326.853 69.6881 326.409 69.5761 325.905 69.5761C325.401 69.5761 324.953 69.6881 324.561 69.9121C324.177 70.1361 323.877 70.4601 323.661 70.8841C323.445 71.3001 323.337 71.7881 323.337 72.3481C323.337 72.9081 323.445 73.4001 323.661 73.8241C323.877 74.2481 324.177 74.5761 324.561 74.8081C324.953 75.0321 325.401 75.1441 325.905 75.1441ZM344.363 76.5601H342.683L338.879 70.8121V76.5601H337.199V68.1721H338.879L342.683 73.9321V68.1721H344.363V76.5601ZM359.995 72.3601C359.995 71.5361 360.179 70.8001 360.547 70.1521C360.923 69.4961 361.431 68.9881 362.071 68.6281C362.719 68.2601 363.443 68.0761 364.243 68.0761C365.179 68.0761 365.999 68.3161 366.703 68.7961C367.407 69.2761 367.899 69.9401 368.179 70.7881H366.247C366.055 70.3881 365.783 70.0881 365.431 69.8881C365.087 69.6881 364.687 69.5881 364.231 69.5881C363.743 69.5881 363.307 69.7041 362.923 69.9361C362.547 70.1601 362.251 70.4801 362.035 70.8961C361.827 71.3121 361.723 71.8001 361.723 72.3601C361.723 72.9121 361.827 73.4001 362.035 73.8241C362.251 74.2401 362.547 74.5641 362.923 74.7961C363.307 75.0201 363.743 75.1321 364.231 75.1321C364.687 75.1321 365.087 75.0321 365.431 74.8321C365.783 74.6241 366.055 74.3201 366.247 73.9201H368.179C367.899 74.7761 367.407 75.4441 366.703 75.9241C366.007 76.3961 365.187 76.6321 364.243 76.6321C363.443 76.6321 362.719 76.4521 362.071 76.0921C361.431 75.7241 360.923 75.2161 360.547 74.5681C360.179 73.9201 359.995 73.1841 359.995 72.3601ZM379.261 76.6441C378.477 76.6441 377.757 76.4601 377.101 76.0921C376.445 75.7241 375.925 75.2161 375.541 74.5681C375.157 73.9121 374.965 73.1721 374.965 72.3481C374.965 71.5321 375.157 70.8001 375.541 70.1521C375.925 69.4961 376.445 68.9841 377.101 68.6161C377.757 68.2481 378.477 68.0641 379.261 68.0641C380.053 68.0641 380.773 68.2481 381.421 68.6161C382.077 68.9841 382.593 69.4961 382.969 70.1521C383.353 70.8001 383.545 71.5321 383.545 72.3481C383.545 73.1721 383.353 73.9121 382.969 74.5681C382.593 75.2161 382.077 75.7241 381.421 76.0921C380.765 76.4601 380.045 76.6441 379.261 76.6441ZM379.261 75.1441C379.765 75.1441 380.209 75.0321 380.593 74.8081C380.977 74.5761 381.277 74.2481 381.493 73.8241C381.709 73.4001 381.817 72.9081 381.817 72.3481C381.817 71.7881 381.709 71.3001 381.493 70.8841C381.277 70.4601 380.977 70.1361 380.593 69.9121C380.209 69.6881 379.765 69.5761 379.261 69.5761C378.757 69.5761 378.309 69.6881 377.917 69.9121C377.533 70.1361 377.233 70.4601 377.017 70.8841C376.801 71.3001 376.693 71.7881 376.693 72.3481C376.693 72.9081 376.801 73.4001 377.017 73.8241C377.233 74.2481 377.533 74.5761 377.917 74.8081C378.309 75.0321 378.757 75.1441 379.261 75.1441ZM399.687 68.1841V76.5601H398.007V71.1121L395.763 76.5601H394.491L392.235 71.1121V76.5601H390.555V68.1841H392.463L395.127 74.4121L397.791 68.1841H399.687ZM413.216 70.7761C413.216 71.2241 413.108 71.6441 412.892 72.0361C412.684 72.4281 412.352 72.7441 411.896 72.9841C411.448 73.2241 410.88 73.3441 410.192 73.3441H408.788V76.5601H407.108V68.1841H410.192C410.84 68.1841 411.392 68.2961 411.848 68.5201C412.304 68.7441 412.644 69.0521 412.868 69.4441C413.1 69.8361 413.216 70.2801 413.216 70.7761ZM410.12 71.9881C410.584 71.9881 410.928 71.8841 411.152 71.6761C411.376 71.4601 411.488 71.1601 411.488 70.7761C411.488 69.9601 411.032 69.5521 410.12 69.5521H408.788V71.9881H410.12ZM425.305 74.9641H421.969L421.417 76.5601H419.653L422.665 68.1721H424.621L427.633 76.5601H425.857L425.305 74.9641ZM424.849 73.6201L423.637 70.1161L422.425 73.6201H424.849ZM441.683 76.5601H440.003L436.199 70.8121V76.5601H434.519V68.1721H436.199L440.003 73.9321V68.1721H441.683V76.5601ZM455.763 68.1841L452.931 73.6441V76.5601H451.251V73.6441L448.407 68.1841H450.303L452.103 72.0121L453.891 68.1841H455.763Z" fill="white"/>
</svg>
