<svg width="163" height="23" viewBox="0 0 163 23" fill="none" xmlns="http://www.w3.org/2000/svg">
<path d="M21.21 5.14C23.25 5.14 24.89 5.77 26.13 7.03C27.39 8.27 28.02 10.01 28.02 12.25V22H23.82V12.82C23.82 11.52 23.49 10.53 22.83 9.85C22.17 9.15 21.27 8.8 20.13 8.8C18.99 8.8 18.08 9.15 17.4 9.85C16.74 10.53 16.41 11.52 16.41 12.82V22H12.21V12.82C12.21 11.52 11.88 10.53 11.22 9.85C10.56 9.15 9.66 8.8 8.52 8.8C7.36 8.8 6.44 9.15 5.76 9.85C5.1 10.53 4.77 11.52 4.77 12.82V22H0.57V5.38H4.77V7.39C5.31 6.69 6 6.14 6.84 5.74C7.7 5.34 8.64 5.14 9.66 5.14C10.96 5.14 12.12 5.42 13.14 5.98C14.16 6.52 14.95 7.3 15.51 8.32C16.05 7.36 16.83 6.59 17.85 6.01C18.89 5.43 20.01 5.14 21.21 5.14ZM47.4555 13.33C47.4555 13.93 47.4155 14.47 47.3355 14.95H35.1855C35.2855 16.15 35.7055 17.09 36.4455 17.77C37.1855 18.45 38.0955 18.79 39.1755 18.79C40.7355 18.79 41.8455 18.12 42.5055 16.78H47.0355C46.5555 18.38 45.6355 19.7 44.2755 20.74C42.9155 21.76 41.2455 22.27 39.2655 22.27C37.6655 22.27 36.2255 21.92 34.9455 21.22C33.6855 20.5 32.6955 19.49 31.9755 18.19C31.2755 16.89 30.9255 15.39 30.9255 13.69C30.9255 11.97 31.2755 10.46 31.9755 9.16C32.6755 7.86 33.6555 6.86 34.9155 6.16C36.1755 5.46 37.6255 5.11 39.2655 5.11C40.8455 5.11 42.2555 5.45 43.4955 6.13C44.7555 6.81 45.7255 7.78 46.4055 9.04C47.1055 10.28 47.4555 11.71 47.4555 13.33ZM43.1055 12.13C43.0855 11.05 42.6955 10.19 41.9355 9.55C41.1755 8.89 40.2455 8.56 39.1455 8.56C38.1055 8.56 37.2255 8.88 36.5055 9.52C35.8055 10.14 35.3755 11.01 35.2155 12.13H43.1055ZM54.3612 18.55H61.7712V22H49.5912V18.61L56.8512 8.83H49.6212V5.38H61.6812V8.77L54.3612 18.55ZM72.4031 22.27C70.8031 22.27 69.3631 21.92 68.0831 21.22C66.8031 20.5 65.7931 19.49 65.0531 18.19C64.3331 16.89 63.9731 15.39 63.9731 13.69C63.9731 11.99 64.3431 10.49 65.0831 9.19C65.8431 7.89 66.8731 6.89 68.1731 6.19C69.4731 5.47 70.9231 5.11 72.5231 5.11C74.1231 5.11 75.5731 5.47 76.8731 6.19C78.1731 6.89 79.1931 7.89 79.9331 9.19C80.6931 10.49 81.0731 11.99 81.0731 13.69C81.0731 15.39 80.6831 16.89 79.9031 18.19C79.1431 19.49 78.1031 20.5 76.7831 21.22C75.4831 21.92 74.0231 22.27 72.4031 22.27ZM72.4031 18.61C73.1631 18.61 73.8731 18.43 74.5331 18.07C75.2131 17.69 75.7531 17.13 76.1531 16.39C76.5531 15.65 76.7531 14.75 76.7531 13.69C76.7531 12.11 76.3331 10.9 75.4931 10.06C74.6731 9.2 73.6631 8.77 72.4631 8.77C71.2631 8.77 70.2531 9.2 69.4331 10.06C68.6331 10.9 68.2331 12.11 68.2331 13.69C68.2331 15.27 68.6231 16.49 69.4031 17.35C70.2031 18.19 71.2031 18.61 72.4031 18.61Z" fill="white"/>
<path d="M98.734 7.36C98.254 6.48 97.594 5.81 96.754 5.35C95.914 4.89 94.934 4.66 93.814 4.66C92.574 4.66 91.474 4.94 90.514 5.5C89.554 6.06 88.804 6.86 88.264 7.9C87.724 8.94 87.454 10.14 87.454 11.5C87.454 12.9 87.724 14.12 88.264 15.16C88.824 16.2 89.594 17 90.574 17.56C91.554 18.12 92.694 18.4 93.994 18.4C95.594 18.4 96.904 17.98 97.924 17.14C98.944 16.28 99.614 15.09 99.934 13.57H92.734V10.36H104.074V14.02C103.794 15.48 103.194 16.83 102.274 18.07C101.354 19.31 100.164 20.31 98.704 21.07C97.264 21.81 95.644 22.18 93.844 22.18C91.824 22.18 89.994 21.73 88.354 20.83C86.734 19.91 85.454 18.64 84.514 17.02C83.594 15.4 83.134 13.56 83.134 11.5C83.134 9.44 83.594 7.6 84.514 5.98C85.454 4.34 86.734 3.07 88.354 2.17C89.994 1.25 91.814 0.789999 93.814 0.789999C96.174 0.789999 98.224 1.37 99.964 2.53C101.704 3.67 102.904 5.28 103.564 7.36H98.734ZM106.101 13.63C106.101 11.95 106.431 10.46 107.091 9.16C107.771 7.86 108.681 6.86 109.821 6.16C110.981 5.46 112.271 5.11 113.691 5.11C114.931 5.11 116.011 5.36 116.931 5.86C117.871 6.36 118.621 6.99 119.181 7.75V5.38H123.411V22H119.181V19.57C118.641 20.35 117.891 21 116.931 21.52C115.991 22.02 114.901 22.27 113.661 22.27C112.261 22.27 110.981 21.91 109.821 21.19C108.681 20.47 107.771 19.46 107.091 18.16C106.431 16.84 106.101 15.33 106.101 13.63ZM119.181 13.69C119.181 12.67 118.981 11.8 118.581 11.08C118.181 10.34 117.641 9.78 116.961 9.4C116.281 9 115.551 8.8 114.771 8.8C113.991 8.8 113.271 8.99 112.611 9.37C111.951 9.75 111.411 10.31 110.991 11.05C110.591 11.77 110.391 12.63 110.391 13.63C110.391 14.63 110.591 15.51 110.991 16.27C111.411 17.01 111.951 17.58 112.611 17.98C113.291 18.38 114.011 18.58 114.771 18.58C115.551 18.58 116.281 18.39 116.961 18.01C117.641 17.61 118.181 17.05 118.581 16.33C118.981 15.59 119.181 14.71 119.181 13.69ZM126.433 13.63C126.433 11.95 126.763 10.46 127.423 9.16C128.103 7.86 129.013 6.86 130.153 6.16C131.313 5.46 132.603 5.11 134.023 5.11C135.263 5.11 136.343 5.36 137.263 5.86C138.203 6.36 138.953 6.99 139.513 7.75V5.38H143.743V22H139.513V19.57C138.973 20.35 138.223 21 137.263 21.52C136.323 22.02 135.233 22.27 133.993 22.27C132.593 22.27 131.313 21.91 130.153 21.19C129.013 20.47 128.103 19.46 127.423 18.16C126.763 16.84 126.433 15.33 126.433 13.63ZM139.513 13.69C139.513 12.67 139.313 11.8 138.913 11.08C138.513 10.34 137.973 9.78 137.293 9.4C136.613 9 135.883 8.8 135.103 8.8C134.323 8.8 133.603 8.99 132.943 9.37C132.283 9.75 131.743 10.31 131.323 11.05C130.923 11.77 130.723 12.63 130.723 13.63C130.723 14.63 130.923 15.51 131.323 16.27C131.743 17.01 132.283 17.58 132.943 17.98C133.623 18.38 134.343 18.58 135.103 18.58C135.883 18.58 136.613 18.39 137.293 18.01C137.973 17.61 138.513 17.05 138.913 16.33C139.313 15.59 139.513 14.71 139.513 13.69ZM155.075 22.21C153.615 22.21 152.295 21.96 151.115 21.46C149.955 20.96 149.035 20.24 148.355 19.3C147.675 18.36 147.325 17.25 147.305 15.97H151.805C151.865 16.83 152.165 17.51 152.705 18.01C153.265 18.51 154.025 18.76 154.985 18.76C155.965 18.76 156.735 18.53 157.295 18.07C157.855 17.59 158.135 16.97 158.135 16.21C158.135 15.59 157.945 15.08 157.565 14.68C157.185 14.28 156.705 13.97 156.125 13.75C155.565 13.51 154.785 13.25 153.785 12.97C152.425 12.57 151.315 12.18 150.455 11.8C149.615 11.4 148.885 10.81 148.265 10.03C147.665 9.23 147.365 8.17 147.365 6.85C147.365 5.61 147.675 4.53 148.295 3.61C148.915 2.69 149.785 1.99 150.905 1.51C152.025 1.01 153.305 0.76 154.745 0.76C156.905 0.76 158.655 1.29 159.995 2.35C161.355 3.39 162.105 4.85 162.245 6.73H157.625C157.585 6.01 157.275 5.42 156.695 4.96C156.135 4.48 155.385 4.24 154.445 4.24C153.625 4.24 152.965 4.45 152.465 4.87C151.985 5.29 151.745 5.9 151.745 6.7C151.745 7.26 151.925 7.73 152.285 8.11C152.665 8.47 153.125 8.77 153.665 9.01C154.225 9.23 155.005 9.49 156.005 9.79C157.365 10.19 158.475 10.59 159.335 10.99C160.195 11.39 160.935 11.99 161.555 12.79C162.175 13.59 162.485 14.64 162.485 15.94C162.485 17.06 162.195 18.1 161.615 19.06C161.035 20.02 160.185 20.79 159.065 21.37C157.945 21.93 156.615 22.21 155.075 22.21Z" fill="#02CB63"/>
</svg>
