<?xml version="1.0" encoding="UTF-8"?><svg id="Layer_2" xmlns="http://www.w3.org/2000/svg" viewBox="0 0 49.74 51.41"><defs><style>.cls-1{fill:#50ba69;}</style></defs><g id="Layer_1-2"><path class="cls-1" d="M49.71,20.84h.02c0-5.75,0-11.5,0-17.25,0-2.46-1.11-3.59-3.51-3.59C35.56,0,24.89,.03,14.23,0c-1.41,0-2.49,.44-3.44,1.45-2.22,2.35-4.5,4.64-6.72,6.99-1.19,1.26-1.02,2.52,.36,3.58,.76,.59,1.63,.58,2.52,.58,6.36-.01,12.73-.02,19.09-.02,.71,0,1.48-.05,1.87,.7,.37,.71-.19,1.2-.55,1.73-3.61,5.14-7.2,10.29-10.82,15.42-1.19,1.69-1.79,1.67-3,.02-2.94-4.03-5.85-8.08-8.85-12.06-.7-.93-1.53-2.16-3.04-1.53C.26,17.44,0,18.71,.01,20.09c.03,2.7,.07,5.4,0,8.09-.08,2.71,.85,5.07,2.38,7.22,3.25,4.53,6.55,9.02,9.82,13.53,2.42,3.33,3.42,3.3,5.79-.08,5.84-8.3,11.69-16.59,17.54-24.88,.43-.62,.87-1.45,1.77-1.13,.81,.28,.65,1.15,.65,1.85,0,4.17,0,8.33,0,12.5,0,3.17,0,6.34-.02,9.5-.01,1.33,.58,2.26,1.72,2.84,1.17,.6,1.89-.25,2.58-.96,1.92-1.99,3.82-3.98,5.68-6.02,1.23-1.35,1.82-2.92,1.8-4.81-.07-5.63-.02-11.26-.02-16.89Z"/></g></svg>