<svg width="78" height="82" viewBox="0 0 78 82" fill="none" xmlns="http://www.w3.org/2000/svg">
<path d="M77.4848 33.3301C77.4848 42.4001 77.4648 51.4701 77.4848 60.5301C77.4848 63.4901 76.6248 65.9701 74.4248 68.1101C71.4248 71.0301 68.6648 74.1801 65.8048 77.2401C64.7848 78.3301 63.8348 79.3201 62.0448 78.6701C60.1548 77.9801 59.5548 76.6601 59.5548 74.8301C59.5548 62.7401 59.5848 50.6501 59.5148 38.5501C59.5148 37.6401 58.8548 36.7301 58.5048 35.8201C57.7648 36.3301 56.7948 36.6801 56.3048 37.3601C48.4848 48.3201 40.7148 59.3101 32.9548 70.3101C30.8148 73.3401 28.7848 76.4501 26.6348 79.4801C24.5948 82.3701 22.3348 82.2901 20.0848 79.1801C15.3948 72.6801 10.7948 66.1301 6.1448 59.6001C4.9548 57.9201 3.5048 56.3701 2.5848 54.5601C1.5148 52.4801 0.344797 50.2001 0.194797 47.9501C-0.145203 42.5101 0.0547971 37.0401 0.0947971 31.5801C0.114797 28.7101 1.7448 26.8801 4.0348 27.2601C4.9648 27.4201 6.0648 28.0401 6.6148 28.8001C11.7048 35.7301 16.7448 42.7001 21.6948 49.7401C22.9248 51.5001 23.9948 51.2801 25.0048 49.8501C31.1948 41.0901 37.3348 32.2901 43.4448 23.4701C43.8348 22.9101 44.1848 21.8501 43.9148 21.4301C43.6048 20.9401 42.5948 20.6801 41.8848 20.6801C31.3848 20.6401 20.8848 20.6501 10.3848 20.6601C8.3748 20.6601 6.4748 20.3001 5.5948 18.2801C5.2048 17.3801 4.9148 15.7901 5.3948 15.2601C9.5348 10.7001 13.7948 6.25009 18.1948 1.93009C18.9448 1.19009 20.4948 1.03009 21.6848 1.02009C38.7348 0.960094 55.7848 0.970094 72.8448 0.990094C75.9148 0.990094 77.5248 2.70009 77.5248 5.85009C77.5248 15.0001 77.5248 24.1601 77.5248 33.3101H77.4948L77.4848 33.3301Z" fill="#02CB63"/>
</svg>
