<svg width="22" height="24" viewBox="0 0 22 24" fill="none" xmlns="http://www.w3.org/2000/svg">
<path d="M4.58331 5.25C4.20362 5.25 3.89581 5.58579 3.89581 6C3.89581 6.41421 4.20362 6.75 4.58331 6.75H17.4166C17.7963 6.75 18.1041 6.41421 18.1041 6C18.1041 5.58579 17.7963 5.25 17.4166 5.25H4.58331Z" fill="white"/>
<path d="M4.58331 11.25C4.20362 11.25 3.89581 11.5858 3.89581 12C3.89581 12.4142 4.20362 12.75 4.58331 12.75H17.4166C17.7963 12.75 18.1041 12.4142 18.1041 12C18.1041 11.5858 17.7963 11.25 17.4166 11.25H4.58331Z" fill="white"/>
<path d="M4.58331 17.25C4.20362 17.25 3.89581 17.5858 3.89581 18C3.89581 18.4142 4.20362 18.75 4.58331 18.75H17.4166C17.7963 18.75 18.1041 18.4142 18.1041 18C18.1041 17.5858 17.7963 17.25 17.4166 17.25H4.58331Z" fill="white"/>
</svg>
