<svg width="19" height="19" viewBox="0 0 19 19" fill="none" xmlns="http://www.w3.org/2000/svg">
<path fill-rule="evenodd" clip-rule="evenodd" d="M9.43034 0.919434C4.73016 0.919434 0.919922 4.72968 0.919922 9.42985C0.919922 14.13 4.73016 17.9403 9.43034 17.9403C14.1305 17.9403 17.9408 14.13 17.9408 9.42985C17.9408 4.72968 14.1305 0.919434 9.43034 0.919434ZM2.10742 9.42985C2.10742 5.38551 5.386 2.10693 9.43034 2.10693C13.4747 2.10693 16.7533 5.38551 16.7533 9.42985C16.7533 13.4742 13.4747 16.7528 9.43034 16.7528C5.386 16.7528 2.10742 13.4742 2.10742 9.42985Z" fill="#02CB63"/>
<path d="M7.04593 7.12515V13.7556C7.04593 14.0289 6.8244 14.2504 6.55112 14.2504V14.2504C6.27784 14.2504 6.05631 14.0289 6.05631 13.7556V6.31511C6.05631 5.888 6.40255 5.54175 6.82967 5.54175V5.54175C7.09564 5.54175 7.34294 5.67841 7.48446 5.9036L11.7433 12.6802V6.03656C11.7433 5.76328 11.9649 5.54175 12.2382 5.54175V5.54175C12.5114 5.54175 12.733 5.76328 12.733 6.03656V13.4768C12.733 13.9041 12.3866 14.2504 11.9593 14.2504V14.2504C11.6935 14.2504 11.4463 14.114 11.3047 13.889L7.04593 7.12515Z" fill="#02CB63"/>
<path d="M4.75 9.02398C4.75 8.78344 4.94499 8.58845 5.18553 8.58845H13.8961C14.1366 8.58845 14.3316 8.78344 14.3316 9.02398V9.02398C14.3316 9.26452 14.1366 9.45951 13.8961 9.45951H5.18553C4.94499 9.45951 4.75 9.26452 4.75 9.02398V9.02398Z" fill="#02CB63"/>
<path d="M4.75 11.2016C4.75 10.9611 4.94499 10.7661 5.18553 10.7661H13.8961C14.1366 10.7661 14.3316 10.9611 14.3316 11.2016V11.2016C14.3316 11.4422 14.1366 11.6371 13.8961 11.6371H5.18553C4.94499 11.6371 4.75 11.4422 4.75 11.2016V11.2016Z" fill="#02CB63"/>
</svg>
