<svg width="10" height="20" viewBox="0 0 10 20" fill="none" xmlns="http://www.w3.org/2000/svg">
<path d="M0.746371 17.4454C0.256042 17.9314 0.252511 18.7229 0.738483 19.2132C1.22446 19.7035 2.0159 19.707 2.50623 19.2211L5.49745 16.2564C6.62407 15.1399 7.54487 14.2273 8.19788 13.4142C8.87692 12.5686 9.36848 11.7104 9.49979 10.6802C9.55736 10.2285 9.55736 9.77136 9.49979 9.31965C9.36848 8.28946 8.87692 7.43122 8.19788 6.58568C7.54487 5.77257 6.62409 4.86 5.49748 3.74343L2.50623 0.778766C2.01591 0.292795 1.22446 0.296323 0.738486 0.786653C0.252514 1.27698 0.256044 2.06843 0.746373 2.5544L3.68465 5.46658C4.87714 6.64848 5.69514 7.46188 6.24865 8.15109C6.78631 8.82059 6.97076 9.25061 7.01985 9.63574C7.05068 9.87757 7.05068 10.1223 7.01985 10.3641C6.97076 10.7492 6.78631 11.1792 6.24865 11.8487C5.69515 12.538 4.87714 13.3514 3.68465 14.5333L0.746371 17.4454Z" fill="#5B5B5B"/>
</svg>
