<svg width="10" height="20" viewBox="0 0 10 20" fill="none" xmlns="http://www.w3.org/2000/svg">
<path d="M9.2131 2.55457C9.70343 2.06859 9.70696 1.27715 9.22099 0.786817C8.73502 0.296488 7.94357 0.292957 7.45324 0.77893L4.46202 3.74358C3.3354 4.86015 2.41461 5.77273 1.7616 6.58585C1.08255 7.43139 0.590996 8.28962 0.459686 9.31981C0.40211 9.77152 0.40211 10.2286 0.459685 10.6804C0.590996 11.7105 1.08255 12.5688 1.7616 13.4143C2.41461 14.2274 3.33538 15.14 4.462 16.2566L7.45324 19.2212C7.94357 19.7072 8.73502 19.7037 9.22099 19.2133C9.70696 18.723 9.70343 17.9316 9.2131 17.4456L6.27482 14.5334C5.08233 13.3515 4.26433 12.5381 3.71083 11.8489C3.17316 11.1794 2.98871 10.7494 2.93962 10.3643C2.9088 10.1224 2.9088 9.87774 2.93962 9.63591C2.98871 9.25078 3.17316 8.82075 3.71083 8.15126C4.26433 7.46205 5.08233 6.64864 6.27482 5.46675L9.2131 2.55457Z" fill="#5B5B5B"/>
</svg>
