<svg width="43" height="42" viewBox="0 0 43 42" fill="#02CB63" xmlns="http://www.w3.org/2000/svg">
<path fill-rule="evenodd" clip-rule="evenodd" d="M25.7133 10.5566C24.5537 6.87008 19.4463 6.87008 18.2867 10.5566C18.1214 11.0822 17.6659 11.3966 17.1967 11.3966C13.3301 11.3966 11.9311 16.3718 14.8871 18.5902C15.2944 18.8959 15.4855 19.4621 15.3181 19.9944C14.75 21.8005 15.4787 23.4901 16.7217 24.4231C17.9713 25.3609 19.8067 25.5746 21.341 24.4231C21.7371 24.1259 22.2629 24.1259 22.6589 24.4231C24.1932 25.5746 26.0287 25.3609 27.2782 24.4231C28.5213 23.4901 29.25 21.8005 28.6818 19.9944C28.5144 19.4621 28.7056 18.8959 29.1129 18.5902C32.0688 16.3718 30.6699 11.3966 26.8032 11.3966C26.3341 11.3966 25.8786 11.0822 25.7133 10.5566ZM17.1967 14.1466C18.9155 14.1466 20.3992 13.0057 20.91 11.3817C21.2623 10.2617 22.7377 10.2617 23.09 11.3817C23.6008 13.0057 25.0844 14.1466 26.8032 14.1466C27.335 14.1466 27.7319 14.4737 27.8932 14.9866C28.0556 15.5027 27.923 16.0449 27.4622 16.3908C26.0994 17.4136 25.5498 19.2022 26.0585 20.8195C26.2464 21.4166 26.0216 21.9279 25.6275 22.2236C25.2398 22.5146 24.7544 22.5574 24.3096 22.2236C22.9355 21.1924 21.0644 21.1924 19.6903 22.2236C19.2456 22.5574 18.7601 22.5146 18.3725 22.2236C17.9784 21.9279 17.7536 21.4166 17.9414 20.8195C18.4501 19.2022 17.9006 17.4136 16.5378 16.3908C16.077 16.0449 15.9444 15.5027 16.1067 14.9866C16.2681 14.4737 16.6649 14.1466 17.1967 14.1466Z" fill="#02CB63"/>
<path fill-rule="evenodd" clip-rule="evenodd" d="M22 0.458374C13.1404 0.458374 5.95831 7.64047 5.95831 16.5C5.95831 18.6534 6.38332 20.7104 7.1548 22.5893C6.62238 23.2057 6.12918 24.0603 5.46518 25.2108L2.11755 31.0091C1.70419 31.7248 1.32197 32.3866 1.10161 32.9345C0.885765 33.4711 0.613931 34.4016 1.21464 35.2629C1.82297 36.1351 2.79944 36.1868 3.37814 36.158C3.96407 36.1289 4.70892 35.9823 5.50905 35.8247L6.9597 35.5394C7.76391 35.3812 8.24106 35.29 8.59508 35.2656C8.75677 35.2545 8.84358 35.262 8.8863 35.2692C8.90592 35.2725 8.91514 35.2756 8.9175 35.2764C8.91949 35.2771 8.92056 35.2775 8.92289 35.2789C8.92522 35.2802 8.92615 35.2809 8.92775 35.2823C8.92965 35.2839 8.93692 35.2904 8.94959 35.3057C8.97716 35.3391 9.02705 35.4106 9.09826 35.5562C9.25419 35.8749 9.41374 36.3338 9.67886 37.1093L10.157 38.5081C10.4207 39.2799 10.6662 39.9983 10.9339 40.5203C11.1984 41.0359 11.7314 41.8557 12.7909 41.9464C13.8371 42.036 14.507 41.3353 14.8638 40.8801C15.2281 40.4153 15.6101 39.7534 16.0233 39.0376L19.3033 33.3564C19.5045 33.0079 19.688 32.6902 19.8526 32.3991C20.5556 32.4932 21.2724 32.5417 22 32.5417C22.5633 32.5417 23.1202 32.5126 23.6692 32.4558C23.8254 32.7312 23.9979 33.03 24.1859 33.3556L27.4664 39.0376C27.8796 39.7534 28.2616 40.4153 28.6259 40.8801C28.9827 41.3353 29.6526 42.036 30.6988 41.9464C31.7583 41.8557 32.2913 41.0359 32.5558 40.5203C32.8235 39.9983 33.069 39.2799 33.3326 38.5082L33.8108 37.1093C34.076 36.3338 34.2355 35.8749 34.3914 35.5562C34.4626 35.4106 34.5125 35.3391 34.5401 35.3057C34.5417 35.3038 34.5432 35.302 34.5446 35.3004C34.5545 35.2888 34.5603 35.2837 34.5619 35.2823L34.5642 35.2805L34.5668 35.2789C34.5691 35.2775 34.5702 35.2771 34.5722 35.2764C34.5745 35.2756 34.5838 35.2725 34.6034 35.2692C34.6461 35.262 34.7329 35.2545 34.8946 35.2656C35.2486 35.29 35.7258 35.3812 36.53 35.5394L37.9807 35.8247C38.7808 35.9823 39.5256 36.1289 40.1116 36.158C40.6903 36.1868 41.6667 36.1351 42.2751 35.2629C42.8758 34.4016 42.6039 33.4711 42.3881 32.9345C42.1677 32.3867 41.7856 31.725 41.3722 31.0093L37.9901 25.1512C37.4883 24.2812 37.0817 23.5763 36.6658 23.0089C37.5505 21.0184 38.0416 18.815 38.0416 16.5C38.0416 7.64047 30.8595 0.458374 22 0.458374ZM8.70831 16.5C8.70831 9.15926 14.6592 3.20837 22 3.20837C29.3408 3.20837 35.2916 9.15926 35.2916 16.5C35.2916 18.6977 34.7594 20.767 33.8179 22.5899C31.9327 26.2401 28.4074 28.9027 24.2234 29.6068C23.5013 29.7283 22.7586 29.7917 22 29.7917C21.113 29.7917 20.2475 29.705 19.4113 29.54C15.3136 28.7317 11.8876 26.0361 10.0824 22.3929C9.20317 20.6186 8.70831 18.6191 8.70831 16.5ZM7.76688 26.7242C8.11449 26.1221 8.37861 25.6673 8.59458 25.3138C10.5777 28.3243 13.5482 30.6278 17.0481 31.7625L13.6891 37.5805C13.4492 37.996 13.2581 38.3253 13.0983 38.587C12.996 38.3088 12.8767 37.9622 12.7281 37.5276L12.2567 36.1486C12.0242 35.4683 11.81 34.8414 11.5686 34.3478C11.302 33.8029 10.9303 33.2624 10.2979 32.8973C9.66547 32.5322 9.01158 32.4805 8.40641 32.5221C7.85826 32.5598 7.2082 32.6877 6.50289 32.8266L5.0729 33.1078C4.62216 33.1965 4.26237 33.2664 3.97021 33.3169C4.11702 33.0477 4.30663 32.7175 4.54652 32.302L7.76688 26.7242ZM26.5187 31.8962C30.0483 30.8619 33.0711 28.6483 35.1338 25.7128C35.3003 25.9941 35.4935 26.327 35.7228 26.7242L38.9432 32.302C39.1831 32.7175 39.3727 33.0477 39.5195 33.3169C39.2273 33.2664 38.8675 33.1965 38.4168 33.1078L36.987 32.8266C36.2816 32.6878 35.6315 32.5598 35.0833 32.5221C34.4781 32.4805 33.8242 32.5322 33.1918 32.8973C32.5594 33.2624 32.1877 33.8029 31.9211 34.3478C31.6797 34.8414 31.4655 35.4683 31.233 36.1486L30.7616 37.5276C30.613 37.9622 30.4937 38.3088 30.3913 38.587C30.2316 38.3253 30.0405 37.996 29.8006 37.5805L26.5187 31.8962Z" fill="#02CB63"/>
</svg>
