<svg width="36" height="40" viewBox="0 0 36 40" fill="none" xmlns="http://www.w3.org/2000/svg">
<path d="M24.5704 17.196C25.0469 16.6047 24.9538 15.7391 24.3625 15.2626C23.7712 14.7862 22.9055 14.8793 22.4291 15.4706L18.723 20.07C17.962 21.0144 17.4819 21.605 17.0823 21.9782C16.8945 22.1536 16.7745 22.2316 16.7056 22.2661C16.6543 22.2918 16.6359 22.2917 16.6261 22.2916H16.6234C16.6136 22.2917 16.5952 22.2918 16.5439 22.2661C16.475 22.2316 16.355 22.1536 16.1673 21.9782C15.7677 21.605 15.2875 21.0144 14.5265 20.07L13.5704 18.8835C13.094 18.2921 12.2284 18.199 11.637 18.6755C11.0457 19.152 10.9526 20.0176 11.4291 20.6089L12.4449 21.8696C13.1278 22.7173 13.7303 23.4652 14.2903 23.9881C14.8915 24.5495 15.6389 25.0416 16.6248 25.0416C17.6106 25.0416 18.3581 24.5495 18.9592 23.9881C19.5192 23.4651 20.1217 22.7173 20.8047 21.8695L24.5704 17.196Z" fill="#090A0A"/>
<path fill-rule="evenodd" clip-rule="evenodd" d="M13.5317 0.291626C10.7051 0.291626 8.41365 2.58306 8.41365 5.40968C8.41365 6.71752 7.35344 7.77774 6.0456 7.77774H5.47934C2.58991 7.77774 0.0160602 10.0133 0.172824 13.1185C0.35895 16.8054 1.17781 22.5516 4.16459 27.9948C5.00113 29.5193 6.11835 31.0168 7.32608 32.4122L7.41701 32.5172C9.1544 34.5247 10.603 36.1986 12.1604 37.3395C13.8355 38.5667 15.6233 39.178 17.9999 39.178C20.3764 39.178 22.1642 38.5667 23.8393 37.3395C25.3967 36.1986 26.8453 34.5247 28.5827 32.5172L28.6736 32.4122C29.8814 31.0168 30.9986 29.5193 31.8351 27.9948C34.9212 22.3706 35.6907 16.0155 35.8425 12.0536C35.9609 8.96327 33.4054 6.70829 30.4999 6.70829H29.4194C28.4069 6.70829 27.5861 5.88748 27.5861 4.87496C27.5861 2.34365 25.534 0.291626 23.0027 0.291626H13.5317ZM11.1637 5.40968C11.1637 4.10184 12.2239 3.04163 13.5317 3.04163H23.0027C24.0152 3.04163 24.8361 3.86244 24.8361 4.87496C24.8361 7.40626 26.8881 9.45829 29.4194 9.45829H30.4999C32.0355 9.45829 33.1461 10.6006 33.0945 11.9483C32.9495 15.7337 32.2114 21.5925 29.4242 26.6718C28.7112 27.9713 27.7238 29.3075 26.5943 30.6125C24.7424 32.7521 23.4919 34.185 22.2141 35.1211C21.027 35.9908 19.8127 36.428 17.9999 36.428C16.187 36.428 14.9727 35.9908 13.7856 35.1211C12.5078 34.185 11.2573 32.7521 9.40539 30.6125C8.27591 29.3075 7.28854 27.9713 6.57548 26.6718C3.86492 21.7321 3.09432 16.4462 2.91933 12.9799C2.85275 11.661 3.93909 10.5277 5.47934 10.5277H6.0456C8.87222 10.5277 11.1637 8.23631 11.1637 5.40968Z" fill="#090A0A"/>
</svg>
