<svg width="16" height="10" viewBox="0 0 16 10" fill="none" xmlns="http://www.w3.org/2000/svg">
<path d="M1.33331 4.375C0.988135 4.375 0.708313 4.65482 0.708313 5C0.708313 5.34518 0.988135 5.625 1.33331 5.625L13.8591 5.625C13.8046 5.71383 13.7344 5.81242 13.6445 5.92441C13.3677 6.26902 12.9587 6.67572 12.3625 7.26667L10.8933 8.72276C10.6482 8.96575 10.6464 9.36147 10.8894 9.60663C11.1324 9.8518 11.5281 9.85356 11.7733 9.61058L13.2689 8.12825C13.8322 7.56996 14.2926 7.11368 14.6191 6.70712C14.9586 6.28435 15.2044 5.85523 15.2701 5.34014C15.2988 5.11428 15.2988 4.88572 15.2701 4.65987C15.2044 4.14477 14.9586 3.71565 14.6191 3.29288C14.2926 2.88633 13.8322 2.43004 13.2689 1.87176L11.7733 0.389425C11.5281 0.14644 11.1324 0.148204 10.8894 0.393369C10.6464 0.638533 10.6482 1.03426 10.8933 1.27724L12.3625 2.73333C12.9587 3.32428 13.3677 3.73098 13.6445 4.07559C13.7344 4.18758 13.8046 4.28617 13.8591 4.375L1.33331 4.375Z" fill="#090A0A"/>
</svg>
