<svg width="36" height="40" viewBox="0 0 36 40" fill="none" xmlns="http://www.w3.org/2000/svg">
<path d="M19.3752 14.5C19.3752 13.7406 18.7596 13.125 18.0002 13.125C17.2409 13.125 16.6252 13.7406 16.6252 14.5V18.625H12.5002C11.7409 18.625 11.1252 19.2406 11.1252 20C11.1252 20.7593 11.7409 21.375 12.5002 21.375H16.6252V25.5C16.6252 26.2593 17.2409 26.875 18.0002 26.875C18.7596 26.875 19.3752 26.2593 19.3752 25.5V21.375H23.5002C24.2596 21.375 24.8752 20.7593 24.8752 20C24.8752 19.2406 24.2596 18.625 23.5002 18.625H19.3752V14.5Z" fill="#090A0A"/>
<path fill-rule="evenodd" clip-rule="evenodd" d="M13.5322 0.291626C10.7056 0.291626 8.41414 2.58306 8.41414 5.40968C8.41414 6.71752 7.35393 7.77774 6.04608 7.77774H5.47983C2.59039 7.77774 0.0165485 10.0133 0.173312 13.1185C0.359438 16.8054 1.1783 22.5516 4.16508 27.9948C5.00162 29.5193 6.11884 31.0168 7.32657 32.4122L7.41749 32.5172C9.15489 34.5247 10.6035 36.1986 12.1609 37.3395C13.836 38.5667 15.6238 39.178 18.0003 39.178C20.3769 39.178 22.1647 38.5667 23.8398 37.3395C25.3972 36.1986 26.8458 34.5247 28.5832 32.5172L28.6741 32.4122C29.8818 31.0168 30.9991 29.5193 31.8356 27.9948C34.9217 22.3706 35.6912 16.0155 35.843 12.0536C35.9614 8.96327 33.4059 6.70829 30.5004 6.70829H29.4199C28.4074 6.70829 27.5865 5.88748 27.5865 4.87496C27.5865 2.34365 25.5345 0.291626 23.0032 0.291626H13.5322ZM11.1641 5.40968C11.1641 4.10184 12.2244 3.04163 13.5322 3.04163H23.0032C24.0157 3.04163 24.8365 3.86244 24.8365 4.87496C24.8365 7.40626 26.8886 9.45829 29.4199 9.45829H30.5004C32.036 9.45829 33.1466 10.6006 33.095 11.9483C32.95 15.7337 32.2119 21.5925 29.4247 26.6718C28.7117 27.9713 27.7243 29.3075 26.5948 30.6125C24.7429 32.7521 23.4924 34.185 22.2146 35.1211C21.0274 35.9908 19.8131 36.428 18.0003 36.428C16.1875 36.428 14.9732 35.9908 13.7861 35.1211C12.5083 34.185 11.2578 32.7521 9.40588 30.6125C8.2764 29.3075 7.28903 27.9713 6.57597 26.6718C3.86541 21.7321 3.09481 16.4462 2.91981 12.9799C2.85323 11.661 3.93958 10.5277 5.47983 10.5277H6.04608C8.87271 10.5277 11.1641 8.23631 11.1641 5.40968Z" fill="#090A0A"/>
</svg>
