<svg width="38" height="42" viewBox="0 0 38 42" fill="#02CB63" xmlns="http://www.w3.org/2000/svg">
<path fill-rule="evenodd" clip-rule="evenodd" d="M18.9997 14.1251C15.2028 14.1251 12.1247 17.2031 12.1247 21.0001C12.1247 24.797 15.2028 27.8751 18.9997 27.8751C22.7967 27.8751 25.8747 24.797 25.8747 21.0001C25.8747 17.2031 22.7967 14.1251 18.9997 14.1251ZM14.8747 21.0001C14.8747 18.7219 16.7216 16.8751 18.9997 16.8751C21.2779 16.8751 23.1247 18.7219 23.1247 21.0001C23.1247 23.2782 21.2779 25.1251 18.9997 25.1251C16.7216 25.1251 14.8747 23.2782 14.8747 21.0001Z" fill="#02CB63A"/>
<path fill-rule="evenodd" clip-rule="evenodd" d="M25.26 4.92592C23.4626 -1.37228 14.5368 -1.37228 12.7394 4.92592C12.1825 6.87733 10.1777 8.03482 8.20927 7.54141C1.85616 5.94892 -2.60673 13.6789 1.94896 18.3846C3.36047 19.8426 3.36047 22.1576 1.94896 23.6156C-2.60673 28.3213 1.85616 36.0512 8.20927 34.4587C10.1777 33.9653 12.1825 35.1228 12.7394 37.0742C14.5368 43.3724 23.4626 43.3724 25.26 37.0742C25.817 35.1228 27.8218 33.9653 29.7902 34.4587C36.1433 36.0512 40.6062 28.3213 36.0505 23.6156C34.639 22.1576 34.639 19.8426 36.0505 18.3846C40.6062 13.6789 36.1433 5.94892 29.7902 7.54141C27.8218 8.03482 25.817 6.87733 25.26 4.92592ZM15.3838 5.6806C16.422 2.04283 21.5775 2.04283 22.6156 5.6806C23.5798 9.05914 27.0508 11.0631 30.4588 10.2089C34.1283 9.28908 36.7061 13.7538 34.0747 16.4718C31.6309 18.9961 31.6309 23.0041 34.0747 25.5284C36.7061 28.2463 34.1283 32.7111 30.4588 31.7913C27.0508 30.937 23.5798 32.941 22.6156 36.3195C21.5775 39.9573 16.422 39.9573 15.3838 36.3195C14.4197 32.941 10.9486 30.937 7.54063 31.7913C3.87114 32.7111 1.29342 28.2463 3.92474 25.5284C6.36854 23.0041 6.36855 18.9961 3.92474 16.4718C1.29342 13.7538 3.87114 9.28908 7.54063 10.2089C10.9486 11.0631 14.4197 9.05914 15.3838 5.6806Z" fill="#02CB63"/>
</svg>
