<svg width="20" height="18" viewBox="0 0 20 18" fill="none" xmlns="http://www.w3.org/2000/svg">
<path d="M18.6547 0.932617L19.2975 0.889999C19.2803 0.63157 19.1101 0.408528 18.8654 0.323819C18.6206 0.239109 18.3489 0.309204 18.1757 0.501751L18.6547 0.932617ZM18.0124 4.74505C18.0124 4.38925 17.724 4.10082 17.3682 4.10082C17.0124 4.10082 16.724 4.38925 16.724 4.74505H18.0124ZM9.64935 4.85095H9.00512V4.85095L9.64935 4.85095ZM9.64935 6.08646L10.2936 6.08646V6.08646L9.64935 6.08646ZM0.644043 15.1057V14.4615C0.360237 14.4615 0.109861 14.6472 0.0275214 14.9188C-0.054818 15.1904 0.0502769 15.4839 0.286306 15.6415L0.644043 15.1057ZM1.93052 0.932617L2.53384 0.706719C2.44395 0.466632 2.22026 0.302693 1.96425 0.28927C1.70824 0.275847 1.46863 0.415495 1.35412 0.644864L1.93052 0.932617ZM7.07641 12.5288L7.5323 12.984C7.68996 12.8261 7.75468 12.5978 7.70338 12.3807C7.65208 12.1635 7.49206 11.9884 7.28041 11.9177L7.07641 12.5288ZM16.384 2.18678L15.9061 2.61886L16.1382 2.87557L16.4804 2.82375L16.384 2.18678ZM18.0118 0.975236C18.0783 1.9774 18.0168 2.58586 17.8544 3.04383C17.6967 3.48834 17.4214 3.85471 16.9225 4.33285L17.8139 5.26315C18.378 4.72263 18.8146 4.19085 19.0687 3.4746C19.318 2.77182 19.3682 1.95692 19.2975 0.889999L18.0118 0.975236ZM18.0124 5.68381V4.74505H16.724V5.68381H18.0124ZM9.00512 4.85095L9.00512 6.08646L10.2936 6.08646V4.85095L9.00512 4.85095ZM9.00512 6.08646L9.00512 6.73069L10.2936 6.73069V6.08646L9.00512 6.08646ZM13.5616 0.288386C11.0442 0.288386 9.00512 2.33206 9.00512 4.85095H10.2936C10.2936 3.04178 11.7577 1.57685 13.5616 1.57685V0.288386ZM16.724 5.68381C16.724 11.2441 12.2237 15.7499 6.67437 15.7499V17.0384C12.9371 17.0384 18.0124 11.9538 18.0124 5.68381H16.724ZM1.32719 1.15852C2.0273 3.02838 4.65665 6.73069 9.64935 6.73069V5.44223C5.37945 5.44223 3.1202 2.27276 2.53384 0.706719L1.32719 1.15852ZM1.35412 0.644864C0.00545466 3.34637 -0.202343 5.96657 0.777862 8.19775C1.75583 10.4238 3.86001 12.1342 6.8724 13.1398L7.28041 11.9177C4.50368 10.9907 2.74844 9.47986 1.95751 7.67951C1.16881 5.88425 1.28263 3.67271 2.50691 1.22037L1.35412 0.644864ZM6.62051 12.0736C5.84472 12.8506 3.51229 14.4615 0.644043 14.4615V15.7499C3.95087 15.7499 6.59282 13.9249 7.5323 12.984L6.62051 12.0736ZM16.8618 1.75471C16.0484 0.855169 14.8708 0.288386 13.5616 0.288386V1.57685C14.4911 1.57685 15.3265 1.97781 15.9061 2.61886L16.8618 1.75471ZM16.4804 2.82375C17.4603 2.67534 18.4164 2.16074 19.1336 1.36348L18.1757 0.501751C17.6502 1.08591 16.961 1.44781 16.2875 1.54981L16.4804 2.82375ZM0.286306 15.6415C2.40027 17.053 4.61685 17.0384 6.67437 17.0384V15.7499C4.57427 15.7499 2.74724 15.7354 1.00178 14.5699L0.286306 15.6415Z" fill="black"/>
</svg>
