<svg width="25" height="28" viewBox="0 0 25 28" fill="none" xmlns="http://www.w3.org/2000/svg">
<path d="M16.9801 12.0882C17.305 11.685 17.2415 11.0949 16.8383 10.77C16.4352 10.4451 15.845 10.5086 15.5201 10.9118L12.9932 14.0478C12.4744 14.6917 12.147 15.0944 11.8746 15.3488C11.7465 15.4684 11.6647 15.5216 11.6177 15.5451C11.5827 15.5626 11.5702 15.5625 11.5635 15.5625H11.5617C11.555 15.5625 11.5425 15.5626 11.5075 15.5451C11.4605 15.5216 11.3787 15.4684 11.2507 15.3488C10.9782 15.0944 10.6509 14.6917 10.132 14.0478L9.48013 13.2388C9.15527 12.8356 8.56508 12.7721 8.16191 13.097C7.75874 13.4218 7.69526 14.012 8.02012 14.4152L8.71271 15.2747C9.17835 15.8527 9.58916 16.3626 9.97093 16.7192C10.3808 17.102 10.8905 17.4375 11.5626 17.4375C12.2348 17.4375 12.7444 17.102 13.1543 16.7192C13.5361 16.3626 13.9469 15.8527 14.4126 15.2747L16.9801 12.0882Z" fill="#02CB63"/>
<path fill-rule="evenodd" clip-rule="evenodd" d="M9.45373 0.5625C7.52648 0.5625 5.96414 2.12484 5.96414 4.05208C5.96414 4.94379 5.24127 5.66667 4.34956 5.66667H3.96348C1.99341 5.66667 0.238513 7.19091 0.345397 9.3081C0.472302 11.8219 1.03062 15.7398 3.06706 19.451C3.63742 20.4904 4.39916 21.5115 5.22262 22.4629L5.28461 22.5345C6.4692 23.9033 7.4569 25.0445 8.51874 25.8224C9.66084 26.6591 10.8798 27.0759 12.5002 27.0759C14.1206 27.0759 15.3395 26.6591 16.4816 25.8224C17.5435 25.0445 18.5312 23.9033 19.7158 22.5345L19.7778 22.4629C20.6012 21.5115 21.363 20.4904 21.9333 19.451C24.0375 15.6164 24.5621 11.2833 24.6656 8.58201C24.7464 6.47499 23.004 4.9375 21.0229 4.9375H20.2862C19.5959 4.9375 19.0362 4.37786 19.0362 3.6875C19.0362 1.96161 17.6371 0.5625 15.9112 0.5625H9.45373ZM7.83914 4.05208C7.83914 3.16037 8.56202 2.4375 9.45373 2.4375H15.9112C16.6016 2.4375 17.1612 2.99714 17.1612 3.6875C17.1612 5.41339 18.5603 6.8125 20.2862 6.8125H21.0229C22.07 6.8125 22.8272 7.59138 22.792 8.51023C22.6931 11.0912 22.1899 15.0858 20.2895 18.549C19.8034 19.435 19.1301 20.3461 18.36 21.2358C17.0974 22.6946 16.2448 23.6716 15.3736 24.3099C14.5641 24.9029 13.7362 25.2009 12.5002 25.2009C11.2642 25.2009 10.4363 24.9029 9.62682 24.3099C8.75559 23.6716 7.90298 22.6946 6.64033 21.2358C5.87023 20.3461 5.19702 19.435 4.71085 18.549C2.86274 15.181 2.33733 11.577 2.21801 9.21357C2.17262 8.31436 2.91331 7.54167 3.96348 7.54167H4.34956C6.2768 7.54167 7.83914 5.97933 7.83914 4.05208Z" fill="#02CB63"/>
</svg>
