<svg width="516" height="469" viewBox="0 0 516 469" fill="none" xmlns="http://www.w3.org/2000/svg">
<path opacity="0.2" d="M275.398 332.314C275.398 332.314 266.559 377.201 212.258 387.418C212.258 387.418 198.023 398.783 193.316 405.442C188.609 412.1 163.468 423.465 137.868 459.053C112.267 494.641 74.1538 381.793 74.1538 381.793L158.417 272.389L275.398 332.314Z" fill="black" fill-opacity="0.7"/>
<path d="M323.614 121.427C323.614 121.427 352.888 107.077 359.317 109.602C365.746 112.128 371.945 126.822 347.263 141.057C322.696 155.293 330.043 181.697 330.043 181.697H347.607C347.607 181.697 358.169 185.944 362.302 191.455C366.435 196.965 369.305 215.792 371.715 222.221C374.011 228.65 372.863 234.964 366.435 237.03C366.435 237.03 362.302 254.939 363.45 262.86C364.598 270.781 364.024 275.833 356.447 276.866C348.87 277.784 341.179 271.355 341.753 262.86L335.898 284.098L340.031 292.249C340.031 292.249 347.607 294.775 355.873 301.777C364.024 308.78 372.289 310.732 369.879 318.538C367.583 326.345 362.876 334.84 338.309 324.967C313.741 315.209 293.192 276.751 293.192 276.751L278.383 142.779L323.614 121.427Z" fill="white"/>
<path opacity="0.4" d="M354.495 198.343C341.179 216.481 355.873 237.26 355.873 237.26C355.873 237.26 346.689 242.426 346.459 255.398C346.345 260.794 347.722 268.371 349.329 275.488C344.737 273.307 341.408 268.485 341.867 262.745L336.013 283.983L340.145 292.134C340.145 292.134 345.541 293.971 352.199 298.793C348.526 307.173 347.493 317.505 347.722 328.181C344.967 327.493 341.867 326.459 338.309 325.082C313.741 315.324 293.192 276.866 293.192 276.866L278.383 142.894L323.614 121.541C323.614 121.541 339.571 113.735 350.592 110.635C349.789 120.853 351.74 131.529 353.233 137.384C351.511 138.647 349.559 139.909 347.378 141.172C322.811 155.293 330.043 181.811 330.043 181.811H347.607C347.607 181.811 357.595 185.944 361.957 191.225C359.547 192.603 357.021 194.899 354.495 198.343Z" fill="#92E3A9"/>
<path d="M277.924 310.732C277.924 310.732 246.124 373.183 188.724 387.303C188.724 387.303 186.543 399.702 176.785 404.983C171.619 407.853 150.611 439.193 132.243 467.778L30.5298 405.327C36.8438 399.128 43.9614 392.01 51.1938 384.548C72.4318 362.851 95.0474 338.513 102.05 326.574C108.249 315.898 116.056 297.415 122.944 279.965C131.669 257.694 138.786 237.26 138.786 237.26L172.767 199.491L226.149 140.139L228.445 147.716L277.924 310.732Z" fill="white"/>
<path opacity="0.4" d="M226.034 140.254L277.924 310.732C277.924 310.732 246.124 373.183 188.724 387.303C188.724 387.303 186.543 399.702 176.785 404.983C172.078 407.508 154.743 433.109 137.983 458.939C144.182 437.586 162.205 403.605 162.205 403.605C150.611 389.944 154.055 375.479 158.647 379.612C163.124 383.63 174.948 395.225 175.637 396.028C170.471 390.059 169.323 380.53 169.323 380.53C169.323 380.53 183.673 390.059 184.821 374.79C185.969 359.522 176.211 322.212 176.211 322.212L150.725 224.173L226.034 140.254Z" fill="#92E3A9"/>
<path d="M278.498 142.779L323.729 121.427C323.729 121.427 353.003 107.077 359.432 109.602C365.861 112.128 372.06 126.822 347.378 141.057C322.811 155.293 330.158 181.697 330.158 181.697H347.722C347.722 181.697 358.284 185.944 362.417 191.455C366.549 196.965 369.419 215.792 371.83 222.221C374.126 228.65 372.978 234.964 366.549 237.03C366.549 237.03 362.417 254.939 363.565 262.86C364.713 270.781 364.139 275.833 356.562 276.866C348.985 277.784 341.293 271.355 341.867 262.86L336.013 284.098L340.145 292.249C340.145 292.249 347.722 294.775 355.988 301.777C364.139 308.78 372.404 310.732 369.993 318.538C367.697 326.345 362.991 334.84 338.423 324.967C313.856 315.209 293.307 276.751 293.307 276.751" stroke="#263238" stroke-miterlimit="10" stroke-linecap="round" stroke-linejoin="round"/>
<path d="M366.435 237.03C357.595 239.441 347.378 237.604 343.59 222.106C339.801 206.608 347.378 189.962 352.429 188.47" stroke="#263238" stroke-miterlimit="10" stroke-linecap="round" stroke-linejoin="round"/>
<path d="M341.867 262.745C341.867 262.745 341.293 242.77 348.641 237.834" stroke="#263238" stroke-miterlimit="10" stroke-linecap="round" stroke-linejoin="round"/>
<path opacity="0.4" d="M128.225 362.047C128.225 362.047 106.757 359.407 101.935 349.764C97.9174 341.843 76.4498 371.576 51.079 384.548C72.317 362.851 94.9326 338.513 101.935 326.574C108.135 315.898 115.941 297.415 122.829 279.965C122.485 294.43 114.793 316.472 116.974 328.067C116.974 328.067 108.709 330.133 110.316 339.202C112.038 348.501 128.225 362.047 128.225 362.047Z" fill="#92E3A9"/>
<path d="M277.924 310.732C277.924 310.732 246.124 373.183 188.724 387.303C188.724 387.303 186.543 399.702 176.785 404.983C171.619 407.853 150.611 439.193 132.243 467.778" stroke="#263238" stroke-miterlimit="10" stroke-linecap="round" stroke-linejoin="round"/>
<path d="M30.415 405.442C54.9822 381.219 92.6366 342.761 101.935 326.689C116.056 302.351 138.671 237.375 138.671 237.375L225.919 140.369" stroke="#263238" stroke-miterlimit="10" stroke-linecap="round" stroke-linejoin="round"/>
<path d="M176.211 214.415C176.211 214.415 189.643 226.469 193.431 237.375" stroke="#263238" stroke-miterlimit="10" stroke-linecap="round" stroke-linejoin="round"/>
<path d="M334.52 362.047H190.217C185.969 362.047 182.525 358.603 182.525 354.356V47.1511C182.525 42.9035 185.969 39.4595 190.217 39.4595H334.52C338.768 39.4595 342.212 42.9035 342.212 47.1511V354.356C342.212 358.603 338.768 362.047 334.52 362.047Z" fill="#263238"/>
<path d="M293.996 48.2991L290.896 53.9243C290.207 55.1871 288.945 55.8759 287.567 55.8759H237.055C235.677 55.8759 234.415 55.0723 233.726 53.9243L230.626 48.2991C229.937 47.0363 228.675 46.3475 227.297 46.3475H192.053C189.987 46.3475 188.265 48.0695 188.265 50.1359V352.06C188.265 354.126 189.987 355.848 192.053 355.848H332.683C334.75 355.848 336.472 354.126 336.472 352.06V50.1359C336.472 48.0695 334.75 46.3475 332.683 46.3475H297.44C295.947 46.2327 294.685 47.0363 293.996 48.2991Z" fill="#92E3A9" stroke="#263238" stroke-miterlimit="10" stroke-linecap="round" stroke-linejoin="round"/>
<path d="M251.405 50.9395C252.546 50.9395 253.471 50.0143 253.471 48.8731C253.471 47.7318 252.546 46.8067 251.405 46.8067C250.264 46.8067 249.339 47.7318 249.339 48.8731C249.339 50.0143 250.264 50.9395 251.405 50.9395Z" stroke="white" stroke-miterlimit="10"/>
<path d="M275.398 48.8731C275.398 49.5619 274.824 50.1359 274.135 50.1359C273.447 50.1359 272.873 49.5619 272.873 48.8731C272.873 48.1843 273.447 47.6103 274.135 47.6103C274.824 47.6103 275.398 48.1843 275.398 48.8731Z" stroke="white" stroke-miterlimit="10"/>
<path d="M269.658 48.0695H257.145C256.686 48.0695 256.341 48.4139 256.341 48.8731C256.341 49.3323 256.686 49.6767 257.145 49.6767H269.658C270.117 49.6767 270.462 49.3323 270.462 48.8731C270.462 48.5287 270.117 48.0695 269.658 48.0695Z" fill="white"/>
<path d="M214.325 53.9243H200.893V59.6643H214.325V53.9243Z" stroke="#263238" stroke-miterlimit="10" stroke-linecap="round" stroke-linejoin="round"/>
<path d="M216.391 54.9575H214.325V58.7459H216.391V54.9575Z" stroke="#263238" stroke-miterlimit="10" stroke-linecap="round" stroke-linejoin="round"/>
<path d="M309.838 57.5979H307.427V59.6643H309.838V57.5979Z" stroke="#263238" stroke-miterlimit="10" stroke-linecap="round" stroke-linejoin="round"/>
<path d="M314.43 55.5315H312.019V59.6643H314.43V55.5315Z" stroke="#263238" stroke-miterlimit="10" stroke-linecap="round" stroke-linejoin="round"/>
<path d="M319.137 53.4651H316.726V59.6643H319.137V53.4651Z" stroke="#263238" stroke-miterlimit="10" stroke-linecap="round" stroke-linejoin="round"/>
<path d="M323.844 51.2839H321.433V59.6643H323.844V51.2839Z" stroke="#263238" stroke-miterlimit="10" stroke-linecap="round" stroke-linejoin="round"/>
<path opacity="0.5" d="M335.439 113.046H189.183V252.528H335.439V113.046Z" fill="white"/>
<path d="M229.593 90.6603V93.0711C229.593 96.0559 228.101 97.6631 225.231 97.6631H223.853V104.666H220.868V85.9535H225.231C228.101 86.0683 229.593 87.6755 229.593 90.6603ZM223.853 88.7087V95.0227H225.231C226.149 95.0227 226.723 94.5635 226.723 93.3007V90.5455C226.723 89.1679 226.264 88.8235 225.231 88.8235H223.853V88.7087Z" fill="#263238"/>
<path d="M240.155 104.781H237.17L236.711 101.337H233.152L232.693 104.781H230.052L233.037 86.0683H237.285L240.155 104.781ZM233.381 98.8111H236.251L234.874 89.3975L233.381 98.8111Z" fill="#263238"/>
<path d="M242.91 98.5815L239.236 86.0683H242.336L244.517 94.5635L246.698 86.0683H249.453L245.78 98.5815V104.781H242.795V98.5815H242.91Z" fill="#263238"/>
<path d="M256.915 99.3851L258.982 86.0683H263.115V104.781H260.359V91.3491L258.408 104.781H255.653L253.471 91.5787V104.781H250.946V86.0683H255.079L256.915 99.3851Z" fill="#263238"/>
<path d="M268.166 93.9895H272.184V96.6299H268.166V102.14H273.217V104.781H265.181V86.0683H273.217V88.7087H268.166V93.9895Z" fill="#263238"/>
<path d="M277.694 91.2343V104.781H275.054V86.0683H278.727L281.712 97.2039V86.0683H284.353V104.781H281.368L277.694 91.2343Z" fill="#263238"/>
<path d="M285.615 86.0683H294.685V88.7087H291.585V104.781H288.6V88.7087H285.501V86.0683H285.615Z" fill="#263238"/>
<path d="M299.851 85.8387C302.721 85.8387 304.213 87.5607 304.213 90.5455V91.1195H301.458V90.3159C301.458 88.9383 300.884 88.4791 299.965 88.4791C299.047 88.4791 298.473 88.9383 298.473 90.3159C298.473 91.6935 299.047 92.7267 300.999 94.3339C303.409 96.5151 304.213 98.0075 304.213 100.189C304.213 103.173 302.721 104.895 299.851 104.895C296.981 104.895 295.488 103.173 295.488 100.189V99.0407H298.243V100.418C298.243 101.796 298.817 102.255 299.736 102.255C300.654 102.255 301.228 101.796 301.228 100.418C301.228 99.0407 300.654 98.0075 298.703 96.4003C296.292 94.2191 295.488 92.7267 295.488 90.5455C295.603 87.5607 296.981 85.8387 299.851 85.8387Z" fill="#263238"/>
<path d="M323.729 129.922H200.893V148.29H323.729V129.922Z" fill="white" stroke="#263238" stroke-miterlimit="10" stroke-linecap="round" stroke-linejoin="round"/>
<path d="M323.729 164.362H200.893V182.73H323.729V164.362Z" fill="white" stroke="#263238" stroke-miterlimit="10" stroke-linecap="round" stroke-linejoin="round"/>
<path d="M323.729 195.702H200.893V214.07H323.729V195.702Z" fill="white" stroke="#263238" stroke-miterlimit="10" stroke-linecap="round" stroke-linejoin="round"/>
<path d="M259.097 220.729H200.893V242.196H259.097V220.729Z" fill="white" stroke="#263238" stroke-miterlimit="10" stroke-linecap="round" stroke-linejoin="round"/>
<path d="M323.844 220.729H265.64V242.196H323.844V220.729Z" fill="white" stroke="#263238" stroke-miterlimit="10" stroke-linecap="round" stroke-linejoin="round"/>
<path d="M208.585 126.707V127.167H204.796V121.771H208.47V122.23H205.37V124.182H208.125V124.641H205.37V126.707H208.585Z" fill="#263238"/>
<path d="M216.506 124.871V127.281H215.932V124.985C215.932 124.067 215.473 123.723 214.784 123.723C213.98 123.723 213.406 124.297 213.406 125.215V127.396H212.832V125.1C212.832 124.182 212.373 123.837 211.684 123.837C210.881 123.837 210.307 124.411 210.307 125.33V127.511H209.733V123.378H210.307V124.067C210.536 123.608 211.11 123.263 211.799 123.263C212.488 123.263 212.947 123.493 213.291 124.182C213.636 123.608 214.21 123.263 214.899 123.263C215.932 123.149 216.506 123.723 216.506 124.871Z" fill="#263238"/>
<path d="M221.098 124.641V127.167H220.524V126.478C220.294 126.937 219.835 127.167 219.146 127.167C218.228 127.167 217.654 126.707 217.654 126.019C217.654 125.445 218.113 124.871 219.261 124.871H220.524V124.641C220.524 123.952 220.179 123.608 219.376 123.608C218.802 123.608 218.343 123.837 217.998 124.067L217.769 123.608C218.228 123.263 218.802 123.034 219.376 123.034C220.524 123.149 221.098 123.608 221.098 124.641ZM220.524 126.019V125.33H219.261C218.457 125.33 218.228 125.674 218.228 126.019C218.228 126.478 218.572 126.822 219.261 126.822C219.835 126.822 220.294 126.478 220.524 126.019Z" fill="#263238"/>
<path d="M222.475 121.886C222.475 121.656 222.705 121.541 222.935 121.541C223.164 121.541 223.394 121.656 223.394 121.886C223.394 122.115 223.279 122.345 222.935 122.345C222.705 122.23 222.475 122.001 222.475 121.886ZM222.59 123.149H223.164V127.281H222.59V123.149Z" fill="#263238"/>
<path d="M224.657 121.427H225.231V127.167H224.657V121.427Z" fill="#263238"/>
<path d="M212.373 140.828V141.287H208.585V135.891H212.258V136.351H209.044V138.302H211.799V138.761H209.044V140.828H212.373Z" fill="#263238"/>
<path d="M220.294 138.876V141.287H219.72V138.991C219.72 138.073 219.261 137.728 218.572 137.728C217.769 137.728 217.195 138.302 217.195 139.221V141.402H216.621V139.106C216.621 138.187 216.161 137.843 215.473 137.843C214.669 137.843 214.095 138.417 214.095 139.335V141.517H213.636V137.384H214.21V138.073C214.439 137.613 215.013 137.269 215.702 137.269C216.391 137.269 216.85 137.499 217.195 138.187C217.539 137.613 218.113 137.269 218.802 137.269C219.72 137.154 220.294 137.728 220.294 138.876Z" fill="#263238"/>
<path d="M224.886 138.761V141.287H224.312V140.598C224.083 141.057 223.623 141.287 222.935 141.287C222.016 141.287 221.442 140.828 221.442 140.139C221.442 139.565 221.901 138.991 223.049 138.991H224.312V138.761C224.312 138.073 223.968 137.728 223.164 137.728C222.59 137.728 222.131 137.958 221.787 138.187L221.557 137.728C222.016 137.384 222.59 137.154 223.164 137.154C224.312 137.154 224.886 137.728 224.886 138.761ZM224.312 140.024V139.335H223.049C222.246 139.335 222.016 139.68 222.016 140.024C222.016 140.483 222.361 140.828 223.049 140.828C223.623 140.943 224.083 140.598 224.312 140.024Z" fill="#263238"/>
<path d="M226.264 135.891C226.264 135.662 226.493 135.547 226.723 135.547C226.953 135.547 227.182 135.662 227.182 135.891C227.182 136.121 227.067 136.351 226.723 136.351C226.493 136.351 226.264 136.121 226.264 135.891ZM226.379 137.269H226.953V141.402H226.379V137.269Z" fill="#263238"/>
<path d="M228.445 135.547H229.019V141.287H228.445V135.547Z" fill="#263238"/>
<path d="M234.3 138.876V141.287H233.726V138.991C233.726 138.073 233.267 137.728 232.463 137.728C231.545 137.728 231.085 138.302 231.085 139.221V141.402H230.511V137.269H231.085V138.073C231.43 137.613 231.889 137.269 232.693 137.269C233.611 137.154 234.3 137.728 234.3 138.876Z" fill="#263238"/>
<path d="M238.892 138.761V141.287H238.318V140.598C238.088 141.057 237.629 141.287 236.94 141.287C236.022 141.287 235.448 140.828 235.448 140.139C235.448 139.565 235.907 138.991 237.055 138.991H238.318V138.761C238.318 138.073 237.973 137.728 237.17 137.728C236.596 137.728 236.137 137.958 235.792 138.187L235.563 137.728C236.022 137.384 236.596 137.154 237.17 137.154C238.318 137.154 238.892 137.728 238.892 138.761ZM238.318 140.024V139.335H237.055C236.251 139.335 236.022 139.68 236.022 140.024C236.022 140.483 236.366 140.828 237.055 140.828C237.629 140.943 238.088 140.598 238.318 140.024Z" fill="#263238"/>
<path d="M247.157 138.876V141.287H246.583V138.991C246.583 138.073 246.124 137.728 245.435 137.728C244.632 137.728 244.058 138.302 244.058 139.221V141.402H243.484V139.106C243.484 138.187 243.025 137.843 242.336 137.843C241.532 137.843 240.958 138.417 240.958 139.335V141.517H240.384V137.384H240.958V138.073C241.188 137.613 241.762 137.269 242.451 137.269C243.139 137.269 243.599 137.499 243.943 138.187C244.287 137.613 244.861 137.269 245.55 137.269C246.469 137.154 247.157 137.728 247.157 138.876Z" fill="#263238"/>
<path d="M252.209 139.45H248.765C248.879 140.254 249.453 140.828 250.372 140.828C250.831 140.828 251.29 140.598 251.635 140.254L251.979 140.598C251.635 141.057 251.061 141.287 250.372 141.287C249.109 141.287 248.191 140.369 248.191 139.221C248.191 137.958 248.994 137.154 250.142 137.154C251.29 137.154 252.094 137.958 252.094 139.221C252.209 139.335 252.209 139.335 252.209 139.45ZM248.765 138.991H251.635C251.52 138.187 250.946 137.613 250.142 137.613C249.453 137.613 248.879 138.187 248.765 138.991Z" fill="#263238"/>
<path d="M260.13 139.221C260.13 140.483 259.671 141.287 258.867 141.287C258.408 141.287 258.063 140.943 257.949 140.483C257.604 141.057 257.03 141.287 256.341 141.287C255.193 141.287 254.39 140.483 254.39 139.221C254.39 138.073 255.193 137.269 256.341 137.269C257.03 137.269 257.604 137.613 257.834 138.073V137.384H258.293V140.369C258.293 140.828 258.523 140.943 258.752 140.943C259.211 140.943 259.556 140.369 259.556 139.335C259.556 137.499 258.293 136.351 256.341 136.351C254.39 136.351 253.127 137.613 253.127 139.45C253.127 141.287 254.39 142.55 256.341 142.55C256.801 142.55 257.375 142.435 257.834 142.205L257.949 142.55C257.489 142.779 256.801 142.894 256.341 142.894C254.16 142.894 252.783 141.402 252.783 139.335C252.783 137.269 254.275 135.777 256.456 135.777C258.637 135.777 260.13 137.154 260.13 139.221ZM258.063 139.335C258.063 138.417 257.375 137.843 256.571 137.843C255.653 137.843 255.079 138.417 255.079 139.335C255.079 140.254 255.653 140.943 256.571 140.943C257.375 140.943 258.063 140.254 258.063 139.335Z" fill="#263238"/>
<path d="M264.951 139.45H261.507C261.622 140.254 262.196 140.828 263.115 140.828C263.574 140.828 264.033 140.598 264.377 140.254L264.722 140.598C264.377 141.057 263.803 141.287 263.115 141.287C261.852 141.287 260.933 140.369 260.933 139.221C260.933 137.958 261.737 137.154 262.885 137.154C264.033 137.154 264.837 137.958 264.837 139.221C264.951 139.335 264.951 139.335 264.951 139.45ZM261.507 138.991H264.377C264.263 138.187 263.689 137.613 262.885 137.613C262.081 137.613 261.507 138.187 261.507 138.991Z" fill="#263238"/>
<path d="M272.758 138.876V141.287H272.184V138.991C272.184 138.073 271.725 137.728 271.036 137.728C270.232 137.728 269.658 138.302 269.658 139.221V141.402H269.084V139.106C269.084 138.187 268.625 137.843 267.936 137.843C267.133 137.843 266.559 138.417 266.559 139.335V141.517H265.985V137.384H266.559V138.073C266.788 137.613 267.362 137.269 268.051 137.269C268.74 137.269 269.199 137.499 269.543 138.187C269.888 137.613 270.462 137.269 271.151 137.269C272.069 137.154 272.758 137.728 272.758 138.876Z" fill="#263238"/>
<path d="M277.35 138.761V141.287H276.776V140.598C276.546 141.057 276.087 141.287 275.398 141.287C274.48 141.287 273.906 140.828 273.906 140.139C273.906 139.565 274.365 138.991 275.513 138.991H276.776V138.761C276.776 138.073 276.431 137.728 275.628 137.728C275.054 137.728 274.595 137.958 274.25 138.187L274.021 137.728C274.48 137.384 275.054 137.154 275.628 137.154C276.776 137.154 277.35 137.728 277.35 138.761ZM276.776 140.024V139.335H275.513C274.709 139.335 274.48 139.68 274.48 140.024C274.48 140.483 274.824 140.828 275.513 140.828C276.087 140.943 276.546 140.598 276.776 140.024Z" fill="#263238"/>
<path d="M278.727 135.891C278.727 135.662 278.957 135.547 279.187 135.547C279.416 135.547 279.646 135.662 279.646 135.891C279.646 136.121 279.531 136.351 279.187 136.351C278.842 136.351 278.727 136.121 278.727 135.891ZM278.842 137.269H279.416V141.402H278.842V137.269Z" fill="#263238"/>
<path d="M280.909 135.547H281.483V141.287H280.909V135.547Z" fill="#263238"/>
<path d="M282.631 140.943C282.631 140.713 282.86 140.483 283.09 140.483C283.319 140.483 283.549 140.713 283.549 140.943C283.549 141.172 283.319 141.402 283.09 141.402C282.86 141.287 282.631 141.172 282.631 140.943Z" fill="#263238"/>
<path d="M284.123 139.221C284.123 137.958 285.041 137.154 286.189 137.154C286.878 137.154 287.452 137.384 287.797 137.958L287.337 138.187C287.108 137.728 286.649 137.613 286.189 137.613C285.271 137.613 284.697 138.302 284.697 139.221C284.697 140.139 285.386 140.828 286.189 140.828C286.649 140.828 287.108 140.598 287.337 140.254L287.797 140.483C287.452 141.057 286.878 141.287 286.189 141.287C285.041 141.287 284.123 140.483 284.123 139.221Z" fill="#263238"/>
<path d="M288.371 139.221C288.371 137.958 289.289 137.154 290.437 137.154C291.585 137.154 292.503 138.073 292.503 139.221C292.503 140.483 291.585 141.287 290.437 141.287C289.289 141.287 288.371 140.483 288.371 139.221ZM292.044 139.221C292.044 138.302 291.355 137.613 290.552 137.613C289.633 137.613 289.059 138.302 289.059 139.221C289.059 140.139 289.748 140.828 290.552 140.828C291.355 140.828 292.044 140.254 292.044 139.221Z" fill="#263238"/>
<path d="M300.425 138.876V141.287H299.851V138.991C299.851 138.073 299.391 137.728 298.703 137.728C297.899 137.728 297.325 138.302 297.325 139.221V141.402H296.751V139.106C296.751 138.187 296.292 137.843 295.603 137.843C294.799 137.843 294.225 138.417 294.225 139.335V141.517H293.651V137.384H294.225V138.073C294.455 137.613 295.029 137.269 295.718 137.269C296.407 137.269 296.866 137.499 297.21 138.187C297.555 137.613 298.129 137.269 298.817 137.269C299.736 137.154 300.425 137.728 300.425 138.876Z" fill="#263238"/>
<path d="M209.503 173.661L210.421 174.235L210.192 174.579L209.273 174.005V175.153H208.929V174.005L208.011 174.579L207.781 174.235L208.699 173.661L207.781 173.087L208.011 172.742L208.929 173.316V172.168H209.273V173.316L210.192 172.742L210.421 173.087L209.503 173.661Z" fill="#263238"/>
<path d="M212.603 173.661L213.521 174.235L213.291 174.579L212.373 174.005V175.153H212.029V174.005L211.11 174.579L210.881 174.235L211.799 173.661L210.881 173.087L211.11 172.742L212.029 173.316V172.168H212.373V173.316L213.291 172.742L213.521 173.087L212.603 173.661Z" fill="#263238"/>
<path d="M215.817 173.661L216.735 174.235L216.506 174.579L215.587 174.005V175.153H215.243V174.005L214.325 174.579L214.095 174.235L215.013 173.661L214.095 173.087L214.325 172.742L215.243 173.316V172.168H215.587V173.316L216.506 172.742L216.735 173.087L215.817 173.661Z" fill="#263238"/>
<path d="M218.917 173.661L219.835 174.235L219.605 174.579L218.687 174.005V175.153H218.343V174.005L217.424 174.579L217.195 174.235L218.113 173.661L217.195 173.087L217.424 172.742L218.343 173.316V172.168H218.687V173.316L219.605 172.742L219.835 173.087L218.917 173.661Z" fill="#263238"/>
<path d="M222.131 173.661L223.049 174.235L222.82 174.579L221.901 174.005V175.153H221.557V174.005L220.639 174.579L220.409 174.235L221.327 173.661L220.409 173.087L220.639 172.742L221.557 173.316V172.168H221.901V173.316L222.82 172.742L223.049 173.087L222.131 173.661Z" fill="#263238"/>
<path d="M225.231 173.661L226.149 174.235L225.919 174.579L225.001 174.005V175.153H224.657V174.005L223.738 174.579L223.509 174.235L224.427 173.661L223.509 173.087L223.738 172.742L224.657 173.316V172.168H225.001V173.316L225.919 172.742L226.149 173.087L225.231 173.661Z" fill="#263238"/>
<path d="M228.445 173.661L229.363 174.235L229.134 174.579L228.215 174.005V175.153H227.871V174.005L226.953 174.579L226.723 174.235L227.641 173.661L226.723 173.087L226.953 172.742L227.871 173.316V172.168H228.215V173.316L229.134 172.742L229.363 173.087L228.445 173.661Z" fill="#263238"/>
<path d="M231.545 173.661L232.463 174.235L232.233 174.579L231.315 174.005V175.153H230.971V174.005L230.052 174.579L229.823 174.235L230.741 173.661L229.823 173.087L230.052 172.742L230.971 173.316V172.168H231.315V173.316L232.233 172.742L232.463 173.087L231.545 173.661Z" fill="#263238"/>
<path d="M234.644 173.661L235.563 174.235L235.333 174.579L234.415 174.005V175.153H234.07V174.005L233.152 174.579L232.922 174.235L233.841 173.661L232.922 173.087L233.152 172.742L234.07 173.316V172.168H234.415V173.316L235.333 172.742L235.563 173.087L234.644 173.661Z" fill="#263238"/>
<path d="M237.859 173.661L238.777 174.235L238.547 174.579L237.629 174.005V175.153H237.285V174.005L236.366 174.579L236.137 174.235L237.055 173.661L236.137 173.087L236.366 172.742L237.285 173.316V172.168H237.629V173.316L238.547 172.742L238.777 173.087L237.859 173.661Z" fill="#263238"/>
<path d="M240.958 173.661L241.877 174.235L241.647 174.579L240.729 174.005V175.153H240.384V174.005L239.466 174.579L239.236 174.235L240.155 173.661L239.236 173.087L239.466 172.742L240.384 173.316V172.168H240.729V173.316L241.647 172.742L241.877 173.087L240.958 173.661Z" fill="#263238"/>
<path d="M208.929 158.048C208.929 159.196 208.125 159.885 206.748 159.885H205.255V161.607H204.681V156.211H206.748C208.125 156.211 208.929 156.9 208.929 158.048ZM208.355 158.048C208.355 157.129 207.781 156.67 206.748 156.67H205.255V159.425H206.748C207.781 159.425 208.355 158.966 208.355 158.048Z" fill="#263238"/>
<path d="M213.177 159.081V161.607H212.603V160.918C212.373 161.377 211.914 161.607 211.225 161.607C210.307 161.607 209.733 161.147 209.733 160.459C209.733 159.885 210.192 159.311 211.34 159.311H212.603V159.081C212.603 158.392 212.258 158.048 211.455 158.048C210.881 158.048 210.421 158.277 210.077 158.507L209.847 158.048C210.307 157.703 210.881 157.474 211.455 157.474C212.488 157.474 213.177 158.048 213.177 159.081ZM212.603 160.459V159.77H211.34C210.536 159.77 210.307 160.114 210.307 160.459C210.307 160.918 210.651 161.262 211.34 161.262C211.914 161.262 212.373 160.918 212.603 160.459Z" fill="#263238"/>
<path d="M214.095 161.147L214.325 160.688C214.669 160.918 215.243 161.147 215.817 161.147C216.621 161.147 216.965 160.918 216.965 160.459C216.965 159.425 214.325 160.229 214.325 158.622C214.325 157.933 214.899 157.474 215.932 157.474C216.506 157.474 217.08 157.589 217.424 157.818L217.195 158.277C216.85 158.048 216.391 157.933 216.047 157.933C215.358 157.933 215.013 158.277 215.013 158.622C215.013 159.77 217.654 158.851 217.654 160.459C217.654 161.147 217.08 161.607 215.932 161.607C215.013 161.721 214.439 161.492 214.095 161.147Z" fill="#263238"/>
<path d="M217.883 161.147L218.113 160.688C218.457 160.918 219.031 161.147 219.605 161.147C220.409 161.147 220.753 160.918 220.753 160.459C220.753 159.425 218.113 160.229 218.113 158.622C218.113 157.933 218.687 157.474 219.72 157.474C220.294 157.474 220.868 157.589 221.213 157.818L220.983 158.277C220.639 158.048 220.179 157.933 219.835 157.933C219.146 157.933 218.802 158.277 218.802 158.622C218.802 159.77 221.442 158.851 221.442 160.459C221.442 161.147 220.868 161.607 219.72 161.607C218.802 161.721 218.228 161.492 217.883 161.147Z" fill="#263238"/>
<path d="M228.101 157.589L226.608 161.721H226.034L224.771 158.392L223.509 161.721H222.935L221.442 157.589H222.016L223.279 161.033L224.542 157.589H225.001L226.264 161.033L227.527 157.589H228.101Z" fill="#263238"/>
<path d="M228.445 159.655C228.445 158.392 229.363 157.589 230.511 157.589C231.659 157.589 232.578 158.507 232.578 159.655C232.578 160.803 231.659 161.721 230.511 161.721C229.363 161.721 228.445 160.803 228.445 159.655ZM232.004 159.655C232.004 158.737 231.315 158.048 230.511 158.048C229.593 158.048 229.019 158.737 229.019 159.655C229.019 160.573 229.708 161.262 230.511 161.262C231.43 161.147 232.004 160.573 232.004 159.655Z" fill="#263238"/>
<path d="M235.792 157.474V158.048H235.677C234.874 158.048 234.3 158.622 234.3 159.54V161.607H233.726V157.474H234.3V158.277C234.529 157.818 234.989 157.474 235.792 157.474Z" fill="#263238"/>
<path d="M240.499 155.867V161.607H239.925V160.803C239.581 161.377 239.007 161.607 238.318 161.607C237.17 161.607 236.251 160.803 236.251 159.54C236.251 158.277 237.17 157.474 238.318 157.474C239.007 157.474 239.581 157.703 239.925 158.277V155.867H240.499ZM239.925 159.655C239.925 158.737 239.236 158.048 238.433 158.048C237.514 158.048 236.94 158.737 236.94 159.655C236.94 160.573 237.629 161.262 238.433 161.262C239.236 161.147 239.925 160.573 239.925 159.655Z" fill="#263238"/>
<path d="M248.65 202.82V208.215H248.076V203.279H246.813V202.82H248.65Z" fill="#263238"/>
<path d="M253.586 207.756V208.215H249.798V207.871L252.094 205.69C252.668 205.116 252.783 204.771 252.783 204.312C252.783 203.738 252.323 203.279 251.52 203.279C250.831 203.279 250.372 203.509 250.027 203.853L249.683 203.509C250.142 203.049 250.831 202.705 251.635 202.705C252.783 202.705 253.471 203.279 253.471 204.197C253.471 204.771 253.357 205.231 252.553 205.919L250.716 207.756H253.586Z" fill="#263238"/>
<path d="M257.949 206.723C257.949 207.641 257.26 208.33 255.997 208.33C255.193 208.33 254.505 208.101 254.045 207.641L254.275 207.182C254.619 207.527 255.308 207.756 255.997 207.756C256.915 207.756 257.375 207.297 257.375 206.608C257.375 205.919 256.915 205.575 255.882 205.575H255.538V205.116L257.03 203.279H254.275V202.82H257.719V203.164L256.112 205.116C257.375 205.231 257.949 205.805 257.949 206.723Z" fill="#263238"/>
<path d="M263.344 206.838H262.311V208.215H261.737V206.838H258.637V206.379L261.507 202.82H262.081L259.326 206.379H261.737V205.116H262.311V206.379H263.344V206.838Z" fill="#263238"/>
<path d="M269.543 206.608C269.543 207.527 268.855 208.215 267.592 208.215C266.788 208.215 266.099 207.986 265.64 207.527L265.87 207.067C266.214 207.412 266.788 207.641 267.592 207.641C268.51 207.641 268.969 207.182 268.969 206.493C268.969 205.805 268.51 205.345 267.133 205.345H265.985L266.214 202.59H269.199V203.049H266.673L266.444 204.771H267.133C268.855 205.001 269.543 205.69 269.543 206.608Z" fill="#263238"/>
<path d="M274.365 206.608C274.365 207.641 273.561 208.33 272.528 208.33C271.036 208.33 270.347 207.297 270.347 205.575C270.347 203.738 271.38 202.82 272.873 202.82C273.332 202.82 273.791 202.935 274.135 203.164L273.906 203.623C273.676 203.394 273.217 203.394 272.873 203.394C271.725 203.394 270.921 204.197 270.921 205.575C270.921 205.69 270.921 205.805 270.921 206.034C271.151 205.46 271.839 205.116 272.528 205.116C273.561 205.001 274.365 205.575 274.365 206.608ZM273.791 206.608C273.791 205.919 273.217 205.46 272.413 205.46C271.61 205.46 271.036 205.919 271.036 206.608C271.036 207.182 271.495 207.756 272.528 207.756C273.217 207.756 273.791 207.297 273.791 206.608Z" fill="#263238"/>
<path d="M278.727 202.82V203.164L276.431 208.215H275.857L278.039 203.279H275.283V204.312H274.709V202.82H278.727Z" fill="#263238"/>
<path d="M283.434 206.723C283.434 207.641 282.631 208.33 281.368 208.33C280.105 208.33 279.301 207.756 279.301 206.723C279.301 206.034 279.646 205.575 280.335 205.345C279.761 205.116 279.531 204.771 279.531 204.197C279.531 203.279 280.335 202.705 281.483 202.705C282.631 202.705 283.434 203.279 283.434 204.197C283.434 204.771 283.09 205.231 282.516 205.345C283.09 205.575 283.434 206.034 283.434 206.723ZM282.86 206.723C282.86 206.034 282.286 205.69 281.368 205.69C280.449 205.69 279.875 206.149 279.875 206.723C279.875 207.412 280.449 207.871 281.368 207.871C282.286 207.756 282.86 207.412 282.86 206.723ZM281.368 205.231C282.171 205.231 282.745 204.886 282.745 204.312C282.745 203.738 282.171 203.279 281.368 203.279C280.564 203.279 279.99 203.623 279.99 204.312C279.99 204.771 280.564 205.231 281.368 205.231Z" fill="#263238"/>
<path d="M290.207 205.46C290.207 207.297 289.174 208.215 287.682 208.215C287.223 208.215 286.763 208.101 286.419 207.871L286.649 207.412C286.878 207.641 287.337 207.641 287.682 207.641C288.83 207.641 289.633 206.838 289.633 205.46C289.633 205.345 289.633 205.231 289.633 205.001C289.404 205.575 288.715 205.919 288.026 205.919C286.993 205.919 286.189 205.231 286.189 204.312C286.189 203.279 286.993 202.59 288.026 202.59C289.404 202.705 290.207 203.738 290.207 205.46ZM289.404 204.427C289.404 203.853 288.945 203.279 288.026 203.279C287.223 203.279 286.649 203.738 286.649 204.427C286.649 205.116 287.223 205.575 288.026 205.575C288.83 205.575 289.404 205.116 289.404 204.427Z" fill="#263238"/>
<path d="M292.503 202.82V208.215H291.929V203.279H290.667V202.82H292.503Z" fill="#263238"/>
<path d="M293.766 205.575C293.766 203.853 294.685 202.82 295.947 202.82C297.21 202.82 298.129 203.853 298.129 205.575C298.129 207.297 297.21 208.33 295.947 208.33C294.685 208.33 293.766 207.297 293.766 205.575ZM297.555 205.575C297.555 204.083 296.866 203.279 295.947 203.279C295.029 203.279 294.34 204.083 294.34 205.575C294.34 207.067 295.029 207.871 295.947 207.871C296.866 207.756 297.555 206.953 297.555 205.575Z" fill="#263238"/>
<path d="M300.425 202.82V208.215H299.851V203.279H298.588V202.82H300.425Z" fill="#263238"/>
<path d="M305.246 202.82V208.215H304.672V203.279H303.409V202.82H305.246Z" fill="#263238"/>
<path d="M308.116 202.82V208.215H307.542V203.279H306.279V202.82H308.116Z" fill="#263238"/>
<path d="M313.053 207.756V208.215H309.264V207.871L311.56 205.69C312.134 205.116 312.249 204.771 312.249 204.312C312.249 203.738 311.79 203.279 310.986 203.279C310.297 203.279 309.838 203.509 309.494 203.853L309.149 203.509C309.609 203.049 310.297 202.705 311.101 202.705C312.249 202.705 312.938 203.279 312.938 204.197C312.938 204.771 312.823 205.231 312.019 205.919L310.183 207.756H313.053Z" fill="#263238"/>
<path d="M315.234 202.82V208.215H314.66V203.279H313.397V202.82H315.234Z" fill="#263238"/>
<path d="M223.738 201.557V200.753C223.738 199.95 223.049 199.261 222.246 199.261H207.551C206.748 199.261 206.059 199.95 206.059 200.753V201.557H223.738Z" fill="#263238"/>
<path d="M206.174 202.705V208.789C206.174 209.593 206.863 210.282 207.666 210.282H222.361C223.164 210.282 223.853 209.593 223.853 208.789V202.705H206.174Z" fill="#263238"/>
<path d="M206.403 234.734C206.403 233.012 207.322 231.979 208.585 231.979C209.847 231.979 210.766 233.012 210.766 234.734C210.766 236.456 209.847 237.489 208.585 237.489C207.322 237.489 206.403 236.456 206.403 234.734ZM210.192 234.734C210.192 233.242 209.503 232.438 208.585 232.438C207.666 232.438 206.977 233.242 206.977 234.734C206.977 236.227 207.666 237.03 208.585 237.03C209.503 237.03 210.192 236.227 210.192 234.734Z" fill="#263238"/>
<path d="M215.702 235.882C215.702 236.801 214.899 237.489 213.636 237.489C212.373 237.489 211.569 236.915 211.569 235.882C211.569 235.193 211.914 234.734 212.603 234.505C212.029 234.275 211.799 233.931 211.799 233.357C211.799 232.438 212.603 231.864 213.751 231.864C214.899 231.864 215.702 232.438 215.702 233.357C215.702 233.931 215.358 234.39 214.784 234.505C215.358 234.849 215.702 235.308 215.702 235.882ZM215.128 235.882C215.128 235.193 214.554 234.849 213.636 234.849C212.717 234.849 212.143 235.308 212.143 235.882C212.143 236.571 212.717 237.03 213.636 237.03C214.554 237.03 215.128 236.571 215.128 235.882ZM213.636 234.39C214.439 234.39 215.013 234.045 215.013 233.471C215.013 232.897 214.439 232.438 213.636 232.438C212.832 232.438 212.258 232.783 212.258 233.471C212.258 234.045 212.717 234.39 213.636 234.39Z" fill="#263238"/>
<path d="M218.457 230.946H218.917L216.391 238.293H215.932L218.457 230.946Z" fill="#263238"/>
<path d="M222.82 236.915V237.375H219.031V237.03L221.327 234.849C221.901 234.275 222.016 233.931 222.016 233.471C222.016 232.897 221.557 232.438 220.753 232.438C220.065 232.438 219.605 232.668 219.261 233.012L218.917 232.668C219.376 232.209 220.065 231.864 220.868 231.864C222.016 231.864 222.705 232.438 222.705 233.357C222.705 233.931 222.59 234.39 221.787 235.079L219.95 236.915H222.82Z" fill="#263238"/>
<path d="M227.182 235.882C227.182 236.801 226.493 237.489 225.231 237.489C224.427 237.489 223.738 237.26 223.279 236.801L223.509 236.341C223.853 236.686 224.427 236.915 225.231 236.915C226.149 236.915 226.608 236.456 226.608 235.767C226.608 235.079 226.149 234.619 224.771 234.619H223.623L223.853 231.864H226.838V232.323H224.312L224.083 234.045H224.771C226.493 234.275 227.182 234.849 227.182 235.882Z" fill="#263238"/>
<path d="M208.929 228.535V228.879H206.518V225.55H208.814V225.895H206.863V227.043H208.585V227.387H206.863V228.65H208.929V228.535Z" fill="#263238"/>
<path d="M211.799 228.879L210.766 227.387L209.733 228.879H209.273L210.536 227.157L209.388 225.55H209.847L210.881 226.928L211.914 225.55H212.258L211.11 227.157L212.373 228.879H211.799Z" fill="#263238"/>
<path d="M215.358 226.583C215.358 227.272 214.784 227.731 213.98 227.731H213.062V228.765H212.717V225.435H213.98C214.899 225.435 215.358 225.895 215.358 226.583ZM215.013 226.583C215.013 226.009 214.669 225.78 213.98 225.78H213.062V227.502H213.98C214.669 227.502 215.013 227.157 215.013 226.583Z" fill="#263238"/>
<path d="M217.539 225.435H218.917C219.95 225.435 220.753 226.124 220.753 227.157C220.753 228.191 220.065 228.879 218.917 228.879H217.539V225.435ZM218.802 228.535C219.72 228.535 220.294 227.961 220.294 227.157C220.294 226.354 219.72 225.78 218.802 225.78H217.769V228.535H218.802Z" fill="#263238"/>
<path d="M223.279 227.272V228.879H222.935V228.535C222.82 228.765 222.475 228.994 222.016 228.994C221.442 228.994 221.098 228.65 221.098 228.305C221.098 227.961 221.327 227.617 222.131 227.617H222.935V227.502C222.935 227.043 222.705 226.813 222.246 226.813C221.901 226.813 221.557 226.928 221.442 227.157L221.327 226.928C221.557 226.698 221.901 226.583 222.361 226.583C222.935 226.239 223.279 226.583 223.279 227.272ZM222.935 228.076V227.617H222.131C221.672 227.617 221.442 227.846 221.442 228.076C221.442 228.42 221.672 228.535 222.131 228.535C222.59 228.535 222.82 228.42 222.935 228.076Z" fill="#263238"/>
<path d="M225.575 228.65C225.46 228.765 225.231 228.879 225.001 228.879C224.542 228.879 224.312 228.65 224.312 228.191V226.698H223.853V226.354H224.312V225.78H224.657V226.354H225.46V226.698H224.657V228.191C224.657 228.535 224.771 228.65 225.116 228.65C225.231 228.65 225.345 228.65 225.46 228.535L225.575 228.65Z" fill="#263238"/>
<path d="M228.33 227.617H226.264C226.264 228.191 226.723 228.535 227.297 228.535C227.641 228.535 227.871 228.42 228.101 228.191L228.33 228.42C228.101 228.65 227.756 228.879 227.297 228.879C226.493 228.879 225.919 228.305 225.919 227.617C225.919 226.813 226.493 226.354 227.182 226.354C227.871 226.239 228.33 226.813 228.33 227.617ZM226.264 227.387H228.101C228.101 226.928 227.641 226.583 227.182 226.583C226.608 226.583 226.264 226.928 226.264 227.387Z" fill="#263238"/>
<path d="M270.462 231.979V237.375H269.888V232.438H268.625V231.979H270.462Z" fill="#263238"/>
<path d="M275.513 236.915V237.375H271.725V237.03L274.021 234.849C274.595 234.275 274.709 233.931 274.709 233.471C274.709 232.897 274.25 232.438 273.447 232.438C272.758 232.438 272.299 232.668 271.954 233.012L271.61 232.668C272.069 232.209 272.758 231.864 273.561 231.864C274.709 231.864 275.398 232.438 275.398 233.357C275.398 233.931 275.283 234.39 274.48 235.079L272.643 236.915H275.513Z" fill="#263238"/>
<path d="M279.761 235.882C279.761 236.801 279.072 237.489 277.809 237.489C277.005 237.489 276.317 237.26 275.857 236.801L276.087 236.341C276.431 236.686 277.12 236.915 277.809 236.915C278.727 236.915 279.187 236.456 279.187 235.767C279.187 235.079 278.727 234.734 277.694 234.734H277.35V234.275L278.842 232.438H276.087V231.979H279.531V232.323L278.039 234.275C279.187 234.39 279.761 235.079 279.761 235.882Z" fill="#263238"/>
<path d="M268.855 227.157C268.855 226.124 269.658 225.435 270.577 225.435C271.036 225.435 271.495 225.55 271.839 225.895L271.61 226.124C271.38 225.895 271.036 225.78 270.577 225.78C269.773 225.78 269.199 226.354 269.199 227.157C269.199 227.961 269.773 228.535 270.577 228.535C270.921 228.535 271.265 228.42 271.61 228.076L271.839 228.305C271.495 228.65 271.151 228.765 270.577 228.765C269.658 228.879 268.855 228.076 268.855 227.157Z" fill="#263238"/>
<path d="M277.235 225.435L276.087 228.765H275.743L274.709 225.895L273.676 228.765H273.332L272.184 225.435H272.528L273.447 228.305L274.48 225.435H274.824L275.857 228.305L276.891 225.435H277.235Z" fill="#263238"/>
<path d="M286.189 327.722H238.547C232.348 327.722 227.412 322.786 227.412 316.587C227.412 310.387 232.348 305.451 238.547 305.451H286.189C292.389 305.451 297.325 310.387 297.325 316.587C297.325 322.671 292.274 327.722 286.189 327.722Z" fill="#263238"/>
<path d="M190.331 292.593C192.053 319.112 179.77 348.501 179.77 348.501L113.53 329.904L101.935 326.689C113.415 310.732 118.926 279.277 115.941 253.906C115.711 251.954 115.597 250.232 115.482 248.51C114.334 227.502 123.059 221.417 130.406 212.119C138.442 202.131 156.351 164.247 156.351 155.293C156.351 146.338 178.737 124.411 173.8 99.4999C173.8 99.4999 180.573 95.2523 187.461 98.6963C190.561 100.303 193.661 103.403 196.186 109.143C202.041 122.804 193.775 161.377 186.887 170.791L173.456 226.469C173.456 226.469 177.933 234.275 182.41 248.51C185.739 259.531 189.183 274.455 190.331 292.593Z" fill="white"/>
<path opacity="0.4" d="M115.482 248.51C119.27 258.727 123.173 265.73 122.829 280.08C122.485 294.545 114.793 316.587 116.974 328.181C116.974 328.181 115.252 328.641 113.53 330.018L101.935 326.804C113.415 310.847 118.926 279.391 115.941 254.021C115.711 251.954 115.597 250.117 115.482 248.51Z" fill="#92E3A9"/>
<path opacity="0.4" d="M186.773 170.791L173.341 226.469C173.341 226.469 177.818 234.275 182.295 248.51C173.226 233.816 165.535 229.453 165.535 229.453C171.619 222.221 176.326 169.069 176.326 169.069C176.326 169.069 195.383 146.683 193.546 123.378C192.742 112.587 190.102 104.436 187.576 98.6963C190.676 100.303 193.775 103.403 196.301 109.143C201.926 122.804 193.661 161.377 186.773 170.791Z" fill="#92E3A9"/>
<path d="M102.05 326.689C113.53 310.732 119.041 279.391 116.056 253.906C113.071 228.535 122.485 222.106 130.521 212.119C138.442 202.131 156.465 164.247 156.465 155.293C156.465 146.338 178.851 124.411 173.915 99.4999C173.915 99.4999 188.265 90.6603 196.186 109.258C202.041 122.919 193.775 161.492 186.887 170.905L173.456 226.583C173.456 226.583 187.806 251.265 190.446 292.708C192.168 319.227 179.885 348.616 179.885 348.616" stroke="#263238" stroke-miterlimit="10" stroke-linecap="round" stroke-linejoin="round"/>
<path d="M146.248 369.739C146.248 369.739 161.287 379.038 170.127 393.732" stroke="#263238" stroke-miterlimit="10" stroke-linecap="round" stroke-linejoin="round"/>
<path d="M188.609 387.303C188.609 387.303 175.637 389.14 163.927 375.135C156.351 366.18 133.62 362.047 128.339 338.513" stroke="#263238" stroke-miterlimit="10" stroke-linecap="round" stroke-linejoin="round"/>
<path d="M125.47 157.015L70.5953 140.369C68.4141 139.68 67.2661 137.499 67.9549 135.318L77.7129 103.059C78.4017 100.878 80.5829 99.7296 82.7641 100.418L137.639 117.064C139.82 117.753 140.968 119.934 140.279 122.116L130.521 154.374C129.832 156.441 127.651 157.589 125.47 157.015Z" stroke="white" stroke-miterlimit="10"/>
<path d="M76.1057 108.454L138.672 127.511" stroke="white" stroke-miterlimit="10"/>
<path d="M74.1541 114.768L136.72 133.71" stroke="white" stroke-miterlimit="10"/>
<path d="M117.778 145.535C117.434 146.683 117.549 147.831 118.123 148.749C117.204 149.208 116.171 149.323 115.138 148.979C112.957 148.29 111.809 146.109 112.383 143.928C113.071 141.746 115.367 140.598 117.434 141.172C118.467 141.517 119.271 142.206 119.845 143.009C118.811 143.468 118.008 144.387 117.778 145.535Z" stroke="white" stroke-miterlimit="10"/>
<path d="M125.47 147.831C124.781 150.012 122.6 151.16 120.419 150.586C118.237 149.897 117.089 147.716 117.663 145.535C118.352 143.354 120.533 142.206 122.715 142.78C125.011 143.468 126.159 145.65 125.47 147.831Z" stroke="white" stroke-miterlimit="10"/>
<path d="M502.014 229.683L456.553 215.907C454.372 215.218 453.224 213.037 453.913 210.856L461.834 184.567C462.523 182.386 464.704 181.238 466.885 181.926L512.346 195.702C514.527 196.391 515.675 198.572 514.986 200.754L507.065 227.043C506.376 229.109 504.08 230.372 502.014 229.683Z" stroke="white" stroke-miterlimit="10"/>
<path d="M460.456 188.585L513.723 204.772" stroke="white" stroke-miterlimit="10"/>
<path d="M458.849 193.98L512.116 210.052" stroke="white" stroke-miterlimit="10"/>
<path d="M495.929 220.04C495.7 220.958 495.815 221.992 496.274 222.795C495.47 223.14 494.552 223.254 493.748 223.025C491.911 222.451 490.878 220.499 491.452 218.662C492.026 216.826 493.978 215.792 495.815 216.366C496.733 216.596 497.422 217.285 497.881 217.974C496.848 218.433 496.159 219.122 495.929 220.04Z" stroke="white" stroke-miterlimit="10"/>
<path d="M502.588 222.106C502.014 223.943 500.062 224.976 498.225 224.402C496.388 223.828 495.355 221.877 495.929 220.04C496.503 218.203 498.455 217.17 500.292 217.744C502.014 218.318 503.047 220.27 502.588 222.106Z" stroke="white" stroke-miterlimit="10"/>
<path d="M439.473 69.9228L372.986 100.366L388.804 134.914L455.292 104.471L439.473 69.9228Z" stroke="white" stroke-miterlimit="10"/>
<path d="M449.55 99.5L439.448 77.5732C437.496 78.4916 435.2 77.5732 434.282 75.6216L380.555 100.189C381.474 102.14 380.555 104.436 378.604 105.355L388.706 127.282C390.658 126.363 392.954 127.282 393.872 129.233L447.599 104.666C446.68 102.6 447.599 100.304 449.55 99.5Z" stroke="white" stroke-miterlimit="10"/>
<path d="M420.155 110.319C424.529 106.958 425.351 100.688 421.99 96.314C418.63 91.9398 412.36 91.1179 407.986 94.4782C403.612 97.8386 402.79 104.109 406.15 108.483C409.51 112.857 415.78 113.679 420.155 110.319Z" stroke="white" stroke-miterlimit="10"/>
<path d="M416.599 106.749L416.166 106.977L416.189 107.023L416.066 107.074C414.902 107.559 413.617 107.671 412.74 107.416V107.386C413.711 107.566 414.904 107.459 416.006 106.958L416.112 106.91L416.138 106.968L416.61 106.713C417.408 106.283 417.989 105.762 418.295 105.168C418.609 104.56 418.614 103.911 418.322 103.313C418.175 102.955 417.956 102.674 417.673 102.47C417.389 102.266 417.066 102.157 416.738 102.106C416.101 102.005 415.365 102.108 414.684 102.221L414.422 102.265L414.391 102.197L414.519 102.171C415.395 101.996 416.23 101.846 416.949 101.947C417.611 102.04 418.167 102.343 418.546 103.125C418.735 103.764 418.724 104.399 418.457 104.991C418.184 105.597 417.618 106.213 416.599 106.749ZM412.502 97.4332L412.321 97.5108L412.311 97.4901L412.443 97.4313C413.238 97.0779 414.204 96.9447 415.069 96.9789V97.0103C414.155 96.9767 413.252 97.1121 412.502 97.4332ZM411.899 97.7612L412.053 97.68L412.054 97.6809L411.644 97.9201C410.951 98.3243 410.45 98.8097 410.176 99.3584C410.432 98.8183 410.956 98.2574 411.899 97.7612Z" fill="#263238" stroke="white"/>
<path d="M71.3076 226.732L20.4106 231.132L22.7047 257.667L73.6016 253.267L71.3076 226.732Z" stroke="white" stroke-miterlimit="10"/>
<path d="M71.0545 248.625L69.5621 231.75C68.0697 231.864 66.6921 230.716 66.5773 229.224L25.4789 232.783C25.5937 234.275 24.4457 235.653 22.9533 235.768L24.4457 252.643C25.9381 252.528 27.3157 253.676 27.4305 255.169L68.5289 251.61C68.4141 250.003 69.4473 248.74 71.0545 248.625Z" stroke="white" stroke-miterlimit="10"/>
<path d="M53.9493 241.622C54.2937 245.411 51.4237 248.855 47.6353 249.199C43.8469 249.544 40.4029 246.674 40.0585 242.885C39.7141 239.097 42.5841 235.653 46.3725 235.308C50.2757 234.849 53.6049 237.719 53.9493 241.622Z" stroke="white" stroke-miterlimit="10"/>
<mask id="path-140-inside-1_0_238" fill="white">
<path d="M47.6353 245.985L47.7501 247.248H47.1761L47.0613 245.985C46.0281 245.985 44.9949 245.755 44.4209 245.181L44.6505 244.492C45.2245 244.952 46.1429 245.181 47.0613 245.181L46.8317 242.311C45.5689 242.082 44.3061 241.852 44.1913 240.474C44.0765 239.441 44.7653 238.408 46.3725 238.178L46.2577 236.916H46.8317L46.9465 238.178C47.7501 238.178 48.5537 238.293 49.2425 238.638L49.0129 239.326C48.3241 238.982 47.6353 238.867 47.0613 238.867L47.2909 241.737C48.5537 241.967 49.8165 242.196 50.0461 243.574C50.0461 244.837 49.3573 245.755 47.6353 245.985ZM46.7169 241.737L46.4873 238.982C45.3393 239.212 44.8801 239.786 44.9949 240.474C44.9949 241.393 45.7985 241.622 46.7169 241.737ZM49.1277 243.804C49.0129 243 48.2093 242.77 47.2909 242.541L47.5205 245.296C48.7833 245.181 49.2425 244.492 49.1277 243.804Z"/>
</mask>
<path d="M47.6353 245.985L47.7501 247.248H47.1761L47.0613 245.985C46.0281 245.985 44.9949 245.755 44.4209 245.181L44.6505 244.492C45.2245 244.952 46.1429 245.181 47.0613 245.181L46.8317 242.311C45.5689 242.082 44.3061 241.852 44.1913 240.474C44.0765 239.441 44.7653 238.408 46.3725 238.178L46.2577 236.916H46.8317L46.9465 238.178C47.7501 238.178 48.5537 238.293 49.2425 238.638L49.0129 239.326C48.3241 238.982 47.6353 238.867 47.0613 238.867L47.2909 241.737C48.5537 241.967 49.8165 242.196 50.0461 243.574C50.0461 244.837 49.3573 245.755 47.6353 245.985ZM46.7169 241.737L46.4873 238.982C45.3393 239.212 44.8801 239.786 44.9949 240.474C44.9949 241.393 45.7985 241.622 46.7169 241.737ZM49.1277 243.804C49.0129 243 48.2093 242.77 47.2909 242.541L47.5205 245.296C48.7833 245.181 49.2425 244.492 49.1277 243.804Z" fill="#263238"/>
<path d="M47.6353 245.985L47.5032 244.994L46.5526 245.12L46.6394 246.075L47.6353 245.985ZM47.7501 247.248V248.248H48.8452L48.746 247.157L47.7501 247.248ZM47.1761 247.248L46.1802 247.338L46.2629 248.248H47.1761V247.248ZM47.0613 245.985L48.0572 245.894L47.9746 244.985H47.0613V245.985ZM44.4209 245.181L43.4723 244.865L43.2768 245.451L43.7138 245.888L44.4209 245.181ZM44.6505 244.492L45.2752 243.711L44.1554 242.816L43.7019 244.176L44.6505 244.492ZM47.0613 245.181V246.181H48.1445L48.0582 245.101L47.0613 245.181ZM46.8317 242.311L47.8285 242.231L47.7672 241.465L47.0106 241.327L46.8317 242.311ZM44.1913 240.474L45.1879 240.391L45.1867 240.378L45.1852 240.364L44.1913 240.474ZM46.3725 238.178L46.514 239.168L47.4544 239.034L47.3684 238.088L46.3725 238.178ZM46.2577 236.916V235.916H45.1627L45.2618 237.006L46.2577 236.916ZM46.8317 236.916L47.8276 236.825L47.745 235.916H46.8317V236.916ZM46.9465 238.178L45.9506 238.269L46.0333 239.178H46.9465V238.178ZM49.2425 238.638L50.1912 238.954L50.4655 238.131L49.6897 237.743L49.2425 238.638ZM49.0129 239.326L48.5657 240.221L49.597 240.736L49.9616 239.643L49.0129 239.326ZM47.0613 238.867V237.867H45.9781L46.0645 238.947L47.0613 238.867ZM47.2909 241.737L46.2941 241.817L46.3554 242.583L47.112 242.721L47.2909 241.737ZM50.0461 243.574H51.0461V243.491L51.0325 243.41L50.0461 243.574ZM46.7169 241.737L46.5929 242.729L47.8158 242.882L47.7135 241.654L46.7169 241.737ZM46.4873 238.982L47.4839 238.899L47.3908 237.781L46.2912 238.001L46.4873 238.982ZM44.9949 240.474H45.9949V240.392L45.9813 240.31L44.9949 240.474ZM49.1277 243.804L48.1378 243.945L48.1394 243.956L48.1413 243.968L49.1277 243.804ZM47.2909 242.541L47.5335 241.571L46.1784 241.232L46.2944 242.624L47.2909 242.541ZM47.5205 245.296L46.524 245.379L46.6077 246.383L47.6111 246.292L47.5205 245.296ZM46.6394 246.075L46.7542 247.338L48.746 247.157L48.6312 245.894L46.6394 246.075ZM47.7501 246.248H47.1761V248.248H47.7501V246.248ZM48.172 247.157L48.0572 245.894L46.0654 246.075L46.1802 247.338L48.172 247.157ZM47.0613 244.985C46.0983 244.985 45.4111 244.757 45.128 244.474L43.7138 245.888C44.5787 246.753 45.958 246.985 47.0613 246.985V244.985ZM45.3696 245.497L45.5992 244.809L43.7019 244.176L43.4723 244.865L45.3696 245.497ZM44.0258 245.273C44.845 245.929 46.0215 246.181 47.0613 246.181V244.181C46.2643 244.181 45.604 243.975 45.2752 243.711L44.0258 245.273ZM48.0582 245.101L47.8285 242.231L45.8349 242.391L46.0645 245.261L48.0582 245.101ZM47.0106 241.327C46.3353 241.204 45.8725 241.111 45.5489 240.939C45.4088 240.865 45.3352 240.795 45.2921 240.734C45.2522 240.677 45.2036 240.58 45.1879 240.391L43.1948 240.557C43.2365 241.058 43.3888 241.505 43.6574 241.886C43.9228 242.263 44.2654 242.523 44.6132 242.707C45.2654 243.052 46.0654 243.188 46.6528 243.295L47.0106 241.327ZM45.1852 240.364C45.157 240.11 45.2254 239.873 45.3936 239.678C45.5639 239.48 45.8988 239.256 46.514 239.168L46.2311 237.188C45.239 237.33 44.426 237.737 43.8788 238.372C43.3295 239.009 43.1109 239.806 43.1975 240.585L45.1852 240.364ZM47.3684 238.088L47.2536 236.825L45.2618 237.006L45.3766 238.269L47.3684 238.088ZM46.2577 237.916H46.8317V235.916H46.2577V237.916ZM45.8358 237.006L45.9506 238.269L47.9424 238.088L47.8276 236.825L45.8358 237.006ZM46.9465 239.178C47.6685 239.178 48.2989 239.284 48.7953 239.532L49.6897 237.743C48.8086 237.303 47.8318 237.178 46.9465 237.178V239.178ZM48.2938 238.321L48.0642 239.01L49.9616 239.643L50.1912 238.954L48.2938 238.321ZM49.4601 238.432C48.6116 238.008 47.7653 237.867 47.0613 237.867V239.867C47.5053 239.867 48.0367 239.956 48.5657 240.221L49.4601 238.432ZM46.0645 238.947L46.2941 241.817L48.2877 241.657L48.0582 238.787L46.0645 238.947ZM47.112 242.721C47.7831 242.843 48.2546 242.937 48.5986 243.114C48.8625 243.25 49.0043 243.406 49.0597 243.738L51.0325 243.41C50.8584 242.365 50.2539 241.717 49.5133 241.336C48.8529 240.996 48.0615 240.861 47.4698 240.753L47.112 242.721ZM49.0461 243.574C49.0461 244.021 48.9283 244.299 48.7546 244.485C48.573 244.68 48.2154 244.899 47.5032 244.994L47.7675 246.976C48.7772 246.841 49.625 246.486 50.2184 245.848C50.8196 245.202 51.0461 244.39 51.0461 243.574H49.0461ZM47.7135 241.654L47.4839 238.899L45.4908 239.065L45.7204 241.82L47.7135 241.654ZM46.2912 238.001C45.6039 238.139 44.9789 238.405 44.5406 238.869C44.0687 239.369 43.9029 240.005 44.0085 240.639L45.9813 240.31C45.9744 240.268 45.9801 240.256 45.9785 240.262C45.9764 240.269 45.9749 240.263 45.9946 240.243C46.0442 240.19 46.2227 240.055 46.6835 239.963L46.2912 238.001ZM43.9949 240.474C43.9949 240.855 44.0798 241.222 44.2729 241.55C44.4648 241.876 44.7297 242.107 45.0028 242.268C45.512 242.569 46.1265 242.671 46.5929 242.729L46.841 240.745C46.6304 240.719 46.4541 240.689 46.3069 240.651C46.158 240.614 46.0692 240.575 46.0203 240.546C45.9777 240.521 45.9843 240.515 45.9968 240.536C46.0105 240.559 45.9949 240.553 45.9949 240.474H43.9949ZM50.1177 243.662C50.0056 242.877 49.5282 242.383 49.0027 242.086C48.5345 241.822 47.9681 241.679 47.5335 241.571L47.0484 243.511C47.5321 243.632 47.8268 243.719 48.0186 243.827C48.0998 243.873 48.1242 243.903 48.1277 243.908C48.1292 243.91 48.1295 243.91 48.1301 243.912C48.1307 243.913 48.1346 243.923 48.1378 243.945L50.1177 243.662ZM46.2944 242.624L46.524 245.379L48.5171 245.213L48.2875 242.458L46.2944 242.624ZM47.6111 246.292C48.4 246.22 49.0907 245.955 49.5667 245.453C50.059 244.933 50.2185 244.265 50.1141 243.639L48.1413 243.968C48.1518 244.031 48.1391 244.052 48.1148 244.077C48.0742 244.12 47.9038 244.257 47.43 244.3L47.6111 246.292Z" fill="white" mask="url(#path-140-inside-1_0_238)"/>
<path d="M486.057 85.3796C491.573 85.3796 496.044 80.908 496.044 75.392C496.044 69.876 491.573 65.4044 486.057 65.4044C480.541 65.4044 476.069 69.876 476.069 75.392C476.069 80.908 480.541 85.3796 486.057 85.3796Z" stroke="white" stroke-miterlimit="10"/>
<path d="M488.462 79.9398C488.562 79.8775 488.656 79.8102 488.743 79.7378C489.279 79.2943 489.541 78.6914 489.541 78.0324C489.541 77.6371 489.45 77.2878 489.269 76.9859C489.09 76.6868 488.839 76.4623 488.56 76.2882C488.022 75.952 487.311 75.7642 486.637 75.5957L486.327 75.5182V75.467L486.212 75.4364V74.818V70.9148V70.3778L485.677 70.416C485.573 70.4234 485.473 70.4334 485.375 70.4462C485.532 70.4185 485.699 70.3961 485.874 70.3793L486.245 70.344V70.6852V74.818V75.2021L486.617 75.3011C486.656 75.3115 486.695 75.3219 486.734 75.3322C487.578 75.5569 488.367 75.7671 488.967 76.1341C489.27 76.3197 489.503 76.5338 489.661 76.7914C489.814 77.0391 489.914 77.3527 489.919 77.77C489.812 78.521 489.514 79.1339 489.002 79.5769C488.847 79.7105 488.668 79.8327 488.462 79.9398ZM486.016 80.484V80.5184V80.539L485.751 80.5186C485.512 80.5003 485.274 80.4695 485.04 80.4277C485.297 80.4644 485.56 80.484 485.827 80.484H486.016ZM482.663 79.5082C482.825 79.6225 483.001 79.7302 483.187 79.8293C482.987 79.7275 482.81 79.6207 482.661 79.5125L482.663 79.5082ZM482.883 72.8664C482.883 72.3015 483.057 71.7956 483.423 71.3886C483.073 71.8098 482.916 72.3259 482.916 72.8664C482.916 73.626 483.273 74.169 483.797 74.5485C483.949 74.6586 484.116 74.7556 484.293 74.8422C484.091 74.7545 483.904 74.6573 483.737 74.5454C483.466 74.365 483.259 74.1552 483.117 73.8981C482.975 73.6418 482.883 73.3112 482.883 72.8664Z" fill="#263238" stroke="white"/>
<path d="M420.254 208.982C425.623 207.717 428.949 202.339 427.684 196.97C426.418 191.601 421.04 188.275 415.672 189.54C410.303 190.806 406.977 196.184 408.242 201.553C409.507 206.921 414.885 210.248 420.254 208.982Z" stroke="white" stroke-miterlimit="10"/>
<path d="M419.646 201.301C419.685 201.369 419.722 201.436 419.755 201.505C419.907 201.814 419.985 202.117 419.976 202.426C419.966 202.733 419.869 203.079 419.623 203.473L419.622 203.473L419.618 203.481C419.346 203.933 418.897 204.275 418.271 204.379C417.972 204.429 417.623 204.426 417.225 204.347C417.506 204.392 417.777 204.398 418.033 204.363C418.713 204.271 419.253 203.896 419.561 203.301C419.769 202.981 419.876 202.649 419.886 202.307C419.896 201.961 419.805 201.638 419.667 201.344C419.66 201.33 419.653 201.316 419.646 201.301ZM418.009 199.194L417.979 199.242L417.76 199.022C417.127 198.389 416.588 197.788 416.314 197.166C416.059 196.586 416.031 195.985 416.454 195.276C416.791 194.749 417.283 194.382 417.895 194.255C418.473 194.135 419.208 194.219 420.082 194.666C419.384 194.39 418.743 194.311 418.183 194.423C417.542 194.551 417.051 194.923 416.751 195.439C416.314 196.104 416.314 196.766 416.573 197.376C416.815 197.946 417.28 198.465 417.741 198.926L418.009 199.194ZM420.808 195.15L420.821 195.129L420.895 195.184C420.98 195.248 421.065 195.314 421.149 195.381C421.104 195.348 421.058 195.317 421.013 195.286L420.808 195.15ZM422.737 197.151C422.51 196.779 422.249 196.431 421.968 196.123C422.29 196.456 422.562 196.803 422.749 197.143L422.737 197.151ZM414.918 203.215L415.238 203.464L415.06 203.334C414.034 202.588 413.299 201.72 412.979 200.882C413.39 201.716 414.094 202.574 414.918 203.215Z" fill="#263238" stroke="white"/>
<path d="M274.71 6.51196C277.006 11.5632 274.824 17.418 269.773 19.714C264.722 22.01 258.867 19.8288 256.571 14.7776C254.275 9.72637 256.456 3.87156 261.508 1.57556C266.444 -0.720435 272.414 1.46076 274.71 6.51196Z" stroke="white" stroke-miterlimit="10"/>
<path d="M268.048 15.0239L267.801 15.1539L267.787 15.1241L268.045 14.9952C268.904 14.5656 269.498 14.0403 269.793 13.4315C270.094 12.8094 270.053 12.1647 269.771 11.5877C269.623 11.2293 269.405 10.9483 269.122 10.7447C268.838 10.5404 268.514 10.4322 268.187 10.3805C267.833 10.3247 267.449 10.3314 267.061 10.3679C267.535 10.3032 267.985 10.2784 268.398 10.3363C269.066 10.43 269.626 10.7378 270.005 11.5362C270.235 12.0949 270.233 12.6885 269.954 13.2697C269.669 13.864 269.073 14.4843 268.048 15.0239ZM267.304 15.3623L267.64 15.24L267.643 15.2478L267.4 15.3492C266.236 15.8342 264.951 15.9458 264.074 15.691V15.6612C265.039 15.844 266.219 15.7569 267.304 15.3623ZM262.968 10.7973C262.342 10.6931 261.835 10.3892 261.508 9.64478C261.264 9.05563 261.226 8.44821 261.455 7.87436C261.687 7.296 262.216 6.68584 263.233 6.15082L263.642 5.93578L263.64 5.93275L263.892 5.82087C264.687 5.46747 265.653 5.33428 266.518 5.36852V5.39994C265.604 5.36628 264.7 5.50166 263.951 5.82279L263.695 5.93278L263.687 5.9153L263.552 5.9939L263.481 6.02408L263.485 6.03269L263.207 6.19487C262.459 6.63147 261.935 7.16262 261.679 7.76604C261.42 8.377 261.458 9.01088 261.74 9.58684C261.88 9.92933 262.075 10.2071 262.332 10.4138C262.594 10.6243 262.892 10.7383 263.2 10.7928C263.379 10.8244 263.568 10.8365 263.763 10.8349C263.482 10.8482 263.216 10.8387 262.968 10.7973Z" fill="#263238" stroke="white"/>
<path d="M241.073 410.952C244.517 418.529 241.188 427.369 233.611 430.813C226.035 434.257 217.195 430.928 213.751 423.351C210.307 415.774 213.636 406.934 221.213 403.49C228.675 400.161 237.629 403.49 241.073 410.952Z" stroke="white" stroke-miterlimit="10"/>
<path d="M231.2 424.055L230.771 424.277L230.979 424.714L231.906 426.661L231.787 426.714L230.848 424.743L230.652 424.331L230.224 424.489C228.249 425.217 226.276 425.422 224.954 424.974L224.994 424.451C226.438 424.768 228.313 424.681 229.999 424.049L230.497 423.861L230.279 423.376L227.753 417.75L227.594 417.396L227.212 417.463C225.869 417.696 224.637 417.905 223.574 417.734C222.568 417.573 221.708 417.07 221.093 415.794C220.687 414.877 220.642 413.902 221.029 412.966C221.42 412.02 222.273 411.063 223.752 410.241L224.162 410.013L223.96 409.589L223.033 407.642L223.152 407.589L224.091 409.56L224.297 409.994L224.739 409.805C226.115 409.215 227.665 408.983 228.979 409.099V409.587C227.566 409.473 226.116 409.712 224.945 410.138L224.44 410.322L224.66 410.813L227.186 416.438L227.352 416.808L227.748 416.722C229.077 416.433 230.37 416.197 231.474 416.355C232.015 416.432 232.494 416.603 232.903 416.897C233.31 417.19 233.673 417.625 233.957 418.271L233.964 418.287L233.972 418.303C234.483 419.272 234.551 420.292 234.141 421.262C233.726 422.243 232.795 423.23 231.2 424.055ZM226.581 417.07L227.217 416.958L226.949 416.37L224.538 411.089L224.313 410.597L223.84 410.86C222.736 411.473 222.011 412.238 221.656 413.083C221.298 413.935 221.336 414.821 221.67 415.622L221.679 415.645L221.691 415.667C222.173 416.562 222.913 417.015 223.788 417.183C224.629 417.345 225.596 417.244 226.581 417.07ZM228.358 417.348L227.722 417.46L227.99 418.048L230.401 423.329L230.616 423.8L231.08 423.568C232.29 422.963 233.109 422.206 233.517 421.357C233.931 420.495 233.894 419.588 233.488 418.771C233.002 417.735 232.181 417.278 231.243 417.144C230.348 417.017 229.323 417.178 228.358 417.348Z" fill="#263238" stroke="white"/>
<path d="M26.1677 177.794C19.9685 183.304 10.4401 182.615 5.04453 176.416C-0.465867 170.217 0.222934 160.688 6.42213 155.293C12.6213 149.782 22.1497 150.471 27.5453 156.67C32.9409 162.87 32.3669 172.398 26.1677 177.794Z" stroke="white" stroke-miterlimit="10"/>
<path d="M10.8014 172.167L10.4787 171.83L10.12 172.129L8.42858 173.538L8.27428 173.362L9.85252 171.969L10.1988 171.664L9.92171 171.294C8.69433 169.658 7.97444 167.783 7.94537 166.369L8.44357 166.254C8.52678 167.769 9.22922 169.52 10.2628 170.967L10.5836 171.416L10.999 171.052L15.591 167.034L15.8874 166.775L15.7046 166.426C15.0658 165.206 14.5109 164.081 14.3803 163.024C14.3167 162.508 14.3568 162.022 14.5342 161.557C14.7115 161.093 15.0372 160.621 15.5871 160.15L15.5871 160.15L15.5892 160.148C16.3605 159.479 17.2919 159.133 18.3039 159.221C19.3205 159.308 20.4791 159.84 21.6814 161.042L22.0042 161.365L22.355 161.072L24.0464 159.663L24.2007 159.839L22.6225 161.232L22.258 161.553L22.5692 161.927C23.5533 163.108 24.1789 164.463 24.45 165.747L24.026 165.888C23.7138 164.509 23.0638 163.181 22.3148 162.218L21.989 161.799L21.5902 162.149L16.8834 166.282L16.588 166.542L16.7704 166.89C17.4076 168.106 17.9965 169.297 18.1684 170.422C18.3324 171.494 18.1159 172.488 17.125 173.389C16.3052 173.997 15.3217 174.294 14.2647 174.155C13.1969 174.015 12.0044 173.425 10.8014 172.167ZM16.1981 165.745L16.4979 166.307L16.9727 165.883L21.3351 161.979L21.729 161.627L21.3553 161.253C20.4384 160.336 19.4779 159.834 18.56 159.732C17.6354 159.629 16.8 159.94 16.1787 160.557C15.3682 161.304 15.1222 162.181 15.224 163.097C15.3215 163.975 15.7367 164.88 16.1981 165.745ZM16.4925 172.903L16.5056 172.893L16.518 172.881C17.3455 172.123 17.5563 171.232 17.4211 170.303C17.2929 169.421 16.8516 168.49 16.3977 167.582L16.105 166.997L15.6171 167.433L11.2547 171.337L10.8608 171.689L11.2346 172.063C12.1531 172.981 13.1111 173.479 14.0362 173.597C14.9671 173.716 15.8186 173.442 16.4925 172.903Z" fill="#263238" stroke="white"/>
<path d="M92.4073 299.367C94.9329 302.466 94.5885 307.058 91.4889 309.584C88.3893 312.11 83.7973 311.765 81.2717 308.666C78.7461 305.566 79.0905 300.974 82.1901 298.448C85.2897 295.923 89.8817 296.382 92.4073 299.367Z" stroke="white" stroke-miterlimit="10"/>
<mask id="path-153-inside-2_0_238" fill="white">
<path d="M89.6521 306.944L90.4557 307.977L89.9965 308.321L89.1929 307.288C88.2745 307.977 87.2413 308.321 86.4377 308.206L86.3229 307.518C87.0117 307.632 88.0449 307.288 88.7337 306.714L86.7821 304.418C85.6341 304.992 84.3713 305.451 83.4529 304.303C82.7641 303.5 82.7641 302.237 84.0269 301.089L83.2233 300.056L83.6825 299.711L84.4861 300.744C85.1749 300.17 85.9785 299.826 86.6673 299.826L86.8969 300.515C86.0933 300.63 85.4045 300.859 84.9453 301.318L86.8969 303.614C88.0449 303.04 89.3077 302.466 90.3409 303.614C91.0297 304.418 91.0297 305.681 89.6521 306.944ZM86.3229 303.844L84.4861 301.663C83.6825 302.466 83.6825 303.27 84.1417 303.844C84.7157 304.533 85.5193 304.303 86.3229 303.844ZM89.6521 304.188C89.0781 303.5 88.2745 303.844 87.3561 304.188L89.1929 306.37C90.1113 305.451 90.2261 304.648 89.6521 304.188Z"/>
</mask>
<path d="M89.6521 306.944L90.4557 307.977L89.9965 308.321L89.1929 307.288C88.2745 307.977 87.2413 308.321 86.4377 308.206L86.3229 307.518C87.0117 307.632 88.0449 307.288 88.7337 306.714L86.7821 304.418C85.6341 304.992 84.3713 305.451 83.4529 304.303C82.7641 303.5 82.7641 302.237 84.0269 301.089L83.2233 300.056L83.6825 299.711L84.4861 300.744C85.1749 300.17 85.9785 299.826 86.6673 299.826L86.8969 300.515C86.0933 300.63 85.4045 300.859 84.9453 301.318L86.8969 303.614C88.0449 303.04 89.3077 302.466 90.3409 303.614C91.0297 304.418 91.0297 305.681 89.6521 306.944ZM86.3229 303.844L84.4861 301.663C83.6825 302.466 83.6825 303.27 84.1417 303.844C84.7157 304.533 85.5193 304.303 86.3229 303.844ZM89.6521 304.188C89.0781 303.5 88.2745 303.844 87.3561 304.188L89.1929 306.37C90.1113 305.451 90.2261 304.648 89.6521 304.188Z" fill="#263238"/>
<path d="M89.6521 306.944L88.9764 306.206L88.2966 306.83L88.8628 307.558L89.6521 306.944ZM90.4557 307.977L91.0557 308.777L91.8699 308.166L91.2451 307.363L90.4557 307.977ZM89.9965 308.321L89.2072 308.935L89.8104 309.711L90.5965 309.121L89.9965 308.321ZM89.1929 307.288L89.9823 306.674L89.379 305.898L88.5929 306.488L89.1929 307.288ZM86.4377 308.206L85.4513 308.371L85.5717 309.093L86.2963 309.196L86.4377 308.206ZM86.3229 307.518L86.4873 306.531L85.1064 306.301L85.3365 307.682L86.3229 307.518ZM88.7337 306.714L89.3739 307.482L90.1497 306.836L89.4957 306.066L88.7337 306.714ZM86.7821 304.418L87.5441 303.77L87.0362 303.173L86.3349 303.524L86.7821 304.418ZM83.4529 304.303L84.2338 303.678L84.2232 303.665L84.2122 303.652L83.4529 304.303ZM84.0269 301.089L84.6996 301.829L85.3848 301.206L84.8163 300.475L84.0269 301.089ZM83.2233 300.056L82.6233 299.256L81.8092 299.866L82.434 300.67L83.2233 300.056ZM83.6825 299.711L84.4719 299.097L83.8686 298.322L83.0825 298.911L83.6825 299.711ZM84.4861 300.744L83.6968 301.358L84.3318 302.175L85.1263 301.513L84.4861 300.744ZM86.6673 299.826L87.616 299.51L87.3881 298.826H86.6673V299.826ZM86.8969 300.515L87.0383 301.505L88.2245 301.335L87.8456 300.199L86.8969 300.515ZM84.9453 301.318L84.2382 300.611L83.5861 301.263L84.1834 301.966L84.9453 301.318ZM86.8969 303.614L86.135 304.262L86.6428 304.859L87.3441 304.509L86.8969 303.614ZM90.3409 303.614L91.1002 302.964L91.0923 302.954L91.0842 302.945L90.3409 303.614ZM86.3229 303.844L86.8191 304.712L87.8603 304.117L87.0878 303.2L86.3229 303.844ZM84.4861 301.663L85.251 301.019L84.5493 300.185L83.779 300.956L84.4861 301.663ZM84.1417 303.844L83.3608 304.469L83.3671 304.476L83.3735 304.484L84.1417 303.844ZM89.6521 304.188L88.8839 304.829L88.9486 304.906L89.0274 304.969L89.6521 304.188ZM87.3561 304.188L87.005 303.252L85.679 303.749L86.5912 304.832L87.3561 304.188ZM89.1929 306.37L88.428 307.014L89.1297 307.847L89.9 307.077L89.1929 306.37ZM88.8628 307.558L89.6664 308.591L91.2451 307.363L90.4415 306.33L88.8628 307.558ZM89.8557 307.177L89.3965 307.521L90.5965 309.121L91.0557 308.777L89.8557 307.177ZM90.7859 307.707L89.9823 306.674L88.4036 307.902L89.2072 308.935L90.7859 307.707ZM88.5929 306.488C87.7978 307.084 87.0276 307.28 86.5791 307.216L86.2963 309.196C87.455 309.362 88.7512 308.869 89.7929 308.088L88.5929 306.488ZM87.4241 308.042L87.3093 307.353L85.3365 307.682L85.4513 308.371L87.4241 308.042ZM86.1585 308.504C86.718 308.597 87.3216 308.497 87.8446 308.323C88.38 308.144 88.9234 307.858 89.3739 307.482L88.0935 305.946C87.8552 306.144 87.5377 306.317 87.2121 306.425C86.8741 306.538 86.6166 306.553 86.4873 306.531L86.1585 308.504ZM89.4957 306.066L87.5441 303.77L86.0202 305.066L87.9718 307.362L89.4957 306.066ZM86.3349 303.524C85.7669 303.808 85.3179 303.982 84.9566 304.009C84.6818 304.03 84.4686 303.972 84.2338 303.678L82.672 304.928C83.3556 305.782 84.2331 306.069 85.1062 306.004C85.8929 305.945 86.6493 305.602 87.2293 305.312L86.3349 303.524ZM84.2122 303.652C84.0428 303.455 83.9659 303.218 83.9999 302.952C84.0349 302.679 84.2017 302.281 84.6996 301.829L83.3542 300.349C82.5893 301.044 82.1247 301.852 82.0162 302.698C81.9067 303.552 82.1743 304.348 82.6937 304.954L84.2122 303.652ZM84.8163 300.475L84.0127 299.442L82.434 300.67L83.2376 301.703L84.8163 300.475ZM83.8233 300.856L84.2825 300.511L83.0825 298.911L82.6233 299.256L83.8233 300.856ZM82.8932 300.325L83.6968 301.358L85.2755 300.13L84.4719 299.097L82.8932 300.325ZM85.1263 301.513C85.6972 301.037 86.2819 300.826 86.6673 300.826V298.826C85.6751 298.826 84.6527 299.304 83.8459 299.976L85.1263 301.513ZM85.7186 300.142L85.9482 300.831L87.8456 300.199L87.616 299.51L85.7186 300.142ZM86.7555 299.525C85.8808 299.65 84.9282 299.921 84.2382 300.611L85.6524 302.025C85.8809 301.797 86.3058 301.609 87.0383 301.505L86.7555 299.525ZM84.1834 301.966L86.135 304.262L87.6589 302.967L85.7073 300.671L84.1834 301.966ZM87.3441 304.509C87.9399 304.211 88.3927 304.009 88.783 303.961C89.0802 303.925 89.3202 303.975 89.5976 304.283L91.0842 302.945C90.3285 302.106 89.4204 301.869 88.5409 301.976C87.7546 302.072 87.002 302.444 86.4497 302.72L87.3441 304.509ZM89.5817 304.265C89.7483 304.46 89.823 304.688 89.7825 304.958C89.7394 305.245 89.548 305.682 88.9764 306.206L90.3278 307.681C91.1338 306.942 91.6312 306.116 91.7604 305.255C91.892 304.377 91.6223 303.573 91.1002 302.964L89.5817 304.265ZM87.0878 303.2L85.251 301.019L83.7212 302.307L85.558 304.488L87.0878 303.2ZM83.779 300.956C83.2623 301.472 82.9223 302.072 82.847 302.725C82.7702 303.39 82.9825 303.996 83.3608 304.469L84.9226 303.219C84.8417 303.118 84.8244 303.035 84.8338 302.954C84.8446 302.861 84.9063 302.657 85.1932 302.37L83.779 300.956ZM83.3735 304.484C83.8824 305.095 84.5505 305.323 85.2229 305.272C85.8211 305.226 86.3796 304.963 86.8191 304.712L85.8268 302.976C85.4626 303.184 85.2176 303.266 85.0695 303.277C85.0101 303.282 84.989 303.273 84.9865 303.272C84.9861 303.272 84.9592 303.263 84.9099 303.204L83.3735 304.484ZM90.4203 303.548C90.1712 303.249 89.8656 303.029 89.5085 302.905C89.1602 302.784 88.8197 302.774 88.5228 302.807C87.9797 302.867 87.4048 303.102 87.005 303.252L87.7072 305.125C87.9521 305.033 88.1456 304.958 88.333 304.896C88.5178 304.836 88.6482 304.805 88.7437 304.795C88.8343 304.785 88.8597 304.797 88.8522 304.794C88.8359 304.788 88.846 304.783 88.8839 304.829L90.4203 303.548ZM86.5912 304.832L88.428 307.014L89.9578 305.725L88.121 303.544L86.5912 304.832ZM89.9 307.077C90.4282 306.549 90.8391 305.946 90.9642 305.296C91.1039 304.569 90.8622 303.876 90.2768 303.407L89.0274 304.969C89.0435 304.982 89.0248 304.971 89.0109 304.933C88.9975 304.896 89.0069 304.883 89.0002 304.918C88.9817 305.014 88.876 305.272 88.4858 305.662L89.9 307.077Z" fill="white" mask="url(#path-153-inside-2_0_238)"/>
<path d="M317.645 448.722C320.171 451.821 319.826 456.413 316.727 458.939C313.627 461.464 309.035 461.12 306.509 458.02C303.984 454.921 304.328 450.329 307.428 447.803C310.527 445.278 315.119 445.622 317.645 448.722Z" stroke="white" stroke-miterlimit="10"/>
<mask id="path-156-inside-3_0_238" fill="white">
<path d="M314.89 456.184L315.693 457.217L315.234 457.561L314.431 456.528C313.512 457.217 312.479 457.561 311.675 457.446L311.561 456.758C312.249 456.872 313.283 456.528 313.971 455.954L312.02 453.658C310.872 454.232 309.609 454.691 308.691 453.543C308.002 452.74 308.002 451.477 309.265 450.329L308.461 449.296L308.92 448.951L309.724 449.984C310.413 449.41 311.216 449.066 311.905 449.066L312.135 449.755C311.331 449.87 310.642 450.099 310.183 450.558L312.135 452.854C313.283 452.28 314.545 451.706 315.579 452.854C316.267 453.658 316.153 454.921 314.89 456.184ZM311.561 453.084L309.724 450.903C308.92 451.706 308.92 452.51 309.379 453.084C309.953 453.773 310.757 453.543 311.561 453.084ZM314.89 453.428C314.316 452.74 313.512 453.084 312.594 453.428L314.431 455.61C315.349 454.806 315.349 454.002 314.89 453.428Z"/>
</mask>
<path d="M314.89 456.184L315.693 457.217L315.234 457.561L314.431 456.528C313.512 457.217 312.479 457.561 311.675 457.446L311.561 456.758C312.249 456.872 313.283 456.528 313.971 455.954L312.02 453.658C310.872 454.232 309.609 454.691 308.691 453.543C308.002 452.74 308.002 451.477 309.265 450.329L308.461 449.296L308.92 448.951L309.724 449.984C310.413 449.41 311.216 449.066 311.905 449.066L312.135 449.755C311.331 449.87 310.642 450.099 310.183 450.558L312.135 452.854C313.283 452.28 314.545 451.706 315.579 452.854C316.267 453.658 316.153 454.921 314.89 456.184ZM311.561 453.084L309.724 450.903C308.92 451.706 308.92 452.51 309.379 453.084C309.953 453.773 310.757 453.543 311.561 453.084ZM314.89 453.428C314.316 452.74 313.512 453.084 312.594 453.428L314.431 455.61C315.349 454.806 315.349 454.002 314.89 453.428Z" fill="#263238"/>
<path d="M314.89 456.184L314.183 455.476L313.558 456.101L314.1 456.798L314.89 456.184ZM315.693 457.217L316.293 458.017L317.107 457.406L316.483 456.603L315.693 457.217ZM315.234 457.561L314.445 458.175L315.048 458.951L315.834 458.361L315.234 457.561ZM314.431 456.528L315.22 455.914L314.617 455.138L313.831 455.728L314.431 456.528ZM311.675 457.446L310.689 457.611L310.809 458.333L311.534 458.436L311.675 457.446ZM311.561 456.758L311.725 455.771L310.344 455.541L310.574 456.922L311.561 456.758ZM313.971 455.954L314.612 456.722L315.387 456.076L314.733 455.306L313.971 455.954ZM312.02 453.658L312.782 453.01L312.274 452.413L311.573 452.764L312.02 453.658ZM308.691 453.543L309.471 452.918L309.461 452.905L309.45 452.892L308.691 453.543ZM309.265 450.329L309.937 451.069L310.622 450.446L310.054 449.715L309.265 450.329ZM308.461 449.296L307.861 448.496L307.047 449.106L307.672 449.91L308.461 449.296ZM308.92 448.951L309.709 448.337L309.106 447.562L308.32 448.151L308.92 448.951ZM309.724 449.984L308.934 450.598L309.569 451.415L310.364 450.753L309.724 449.984ZM311.905 449.066L312.854 448.75L312.626 448.066H311.905V449.066ZM312.135 449.755L312.276 450.745L313.462 450.575L313.083 449.439L312.135 449.755ZM310.183 450.558L309.476 449.851L308.824 450.503L309.421 451.206L310.183 450.558ZM312.135 452.854L311.373 453.502L311.88 454.099L312.582 453.749L312.135 452.854ZM315.579 452.854L316.338 452.204L316.33 452.194L316.322 452.185L315.579 452.854ZM311.561 453.084L312.057 453.952L313.098 453.357L312.325 452.44L311.561 453.084ZM309.724 450.903L310.489 450.259L309.787 449.425L309.017 450.196L309.724 450.903ZM309.379 453.084L308.598 453.709L308.605 453.716L308.611 453.724L309.379 453.084ZM314.89 453.428L315.671 452.804L315.664 452.796L315.658 452.788L314.89 453.428ZM312.594 453.428L312.243 452.492L310.917 452.989L311.829 454.072L312.594 453.428ZM314.431 455.61L313.666 456.254L314.322 457.033L315.089 456.362L314.431 455.61ZM314.1 456.798L314.904 457.831L316.483 456.603L315.679 455.57L314.1 456.798ZM315.093 456.417L314.634 456.761L315.834 458.361L316.293 458.017L315.093 456.417ZM316.023 456.947L315.22 455.914L313.641 457.142L314.445 458.175L316.023 456.947ZM313.831 455.728C313.035 456.324 312.265 456.52 311.817 456.456L311.534 458.436C312.693 458.602 313.989 458.109 315.031 457.328L313.831 455.728ZM312.662 457.282L312.547 456.593L310.574 456.922L310.689 457.611L312.662 457.282ZM311.396 457.744C311.956 457.837 312.559 457.737 313.082 457.563C313.618 457.384 314.161 457.098 314.612 456.722L313.331 455.186C313.093 455.384 312.775 455.557 312.45 455.665C312.112 455.778 311.854 455.793 311.725 455.771L311.396 457.744ZM314.733 455.306L312.782 453.01L311.258 454.306L313.209 456.602L314.733 455.306ZM311.573 452.764C311.005 453.048 310.556 453.222 310.194 453.249C309.919 453.27 309.706 453.212 309.471 452.918L307.91 454.168C308.593 455.022 309.471 455.309 310.344 455.244C311.131 455.185 311.887 454.842 312.467 454.552L311.573 452.764ZM309.45 452.892C309.28 452.695 309.204 452.458 309.238 452.192C309.273 451.919 309.439 451.521 309.937 451.069L308.592 449.589C307.827 450.284 307.362 451.092 307.254 451.938C307.144 452.792 307.412 453.588 307.931 454.194L309.45 452.892ZM310.054 449.715L309.25 448.682L307.672 449.91L308.475 450.943L310.054 449.715ZM309.061 450.096L309.52 449.751L308.32 448.151L307.861 448.496L309.061 450.096ZM308.131 449.565L308.934 450.598L310.513 449.37L309.709 448.337L308.131 449.565ZM310.364 450.753C310.935 450.277 311.52 450.066 311.905 450.066V448.066C310.913 448.066 309.89 448.544 309.084 449.216L310.364 450.753ZM310.956 449.382L311.186 450.071L313.083 449.439L312.854 448.75L310.956 449.382ZM311.993 448.765C311.118 448.89 310.166 449.161 309.476 449.851L310.89 451.265C311.119 451.037 311.543 450.849 312.276 450.745L311.993 448.765ZM309.421 451.206L311.373 453.502L312.896 452.207L310.945 449.911L309.421 451.206ZM312.582 453.749C313.177 453.451 313.63 453.249 314.021 453.201C314.318 453.165 314.558 453.215 314.835 453.523L316.322 452.185C315.566 451.346 314.658 451.109 313.779 451.216C312.992 451.312 312.24 451.684 311.687 451.96L312.582 453.749ZM314.819 453.505C314.96 453.67 315.032 453.881 314.981 454.174C314.926 454.491 314.714 454.945 314.183 455.476L315.597 456.891C316.328 456.159 316.805 455.351 316.951 454.519C317.101 453.664 316.885 452.843 316.338 452.204L314.819 453.505ZM312.325 452.44L310.489 450.259L308.959 451.547L310.796 453.728L312.325 452.44ZM309.017 450.196C308.5 450.712 308.16 451.312 308.085 451.965C308.008 452.63 308.22 453.236 308.598 453.709L310.16 452.459C310.079 452.358 310.062 452.275 310.071 452.194C310.082 452.101 310.144 451.897 310.431 451.61L309.017 450.196ZM308.611 453.724C309.12 454.335 309.788 454.563 310.461 454.512C311.059 454.466 311.617 454.203 312.057 453.952L311.064 452.216C310.7 452.424 310.455 452.506 310.307 452.517C310.248 452.522 310.227 452.513 310.224 452.512C310.224 452.512 310.197 452.503 310.148 452.444L308.611 453.724ZM315.658 452.788C315.409 452.489 315.103 452.269 314.746 452.145C314.398 452.024 314.057 452.014 313.76 452.047C313.217 452.107 312.642 452.342 312.243 452.492L312.945 454.365C313.19 454.273 313.383 454.198 313.571 454.136C313.755 454.076 313.886 454.045 313.981 454.035C314.072 454.025 314.097 454.037 314.09 454.034C314.074 454.028 314.084 454.023 314.122 454.069L315.658 452.788ZM311.829 454.072L313.666 456.254L315.195 454.965L313.359 452.784L311.829 454.072ZM315.089 456.362C315.667 455.857 316.062 455.258 316.165 454.585C316.271 453.896 316.048 453.276 315.671 452.804L314.109 454.053C314.19 454.155 314.197 454.224 314.188 454.281C314.177 454.354 314.113 454.559 313.772 454.857L315.089 456.362Z" fill="white" mask="url(#path-156-inside-3_0_238)"/>
<path d="M117.778 30.7348C120.304 33.8344 119.959 38.4264 116.86 40.952C113.76 43.4776 109.168 43.1332 106.643 40.0336C104.117 36.934 104.461 32.342 107.561 29.8164C110.546 27.176 115.138 27.6352 117.778 30.7348Z" stroke="white" stroke-miterlimit="10"/>
<mask id="path-159-inside-4_0_238" fill="white">
<path d="M115.023 38.1968L115.827 39.23L115.367 39.5744L114.564 38.5412C113.645 39.23 112.612 39.5744 111.809 39.4596L111.694 38.7708C112.383 38.8856 113.416 38.5412 114.105 37.9672L112.153 35.6712C111.005 36.2452 109.742 36.7044 108.824 35.5564C108.135 34.7528 108.135 33.49 109.398 32.342L108.594 31.3088L109.053 30.9644L109.857 31.9976C110.546 31.4236 111.349 31.0792 112.038 31.0792L112.268 31.768C111.464 31.8828 110.775 32.1124 110.316 32.5716L112.268 34.8676C113.416 34.2936 114.679 33.7196 115.712 34.8676C116.286 35.6712 116.286 36.934 115.023 38.1968ZM111.694 35.0972L109.857 32.916C109.053 33.7196 109.053 34.5232 109.513 35.0972C110.087 35.786 110.775 35.5564 111.694 35.0972ZM115.023 35.4416C114.449 34.7528 113.645 35.0972 112.727 35.4416L114.564 37.6228C115.482 36.8192 115.482 36.0156 115.023 35.4416Z"/>
</mask>
<path d="M115.023 38.1968L115.827 39.23L115.367 39.5744L114.564 38.5412C113.645 39.23 112.612 39.5744 111.809 39.4596L111.694 38.7708C112.383 38.8856 113.416 38.5412 114.105 37.9672L112.153 35.6712C111.005 36.2452 109.742 36.7044 108.824 35.5564C108.135 34.7528 108.135 33.49 109.398 32.342L108.594 31.3088L109.053 30.9644L109.857 31.9976C110.546 31.4236 111.349 31.0792 112.038 31.0792L112.268 31.768C111.464 31.8828 110.775 32.1124 110.316 32.5716L112.268 34.8676C113.416 34.2936 114.679 33.7196 115.712 34.8676C116.286 35.6712 116.286 36.934 115.023 38.1968ZM111.694 35.0972L109.857 32.916C109.053 33.7196 109.053 34.5232 109.513 35.0972C110.087 35.786 110.775 35.5564 111.694 35.0972ZM115.023 35.4416C114.449 34.7528 113.645 35.0972 112.727 35.4416L114.564 37.6228C115.482 36.8192 115.482 36.0156 115.023 35.4416Z" fill="#263238"/>
<path d="M115.023 38.1968L114.316 37.4897L113.692 38.1139L114.234 38.8107L115.023 38.1968ZM115.827 39.23L116.427 40.03L117.241 39.4193L116.616 38.616L115.827 39.23ZM115.367 39.5744L114.578 40.1883L115.181 40.9639L115.967 40.3744L115.367 39.5744ZM114.564 38.5412L115.353 37.9272L114.75 37.1516L113.964 37.7412L114.564 38.5412ZM111.809 39.4596L110.822 39.624L110.942 40.346L111.667 40.4495L111.809 39.4596ZM111.694 38.7708L111.858 37.7844L110.477 37.5542L110.707 38.9352L111.694 38.7708ZM114.105 37.9672L114.745 38.7354L115.52 38.0889L114.866 37.3195L114.105 37.9672ZM112.153 35.6712L112.915 35.0235L112.407 34.4261L111.706 34.7767L112.153 35.6712ZM108.824 35.5564L109.605 34.9317L109.594 34.9184L109.583 34.9056L108.824 35.5564ZM109.398 32.342L110.07 33.0819L110.756 32.459L110.187 31.728L109.398 32.342ZM108.594 31.3088L107.994 30.5088L107.18 31.1194L107.805 31.9227L108.594 31.3088ZM109.053 30.9644L109.843 30.3504L109.239 29.5748L108.453 30.1644L109.053 30.9644ZM109.857 31.9976L109.068 32.6115L109.703 33.4279L110.497 32.7658L109.857 31.9976ZM112.038 31.0792L112.987 30.7629L112.759 30.0792H112.038V31.0792ZM112.268 31.768L112.409 32.7579L113.595 32.5885L113.216 31.4517L112.268 31.768ZM110.316 32.5716L109.609 31.8644L108.957 32.5165L109.554 33.2192L110.316 32.5716ZM112.268 34.8676L111.506 35.5152L112.014 36.1126L112.715 35.762L112.268 34.8676ZM115.712 34.8676L116.525 34.2863L116.493 34.2405L116.455 34.1986L115.712 34.8676ZM111.694 35.0972L112.141 35.9916L113.276 35.4239L112.459 34.453L111.694 35.0972ZM109.857 32.916L110.622 32.2718L109.92 31.4385L109.15 32.2089L109.857 32.916ZM109.513 35.0972L108.732 35.7219L108.738 35.7297L108.744 35.7373L109.513 35.0972ZM115.023 35.4416L115.804 34.8169L115.798 34.8091L115.791 34.8014L115.023 35.4416ZM112.727 35.4416L112.376 34.5052L111.05 35.0025L111.962 36.0857L112.727 35.4416ZM114.564 37.6228L113.799 38.2669L114.455 39.0464L115.222 38.3753L114.564 37.6228ZM114.234 38.8107L115.037 39.8439L116.616 38.616L115.812 37.5828L114.234 38.8107ZM115.227 38.43L114.767 38.7744L115.967 40.3744L116.427 40.03L115.227 38.43ZM116.157 38.9604L115.353 37.9272L113.774 39.1551L114.578 40.1883L116.157 38.9604ZM113.964 37.7412C113.169 38.3375 112.398 38.5337 111.95 38.4696L111.667 40.4495C112.826 40.615 114.122 40.1224 115.164 39.3412L113.964 37.7412ZM112.795 39.2951L112.68 38.6063L110.707 38.9352L110.822 39.624L112.795 39.2951ZM111.529 39.7572C112.089 39.8504 112.692 39.7503 113.215 39.5759C113.751 39.3975 114.294 39.1108 114.745 38.7354L113.464 37.1989C113.226 37.3976 112.908 37.57 112.583 37.6786C112.245 37.7912 111.987 37.8059 111.858 37.7844L111.529 39.7572ZM114.866 37.3195L112.915 35.0235L111.391 36.3188L113.343 38.6148L114.866 37.3195ZM111.706 34.7767C111.138 35.0607 110.689 35.2352 110.327 35.2623C110.053 35.2829 109.839 35.2252 109.605 34.9317L108.043 36.1811C108.726 37.0356 109.604 37.3222 110.477 37.2567C111.264 37.1977 112.02 36.8556 112.6 36.5656L111.706 34.7767ZM109.583 34.9056C109.414 34.7079 109.337 34.471 109.371 34.2055C109.406 33.9326 109.573 33.5345 110.07 33.0819L108.725 31.602C107.96 32.2974 107.495 33.1047 107.387 33.9511C107.278 34.8049 107.545 35.6012 108.064 36.2072L109.583 34.9056ZM110.187 31.728L109.383 30.6948L107.805 31.9227L108.608 32.9559L110.187 31.728ZM109.194 32.1088L109.653 31.7644L108.453 30.1644L107.994 30.5088L109.194 32.1088ZM108.264 31.5783L109.068 32.6115L110.646 31.3836L109.843 30.3504L108.264 31.5783ZM110.497 32.7658C111.068 32.2901 111.653 32.0792 112.038 32.0792V30.0792C111.046 30.0792 110.023 30.557 109.217 31.2293L110.497 32.7658ZM111.089 31.3954L111.319 32.0842L113.216 31.4517L112.987 30.7629L111.089 31.3954ZM112.126 30.778C111.252 30.903 110.299 31.1745 109.609 31.8644L111.023 33.2787C111.252 33.0502 111.677 32.8626 112.409 32.7579L112.126 30.778ZM109.554 33.2192L111.506 35.5152L113.03 34.2199L111.078 31.9239L109.554 33.2192ZM112.715 35.762C113.311 35.4641 113.763 35.2621 114.154 35.2145C114.451 35.1782 114.691 35.2282 114.968 35.5365L116.455 34.1986C115.699 33.3589 114.791 33.1219 113.912 33.2292C113.125 33.3251 112.373 33.697 111.82 33.9731L112.715 35.762ZM114.898 35.4488C115.036 35.6424 115.114 35.898 115.067 36.2116C115.019 36.5305 114.83 36.9751 114.316 37.4897L115.73 38.9039C116.478 38.1556 116.921 37.3374 117.045 36.5083C117.17 35.6739 116.961 34.8963 116.525 34.2863L114.898 35.4488ZM112.459 34.453L110.622 32.2718L109.092 33.5601L110.929 35.7413L112.459 34.453ZM109.15 32.2089C108.633 32.7256 108.293 33.3252 108.218 33.978C108.141 34.6431 108.353 35.2489 108.732 35.7219L110.293 34.4725C110.213 34.3714 110.195 34.2884 110.205 34.2073C110.215 34.1139 110.277 33.91 110.564 33.6231L109.15 32.2089ZM108.744 35.7373C109.234 36.325 109.863 36.5797 110.554 36.5245C111.129 36.4784 111.691 36.2165 112.141 35.9916L111.246 34.2027C111.027 34.3123 110.85 34.3939 110.698 34.4504C110.545 34.5073 110.449 34.5264 110.394 34.5308C110.348 34.5345 110.346 34.5271 110.359 34.5326C110.37 34.5375 110.342 34.5307 110.281 34.457L108.744 35.7373ZM115.791 34.8014C115.542 34.5024 115.236 34.282 114.879 34.1579C114.531 34.0369 114.19 34.0272 113.894 34.0602C113.35 34.1206 112.776 34.3553 112.376 34.5052L113.078 36.3779C113.323 36.2861 113.516 36.2111 113.704 36.1497C113.889 36.0891 114.019 36.0586 114.114 36.048C114.205 36.0379 114.231 36.0498 114.223 36.0472C114.207 36.0415 114.217 36.0363 114.255 36.0817L115.791 34.8014ZM111.962 36.0857L113.799 38.2669L115.329 36.9786L113.492 34.7974L111.962 36.0857ZM115.222 38.3753C115.8 37.8698 116.195 37.2709 116.298 36.5981C116.404 35.9088 116.181 35.2889 115.804 34.8169L114.242 36.0663C114.324 36.1682 114.33 36.2371 114.322 36.294C114.31 36.3674 114.246 36.5721 113.905 36.8702L115.222 38.3753Z" fill="white" mask="url(#path-159-inside-4_0_238)"/>
<path opacity="0.2" d="M377.341 456.872C344.163 441.03 364.253 428.287 318.563 408.542C272.873 388.796 272.413 371.92 277.924 333.118C283.434 294.316 279.072 253.102 292.389 249.544C305.705 245.985 281.942 192.603 297.44 173.661L373.667 321.982L377.341 456.872Z" fill="black" fill-opacity="0.7"/>
<path d="M501.21 455.265C499.603 450.788 498.11 445.966 496.847 441.489C495.24 435.749 493.977 431.157 491.107 425.876C490.648 425.073 490.189 424.154 489.615 423.121C486.515 417.611 482.268 410.034 479.742 400.62C478.02 394.306 479.742 378.923 481.349 363.884C482.497 353.093 483.531 342.991 483.186 337.136L483.071 335.07C482.268 320.031 480.661 288.576 477.331 279.966C474.117 271.585 471.017 270.322 465.392 268.141C464.818 267.912 464.244 267.682 463.555 267.338C461.489 266.419 457.93 264.582 453.797 262.516C444.499 257.694 433.019 251.725 427.164 250.921C419.472 249.888 412.01 251.38 410.747 251.725C403.515 246.214 391.346 239.097 387.673 238.982C384.688 238.867 378.144 240.704 375.045 241.737C374.356 241.967 373.782 242.196 373.437 242.196C370.797 240.245 368.616 238.752 367.123 238.064C367.009 237.949 366.779 237.949 366.664 237.834C362.646 236.112 356.447 236.112 353.118 236.227C352.085 236.227 351.281 236.342 350.937 236.342C344.623 226.698 338.423 216.94 335.783 212.808C330.158 203.853 312.708 167.232 312.593 166.888C312.593 166.773 312.479 166.773 312.364 166.658C312.364 166.658 312.364 166.658 312.249 166.658C310.871 166.314 300.884 163.673 296.866 173.431C292.503 183.993 298.703 207.068 304.902 215.448C307.887 219.466 315.808 235.997 323.959 252.988C321.892 254.939 305.131 270.322 296.981 273.307C290.322 275.603 291.929 309.699 293.192 337.136C293.651 347.238 294.111 355.963 293.996 361.129C293.766 371.232 312.134 385.122 329.928 398.554C346 410.723 362.646 423.351 364.598 432.535C365.172 435.06 366.664 437.242 368.501 439.538C371.601 443.441 375.504 448.033 377.226 456.758C377.685 459.398 381.933 462.842 385.262 468.352H505.917C504.998 465.827 503.161 460.89 501.21 455.265ZM333.946 273.766C339.801 286.05 343.36 293.282 344.278 294.086C345.082 294.89 345.082 298.793 345.082 302.581C345.082 305.91 344.967 309.469 345.426 312.454C344.049 313.717 334.979 321.868 333.257 328.526L325.566 319.572L323.614 291.331C324.762 290.183 332.569 281.802 333.946 273.766Z" fill="white"/>
<path opacity="0.4" d="M466.54 352.404C469.41 378.923 469.41 393.158 472.625 400.85C478.02 413.822 485.941 416.348 485.941 416.348C483.645 411.871 481.349 406.59 479.742 400.62C478.02 394.306 479.742 378.923 481.349 363.884C482.497 353.093 483.531 342.991 483.301 337.136L483.186 335.07C482.383 320.031 480.775 288.69 477.446 279.966C474.232 271.585 471.132 270.322 465.507 268.141C464.933 267.912 464.359 267.682 463.67 267.338C461.604 266.419 458.045 264.582 453.912 262.516C444.613 257.694 433.133 251.725 427.279 251.036C419.587 250.003 412.125 251.495 410.862 251.84C403.63 246.329 391.461 239.212 387.787 239.097C384.803 238.982 376.767 241.278 373.552 242.311C387.328 253.562 407.189 267.567 407.189 267.567C422.916 270.667 420.85 277.555 427.164 281.343C432.904 284.787 438.414 274.685 443.236 273.766C449.55 272.618 456.782 279.277 456.438 287.428C455.519 309.814 464.129 329.674 466.54 352.404Z" fill="#92E3A9"/>
<path opacity="0.4" d="M387.213 270.437C387.213 270.437 374.815 260.105 368.845 256.661C362.876 253.217 361.957 241.393 366.664 238.408C366.779 238.293 367.009 238.293 367.238 238.178C367.123 238.064 366.894 238.064 366.779 237.949C362.761 236.227 356.562 236.227 353.233 236.342C360.121 249.199 365.631 258.957 367.123 261.138C372.175 268.486 387.213 270.437 387.213 270.437Z" fill="#92E3A9"/>
<path opacity="0.4" d="M368.386 431.042C368.96 428.287 364.368 420.251 362.417 417.037C357.939 409.575 305.476 363.31 313.053 350.912C320.629 338.514 327.517 347.698 332.339 348.501C335.783 349.075 345.197 343.45 345.197 342.991C344.163 333.462 352.888 327.263 352.888 327.263C352.888 327.263 352.085 289.379 350.018 290.068C347.952 290.757 323.844 233.127 323.844 233.127C323.844 233.127 298.243 199.146 299.736 183.304C301.228 167.576 312.364 167.232 312.364 167.232V166.773C310.986 166.428 300.999 163.788 296.981 173.546C292.618 184.108 298.817 207.182 305.017 215.563C308.001 219.581 315.923 236.112 324.073 253.102C322.007 255.054 305.246 270.437 297.095 273.422C290.437 275.718 292.044 309.814 293.307 337.251C293.766 347.353 294.225 356.078 294.111 361.244C293.881 371.346 312.249 385.237 330.043 398.669C346.115 410.838 362.761 423.466 364.713 432.65C365.287 435.175 366.779 437.356 368.616 439.652C368.271 436.208 368.042 432.535 368.386 431.042ZM333.946 273.766C339.801 286.05 343.36 293.282 344.278 294.086C345.082 294.89 345.082 298.793 345.082 302.581C345.082 305.91 344.967 309.469 345.426 312.454C344.049 313.717 334.979 321.868 333.257 328.526L325.566 319.572L323.614 291.331C324.762 290.183 332.569 281.802 333.946 273.766Z" fill="#92E3A9"/>
<path d="M380.096 270.208C380.096 270.208 372.404 268.141 367.238 261.138C361.957 254.136 341.408 222.106 335.668 213.037C329.928 203.968 312.364 167.232 312.364 167.232C312.364 167.232 301.573 163.673 297.325 173.661C293.077 183.763 298.932 206.494 305.246 215.333C311.675 224.058 342.097 291.675 344.508 293.856C346.919 296.038 343.245 314.061 348.181 318.424" stroke="#263238" stroke-miterlimit="10" stroke-linecap="round" stroke-linejoin="round"/>
<path d="M345.771 312.684C345.771 312.684 334.635 322.442 333.372 329.444L325.107 319.686L323.155 291.216C323.155 291.216 333.143 281.228 333.717 272.389" stroke="#263238" stroke-miterlimit="10" stroke-linecap="round" stroke-linejoin="round"/>
<path d="M324.533 253.217C324.533 253.217 306.05 270.667 297.21 273.766C288.371 276.866 294.799 342.302 294.34 361.244C293.881 380.186 360.924 413.134 364.942 432.535C366.549 440.226 373.323 441.834 377.455 456.643" stroke="#263238" stroke-miterlimit="10" stroke-linecap="round" stroke-linejoin="round"/>
<path d="M350.937 236.916C350.937 236.916 361.039 235.997 366.664 238.408C372.289 240.819 395.364 260.564 400.875 264.353C406.385 268.141 414.765 269.519 416.373 273.652" stroke="#263238" stroke-miterlimit="10" stroke-linecap="round" stroke-linejoin="round"/>
<path d="M373.437 242.77C373.437 242.77 383.769 239.326 387.673 239.556C391.576 239.671 406.5 248.51 413.158 254.365C419.817 260.22 426.475 263.434 430.493 264.927" stroke="#263238" stroke-miterlimit="10" stroke-linecap="round" stroke-linejoin="round"/>
<path d="M410.747 252.299C410.747 252.299 418.783 250.347 427.164 251.495C435.544 252.643 456.667 265.042 463.441 267.797C470.214 270.552 473.428 271.126 476.872 280.195C480.431 289.264 482.038 323.59 482.727 337.251C483.416 350.797 476.413 389.829 479.283 400.735C482.153 411.641 487.549 420.136 490.648 425.991" stroke="#263238" stroke-miterlimit="10" stroke-linecap="round" stroke-linejoin="round"/>
<path d="M323.155 291.216C323.155 291.216 321.433 284.558 319.252 283.639" stroke="#263238" stroke-miterlimit="10" stroke-linecap="round" stroke-linejoin="round"/>
<path d="M325.107 319.686C325.107 319.686 326.599 327.148 328.206 331.281C329.813 335.414 327.288 341.269 327.288 341.269" stroke="#263238" stroke-miterlimit="10" stroke-linecap="round" stroke-linejoin="round"/>
<path d="M333.372 329.444C333.143 335.988 339.571 343.565 341.179 342.532" stroke="#263238" stroke-miterlimit="10" stroke-linecap="round" stroke-linejoin="round"/>
<path d="M366.435 291.216C366.435 291.216 373.437 279.966 380.096 279.392C386.754 278.818 394.446 288.346 398.579 287.428C402.711 286.509 407.877 280.425 414.765 279.392C421.653 278.244 424.983 281.573 430.493 281.917C436.003 282.147 436.577 274.8 443.121 273.881C449.779 272.848 451.961 276.177 456.323 276.981C460.685 277.784 461.833 274.34 465.392 272.389" stroke="#263238" stroke-miterlimit="10" stroke-linecap="round" stroke-linejoin="round"/>
</svg>
